<?xml version="1.0" encoding="UTF-8"?><svg xmlns="http://www.w3.org/2000/svg" version="1.2" baseProfile="tiny-ps" xml:space="preserve" viewBox="0 0 512 512"><title>Syslifters</title><rect width="512" height="512" fill="#fff"/><path d="M411.228,114.505c-3.009,-19.826 -10.916,-37.439 -23.779,-52.799c-9.667,-11.545 -21.183,-20.927 -33.977,-28.804c-0.62,-0.384 -1.298,-0.836 -1.986,-0.895c-0.649,-0.059 -1.554,0.157 -1.977,0.6c-0.826,0.865 -1.485,1.937 -2.046,2.999c-3.226,6.038 -6.402,12.106 -9.608,18.144c-27.722,52.249 -54.855,104.812 -82.941,156.874c-13.345,24.743 -26.237,49.721 -39.327,74.602c-6.146,11.693 -11.732,23.651 -16.541,35.954c-6.864,17.593 -12.116,35.609 -14.496,54.412c-2.763,21.753 -0.698,42.926 7.022,63.489c0.944,2.518 1.977,5.006 3.176,7.405c6.51,13.001 14.918,24.654 25.038,35.078c7.208,7.435 15.666,13.178 24.556,18.439c0.728,-0.482 1.514,-0.747 1.868,-1.288c0.934,-1.426 1.691,-2.97 2.488,-4.484c41.008,-77.857 82.017,-155.714 123.015,-233.571c1.023,-1.947 1.957,-3.934 2.911,-5.92c1.475,-3.088 2.813,-6.235 4.396,-9.264c6.697,-12.784 12.912,-25.795 18.124,-39.258c6.913,-17.839 12.263,-36.091 14.456,-55.179c1.406,-12.184 1.475,-24.359 -0.374,-36.534Z" fill-rule="nonzero" fill="#3facaf"/><path d="M189.341,233.114c3.117,3.58 9.205,3.57 12.342,-0.059c1.101,-1.278 1.996,-2.763 2.813,-4.258c7.739,-14.132 15.469,-28.273 23.14,-42.454c1.16,-2.134 2.144,-4.386 2.98,-6.677c1.898,-5.212 1.957,-10.483 0.325,-15.813c-1.072,-3.53 -2.567,-6.845 -4.298,-10.08c-7.474,-14.004 -14.918,-28.017 -22.353,-42.041c-6.402,-12.076 -12.765,-24.182 -19.177,-36.258c-1.141,-2.154 -2.38,-4.268 -3.727,-6.294c-1.701,-2.557 -4.111,-4.199 -7.199,-4.553c-2.665,-0.305 -5.34,-0.57 -8.025,-0.59c-8.792,-0.069 -17.583,-0.03 -26.375,-0.03l0,-0.01l-25.638,0c-1.711,0 -3.432,-0.089 -5.124,0.108c-1.426,0.167 -2.881,0.531 -4.209,1.082c-1.937,0.797 -3.029,2.4 -3.334,4.484c-0.285,1.977 -0.089,3.914 0.826,5.714c0.993,1.957 2.046,3.894 3.098,5.812c25.972,47.302 51.944,94.604 77.906,141.907c1.17,2.144 2.291,4.317 3.53,6.422c0.747,1.249 1.544,2.498 2.498,3.589Z" fill-rule="nonzero" fill="#3facaf"/></svg>
