<?xml version="1.0" encoding="utf-8"?>
<!-- Generator: Adobe Illustrator 16.0.3, SVG Export Plug-In . SVG Version: 6.00 Build 0)  -->
<!DOCTYPE svg PUBLIC "-//W3C//DTD SVG 1.1//EN" "http://www.w3.org/Graphics/SVG/1.1/DTD/svg11.dtd">
<svg version="1.1" id="Ebene_1" xmlns="http://www.w3.org/2000/svg" xmlns:xlink="http://www.w3.org/1999/xlink" x="0px" y="0px"
	 width="549px" height="205.546px" viewBox="0 0 549 205.546" enable-background="new 0 0 549 205.546" xml:space="preserve">
<path fill="#004786" d="M531.466,170.998c0.345-3.646,2.364-4.976,4.828-4.976c2.658,0,4.63,1.429,4.679,4.976H531.466z
	 M525.406,173.412c0,6.995,3.844,12.364,11.526,12.364c3.4,0,6.454-0.889,9.508-3.007l-2.168-3.939
	c-2.364,1.428-4.63,2.119-6.945,2.119c-2.658,0-5.517-1.281-5.961-5.961h15.32c0.149-0.492,0.197-1.774,0.197-2.514
	c0-6.058-3.251-11.28-10.492-11.28C529.199,161.194,525.406,166.417,525.406,173.412 M505.406,179.372v-11.281
	c1.035-1.084,2.66-2.068,4.483-2.068c3.35,0,5.222,2.267,5.222,7.586c0,4.826-2.266,7.341-5.222,7.341
	C508.018,180.949,506.541,180.307,505.406,179.372 M505.406,183.953c1.527,1.133,3.153,1.823,5.665,1.823
	c5.714,0,9.901-5.123,9.901-12.168c0-7.095-3.646-12.414-9.753-12.414c-2.709,0-4.925,1.231-6.305,2.856h-0.197l-0.444-2.314h-4.433
	v32.658h5.565V183.953z M478.709,179.372v-11.281c1.033-1.084,2.659-2.068,4.481-2.068c3.351,0,5.222,2.267,5.222,7.586
	c0,4.826-2.266,7.341-5.222,7.341C481.318,180.949,479.842,180.307,478.709,179.372 M478.709,183.953
	c1.526,1.133,3.151,1.823,5.665,1.823c5.714,0,9.9-5.123,9.9-12.168c0-7.095-3.645-12.414-9.754-12.414
	c-2.709,0-4.926,1.231-6.305,2.856h-0.197l-0.443-2.314h-4.434v32.658h5.567V183.953z M446.789,176.465
	c0,6.355,3.35,9.312,8.028,9.312c2.857,0,5.074-1.43,6.7-3.302h0.197l0.442,2.76h4.434v-23.498h-5.566v16.354
	c-1.33,1.577-3.3,2.858-5.123,2.858c-2.414,0-3.547-1.233-3.547-4.927v-14.286h-5.565V176.465z M429.302,185.234h5.565v-12.809
	c0-3.645,2.661-6.403,5.37-6.403c0.689,0,1.33,0.05,1.822,0.196l0.987-4.581c-0.74-0.296-1.431-0.443-2.612-0.443
	c-2.709,0-5.025,2.068-6.01,3.989h-0.197l-0.443-3.447h-4.482V185.234z M395.608,169.273c0,9.703,4.729,16.503,14.827,16.503
	c4.926,0,8.67-1.677,11.921-3.941v-13.004h-9.9v4.039h4.777v6.207c-1.872,1.034-3.94,1.675-6.453,1.675
	c-6.156,0-9.015-4.287-9.015-11.626c0-6.848,2.808-11.428,9.114-11.428c3.103,0,5.27,0.787,8.127,2.56l2.71-3.939
	c-3.251-2.364-6.749-3.646-10.837-3.646C400.534,152.672,395.608,159.52,395.608,169.273"/>
<path fill="#95C11F" d="M61.903,68.582c0-5.687-5.422-10.295-12.111-10.295s-12.111,4.608-12.111,10.295s5.422,10.295,12.111,10.295
	S61.903,74.269,61.903,68.582 M113.982,54.438c0-7.959-7.592-14.412-16.955-14.412c-9.365,0-16.956,6.453-16.956,14.412
	S87.663,68.85,97.027,68.85C106.391,68.85,113.982,62.396,113.982,54.438 M264.258,28.249C264.258,12.646,249.378,0,231.024,0
	c-12.193,0-22.822,5.598-28.602,13.92l-0.009-0.04c-10.721,15.423-21.492,16.39-34.45,9.883l0.004,0.024
	c-3.54-1.786-7.662-2.829-12.08-2.829c-13.109,0-23.739,9.033-23.739,20.175c0,11.145,10.63,20.178,23.739,20.178
	c7.649,0,14.434-3.087,18.775-7.861l0.007,0.024c9.206-10.123,19.357-13.832,36.031-2.875l-0.009-0.04
	c5.623,3.709,12.664,5.938,20.333,5.938C249.378,56.497,264.258,43.851,264.258,28.249"/>
<path fill="#004786" d="M99.469,96.163c0.076-0.165,0.122-0.348,0.122-0.542c0-0.719-0.584-1.303-1.303-1.303
	c-0.006,0-0.012,0.002-0.019,0.002l-0.001-0.002H79.9c-3.737,0-6.883,1.976-8.125,4.77l-21.963,58.971
	c0,0-21.939-58.977-21.988-59.025c-1.266-2.755-4.435-4.716-8.138-4.716H1.297l-0.002,0.001C0.579,94.324,0,94.905,0,95.621
	c0,0.185,0.04,0.361,0.11,0.521c4.69,12.572,32.072,85.972,32.28,86.541c0.302,0.825,0.747,1.479,1.619,1.929
	c1.347,0.696,2.517,0.655,4.713,0.655h22.176c2.196,0,3.367,0.041,4.713-0.655c0.873-0.449,1.317-1.104,1.619-1.929
	c0.014-0.036,0.141-0.38,0.362-0.981l0.008-0.006L99.469,96.163z M165.944,157.286c0,6.742-3.838,10.56-12.153,10.56h-15.178
	v-21.498h14.41c9.209,0,12.921,3.562,12.921,10.431V157.286z M164.154,121.159c0,6.488-3.072,9.287-11.26,9.287h-14.281V111.62
	h14.281c7.933,0,11.26,2.798,11.26,9.031V121.159z M191.786,159.958v-0.51c0-12.594-7.038-19.335-18.293-21.242
	c10.234-2.672,15.479-9.414,15.479-19.59v-0.511c0-14.12-9.212-23.786-30.833-23.786h-43.392c-0.95,0-1.72,0.77-1.72,1.72
	c0,0.001,0.001,0.003,0.001,0.005v87.504c0,0.002-0.001,0.004-0.001,0.006c0,0.949,0.77,1.718,1.72,1.718h43.777
	C181.168,185.271,191.786,176.24,191.786,159.958 M297.38,95.621c0-0.719-0.583-1.303-1.303-1.303c-0.006,0-0.012,0.002-0.018,0.002
	l-0.001-0.002H277.69c-3.738,0-6.883,1.976-8.126,4.77l-21.963,58.971c0,0-21.939-58.977-21.987-59.025
	c-1.266-2.755-4.436-4.716-8.138-4.716h-18.39l-0.002,0.001c-0.716,0.005-1.294,0.586-1.294,1.302c0,0.185,0.04,0.361,0.109,0.52
	c4.69,12.572,32.072,85.973,32.28,86.542c0.303,0.825,0.747,1.479,1.62,1.929c1.346,0.696,2.517,0.655,4.713,0.655h22.175
	c2.196,0,3.367,0.041,4.713-0.655c0.873-0.449,1.317-1.104,1.62-1.929c0.013-0.036,0.14-0.38,0.361-0.981l0.008-0.006l31.87-85.533
	C297.335,95.998,297.38,95.814,297.38,95.621"/>
<rect x="345.826" y="73.728" fill="#004786" width="2.396" height="132.135"/>
<rect fill="none" width="725.792" height="270.546"/>
</svg>
