<svg width="842" height="596" viewBox="0 0 842 596" fill="none" xmlns="http://www.w3.org/2000/svg">
<path d="M291.1 451.4C307.3 481.3 332.5 500 364.8 509.4C370.9 511.2 377.4 511.6 383.8 512.6C385.1 512.8 386.6 512.6 387.9 512.2C388.6 512 389.6 511.1 389.7 510.4C390.1 506.8 390.5 503.1 390.6 499.5C391.2 451.7 391.7 404 392.2 356.2C392.2 356.2 392.2 356.2 392.3 356.2C392.3 350.2 392.3 344.3 392.3 338.3C392.3 300.6 392.5 263 392.5 225.3C392.5 202.3 390.1 179.5 384.6 157.1C380.9 142.3 375.6 128.2 367.8 115.1C356.7 96.4997 341.5 82.1997 321.7 73.0997C311.2 68.1997 300.2 64.8997 288.8 63.2997C271.3 60.8997 271.8 59.8997 271.7 77.2997C271.4 127.4 271 177.4 270.6 227.5C270.6 234.4 270.4 241.3 270.4 248.2C270 282.2 269.4 316.1 269.2 350.1C269.2 368 271.1 385.9 274.5 403.5C277.8 420.2 282.9 436.4 291.1 451.5V451.4Z" fill="rgb(230, 107, 0)"/>
<path d="M615.7 395.7C616.1 392.7 614 390.5 610.8 390.3C608.1 390.1 605.3 390 602.5 390C582.3 389.8 562.1 389.6 541.9 389.4V389C520.3 389 498.7 389.2 477.2 389C466.5 388.9 457.6 392.9 449.3 399.1C443.6 403.4 439.9 409.2 438.3 416.1C437.4 419.6 437.3 423.4 437.3 427C437 450.9 436.7 474.7 436.5 498.6C436.5 501.3 436.7 504.1 436.8 506.8C436.8 508.4 438.7 510.1 440.4 510.3C441.3 510.3 442.2 510.6 443.1 510.6C463.3 511 483.5 510.2 503.5 506.6C521.2 503.5 538.4 498.6 554.5 490.5C585.5 474.8 604.9 449.9 612.6 416.1C614.1 409.4 614.8 402.5 615.7 395.7Z" fill="rgb(230, 107, 0)"/>
</svg>
