<?xml version="1.0" encoding="UTF-8" standalone="no"?>
<!DOCTYPE svg PUBLIC "-//W3C//DTD SVG 1.1//EN" "http://www.w3.org/Graphics/SVG/1.1/DTD/svg11.dtd">
<!-- Created with Vectornator (http://vectornator.io/) -->
<svg height="100%" stroke-miterlimit="10" style="fill-rule:nonzero;clip-rule:evenodd;stroke-linecap:round;stroke-linejoin:round;" version="1.1" viewBox="0 0 1190.55 841.89" width="100%" xml:space="preserve" xmlns="http://www.w3.org/2000/svg" xmlns:vectornator="http://vectornator.io" xmlns:xlink="http://www.w3.org/1999/xlink">
<defs/>
<g id="Untitled" vectornator:layerName="Untitled">
<g opacity="1" vectornator:layerName="g">
<path d="M464.29 221.152C454.46 209.412 442.75 199.872 429.74 191.862C429.11 191.472 428.42 191.012 427.72 190.952C427.06 190.892 426.14 191.112 425.71 191.562C424.87 192.442 424.2 193.532 423.62 194.612C420.34 200.752 417.11 206.922 413.85 213.062C385.66 266.192 358.07 319.642 329.51 372.582C315.94 397.742 302.83 423.142 289.52 448.442C283.27 460.332 277.59 472.492 272.7 485.002C265.72 502.892 260.38 521.212 257.96 540.332C255.15 562.452 257.25 583.982 265.1 604.892C266.06 607.452 267.11 609.982 268.33 612.422C274.95 625.642 283.5 637.492 293.79 648.092C301.12 655.652 309.72 661.492 318.76 666.842C319.5 666.352 320.3 666.082 320.66 665.532C321.61 664.082 322.38 662.512 323.19 660.972C364.89 581.802 406.59 502.632 448.28 423.462C449.32 421.482 450.27 419.462 451.24 417.442C452.74 414.302 454.1 411.102 455.71 408.022C462.52 395.022 468.84 381.792 474.14 368.102C481.17 349.962 486.61 331.402 488.84 311.992C490.26 299.582 490.34 287.202 488.46 274.822C485.41 254.682 477.37 236.782 464.29 221.152Z" fill="#3facaf" fill-opacity="0.9" fill-rule="nonzero" opacity="1" stroke="none" vectornator:layerName="path"/>
<path d="M262.84 395.452C266.01 399.092 272.2 399.082 275.39 395.392C276.51 394.092 277.42 392.582 278.25 391.062C286.12 376.692 293.98 362.312 301.78 347.892C302.96 345.722 303.96 343.432 304.81 341.102C306.74 335.802 306.8 330.442 305.14 325.022C304.05 321.432 302.53 318.062 300.77 314.772C293.17 300.532 285.6 286.282 278.04 272.022C271.53 259.742 265.06 247.432 258.54 235.152C257.38 232.962 256.12 230.812 254.75 228.752C253.02 226.152 250.57 224.482 247.43 224.122C244.72 223.812 242 223.542 239.27 223.522C230.33 223.452 221.39 223.492 212.45 223.492L212.45 223.482C203.76 223.482 195.07 223.482 186.38 223.482C184.64 223.482 182.89 223.392 181.17 223.592C179.72 223.762 178.24 224.132 176.89 224.692C174.92 225.502 173.81 227.132 173.5 229.252C173.21 231.262 173.41 233.232 174.34 235.062C175.35 237.052 176.42 239.022 177.49 240.972C203.9 289.072 230.31 337.172 256.71 385.272C257.91 387.452 259.04 389.662 260.3 391.802C261.05 393.072 261.87 394.342 262.84 395.452Z" fill="#3facaf" fill-opacity="0.9" fill-rule="nonzero" opacity="1" stroke="none" vectornator:layerName="path"/>
</g>
<g opacity="1" vectornator:layerName="g">
<path d="M727.59 608.342C727.44 607.752 727.37 607.022 727.37 606.142C727.37 605.262 727.81 604.532 728.69 603.942C734.71 599.392 739.44 593.742 742.89 586.992C746.34 580.242 748.06 573.052 748.06 565.412C748.06 556.462 745.82 548.242 741.35 540.752C736.87 533.262 730.82 527.322 723.19 522.922C715.56 518.522 707.19 516.322 698.09 516.322L652.52 516.322C651.34 516.322 650.35 516.732 649.55 517.532C648.74 518.342 648.34 519.332 648.34 520.502L648.34 555.952C648.34 557.422 648.89 558.702 649.99 559.802C651.09 560.902 652.37 561.452 653.84 561.452L668.37 561.452C669.98 561.452 671.3 560.902 672.33 559.802C673.35 558.702 673.87 557.422 673.87 555.952L673.87 550.452C673.87 548.982 674.42 547.702 675.52 546.602C676.62 545.502 677.98 544.952 679.59 544.952L698.08 544.952C703.95 544.952 708.9 546.932 712.94 550.892C716.98 554.852 719 559.702 719 565.422C719 571.002 716.98 575.772 712.94 579.732C708.9 583.692 703.95 585.672 698.08 585.672L652.51 585.672C651.33 585.672 650.34 586.082 649.54 586.882C648.73 587.692 648.33 588.682 648.33 589.852L648.33 666.692C648.33 667.872 648.73 668.822 649.54 669.552C650.35 670.292 651.34 670.652 652.51 670.652L669.68 670.652C670.85 670.652 671.84 670.292 672.65 669.552C673.45 668.822 673.86 667.862 673.86 666.692L673.86 618.252C673.86 616.642 674.33 615.572 675.29 615.062C676.24 614.552 677.6 614.292 679.36 614.292L698.07 614.292C700.27 614.292 701.74 614.442 702.47 614.732C703.2 615.032 703.79 615.612 704.23 616.492L727.13 668.012C727.71 669.192 728.41 669.922 729.22 670.212C730.03 670.512 731.24 670.652 732.85 670.652L750.9 670.652C752.95 670.652 753.98 669.842 753.98 668.232C753.98 667.352 753.68 666.402 753.1 665.372L727.59 608.342Z" fill="#1e1e1e" fill-opacity="0.9" fill-rule="nonzero" opacity="1" stroke="none" vectornator:layerName="path"/>
<path d="M636.38 643.482L560.6 643.482C559.57 643.482 558.62 643.042 557.74 642.162C556.86 641.282 556.42 640.332 556.42 639.302L556.42 615.282C556.42 612.202 558.11 610.652 561.49 610.652L617.67 610.652C618.7 610.652 619.58 610.322 620.31 609.662C621.04 609.002 621.41 608.162 621.41 607.132L621.41 588.182C621.41 587.152 621.04 586.312 620.31 585.652C619.57 584.992 618.69 584.662 617.67 584.662L562.15 584.662C558.33 584.662 556.42 583.272 556.42 580.472L556.42 564.612C556.42 563.442 556.05 562.482 555.32 561.752C554.58 561.022 553.63 560.652 552.46 560.652L533.73 560.652C532.7 560.652 531.78 561.022 530.98 561.752C530.17 562.492 529.77 563.442 529.77 564.612L529.77 666.392C529.77 667.422 530.17 668.342 530.98 669.142C531.79 669.952 532.7 670.352 533.73 670.352L636.39 670.352C637.56 670.352 638.52 669.952 639.25 669.142C639.98 668.342 640.35 667.422 640.35 666.392L640.35 647.442C640.35 646.272 639.98 645.312 639.25 644.582C638.51 643.852 637.56 643.482 636.38 643.482Z" fill="#1e1e1e" fill-opacity="0.9" fill-rule="nonzero" opacity="1" stroke="none" vectornator:layerName="path"/>
<path d="M533.73 543.242L635.95 543.242C637.12 543.242 638.11 542.802 638.92 541.922C639.73 541.042 640.13 540.082 640.13 539.062L640.13 520.112C640.13 519.082 639.72 518.162 638.92 517.362C638.11 516.562 637.12 516.152 635.95 516.152L533.73 516.152C532.7 516.152 531.78 516.522 530.98 517.252C530.17 517.992 529.77 518.942 529.77 520.112L529.77 539.062C529.77 540.242 530.17 541.232 530.98 542.032C531.78 542.842 532.7 543.242 533.73 543.242Z" fill="#1e1e1e" fill-opacity="0.9" fill-rule="nonzero" opacity="1" stroke="none" vectornator:layerName="path"/>
<path d="M655.99 349.692L634.08 349.692C633.06 349.692 632.11 350.092 631.23 350.902C630.35 351.702 629.92 352.692 629.92 353.862L629.92 499.322C629.92 500.342 630.32 501.262 631.13 502.062C631.93 502.862 632.92 503.272 634.09 503.272L656 503.272C657.17 503.272 658.12 502.872 658.85 502.062C659.58 501.262 659.95 500.352 659.95 499.322L659.95 353.852C659.95 352.682 659.55 351.702 658.75 350.892C657.92 350.092 657.01 349.692 655.99 349.692Z" fill="#1e1e1e" fill-opacity="0.9" fill-rule="nonzero" opacity="1" stroke="none" vectornator:layerName="path"/>
<path d="M760.95 388.942L697.02 388.942C695.32 389.212 691.55 390.242 690.78 394.162L690.78 417.732C690.8 417.932 690.82 418.142 690.82 418.352L690.82 438.852L690.78 438.852L690.78 499.512C690.78 500.482 691.16 501.362 691.93 502.122C692.69 502.892 693.63 503.272 694.75 503.272L715.61 503.272C716.72 503.272 717.62 502.892 718.32 502.122C719.01 501.362 719.36 500.492 719.36 499.512L719.36 445.472L719.39 445.472L719.39 418.352C719.39 417.122 719.85 416.042 720.77 415.082C721.69 414.132 722.8 413.652 724.12 413.652L760.95 413.652C761.61 413.652 762.2 413.382 762.72 412.832C763.24 412.292 763.51 411.602 763.51 410.792L763.51 391.792C763.51 390.972 763.25 390.292 762.72 389.752C762.19 389.212 761.6 388.942 760.95 388.942Z" fill="#1e1e1e" fill-opacity="0.9" fill-rule="nonzero" opacity="1" stroke="none" vectornator:layerName="path"/>
<path d="M615.52 475.472L564.35 475.472C563.22 475.472 562.24 475.002 561.39 474.052C560.54 473.102 560.12 472.052 560.12 470.882L560.12 354.482C560.12 353.312 559.7 352.262 558.85 351.312C558 350.362 556.95 349.892 555.68 349.892L532.84 349.892C531.71 349.892 530.69 350.372 529.77 351.312C528.85 352.262 528.4 353.322 528.4 354.482L528.4 498.662C528.4 499.972 528.86 501.072 529.77 501.942C530.69 502.822 531.71 503.252 532.84 503.252L615.52 503.252C616.79 503.252 617.85 502.812 618.69 501.942C619.54 501.062 619.96 499.972 619.96 498.662L619.96 479.842C619.96 478.672 619.54 477.652 618.69 476.782C617.85 475.912 616.79 475.472 615.52 475.472Z" fill="#1e1e1e" fill-opacity="0.9" fill-rule="nonzero" opacity="1" stroke="none" vectornator:layerName="path"/>
<path d="M878.5 348.992L791.67 348.992C790.65 348.992 789.73 349.362 788.93 350.082C788.13 350.812 787.73 351.762 787.73 352.922L787.73 371.742C787.73 372.912 788.13 373.892 788.93 374.692C789.73 375.492 790.64 375.892 791.67 375.892L805.72 375.892C807.11 375.932 808.3 376.392 809.29 377.312C810.32 378.272 810.83 379.482 810.83 380.942L810.83 500.212C810.83 502.122 811.78 503.072 813.69 503.072L839.87 503.072C840.6 503.072 841.26 502.822 841.85 502.302C842.43 501.792 842.73 501.092 842.73 500.212L842.73 380.952C842.73 379.632 843.24 378.462 844.27 377.432C845.26 376.442 846.45 375.942 847.85 375.902L878.49 375.902C879.66 375.902 880.64 375.462 881.44 374.592C882.24 373.712 882.64 372.772 882.64 371.742L882.64 352.922C882.64 351.902 882.24 350.992 881.44 350.182C880.66 349.392 879.67 348.992 878.5 348.992Z" fill="#1e1e1e" fill-opacity="0.9" fill-rule="nonzero" opacity="1" stroke="none" vectornator:layerName="path"/>
<path d="M774.55 348.992L673.01 348.992C671.99 348.992 671.07 349.362 670.27 350.082C669.47 350.812 669.07 351.762 669.07 352.922L669.07 371.742C669.07 372.912 669.47 373.892 670.27 374.692C671.07 375.492 671.98 375.892 673.01 375.892L774.55 375.892C775.72 375.892 776.7 375.452 777.5 374.582C778.3 373.702 778.7 372.762 778.7 371.732L778.7 352.912C778.7 351.892 778.3 350.982 777.5 350.172C776.7 349.392 775.72 348.992 774.55 348.992Z" fill="#1e1e1e" fill-opacity="0.9" fill-rule="nonzero" opacity="1" stroke="none" vectornator:layerName="path"/>
<path d="M740.41 182.142C736.86 177.902 732.64 174.462 727.94 171.572C727.71 171.432 727.46 171.272 727.21 171.242C726.97 171.222 726.64 171.302 726.48 171.462C726.18 171.782 725.94 172.172 725.73 172.562C724.55 174.772 723.38 177.002 722.21 179.222C712.04 198.392 702.08 217.682 691.77 236.792C686.87 245.872 682.14 255.042 677.34 264.172C675.08 268.462 673.03 272.852 671.27 277.362C668.75 283.822 666.82 290.432 665.95 297.332C664.94 305.312 665.69 313.082 668.53 320.632C668.88 321.552 669.26 322.472 669.7 323.352C672.09 328.122 675.17 332.402 678.89 336.222C681.54 338.952 684.64 341.062 687.9 342.992C688.17 342.812 688.45 342.722 688.58 342.522C688.92 342.002 689.2 341.432 689.49 340.872C704.54 312.302 719.59 283.732 734.63 255.162C735.01 254.452 735.35 253.722 735.7 252.992C736.24 251.862 736.73 250.702 737.31 249.592C739.77 244.902 742.05 240.132 743.96 235.182C746.5 228.632 748.46 221.942 749.26 214.932C749.77 210.452 749.8 205.992 749.12 201.522C748.03 194.242 745.13 187.782 740.41 182.142Z" fill="#1e1e1e" fill-opacity="0.9" fill-rule="nonzero" opacity="1" stroke="none" vectornator:layerName="path"/>
<path d="M667.71 245.042C668.85 246.352 671.09 246.352 672.24 245.022C672.65 244.552 672.97 244.002 673.27 243.462C676.11 238.272 678.95 233.082 681.76 227.882C682.18 227.102 682.55 226.272 682.85 225.432C683.55 223.522 683.57 221.582 682.97 219.632C682.58 218.342 682.03 217.122 681.39 215.932C678.65 210.792 675.91 205.652 673.19 200.502C670.84 196.072 668.51 191.622 666.15 187.192C665.73 186.402 665.28 185.622 664.78 184.882C664.16 183.942 663.27 183.342 662.14 183.212C661.16 183.102 660.18 183.002 659.2 182.992C655.97 182.962 652.75 182.982 649.52 182.982L649.52 182.982C646.38 182.982 643.25 182.982 640.11 182.982C639.48 182.982 638.85 182.952 638.23 183.022C637.71 183.082 637.17 183.222 636.68 183.422C635.97 183.712 635.57 184.302 635.46 185.062C635.36 185.792 635.43 186.502 635.76 187.162C636.13 187.882 636.51 188.592 636.9 189.292C646.43 206.652 655.96 224.012 665.49 241.362C665.92 242.152 666.33 242.942 666.78 243.722C667.06 244.182 667.36 244.642 667.71 245.042Z" fill="#1e1e1e" fill-opacity="0.9" fill-rule="nonzero" opacity="1" stroke="none" vectornator:layerName="path"/>
<path d="M842.47 252.172C835.56 248.902 826.61 245.372 815.63 241.602C812.63 240.402 809.31 238.962 805.65 237.292C799.5 234.482 795.38 232.402 793.31 231.062C788.12 227.802 785.53 223.942 785.53 219.502C785.53 216.692 786.68 213.912 788.98 211.162C791.28 208.422 794.43 206.082 798.43 204.152C803.77 202.082 809.47 201.042 815.55 201.042C820.74 201.042 825.93 201.782 831.12 203.262C835.57 204.452 840.83 206.742 846.91 210.152C847.65 210.602 848.39 210.822 849.13 210.822C850.02 210.822 850.69 210.602 851.13 210.152L851.35 209.932C851.31 209.932 851.29 209.952 851.26 209.962L853.79 206.372C858.09 200.292 860.61 196.442 861.35 194.812C861.5 194.522 861.35 194.002 860.9 193.252C860.46 192.512 859.86 191.842 859.12 191.252C855.12 187.842 850.81 184.952 846.22 182.582C841.31 180.272 835.55 178.532 828.95 177.342C821.47 175.672 814.48 175.372 808.16 175.892C807.95 175.902 807.74 175.902 807.52 175.912C806.96 175.972 806.4 176.052 805.85 176.122C805.4 176.172 804.95 176.232 804.5 176.292C804.43 176.302 804.36 176.312 804.29 176.322C793.49 177.822 784.98 181.582 779.81 184.412C778.7 185.012 777.64 185.632 776.61 186.292C775.07 187.262 774.24 187.902 774.24 187.902L774.24 187.902C770.5 190.622 767.36 193.772 764.82 197.352C761.83 201.562 759.84 206.192 758.83 211.252C757.93 214.442 757.48 217.712 757.48 221.062C757.48 228.032 759.55 234.782 763.71 241.302C767.12 246.192 772.35 250.312 779.39 253.642C786.3 256.912 795.25 260.442 806.23 264.212C809.23 265.412 812.55 266.852 816.21 268.522C822.36 271.332 826.48 273.412 828.55 274.752C833.74 278.012 836.33 281.872 836.33 286.312C836.33 289.122 835.18 291.902 832.88 294.652C830.58 297.392 827.43 299.732 823.43 301.662C818.09 303.732 812.39 304.772 806.31 304.772C801.12 304.772 795.93 304.032 790.74 302.552C786.29 301.362 781.03 299.072 774.95 295.662C774.21 295.212 773.47 294.992 772.73 294.992C771.84 294.992 771.17 295.212 770.73 295.662L770.51 295.882C770.55 295.882 770.57 295.862 770.6 295.852L768.07 299.442C763.77 305.522 761.25 309.372 760.51 311.002C760.36 311.292 760.51 311.812 760.96 312.562C761.4 313.302 762 313.972 762.74 314.562C766.74 317.972 771.05 320.862 775.64 323.232C780.68 325.602 786.61 327.382 793.43 328.572C800.25 329.762 807.22 330.202 814.33 329.912C824.12 328.872 832.79 326.162 840.35 321.792C847.91 317.422 853.81 311.972 858.03 305.442C862.26 298.912 864.37 292.022 864.37 284.762C864.37 277.792 862.3 271.042 858.14 264.522C854.74 259.622 849.52 255.512 842.47 252.172Z" fill="#1e1e1e" fill-opacity="0.9" fill-rule="nonzero" opacity="1" stroke="none" vectornator:layerName="path"/>
<path d="M610.41 252.132C603.5 248.862 594.55 245.332 583.57 241.562C580.57 240.362 577.25 238.922 573.59 237.252C567.44 234.442 563.32 232.362 561.25 231.022C556.06 227.762 553.47 223.902 553.47 219.462C553.47 216.652 554.62 213.872 556.92 211.122C559.22 208.382 562.37 206.042 566.37 204.112C571.71 202.042 577.41 201.002 583.49 201.002C588.68 201.002 593.87 201.742 599.06 203.222C603.51 204.412 608.77 206.702 614.85 210.112C615.59 210.562 616.33 210.782 617.07 210.782C617.96 210.782 618.63 210.562 619.07 210.112L619.29 209.892C619.25 209.892 619.23 209.912 619.2 209.922L621.73 206.332C626.03 200.252 628.55 196.402 629.29 194.772C629.44 194.482 629.29 193.962 628.84 193.212C628.4 192.472 627.8 191.802 627.06 191.212C623.06 187.802 618.75 184.912 614.16 182.542C609.12 180.172 603.19 178.392 596.37 177.202C589.55 176.012 582.58 175.572 575.47 175.862C565.68 176.902 557.01 179.612 549.45 183.982C541.89 188.352 535.99 193.802 531.77 200.332C527.54 206.862 525.43 213.752 525.43 221.012C525.43 227.982 527.5 234.732 531.66 241.252C535.07 246.142 540.3 250.262 547.34 253.592C554.25 256.862 563.2 260.392 574.18 264.162C577.18 265.362 580.5 266.802 584.16 268.472C590.31 271.282 594.43 273.362 596.5 274.702C601.69 277.962 604.28 281.822 604.28 286.262C604.28 289.072 603.13 291.852 600.83 294.602C598.53 297.342 595.38 299.682 591.38 301.612C586.04 303.682 580.34 304.722 574.26 304.722C569.07 304.722 563.88 303.982 558.69 302.502C554.24 301.312 548.98 299.022 542.9 295.612C542.16 295.162 541.42 294.942 540.68 294.942C539.79 294.942 539.12 295.162 538.68 295.612L538.46 295.832C538.5 295.832 538.52 295.812 538.55 295.802L536.02 299.392C531.72 305.472 529.2 309.322 528.46 310.952C528.31 311.242 528.46 311.762 528.91 312.512C529.35 313.252 529.95 313.922 530.69 314.512C534.69 317.922 539 320.812 543.59 323.182C548.5 325.492 554.26 327.232 560.86 328.422C568.34 330.092 575.33 330.392 581.65 329.872C581.86 329.862 582.07 329.862 582.29 329.852C582.85 329.792 583.41 329.712 583.96 329.642C584.41 329.592 584.86 329.532 585.31 329.472C585.38 329.462 585.45 329.452 585.52 329.442C596.32 327.942 604.83 324.182 610 321.352C611.11 320.752 612.17 320.132 613.2 319.472C614.74 318.502 615.57 317.862 615.57 317.862L615.57 317.862C619.31 315.142 622.45 311.992 624.99 308.412C627.98 304.202 629.97 299.572 630.98 294.512C631.88 291.322 632.33 288.052 632.33 284.702C632.33 277.732 630.26 270.982 626.1 264.462C622.67 259.582 617.45 255.472 610.41 252.132Z" fill="#1e1e1e" fill-opacity="0.9" fill-rule="nonzero" opacity="1" stroke="none" vectornator:layerName="path"/>
<path d="M856.4 605.152C852.99 600.262 847.76 596.142 840.72 592.812C833.81 589.542 824.86 586.012 813.88 582.242C810.88 581.042 807.56 579.602 803.9 577.932C797.75 575.122 793.63 573.042 791.56 571.702C786.37 568.442 783.78 564.582 783.78 560.142C783.78 557.332 784.93 554.552 787.23 551.802C789.53 549.062 792.68 546.722 796.68 544.792C802.02 542.722 807.72 541.682 813.8 541.682C818.99 541.682 824.18 542.422 829.37 543.902C833.82 545.092 839.08 547.382 845.16 550.792C845.9 551.242 846.64 551.462 847.38 551.462C848.27 551.462 848.94 551.242 849.38 550.792L849.6 550.572C849.56 550.572 849.54 550.592 849.51 550.602L852.04 547.012C856.34 540.932 858.86 537.082 859.6 535.452C859.75 535.162 859.6 534.642 859.15 533.892C858.71 533.152 858.11 532.482 857.37 531.892C853.37 528.482 849.06 525.592 844.47 523.222C839.56 520.912 833.8 519.172 827.2 517.982C819.72 516.312 812.73 516.012 806.41 516.532C806.2 516.542 805.99 516.542 805.77 516.552C805.21 516.612 804.65 516.692 804.1 516.762C803.65 516.812 803.2 516.872 802.75 516.932C802.68 516.942 802.61 516.952 802.54 516.962C791.74 518.462 783.23 522.222 778.06 525.052C776.95 525.652 775.89 526.272 774.86 526.932C773.32 527.902 772.49 528.542 772.49 528.542L772.49 528.542C768.75 531.262 765.61 534.412 763.07 537.992C760.08 542.202 758.09 546.832 757.08 551.892C756.18 555.082 755.73 558.352 755.73 561.702C755.73 568.672 757.8 575.422 761.96 581.942C765.37 586.832 770.6 590.952 777.64 594.282C784.55 597.552 793.5 601.082 804.48 604.852C807.48 606.052 810.8 607.492 814.46 609.162C820.61 611.972 824.73 614.052 826.8 615.392C831.99 618.652 834.58 622.512 834.58 626.952C834.58 629.762 833.43 632.542 831.13 635.292C828.83 638.032 825.68 640.372 821.68 642.302C816.34 644.372 810.64 645.412 804.56 645.412C799.37 645.412 794.18 644.672 788.99 643.192C784.54 642.002 779.28 639.712 773.2 636.302C772.46 635.852 771.72 635.632 770.98 635.632C770.09 635.632 769.42 635.852 768.98 636.302L768.76 636.522C768.8 636.522 768.82 636.502 768.85 636.492L766.32 640.082C762.02 646.162 759.5 650.012 758.76 651.642C758.61 651.932 758.76 652.452 759.21 653.202C759.65 653.942 760.25 654.612 760.99 655.202C764.99 658.612 769.3 661.502 773.89 663.872C778.93 666.242 784.86 668.022 791.68 669.212C798.5 670.402 805.47 670.842 812.58 670.552C822.37 669.512 831.04 666.802 838.6 662.432C846.16 658.062 852.06 652.612 856.28 646.082C860.51 639.552 862.62 632.662 862.62 625.402C862.62 618.422 860.55 611.672 856.4 605.152Z" fill="#1e1e1e" fill-opacity="0.9" fill-rule="nonzero" opacity="1" stroke="none" vectornator:layerName="path"/>
</g>
</g>
</svg>
