<svg width="842" height="596" viewBox="0 0 842 596" fill="none" xmlns="http://www.w3.org/2000/svg">
<path d="M540.898 108.706C538.198 105.406 534.899 102.807 531.299 100.607C531.099 100.507 530.898 100.407 530.698 100.307C530.498 100.307 530.298 100.307 530.098 100.507C529.898 100.707 529.698 101.007 529.498 101.307C528.598 103.007 527.699 104.706 526.799 106.406C518.999 121.206 511.298 136.006 503.398 150.706C499.598 157.706 495.998 164.706 492.298 171.806C490.598 175.106 488.998 178.506 487.598 182.006C485.698 187.006 484.198 192.106 483.498 197.406C482.698 203.506 483.298 209.506 485.498 215.306C485.798 216.006 486.098 216.706 486.398 217.406C488.198 221.106 490.598 224.406 493.498 227.306C495.498 229.406 497.898 231.006 500.398 232.506C500.598 232.406 500.798 232.306 500.898 232.106C501.198 231.706 501.398 231.306 501.598 230.806C513.198 208.806 524.798 186.806 536.398 164.806C536.698 164.306 536.998 163.706 537.198 163.106C537.598 162.206 537.998 161.306 538.398 160.506C540.298 156.906 541.998 153.206 543.498 149.406C545.498 144.406 546.998 139.206 547.598 133.806C547.998 130.406 547.998 126.906 547.498 123.506C546.598 117.906 544.399 112.906 540.799 108.606L540.898 108.706Z" fill="black"/>
<path d="M484.9 157.107C485.8 158.107 487.5 158.107 488.4 157.107C488.7 156.707 489 156.307 489.2 155.907C491.4 151.907 493.6 147.907 495.7 143.907C496 143.307 496.3 142.707 496.5 142.007C497 140.507 497.1 139.007 496.5 137.507C496.2 136.507 495.8 135.607 495.3 134.707C493.2 130.707 491.1 126.807 489 122.807C487.2 119.407 485.4 116.007 483.6 112.607C483.3 112.007 482.9 111.407 482.5 110.807C482 110.107 481.3 109.607 480.5 109.507C479.7 109.507 479 109.307 478.2 109.307C475.7 109.307 473.2 109.307 470.7 109.307C468.3 109.307 465.9 109.307 463.5 109.307C463 109.307 462.5 109.307 462.1 109.307C461.7 109.307 461.3 109.507 460.9 109.607C460.4 109.807 460 110.307 460 110.907C460 111.507 460 112.007 460.2 112.507C460.5 113.107 460.8 113.607 461.1 114.107C468.4 127.507 475.8 140.807 483.1 154.207C483.4 154.807 483.7 155.407 484.1 156.007C484.3 156.407 484.5 156.707 484.8 157.007L484.9 157.107Z" fill="black"/>
<path d="M619.497 162.607C614.197 160.107 607.297 157.407 598.797 154.507C596.497 153.607 593.897 152.507 591.097 151.207C586.397 149.007 583.197 147.407 581.597 146.407C577.597 143.907 575.597 140.907 575.597 137.507C575.597 134.107 576.497 133.207 578.297 131.107C580.097 129.007 582.497 127.207 585.597 125.707C589.697 124.107 594.097 123.307 598.797 123.307C603.497 123.307 606.797 123.907 610.797 125.007C614.197 125.907 618.297 127.707 622.997 130.307C623.597 130.607 624.097 130.807 624.697 130.807C625.297 130.807 625.897 130.607 626.197 130.307L626.397 130.107L628.397 127.307C631.697 122.607 633.597 119.707 634.197 118.407C634.297 118.207 634.197 117.807 633.897 117.207C633.597 116.607 633.097 116.107 632.497 115.707C629.397 113.107 626.097 110.807 622.597 109.007C618.797 107.207 614.397 105.907 609.297 105.007C603.497 103.707 598.197 103.507 593.297 103.907C593.097 103.907 592.997 103.907 592.797 103.907C592.397 103.907 591.897 104.007 591.497 104.107C591.197 104.107 590.797 104.107 590.497 104.207C590.497 104.207 590.397 104.207 590.297 104.207C581.997 105.407 575.397 108.307 571.497 110.407C570.597 110.907 569.797 111.307 568.997 111.807C567.797 112.607 567.197 113.007 567.197 113.007C564.297 115.107 561.897 117.507 559.897 120.307C557.597 123.507 556.097 127.107 555.297 131.007C554.597 133.507 554.297 136.007 554.297 138.607C554.297 144.007 555.897 149.207 559.097 154.207C561.697 158.007 565.697 161.107 571.197 163.707C576.497 166.207 583.397 168.907 591.897 171.807C594.197 172.707 596.797 173.807 599.597 175.107C604.297 177.307 607.497 178.907 609.097 179.907C613.097 182.407 615.097 185.407 615.097 188.807C615.097 192.207 614.197 193.107 612.397 195.207C610.597 197.307 608.197 199.107 605.097 200.607C600.997 202.207 596.597 203.007 591.897 203.007C587.197 203.007 583.897 202.407 579.897 201.307C576.497 200.407 572.397 198.607 567.697 196.007C567.097 195.707 566.597 195.507 565.997 195.507C565.397 195.507 564.797 195.707 564.497 196.007L564.297 196.207L562.297 199.007C558.997 203.707 557.097 206.607 556.497 207.907C556.397 208.107 556.497 208.507 556.797 209.107C557.097 209.707 557.597 210.207 558.197 210.607C561.297 213.207 564.597 215.507 568.097 217.307C571.997 219.107 576.497 220.507 581.797 221.407C587.097 222.307 592.397 222.707 597.897 222.407C605.397 221.607 612.097 219.507 617.897 216.207C623.697 212.807 628.297 208.607 631.497 203.607C634.797 198.607 636.397 193.307 636.397 187.707C636.397 182.107 634.797 177.107 631.597 172.107C628.997 168.307 624.997 165.207 619.497 162.607Z" fill="black"/>
<path d="M440.798 162.607C435.498 160.107 428.598 157.407 420.098 154.507C417.798 153.607 415.198 152.507 412.398 151.207C407.698 149.007 404.498 147.407 402.898 146.407C398.898 143.907 396.898 140.907 396.898 137.507C396.898 134.107 397.798 133.207 399.598 131.107C401.398 129.007 403.798 127.207 406.898 125.707C410.998 124.107 415.398 123.307 420.098 123.307C424.798 123.307 428.098 123.907 432.098 125.007C435.498 125.907 439.598 127.707 444.298 130.307C444.898 130.607 445.398 130.807 445.998 130.807C446.598 130.807 447.198 130.607 447.498 130.307L447.698 130.107L449.698 127.307C452.998 122.607 454.898 119.707 455.498 118.407C455.598 118.207 455.498 117.807 455.198 117.207C454.898 116.607 454.398 116.107 453.798 115.707C450.698 113.107 447.398 110.807 443.898 109.007C439.998 107.207 435.498 105.807 430.198 104.907C424.898 104.007 419.598 103.607 414.098 103.907C406.598 104.707 399.898 106.807 394.098 110.107C388.298 113.507 383.698 117.707 380.498 122.707C377.198 127.707 375.598 133.007 375.598 138.607C375.598 144.207 377.198 149.207 380.398 154.207C382.998 158.007 386.998 161.107 392.498 163.707C397.798 166.207 404.698 168.907 413.198 171.807C415.498 172.707 418.098 173.807 420.898 175.107C425.598 177.307 428.798 178.907 430.398 179.907C434.398 182.407 436.398 185.407 436.398 188.807C436.398 192.207 435.498 193.107 433.698 195.207C431.898 197.307 429.498 199.107 426.398 200.607C422.298 202.207 417.898 203.007 413.198 203.007C408.498 203.007 405.198 202.407 401.198 201.307C397.798 200.407 393.698 198.607 388.998 196.007C388.398 195.707 387.898 195.507 387.298 195.507C386.698 195.507 386.098 195.707 385.798 196.007L385.598 196.207L383.598 199.007C380.298 203.707 378.398 206.607 377.798 207.907C377.698 208.107 377.798 208.507 378.098 209.107C378.398 209.707 378.898 210.207 379.498 210.607C382.598 213.207 385.898 215.507 389.398 217.307C393.198 219.107 397.598 220.407 402.698 221.307C408.498 222.607 413.798 222.807 418.698 222.407C418.898 222.407 418.998 222.407 419.198 222.407C419.598 222.407 420.098 222.307 420.498 222.207C420.798 222.207 421.198 222.207 421.498 222.107C421.498 222.107 421.598 222.107 421.698 222.107C429.998 220.907 436.598 218.007 440.498 215.907C441.398 215.407 442.198 215.007 442.998 214.507C444.198 213.707 444.798 213.307 444.798 213.307C447.698 211.207 450.098 208.807 452.098 206.007C454.398 202.807 455.898 199.207 456.698 195.307C457.398 192.807 457.698 190.307 457.698 187.707C457.698 182.307 456.098 177.107 452.898 172.107C450.298 168.307 446.298 165.207 440.798 162.607Z" fill="black"/>
<path d="M664.1 306.407C659.5 289.707 654.9 272.907 650.3 256.207C650.1 255.407 649.9 254.607 649.6 253.907C649.1 252.507 648 251.707 646.5 251.507C645.4 251.307 644.3 251.307 643.2 251.307C638.1 251.307 633.1 251.307 628 251.307C622.8 251.307 617.6 251.307 612.4 251.307C611.3 251.307 610.2 251.307 609.1 251.507C607.6 251.707 606.6 252.607 606.1 254.007C605.7 255.107 605.4 256.307 605.1 257.507C598.3 282.407 591.4 307.307 584.6 332.207C583.6 335.907 582.6 339.607 581.7 343.307C581.2 345.207 582 346.107 583.9 346.207C584.3 346.207 584.7 346.207 585.1 346.207C589.6 346.207 594.1 346.207 598.6 346.207C599 346.207 599.4 346.207 599.8 346.207C602.2 346.107 603.3 345.307 604 343.107C604.3 342.207 604.5 341.307 604.8 340.307C605.3 338.507 605.9 336.607 606.3 334.807C606.8 332.907 608.9 331.307 610.8 331.307C611.6 331.307 612.4 331.307 613.3 331.307C622.9 331.307 632.4 331.307 642 331.307C642.8 331.307 643.6 331.307 644.5 331.307C646.8 331.407 648.3 332.607 649.2 334.707C649.6 335.607 649.8 336.507 650 337.407C651.4 342.707 652.8 348.007 654.2 353.207C655.2 356.907 656.2 360.607 657.2 364.307C658.1 367.607 659 368.207 662.5 368.207C667.3 368.207 672.1 368.207 676.9 368.207C677.4 368.207 678 368.207 678.5 368.207C679.4 368.207 680.3 367.007 680.1 366.107C679.8 364.807 679.5 363.407 679.1 362.107C674 343.507 668.9 324.907 663.9 306.407H664.1ZM640.4 313.007C639.6 313.107 638.8 313.207 638 313.207C634.6 313.207 631.2 313.207 627.8 313.207C624.4 313.207 621 313.207 617.6 313.207C616.9 313.207 616.2 313.207 615.6 313.007C614.3 312.807 613.2 311.207 613.5 309.907C613.8 308.607 614.1 307.307 614.5 305.907C616.2 299.907 618 293.907 619.8 287.807C620.9 283.907 622 279.907 623.1 276.007C623.4 274.807 624 273.807 625.1 273.007C627.3 271.307 631.6 271.607 632.9 275.307C633.3 276.407 633.6 277.707 633.9 278.807C635.3 284.107 636.7 289.307 638.2 294.607C639.3 298.507 640.7 302.407 641.7 306.307C642 307.507 642.3 308.707 642.6 309.907C642.9 311.207 641.8 312.807 640.5 312.907L640.4 313.007Z" fill="black"/>
<path d="M564.998 348.606C563.798 348.606 562.498 348.606 561.298 348.606C544.598 348.606 527.898 348.606 511.298 348.606C510.098 348.606 508.798 348.606 507.598 348.606C505.898 348.506 504.498 347.106 504.398 345.406C504.398 339.306 504.398 333.106 504.398 327.006C504.398 325.406 505.698 324.206 507.298 324.106C508.498 324.106 509.798 324.106 510.998 324.006C522.898 324.006 534.798 324.006 546.698 324.006C547.898 324.006 549.198 324.006 550.398 324.006C552.298 324.006 553.298 322.806 553.398 320.806C553.398 320.506 553.398 320.306 553.398 320.006C553.398 316.206 553.398 312.306 553.398 308.506C553.398 308.006 553.398 307.406 553.398 306.906C553.298 305.706 552.098 304.606 550.898 304.506C549.698 304.506 548.398 304.506 547.198 304.506C535.398 304.506 523.698 304.506 511.898 304.506C510.698 304.506 509.398 304.506 508.198 304.506C507.698 304.506 507.098 304.406 506.598 304.206C505.398 303.906 504.498 302.806 504.398 301.506C504.398 300.806 504.398 300.106 504.398 299.506C504.398 297.206 504.398 294.906 504.398 292.506C504.398 291.506 504.398 290.606 504.398 289.606C504.398 287.606 503.198 286.506 501.398 286.406C500.998 286.406 500.598 286.406 500.198 286.406C496.398 286.406 492.498 286.406 488.698 286.406C488.298 286.406 487.898 286.406 487.498 286.406C485.798 286.506 484.698 287.506 484.498 289.206C484.498 290.106 484.398 291.106 484.398 292.106C484.398 315.906 484.398 339.706 484.398 363.406C484.398 364.406 484.398 365.306 484.498 366.306C484.698 367.906 485.898 369.006 487.498 369.106C488.698 369.106 489.998 369.106 491.198 369.106C502.798 369.106 514.398 369.106 526.098 369.106C537.798 369.106 536.498 369.106 541.698 369.106C548.498 369.106 555.398 369.106 562.198 369.106C563.298 369.106 564.398 369.106 565.498 368.906C566.498 368.806 567.598 367.706 567.698 366.706C567.798 365.906 567.798 365.106 567.798 364.306C567.798 361.006 567.798 357.706 567.798 354.506C567.798 353.506 567.798 352.606 567.798 351.606C567.798 350.106 566.598 349.006 565.198 348.906L564.998 348.606Z" fill="black"/>
<path d="M409.099 280.607C408.199 276.307 406.999 272.107 404.999 268.207C402.799 263.907 399.799 260.207 395.699 257.507C391.199 254.507 386.099 252.907 380.699 252.607C379.599 252.607 378.999 253.207 378.899 254.407C378.899 255.407 378.899 256.307 378.899 257.307C378.699 279.007 378.499 300.807 378.199 322.507C378.199 327.007 378.299 331.507 378.799 336.007C379.399 341.607 380.599 347.107 382.999 352.207C386.999 360.807 393.599 366.307 402.599 369.107C404.399 369.707 406.299 369.807 408.199 370.107C409.399 370.307 409.899 369.707 409.899 368.407C409.899 367.207 409.899 365.907 409.899 364.707C409.899 352.407 410.099 340.107 410.199 327.807C410.199 320.807 410.399 313.907 410.399 306.907C410.399 302.507 410.399 298.107 410.299 293.807C410.199 289.407 409.899 285.107 408.999 280.707L409.099 280.607Z" fill="black"/>
<path d="M487.298 272.907C488.498 272.907 489.798 272.907 490.998 272.907C502.598 272.907 514.198 272.907 525.798 272.907C537.398 272.907 548.998 272.907 560.598 272.907C561.798 272.907 563.098 272.907 564.298 272.907C565.998 272.907 567.398 271.507 567.398 269.707C567.398 265.107 567.398 260.407 567.398 255.807C567.398 254.007 566.098 252.707 564.398 252.607C563.398 252.607 562.498 252.607 561.498 252.607C537.698 252.607 513.998 252.607 490.198 252.607C489.398 252.607 488.598 252.607 487.698 252.607C487.298 252.607 486.898 252.607 486.498 252.807C485.498 253.007 484.498 254.007 484.298 255.007C484.198 255.707 484.098 256.407 484.098 257.007C484.098 260.807 484.098 264.607 484.098 268.507C484.098 269.007 484.098 269.607 484.198 270.107C484.398 271.707 485.498 272.907 487.098 273.007L487.298 272.907Z" fill="black"/>
<path d="M467.297 338.106C466.197 338.106 465.097 338.106 463.997 338.106C459.097 338.106 454.197 338.106 449.297 338.106V337.906C444.497 337.906 439.697 337.906 434.997 337.906C433.997 337.906 433.097 337.906 432.097 337.906C430.297 337.906 428.597 338.406 426.997 339.306C423.897 341.006 422.197 343.506 422.097 347.206C422.097 353.606 421.897 360.006 421.797 366.406C421.797 367.106 421.797 367.806 421.797 368.406C421.797 368.806 422.397 369.406 422.897 369.406C422.997 369.406 423.197 369.406 423.297 369.406C429.497 369.506 435.597 369.206 441.597 367.906C445.097 367.106 448.497 366.106 451.697 364.606C460.297 360.506 465.697 353.906 467.697 344.606C468.097 342.906 468.197 341.106 468.397 339.306C468.397 338.606 467.897 338.106 467.097 338.006L467.297 338.106Z" fill="black"/>
<path d="M181.2 446.607C196.2 474.107 219.3 491.407 249 500.007C254.6 501.607 260.6 502.107 266.5 502.907C267.7 503.107 269.1 502.907 270.2 502.507C270.9 502.307 271.8 501.507 271.9 500.807C272.3 497.507 272.7 494.107 272.7 490.807C273.2 446.807 273.7 402.907 274.2 358.907C274.2 358.907 274.2 358.907 274.3 358.907C274.3 353.407 274.3 347.907 274.3 342.407C274.3 307.707 274.5 273.107 274.5 238.407C274.5 217.207 272.3 196.207 267.2 175.607C263.8 162.007 258.9 149.007 251.7 136.907C241.4 119.807 227.5 106.607 209.3 98.2078C199.7 93.7078 189.6 90.6078 179 89.2078C162.9 87.0078 163.4 86.1078 163.3 102.108C163 148.207 162.7 194.207 162.3 240.307C162.3 246.607 162.2 253.007 162.1 259.307C161.7 290.607 161.1 321.807 161 353.107C161 369.607 162.7 386.007 165.9 402.207C168.9 417.607 173.7 432.507 181.2 446.307V446.607Z" fill="#E66B00"/>
<path d="M480 395.408C480.4 392.608 478.4 390.708 475.5 390.508C473 390.308 470.4 390.208 467.9 390.208C449.3 390.008 430.7 389.808 412.1 389.608V389.208C392.2 389.208 372.4 389.408 352.5 389.208C342.7 389.108 334.4 392.808 326.8 398.508C321.5 402.508 318.2 407.808 316.6 414.108C315.8 417.308 315.7 420.808 315.7 424.108C315.4 446.108 315.2 468.008 315 490.008C315 492.508 315.2 495.108 315.3 497.608C315.3 499.108 317 500.708 318.6 500.808C319.4 500.808 320.3 501.108 321.1 501.108C339.7 501.508 358.3 500.708 376.7 497.408C393 494.508 408.8 490.108 423.7 482.608C452.3 468.108 470.1 445.208 477.2 414.108C478.6 407.908 479.2 401.608 480 395.308V395.408Z" fill="#E66B00"/>
<path d="M578.698 391.008C577.798 390.908 576.798 390.708 575.898 390.708C569.098 390.708 562.198 390.708 555.398 390.708C554.998 390.708 554.598 390.708 554.198 390.708C552.298 390.708 550.798 391.308 549.498 392.808C548.198 394.408 546.798 395.908 545.498 397.508C536.898 407.608 528.298 417.708 519.698 427.808C518.798 428.808 517.798 429.808 516.898 430.808C516.898 430.808 516.598 430.908 516.498 430.808C516.298 430.708 515.998 430.508 515.998 430.308C515.998 429.108 515.898 427.808 515.898 426.608C515.898 416.908 515.898 407.208 515.898 397.508C515.898 396.408 515.898 395.308 515.898 394.208C515.898 391.908 514.698 390.808 512.298 390.708C511.898 390.708 511.498 390.708 511.098 390.708C506.298 390.708 501.498 390.708 496.698 390.708C495.998 390.708 495.298 390.708 494.698 390.808C493.298 391.008 492.198 392.008 492.098 393.508C492.098 394.908 492.098 396.208 492.098 397.608C492.098 414.808 492.098 432.008 492.098 449.308C492.098 466.608 492.098 483.208 492.098 500.208C492.098 501.408 492.098 502.708 492.098 503.908C492.098 504.408 492.098 505.008 492.298 505.508C492.598 506.508 493.198 507.208 494.198 507.508C494.998 507.708 495.798 507.708 496.598 507.708C501.498 507.708 506.398 507.708 511.398 507.708C511.898 507.708 512.498 507.708 512.998 507.708C514.698 507.608 515.798 506.508 515.998 504.908C515.998 503.708 515.998 502.408 515.998 501.208C515.998 491.908 516.098 482.608 515.998 473.308C515.998 468.908 517.298 465.408 520.198 462.108C533.498 446.708 546.698 431.208 559.898 415.708C565.898 408.708 571.798 401.808 577.698 394.808C578.298 394.108 578.798 393.308 579.398 392.508C579.698 392.108 579.298 391.208 578.898 391.108L578.698 391.008Z" fill="black"/>
<path d="M577.099 502.007C568.099 489.207 558.999 476.307 549.899 463.507C549.299 462.707 548.799 461.907 548.199 461.207C547.099 459.907 545.399 459.807 544.199 460.907C543.999 461.107 543.799 461.307 543.599 461.507C540.399 465.207 537.199 469.007 533.999 472.707C533.499 473.307 533.099 474.007 532.699 474.807C532.199 475.707 532.199 476.707 532.699 477.607C533.299 478.807 533.999 480.007 534.799 481.107C539.899 488.407 544.999 495.607 550.099 502.907C550.499 503.507 550.899 504.007 551.299 504.607C552.499 506.307 554.099 507.107 556.099 507.407C557.299 507.607 558.499 507.607 559.799 507.607C562.099 507.607 564.399 507.607 566.799 507.607C569.799 507.607 572.799 507.607 575.799 507.607C576.499 507.607 577.099 507.407 577.799 507.207C578.599 506.907 579.199 505.507 578.799 504.807C578.299 503.807 577.699 502.907 577.099 502.007Z" fill="black"/>
<path d="M653.2 446.206C647.9 443.706 641 441.006 632.5 438.106C630.2 437.206 627.6 436.106 624.8 434.806C620.1 432.606 616.9 431.006 615.3 430.006C611.3 427.506 609.3 424.506 609.3 421.106C609.3 417.706 610.2 416.806 612 414.706C613.8 412.606 616.2 410.806 619.3 409.306C623.4 407.706 627.8 406.906 632.5 406.906C637.2 406.906 640.5 407.506 644.5 408.606C647.9 409.506 652 411.306 656.7 413.906C657.3 414.206 657.8 414.406 658.4 414.406C659 414.406 659.6 414.206 659.9 413.906L660.1 413.706L662.1 410.906C665.4 406.206 667.3 403.306 667.9 402.006C668 401.806 667.9 401.406 667.6 400.806C667.3 400.206 666.8 399.706 666.2 399.306C663.1 396.706 659.8 394.406 656.3 392.606C652.4 390.806 647.9 389.406 642.6 388.506C637.3 387.606 632 387.206 626.5 387.506C619 388.306 612.3 390.406 606.5 393.706C600.7 397.106 596.1 401.306 592.9 406.306C589.6 411.306 588 416.606 588 422.206C588 427.806 589.6 432.806 592.8 437.806C595.4 441.606 599.4 444.706 604.9 447.306C610.2 449.806 617.1 452.506 625.6 455.406C627.9 456.306 630.5 457.406 633.3 458.706C638 460.906 641.2 462.506 642.8 463.506C646.8 466.006 648.8 469.006 648.8 472.406C648.8 475.806 647.9 476.706 646.1 478.806C644.3 480.906 641.9 482.706 638.8 484.206C634.7 485.806 630.3 486.606 625.6 486.606C620.9 486.606 617.6 486.006 613.6 484.906C610.2 484.006 606.1 482.206 601.4 479.606C600.8 479.306 600.3 479.106 599.7 479.106C599.1 479.106 598.5 479.306 598.2 479.606L598 479.806L596 482.606C592.7 487.306 590.8 490.206 590.2 491.506C590.1 491.706 590.2 492.106 590.5 492.706C590.8 493.306 591.3 493.806 591.9 494.206C595 496.806 598.3 499.106 601.8 500.906C605.6 502.706 610 504.006 615.1 504.906C620.9 506.206 626.2 506.406 631.1 506.006C631.3 506.006 631.4 506.006 631.6 506.006C632 506.006 632.5 505.906 632.9 505.806C633.2 505.806 633.6 505.806 633.9 505.706C633.9 505.706 634 505.706 634.1 505.706C642.4 504.506 649 501.606 652.9 499.506C653.8 499.006 654.6 498.606 655.4 498.106C656.6 497.306 657.2 496.906 657.2 496.906C660.1 494.806 662.5 492.406 664.5 489.606C666.8 486.406 668.3 482.806 669.1 478.906C669.8 476.406 670.1 473.906 670.1 471.306C670.1 465.906 668.5 460.706 665.3 455.706C662.7 451.906 658.7 448.806 653.2 446.206Z" fill="black"/>
</svg>
