<svg width="842" height="596" viewBox="0 0 842 596" fill="none" xmlns="http://www.w3.org/2000/svg">
<path d="M378.899 203.781C383.799 212.881 391.399 218.481 401.199 221.381C403.099 221.881 404.999 222.081 406.999 222.381C407.399 222.381 407.799 222.381 408.199 222.281C408.399 222.281 408.699 221.981 408.799 221.781C408.899 220.681 409.099 219.581 409.099 218.481C409.299 203.981 409.399 189.581 409.599 175.081C409.599 173.281 409.599 171.481 409.599 169.681C409.599 158.281 409.599 146.881 409.599 135.481C409.599 128.481 408.899 121.582 407.199 114.782C406.099 110.282 404.499 105.982 402.099 102.082C398.699 96.4816 394.099 92.0816 388.099 89.3816C384.899 87.8816 381.599 86.8816 378.099 86.3816C372.799 85.6816 372.999 85.3816 372.899 90.6816C372.899 105.882 372.699 120.982 372.599 136.181C372.599 138.281 372.599 140.381 372.599 142.481C372.499 152.781 372.299 163.081 372.199 173.381C372.199 178.781 372.799 184.181 373.799 189.581C374.799 194.681 376.399 199.581 378.799 204.081L378.899 203.781Z" fill="#E66B00"/>
<path d="M424.1 221.682C424.4 221.682 424.7 221.682 424.9 221.682C431 221.782 437.1 221.582 443.2 220.482C448.6 219.582 453.8 218.082 458.7 215.582C468.1 210.782 474 203.282 476.3 193.082C476.8 191.082 477 188.982 477.2 186.882C477.3 185.982 476.7 185.282 475.7 185.282C474.9 185.282 474 185.282 473.2 185.282C467.1 185.282 461 185.182 454.8 185.082C448.3 184.982 441.7 185.082 435.2 184.982C432 184.982 429.2 186.182 426.8 188.082C425.1 189.382 424 191.182 423.5 193.282C423.2 194.382 423.2 195.482 423.2 196.582C423.1 203.782 423 211.082 423 218.282C423 219.082 423 219.982 423 220.782C423 221.282 423.6 221.782 424.1 221.882V221.682Z" fill="#E66B00"/>
<path d="M406.198 330.483C404.198 335.583 402.698 340.683 401.998 346.083C401.198 352.383 401.798 358.383 403.998 364.383C404.298 365.083 404.598 365.783 404.898 366.483C406.798 370.183 409.198 373.583 412.098 376.583C414.198 378.683 416.598 380.383 419.198 381.883C419.398 381.783 419.598 381.683 419.698 381.483C419.998 381.083 420.198 380.583 420.398 380.183C432.198 357.783 443.998 335.383 455.798 312.983C456.098 312.383 456.398 311.883 456.598 311.283C456.998 310.383 457.398 309.483 457.898 308.583C459.798 304.883 461.598 301.183 463.098 297.283C465.098 292.183 466.598 286.883 467.298 281.383C467.698 277.883 467.699 274.383 467.199 270.883C466.299 265.183 464.098 260.083 460.398 255.683C457.598 252.383 454.298 249.683 450.598 247.383C450.398 247.283 450.198 247.183 449.998 247.083C449.798 247.083 449.598 247.083 449.398 247.283C449.198 247.483 448.998 247.883 448.798 248.183C447.898 249.883 446.998 251.683 445.998 253.383C437.998 268.383 430.198 283.483 422.098 298.483C418.298 305.583 414.598 312.783 410.798 319.983C408.998 323.383 407.398 326.783 405.998 330.283L406.198 330.483Z" fill="black"/>
<path d="M402.2 259.883C401.9 259.283 401.5 258.683 401.1 258.083C400.6 257.383 399.9 256.883 399 256.783C398.2 256.783 397.5 256.583 396.7 256.583C394.2 256.583 391.6 256.583 389.1 256.583C386.6 256.583 384.2 256.583 381.7 256.583C381.2 256.583 380.7 256.583 380.2 256.583C379.8 256.583 379.4 256.783 379 256.883C378.4 257.083 378.1 257.583 378 258.183C378 258.783 378 259.283 378.2 259.783C378.5 260.383 378.8 260.883 379.1 261.483C386.6 275.083 394 288.683 401.5 302.283C401.8 302.883 402.2 303.483 402.5 304.083C402.7 304.483 402.9 304.783 403.2 305.083C404.1 306.083 405.8 306.083 406.7 305.083C407 304.683 407.3 304.283 407.5 303.883C409.7 299.783 411.9 295.783 414.2 291.683C414.5 291.083 414.8 290.383 415.1 289.783C415.6 288.283 415.7 286.783 415.1 285.283C414.8 284.283 414.4 283.283 413.9 282.383C411.7 278.383 409.6 274.283 407.5 270.283C405.7 266.783 403.8 263.283 402 259.883H402.2Z" fill="black"/>
<path d="M518.301 371.682C526.001 370.882 532.801 368.782 538.701 365.282C544.601 361.882 549.201 357.582 552.601 352.482C555.901 347.382 557.601 341.982 557.601 336.282C557.601 330.582 556.001 325.582 552.701 320.382C550.001 316.582 545.901 313.282 540.401 310.682C535.001 308.082 528.001 305.382 519.401 302.382C517.001 301.482 514.401 300.282 511.601 298.982C506.801 296.782 503.601 295.182 501.901 294.082C497.801 291.482 495.801 288.482 495.801 284.982C495.801 281.482 496.701 280.582 498.501 278.482C500.301 276.382 502.801 274.482 505.901 272.982C510.101 271.382 514.601 270.582 519.301 270.582C524.001 270.582 527.401 271.182 531.501 272.282C535.001 273.182 539.101 274.982 543.901 277.682C544.501 277.982 545.101 278.182 545.601 278.182C546.101 278.182 546.801 277.982 547.201 277.682L547.401 277.482L549.401 274.682C552.801 269.882 554.701 266.882 555.301 265.582C555.401 265.382 555.301 264.982 555.001 264.382C554.701 263.782 554.201 263.282 553.601 262.782C550.501 260.082 547.101 257.882 543.501 255.982C539.701 254.182 535.101 252.782 530.001 251.882C524.101 250.582 518.701 250.382 513.701 250.782C513.501 250.782 513.401 250.782 513.201 250.782C512.801 250.782 512.301 250.882 511.901 250.982C511.501 250.982 511.201 250.982 510.801 251.082C510.801 251.082 510.701 251.082 510.601 251.082C502.101 252.282 495.501 255.182 491.401 257.382C490.501 257.882 489.701 258.382 488.901 258.882C487.701 259.682 487.001 260.182 487.001 260.182C484.101 262.282 481.601 264.782 479.601 267.582C477.301 270.882 475.701 274.482 474.901 278.482C474.201 280.982 473.801 283.582 473.801 286.182C473.801 291.682 475.401 296.882 478.701 302.082C481.401 305.882 485.501 309.182 491.001 311.782C496.401 314.382 503.401 317.082 512.001 320.082C514.401 320.982 517.001 322.182 519.801 323.482C524.601 325.682 527.801 327.282 529.501 328.382C533.601 330.982 535.601 333.982 535.601 337.482C535.601 340.982 534.701 341.882 532.901 343.982C531.101 346.082 528.601 347.982 525.501 349.482C521.301 351.082 516.801 351.882 512.101 351.882C507.401 351.882 504.001 351.282 499.901 350.182C496.401 349.282 492.301 347.482 487.501 344.782C486.901 344.482 486.301 344.282 485.801 344.282C485.301 344.282 484.601 344.482 484.201 344.782L484.001 344.982L482.001 347.782C478.601 352.582 476.701 355.582 476.101 356.882C476.001 357.082 476.101 357.482 476.401 358.082C476.701 358.682 477.201 359.182 477.801 359.682C480.901 362.382 484.301 364.582 487.901 366.482C491.901 368.382 496.501 369.782 501.801 370.682C507.101 371.582 512.601 371.982 518.201 371.682H518.301Z" fill="black"/>
<path d="M358.5 310.683C353.1 308.083 346.1 305.383 337.5 302.383C335.1 301.483 332.5 300.283 329.7 298.983C324.9 296.783 321.7 295.183 320 294.083C315.9 291.483 313.9 288.483 313.9 284.983C313.9 281.483 314.8 280.583 316.6 278.483C318.4 276.383 320.9 274.483 324 272.983C328.2 271.383 332.7 270.583 337.4 270.583C342.1 270.583 345.5 271.183 349.6 272.283C353.1 273.183 357.2 274.983 362 277.683C362.6 277.983 363.2 278.183 363.7 278.183C364.2 278.183 364.9 277.983 365.3 277.683L365.5 277.483L367.5 274.683C370.9 269.883 372.8 266.883 373.4 265.583C373.5 265.383 373.4 264.983 373.1 264.383C372.8 263.783 372.3 263.283 371.7 262.783C368.6 260.083 365.2 257.883 361.6 255.983C357.6 254.083 353 252.683 347.7 251.783C342.4 250.883 336.9 250.483 331.3 250.783C323.6 251.583 316.8 253.683 310.9 257.183C305 260.583 300.4 264.883 297 269.983C293.7 275.083 292 280.483 292 286.183C292 291.883 293.6 296.883 296.9 302.083C299.6 305.883 303.7 309.183 309.2 311.783C314.6 314.383 321.6 317.083 330.2 320.083C332.6 320.983 335.2 322.183 338 323.483C342.8 325.683 346 327.283 347.7 328.383C351.8 330.983 353.8 333.983 353.8 337.483C353.8 340.983 352.9 341.883 351.1 343.983C349.3 346.083 346.8 347.983 343.7 349.483C339.5 351.083 335 351.883 330.3 351.883C325.6 351.883 322.2 351.283 318.1 350.183C314.6 349.283 310.5 347.483 305.7 344.783C305.1 344.483 304.5 344.283 304 344.283C303.5 344.283 302.8 344.483 302.4 344.783L302.2 344.983L300.2 347.783C296.8 352.583 294.9 355.583 294.3 356.883C294.2 357.083 294.3 357.483 294.6 358.083C294.9 358.683 295.4 359.183 296 359.683C299.1 362.383 302.5 364.583 306.1 366.483C309.9 368.283 314.5 369.683 319.6 370.583C325.5 371.883 330.9 372.083 335.9 371.683C336.1 371.683 336.2 371.683 336.4 371.683C336.8 371.683 337.3 371.583 337.7 371.483C338.1 371.483 338.4 371.483 338.8 371.383C338.8 371.383 338.9 371.383 339 371.383C347.5 370.183 354.1 367.283 358.2 365.083C359.1 364.583 359.9 364.083 360.7 363.583C361.9 362.783 362.6 362.283 362.6 362.283C365.5 360.183 368 357.683 370 354.883C372.3 351.583 373.9 347.983 374.7 343.983C375.4 341.483 375.8 338.883 375.8 336.283C375.8 330.783 374.2 325.583 370.9 320.383C368.2 316.583 364.1 313.283 358.6 310.683H358.5Z" fill="black"/>
<path d="M460.099 444.382C455.399 427.382 450.799 410.282 446.099 393.282C445.899 392.482 445.699 391.682 445.399 390.882C444.899 389.482 443.799 388.582 442.299 388.382C441.199 388.182 440.099 388.182 438.999 388.182C433.899 388.182 428.699 388.182 423.599 388.182C418.299 388.182 412.999 388.182 407.699 388.182C406.599 388.182 405.499 388.182 404.399 388.382C402.899 388.582 401.899 389.582 401.299 390.882C400.899 392.082 400.599 393.282 400.199 394.482C393.299 419.782 386.299 445.182 379.399 470.482C378.399 474.282 377.399 477.982 376.399 481.782C375.899 483.782 376.699 484.682 378.699 484.782C379.099 484.782 379.499 484.782 379.999 484.782C384.599 484.782 389.199 484.782 393.799 484.782C394.199 484.782 394.599 484.782 395.099 484.782C397.599 484.682 398.699 483.882 399.399 481.582C399.699 480.682 399.899 479.682 400.199 478.782C400.699 476.882 401.299 475.082 401.699 473.182C402.199 471.282 404.399 469.582 406.299 469.582C407.099 469.582 407.999 469.582 408.799 469.582C418.499 469.582 428.299 469.582 437.999 469.582C438.799 469.582 439.699 469.582 440.499 469.582C442.799 469.682 444.399 470.882 445.199 473.082C445.599 473.982 445.799 474.982 445.999 475.882C447.399 481.282 448.899 486.582 450.299 491.982C451.299 495.782 452.299 499.482 453.399 503.282C454.299 506.582 455.199 507.282 458.799 507.282C463.699 507.282 468.499 507.282 473.399 507.282C473.999 507.282 474.499 507.282 475.099 507.282C475.999 507.282 476.899 506.082 476.699 505.182C476.399 503.782 476.099 502.482 475.699 501.182C470.499 482.282 465.399 463.382 460.199 444.482L460.099 444.382ZM435.999 451.082C435.199 451.182 434.299 451.282 433.499 451.282C429.999 451.282 426.599 451.282 423.099 451.282C419.599 451.282 416.199 451.282 412.699 451.282C411.999 451.282 411.299 451.282 410.599 451.082C409.299 450.882 408.199 449.282 408.499 447.982C408.799 446.582 409.199 445.282 409.499 443.982C411.299 437.882 413.099 431.782 414.899 425.582C416.099 421.582 417.099 417.582 418.199 413.582C418.499 412.282 419.199 411.282 420.199 410.482C422.399 408.782 426.799 409.082 428.199 412.782C428.599 413.982 428.899 415.182 429.199 416.382C430.699 421.782 432.099 427.082 433.599 432.482C434.799 436.482 436.199 440.382 437.199 444.482C437.499 445.682 437.899 446.882 438.099 448.082C438.399 449.382 437.299 450.982 435.899 451.182L435.999 451.082Z" fill="black"/>
<path d="M578.099 388.583C577.099 388.483 576.199 388.283 575.199 388.283C568.199 388.283 561.299 388.283 554.299 388.283C553.899 388.283 553.499 388.283 552.999 388.283C551.099 388.283 549.499 388.883 548.199 390.483C546.899 392.083 545.499 393.683 544.099 395.283C535.299 405.583 526.599 415.783 517.799 426.083C516.899 427.183 515.899 428.083 514.999 429.083C514.999 429.083 514.699 429.183 514.599 429.183C514.399 429.083 514.099 428.883 514.099 428.683C514.099 427.483 513.999 426.183 513.999 424.983C513.999 415.083 513.999 405.183 513.999 395.383C513.999 394.283 513.999 393.183 513.999 392.083C513.999 389.683 512.799 388.683 510.299 388.483C509.899 388.483 509.499 388.483 508.999 388.483C504.099 388.483 499.299 388.483 494.399 388.483C493.699 388.483 492.999 388.483 492.299 388.583C490.799 388.783 489.799 389.883 489.699 391.383C489.699 392.783 489.699 394.183 489.699 395.583C489.699 413.083 489.699 430.683 489.699 448.183C489.699 465.683 489.699 482.683 489.699 499.983C489.699 501.283 489.699 502.483 489.699 503.783C489.699 504.383 489.699 504.883 489.899 505.383C490.199 506.383 490.799 507.083 491.799 507.383C492.599 507.583 493.399 507.583 494.299 507.583C499.299 507.583 504.299 507.583 509.299 507.583C509.899 507.583 510.399 507.583 510.999 507.583C512.699 507.483 513.899 506.383 513.999 504.683C513.999 503.483 513.999 502.183 513.999 500.883C513.999 491.383 514.099 481.983 513.999 472.483C513.999 468.083 515.299 464.483 518.199 461.083C531.799 445.383 545.199 429.583 558.699 413.783C564.799 406.683 570.799 399.583 576.899 392.483C577.499 391.783 578.099 390.983 578.599 390.183C578.899 389.783 578.499 388.883 578.099 388.783V388.583Z" fill="black"/>
<path d="M359.2 487.282C358 487.282 356.7 487.282 355.4 487.282C338.4 487.282 321.4 487.282 304.5 487.282C303.2 487.282 302 487.282 300.7 487.282C298.9 487.182 297.5 485.782 297.5 484.082C297.5 477.782 297.5 471.582 297.5 465.282C297.5 463.682 298.8 462.382 300.4 462.282C301.6 462.282 302.9 462.182 304.2 462.182C316.3 462.182 328.4 462.182 340.5 462.182C341.8 462.182 343 462.182 344.3 462.182C346.2 462.182 347.3 460.982 347.4 458.982C347.4 458.682 347.4 458.382 347.4 458.182C347.4 454.282 347.4 450.382 347.4 446.482C347.4 445.882 347.4 445.382 347.3 444.782C347.1 443.582 346 442.482 344.8 442.382C343.6 442.382 342.3 442.382 341 442.382C329 442.382 317.1 442.382 305.1 442.382C303.8 442.382 302.6 442.382 301.3 442.382C300.8 442.382 300.2 442.282 299.7 442.082C298.5 441.782 297.6 440.682 297.5 439.382C297.5 438.682 297.5 437.982 297.5 437.282C297.5 434.882 297.5 432.582 297.5 430.182C297.5 429.182 297.5 428.282 297.5 427.282C297.5 425.282 296.3 424.182 294.4 423.982C294 423.982 293.6 423.982 293.1 423.982C289.2 423.982 285.3 423.982 281.4 423.982C281 423.982 280.6 423.982 280.1 423.982C278.3 424.082 277.2 425.082 277.1 426.782C277.1 427.782 277 428.682 277 429.682C277 453.882 277 478.082 277 502.282C277 503.282 277 504.182 277.1 505.182C277.3 506.782 278.5 507.982 280.2 508.082C281.4 508.082 282.7 508.082 284 508.082C295.8 508.082 307.7 508.082 319.5 508.082C331.3 508.082 330.1 508.082 335.4 508.082C342.4 508.082 349.3 508.082 356.3 508.082C357.4 508.082 358.5 508.082 359.6 507.882C360.6 507.782 361.7 506.682 361.8 505.682C361.9 504.882 361.9 503.982 362 503.182C362 499.882 362 496.482 362 493.182C362 492.182 362 491.282 362 490.282C361.9 488.782 360.8 487.582 359.4 487.482L359.2 487.282Z" fill="black"/>
<path d="M200.5 417.982C199.6 413.582 198.4 409.382 196.3 405.382C194 400.982 191 397.282 186.8 394.482C182.2 391.382 177 389.782 171.5 389.482C170.4 389.482 169.8 390.082 169.7 391.282C169.7 392.282 169.7 393.182 169.7 394.182C169.5 416.282 169.3 438.482 169 460.582C169 465.182 169.1 469.782 169.6 474.382C170.2 480.082 171.5 485.682 173.9 490.882C178 499.582 184.7 505.282 193.8 508.082C195.6 508.682 197.6 508.882 199.5 509.082C200.7 509.282 201.2 508.682 201.2 507.382C201.2 506.082 201.2 504.882 201.2 503.582C201.2 491.082 201.4 478.482 201.5 465.982C201.5 458.882 201.7 451.782 201.7 444.682C201.7 440.182 201.7 435.782 201.6 431.282C201.5 426.782 201.2 422.382 200.3 417.982H200.5Z" fill="black"/>
<path d="M280.202 410.182C281.402 410.182 282.702 410.182 284.002 410.182C295.802 410.182 307.602 410.182 319.402 410.182C331.202 410.182 343.002 410.182 354.802 410.182C356.102 410.182 357.302 410.182 358.602 410.182C360.402 410.082 361.802 408.782 361.802 406.982C361.802 402.282 361.802 397.582 361.802 392.782C361.802 390.982 360.502 389.582 358.702 389.482C357.702 389.482 356.802 389.482 355.802 389.482C331.602 389.482 307.402 389.482 283.202 389.482C282.402 389.482 281.502 389.482 280.702 389.482C280.302 389.482 279.902 389.482 279.502 389.682C278.502 389.882 277.502 390.882 277.302 391.982C277.202 392.682 277.102 393.382 277.102 394.082C277.102 397.982 277.102 401.882 277.102 405.782C277.102 406.382 277.102 406.882 277.202 407.482C277.402 409.182 278.502 410.282 280.202 410.382V410.182Z" fill="black"/>
<path d="M259.802 476.582C258.702 476.582 257.602 476.582 256.502 476.582C251.502 476.582 246.502 476.582 241.502 476.582V476.382C236.602 476.382 231.802 476.382 226.902 476.382C225.902 476.382 225.002 476.382 224.002 476.382C222.102 476.382 220.402 476.882 218.802 477.782C215.602 479.482 213.902 482.082 213.902 485.782C213.902 492.282 213.702 498.882 213.602 505.382C213.602 506.082 213.602 506.782 213.602 507.482C213.602 507.882 214.202 508.482 214.702 508.482C214.802 508.482 215.002 508.482 215.102 508.482C221.402 508.582 227.602 508.282 233.702 506.982C237.202 506.182 240.702 505.182 244.002 503.582C252.702 499.482 258.202 492.682 260.302 483.282C260.702 481.482 260.802 479.682 261.002 477.882C261.002 477.182 260.502 476.582 259.702 476.582H259.802Z" fill="black"/>
<path d="M576.501 501.582C567.301 488.482 558.101 475.482 548.801 462.382C548.201 461.582 547.701 460.782 547.001 460.082C545.901 458.782 544.201 458.682 543.001 459.782C542.801 459.982 542.601 460.182 542.401 460.382C539.101 464.182 535.901 467.982 532.601 471.782C532.101 472.382 531.601 473.182 531.301 473.882C530.801 474.782 530.801 475.782 531.301 476.682C532.001 477.882 532.601 479.082 533.401 480.282C538.601 487.682 543.801 495.082 549.001 502.482C549.401 503.082 549.801 503.582 550.201 504.182C551.401 505.882 553.101 506.782 555.101 507.082C556.301 507.282 557.601 507.282 558.801 507.282C561.201 507.282 563.501 507.282 565.901 507.282C569.001 507.282 572.001 507.282 575.101 507.282C575.801 507.282 576.501 507.082 577.101 506.882C577.901 506.582 578.501 505.182 578.201 504.382C577.701 503.382 577.101 502.482 576.501 501.582Z" fill="black"/>
<path d="M655.801 447.082C650.401 444.482 643.401 441.782 634.801 438.782C632.401 437.882 629.801 436.682 627.001 435.382C622.201 433.182 619.001 431.582 617.301 430.482C613.201 427.882 611.201 424.882 611.201 421.382C611.201 417.882 612.101 416.982 613.901 414.882C615.701 412.782 618.201 410.882 621.301 409.382C625.501 407.782 630.001 406.982 634.701 406.982C639.401 406.982 642.801 407.582 646.901 408.682C650.401 409.582 654.501 411.382 659.301 414.082C659.901 414.382 660.501 414.582 661.001 414.582C661.501 414.582 662.201 414.382 662.601 414.082L662.801 413.882L664.801 411.082C668.201 406.282 670.101 403.282 670.701 401.982C670.801 401.782 670.701 401.382 670.401 400.782C670.101 400.182 669.601 399.682 669.001 399.182C665.901 396.482 662.501 394.282 658.901 392.382C654.901 390.482 650.301 389.082 645.001 388.182C639.701 387.282 634.201 386.882 628.601 387.182C620.901 387.982 614.101 390.082 608.201 393.582C602.301 396.982 597.701 401.282 594.301 406.382C591.001 411.482 589.301 416.882 589.301 422.582C589.301 428.282 590.901 433.282 594.201 438.482C596.901 442.282 601.001 445.582 606.501 448.182C611.901 450.782 618.901 453.482 627.501 456.482C629.901 457.382 632.501 458.582 635.301 459.882C640.101 462.082 643.301 463.682 645.001 464.782C649.101 467.382 651.101 470.382 651.101 473.882C651.101 477.382 650.201 478.282 648.401 480.382C646.601 482.482 644.101 484.382 641.001 485.882C636.801 487.482 632.301 488.282 627.601 488.282C622.901 488.282 619.501 487.682 615.401 486.582C611.901 485.682 607.801 483.882 603.001 481.182C602.401 480.882 601.801 480.682 601.301 480.682C600.801 480.682 600.101 480.882 599.701 481.182L599.501 481.382L597.501 484.182C594.101 488.982 592.201 491.982 591.601 493.282C591.501 493.482 591.601 493.882 591.901 494.482C592.201 495.082 592.701 495.582 593.301 496.082C596.401 498.782 599.801 500.982 603.401 502.882C607.201 504.682 611.801 506.082 616.901 506.982C622.801 508.282 628.201 508.482 633.201 508.082C633.401 508.082 633.501 508.082 633.701 508.082C634.101 508.082 634.601 507.982 635.001 507.882C635.401 507.882 635.701 507.882 636.101 507.782C636.101 507.782 636.201 507.782 636.301 507.782C644.801 506.582 651.401 503.682 655.501 501.482C656.401 500.982 657.201 500.482 658.001 499.982C659.201 499.182 659.901 498.682 659.901 498.682C662.801 496.582 665.301 494.082 667.301 491.282C669.601 487.982 671.201 484.382 672.001 480.382C672.701 477.882 673.101 475.282 673.101 472.682C673.101 467.182 671.501 461.982 668.201 456.782C665.501 452.982 661.401 449.682 655.901 447.082H655.801Z" fill="black"/>
</svg>
