<svg width="842" height="596" viewBox="0 0 842 596" fill="none" xmlns="http://www.w3.org/2000/svg">
<path d="M222.799 246.66C220.299 243.76 217.399 241.36 214.199 239.36C213.999 239.36 213.899 239.16 213.699 239.16C213.499 239.16 213.299 239.16 213.199 239.36C212.999 239.56 212.799 239.86 212.699 240.16C211.899 241.66 211.099 243.26 210.299 244.76C203.199 258.06 196.299 271.46 189.199 284.66C185.799 290.96 182.499 297.36 179.199 303.66C177.599 306.66 176.199 309.66 174.999 312.86C173.299 317.36 171.899 321.96 171.299 326.76C170.599 332.26 171.099 337.66 173.099 342.96C173.299 343.56 173.599 344.26 173.899 344.86C175.599 348.16 177.699 351.16 180.299 353.76C182.099 355.66 184.299 357.16 186.599 358.46C186.799 358.36 186.999 358.26 187.099 358.16C187.299 357.76 187.499 357.36 187.699 357.06C198.099 337.26 208.599 317.46 218.999 297.56C219.299 297.06 219.499 296.56 219.699 296.06C220.099 295.26 220.399 294.46 220.799 293.66C222.499 290.36 224.099 287.06 225.399 283.66C227.199 279.16 228.499 274.46 229.099 269.66C229.499 266.56 229.499 263.46 229.099 260.36C228.299 255.36 226.299 250.86 222.999 246.96L222.799 246.66Z" fill="black"/>
<path d="M172.398 290.36C173.198 291.26 174.698 291.26 175.498 290.36C175.798 290.06 175.998 289.66 176.198 289.26C178.198 285.66 180.098 282.06 182.098 278.46C182.398 277.96 182.598 277.36 182.898 276.76C183.398 275.46 183.398 274.06 182.898 272.76C182.598 271.86 182.198 271.06 181.798 270.16C179.898 266.56 177.998 263.06 176.098 259.46C174.498 256.36 172.898 253.26 171.198 250.26C170.898 249.76 170.598 249.16 170.298 248.66C169.898 247.96 169.298 247.56 168.498 247.46C167.798 247.46 167.098 247.36 166.498 247.26C164.298 247.26 161.998 247.26 159.798 247.26C157.598 247.26 155.398 247.26 153.298 247.26C152.898 247.26 152.398 247.26 151.998 247.26C151.598 247.26 151.298 247.36 150.898 247.56C150.398 247.76 150.098 248.16 150.098 248.66C150.098 249.16 150.098 249.66 150.298 250.16C150.598 250.66 150.798 251.16 151.098 251.66C157.698 263.66 164.298 275.76 170.898 287.76C171.198 288.26 171.498 288.86 171.798 289.36C171.998 289.66 172.198 289.96 172.398 290.26V290.36Z" fill="black"/>
<path d="M293.598 295.26C288.798 292.96 282.598 290.56 274.998 287.96C272.898 287.16 270.598 286.16 268.098 284.96C263.798 282.96 260.998 281.56 259.498 280.66C255.898 278.36 254.098 275.76 254.098 272.66C254.098 269.56 254.898 268.76 256.498 266.86C258.098 264.96 260.298 263.36 263.098 261.96C266.798 260.56 270.798 259.76 274.998 259.76C279.198 259.76 282.198 260.26 285.798 261.26C288.898 262.06 292.498 263.66 296.798 266.06C297.298 266.36 297.798 266.56 298.298 266.56C298.798 266.56 299.398 266.36 299.698 266.06L299.898 265.86L301.698 263.36C304.698 259.16 306.398 256.46 306.898 255.36C306.998 255.16 306.898 254.76 306.598 254.26C306.298 253.76 305.898 253.26 305.398 252.86C302.598 250.46 299.598 248.46 296.498 246.86C293.098 245.26 289.098 244.06 284.498 243.26C279.298 242.06 274.498 241.86 270.098 242.26C269.998 242.26 269.798 242.26 269.698 242.26C269.298 242.26 268.898 242.26 268.498 242.36C268.198 242.36 267.898 242.36 267.598 242.46C267.598 242.46 267.598 242.46 267.498 242.46C259.998 243.46 254.098 246.06 250.498 248.06C249.698 248.46 248.998 248.86 248.298 249.36C247.198 250.06 246.698 250.46 246.698 250.46C244.098 252.36 241.898 254.56 240.198 257.06C238.098 259.96 236.698 263.16 235.998 266.66C235.398 268.86 235.098 271.16 235.098 273.46C235.098 278.26 236.498 282.96 239.398 287.46C241.798 290.86 245.398 293.66 250.298 296.06C255.098 298.36 261.298 300.76 268.898 303.36C270.998 304.16 273.298 305.16 275.798 306.36C280.098 308.36 282.898 309.76 284.398 310.66C287.998 312.96 289.798 315.56 289.798 318.66C289.798 321.76 288.998 322.56 287.398 324.46C285.798 326.36 283.598 327.96 280.798 329.36C277.098 330.76 273.098 331.56 268.898 331.56C264.698 331.56 261.698 331.06 258.098 330.06C254.998 329.26 251.398 327.66 247.098 325.26C246.598 324.96 246.098 324.76 245.598 324.76C245.098 324.76 244.498 324.96 244.198 325.26L243.998 325.46L242.198 327.96C239.198 332.16 237.498 334.86 236.998 335.96C236.898 336.16 236.998 336.56 237.298 337.06C237.598 337.56 237.998 338.06 238.498 338.46C241.298 340.86 244.298 342.86 247.398 344.46C250.898 346.06 254.998 347.36 259.698 348.16C264.398 348.96 269.298 349.26 274.198 349.06C280.998 348.36 286.998 346.46 292.198 343.46C297.398 340.46 301.498 336.66 304.498 332.16C307.398 327.66 308.898 322.86 308.898 317.86C308.898 312.86 307.498 308.36 304.598 303.86C302.198 300.46 298.598 297.66 293.698 295.26H293.598Z" fill="black"/>
<path d="M132.6 295.259C127.8 292.959 121.6 290.559 114 287.959C111.9 287.159 109.6 286.159 107.1 284.959C102.8 282.959 100 281.559 98.5 280.659C94.9 278.359 93.1 275.759 93.1 272.659C93.1 269.559 93.9 268.759 95.5 266.859C97.1 264.959 99.3 263.359 102.1 261.959C105.8 260.559 109.8 259.759 114 259.759C118.2 259.759 121.2 260.259 124.8 261.259C127.9 262.059 131.5 263.659 135.8 266.059C136.3 266.359 136.8 266.559 137.3 266.559C137.8 266.559 138.4 266.359 138.7 266.059L138.9 265.859L140.7 263.359C143.7 259.159 145.4 256.459 145.9 255.359C146 255.159 145.9 254.759 145.6 254.259C145.3 253.759 144.9 253.259 144.4 252.859C141.6 250.459 138.6 248.459 135.5 246.859C132 245.259 127.9 243.959 123.2 243.159C118.5 242.359 113.6 242.059 108.7 242.259C101.9 242.959 95.9 244.859 90.7 247.859C85.5 250.859 81.4 254.659 78.4 259.159C75.5 263.659 74 268.459 74 273.459C74 278.459 75.4 282.959 78.3 287.459C80.7 290.859 84.3 293.659 89.2 296.059C94 298.359 100.2 300.759 107.8 303.359C109.9 304.159 112.2 305.159 114.7 306.359C119 308.359 121.8 309.759 123.3 310.659C126.9 312.959 128.7 315.559 128.7 318.659C128.7 321.759 127.9 322.559 126.3 324.459C124.7 326.359 122.5 327.959 119.7 329.359C116 330.759 112 331.559 107.8 331.559C103.6 331.559 100.6 331.059 97 330.059C93.9 329.259 90.3 327.659 86 325.259C85.5 324.959 85 324.759 84.5 324.759C84 324.759 83.4 324.959 83.1 325.259L82.9 325.459L81.1 327.959C78.1 332.159 76.4 334.859 75.9 335.959C75.8 336.159 75.9 336.559 76.2 337.059C76.5 337.559 76.9 338.059 77.4 338.459C80.2 340.859 83.2 342.859 86.3 344.459C89.7 346.059 93.7 347.259 98.3 348.059C103.5 349.259 108.3 349.459 112.7 349.059C112.8 349.059 113 349.059 113.1 349.059C113.5 349.059 113.9 349.059 114.3 348.959C114.6 348.959 114.9 348.959 115.2 348.859C115.2 348.859 115.2 348.859 115.3 348.859C122.8 347.859 128.7 345.259 132.3 343.259C133.1 342.859 133.8 342.459 134.5 341.959C135.6 341.259 136.1 340.859 136.1 340.859C138.7 338.959 140.9 336.759 142.6 334.259C144.7 331.359 146.1 328.159 146.8 324.659C147.4 322.459 147.7 320.159 147.7 317.859C147.7 313.059 146.3 308.359 143.4 303.859C141 300.459 137.4 297.659 132.5 295.259H132.6Z" fill="black"/>
<path d="M581.597 290.761C577.497 275.661 573.297 260.661 569.197 245.561C568.997 244.861 568.797 244.161 568.597 243.461C568.097 242.161 567.097 241.461 565.797 241.261C564.797 241.161 563.797 241.061 562.897 241.061C558.297 241.061 553.797 241.061 549.197 241.061C544.497 241.061 539.797 241.061 535.197 241.061C534.197 241.061 533.197 241.061 532.297 241.261C530.997 241.461 530.097 242.261 529.597 243.561C529.197 244.561 528.897 245.661 528.697 246.761C522.497 269.161 516.397 291.661 510.297 314.061C509.397 317.361 508.497 320.761 507.697 324.061C507.297 325.761 507.897 326.661 509.697 326.661C510.097 326.661 510.397 326.661 510.797 326.661C514.897 326.661 518.897 326.661 522.997 326.661C523.397 326.661 523.697 326.661 524.097 326.661C526.297 326.561 527.297 325.861 527.897 323.861C528.197 323.061 528.397 322.161 528.597 321.361C529.097 319.661 529.597 318.061 529.997 316.361C530.397 314.661 532.397 313.161 534.097 313.161C534.797 313.161 535.597 313.161 536.297 313.161C544.897 313.161 553.497 313.161 562.197 313.161C562.897 313.161 563.697 313.161 564.397 313.161C566.397 313.261 567.797 314.361 568.597 316.261C568.897 317.061 569.097 317.861 569.297 318.761C570.597 323.561 571.797 328.261 573.097 333.061C573.997 336.361 574.897 339.761 575.797 343.061C576.597 345.961 577.397 346.561 580.497 346.561C584.797 346.561 589.097 346.561 593.397 346.561C593.897 346.561 594.397 346.561 594.897 346.561C595.697 346.561 596.497 345.461 596.297 344.761C595.997 343.561 595.697 342.361 595.397 341.161C590.797 324.461 586.197 307.661 581.697 290.961L581.597 290.761ZM560.297 296.661C559.597 296.761 558.797 296.761 558.097 296.761C554.997 296.761 551.997 296.761 548.897 296.761C545.797 296.761 542.797 296.761 539.697 296.761C539.097 296.761 538.497 296.761 537.897 296.661C536.697 296.461 535.797 295.061 535.997 293.861C536.297 292.661 536.597 291.461 536.897 290.261C538.497 284.861 540.097 279.461 541.697 273.961C542.697 270.461 543.697 266.861 544.597 263.261C544.897 262.161 545.397 261.261 546.397 260.561C548.297 259.061 552.197 259.361 553.497 262.561C553.897 263.561 554.097 264.661 554.397 265.761C555.697 270.461 556.897 275.261 558.297 279.961C559.297 283.461 560.597 286.961 561.497 290.561C561.797 291.661 562.097 292.661 562.297 293.761C562.597 294.861 561.497 296.361 560.397 296.461L560.297 296.661Z" fill="black"/>
<path d="M686 241.361C685.2 241.261 684.3 241.061 683.5 241.061C677.3 241.061 671.2 241.061 665 241.061C664.6 241.061 664.3 241.061 663.9 241.061C662.2 241.061 660.8 241.661 659.7 242.961C658.5 244.361 657.3 245.761 656.1 247.161C648.3 256.261 640.6 265.361 632.8 274.461C632 275.361 631.1 276.261 630.3 277.161C630.3 277.161 630 277.261 630 277.161C629.8 277.061 629.5 276.861 629.5 276.661C629.5 275.561 629.4 274.461 629.4 273.361C629.4 264.661 629.4 255.861 629.4 247.161C629.4 246.161 629.4 245.161 629.4 244.161C629.4 242.061 628.3 241.061 626.1 240.961C625.7 240.961 625.4 240.961 625 240.961C620.7 240.961 616.4 240.961 612.1 240.961C611.5 240.961 610.9 240.961 610.3 241.061C609 241.261 608 242.161 608 243.561C608 244.761 608 246.061 608 247.261C608 262.761 608 278.261 608 293.861C608 309.461 608 324.361 608 339.661C608 340.761 608 341.861 608 342.961C608 343.461 608 343.961 608.2 344.461C608.4 345.361 609 345.961 609.9 346.261C610.6 346.461 611.4 346.461 612.1 346.461C616.5 346.461 621 346.461 625.4 346.461C625.9 346.461 626.4 346.461 626.9 346.461C628.4 346.361 629.5 345.361 629.6 343.861C629.6 342.761 629.6 341.661 629.6 340.561C629.6 332.161 629.6 323.761 629.6 315.461C629.6 311.561 630.8 308.361 633.4 305.361C645.4 291.461 657.3 277.461 669.2 263.561C674.6 257.261 679.9 251.061 685.3 244.761C685.9 244.061 686.3 243.361 686.8 242.661C687 242.361 686.8 241.461 686.3 241.461L686 241.361Z" fill="black"/>
<path d="M492.298 328.759C491.198 328.759 490.098 328.759 488.998 328.759C473.998 328.759 458.898 328.759 443.898 328.759C442.798 328.759 441.698 328.759 440.598 328.759C439.098 328.759 437.798 327.459 437.798 325.859C437.798 320.359 437.798 314.759 437.798 309.259C437.798 307.859 438.898 306.759 440.398 306.659C441.498 306.659 442.598 306.659 443.698 306.659C454.398 306.659 465.098 306.659 475.798 306.659C476.898 306.659 477.998 306.659 479.098 306.659C480.798 306.659 481.698 305.559 481.798 303.759C481.798 303.559 481.798 303.259 481.798 303.059C481.798 299.659 481.798 296.159 481.798 292.759C481.798 292.259 481.798 291.759 481.798 291.259C481.698 290.159 480.698 289.159 479.598 289.059C478.498 289.059 477.398 289.059 476.298 289.059C465.698 289.059 455.098 289.059 444.498 289.059C443.398 289.059 442.298 289.059 441.198 289.059C440.698 289.059 440.198 288.959 439.798 288.859C438.698 288.559 437.898 287.559 437.798 286.459C437.798 285.859 437.798 285.259 437.798 284.659C437.798 282.559 437.798 280.459 437.798 278.359C437.798 277.459 437.798 276.659 437.798 275.759C437.798 273.959 436.798 272.959 435.098 272.859C434.698 272.859 434.398 272.859 433.998 272.859C430.598 272.859 427.098 272.859 423.698 272.859C423.298 272.859 422.998 272.859 422.598 272.859C420.998 272.959 419.998 273.859 419.898 275.359C419.898 276.259 419.898 277.059 419.898 277.959C419.898 299.359 419.898 320.859 419.898 342.259C419.898 343.159 419.898 343.959 419.998 344.859C420.098 346.259 421.198 347.359 422.698 347.459C423.798 347.459 424.898 347.459 425.998 347.459C436.498 347.459 446.898 347.459 457.398 347.459C467.898 347.459 466.798 347.459 471.398 347.459C477.598 347.459 483.698 347.459 489.898 347.459C490.898 347.459 491.898 347.459 492.798 347.259C493.698 347.159 494.698 346.159 494.798 345.259C494.798 344.559 494.898 343.759 494.898 343.059C494.898 340.059 494.898 337.159 494.898 334.159C494.898 333.259 494.898 332.459 494.898 331.559C494.898 330.259 493.798 329.159 492.598 329.059L492.298 328.759Z" fill="black"/>
<path d="M351.8 267.461C351 263.561 349.9 259.761 348.1 256.261C346.1 252.361 343.4 249.061 339.7 246.561C335.6 243.861 331.1 242.461 326.2 242.061C325.2 242.061 324.7 242.561 324.6 243.661C324.6 244.561 324.6 245.361 324.6 246.261C324.4 265.861 324.2 285.461 324 305.061C324 309.161 324 313.161 324.5 317.261C325 322.361 326.1 327.261 328.3 331.861C331.9 339.561 337.8 344.561 345.9 347.061C347.5 347.561 349.3 347.761 351 347.961C352 348.161 352.5 347.661 352.5 346.461C352.5 345.361 352.5 344.261 352.5 343.161C352.5 332.061 352.7 320.961 352.7 309.861C352.7 303.561 352.9 297.261 352.9 290.961C352.9 287.061 352.9 283.061 352.8 279.161C352.7 275.261 352.4 271.261 351.7 267.361L351.8 267.461Z" fill="#E66B00"/>
<path d="M422.298 260.46C423.398 260.46 424.498 260.46 425.598 260.46C436.098 260.46 446.498 260.46 456.998 260.46C467.498 260.46 477.898 260.46 488.398 260.46C489.498 260.46 490.598 260.46 491.698 260.46C493.298 260.46 494.498 259.16 494.498 257.56C494.498 253.36 494.498 249.16 494.498 245.06C494.498 243.46 493.298 242.26 491.798 242.16C490.898 242.16 490.098 242.16 489.198 242.16C467.798 242.16 446.398 242.16 424.998 242.16C424.298 242.16 423.498 242.16 422.798 242.16C422.398 242.16 422.098 242.16 421.698 242.26C420.798 242.46 419.898 243.36 419.798 244.26C419.798 244.86 419.598 245.46 419.598 246.06C419.598 249.46 419.598 252.96 419.598 256.36C419.598 256.86 419.598 257.36 419.598 257.86C419.798 259.36 420.798 260.36 422.298 260.46Z" fill="black"/>
<path d="M404.199 319.261C403.199 319.261 402.199 319.261 401.299 319.261C396.899 319.261 392.399 319.261 387.999 319.261V319.061C383.699 319.061 379.399 319.061 375.099 319.061C374.199 319.061 373.399 319.061 372.499 319.061C370.899 319.061 369.399 319.561 367.899 320.261C365.099 321.761 363.499 324.061 363.499 327.361C363.499 333.161 363.299 338.961 363.199 344.661C363.199 345.261 363.199 345.861 363.199 346.461C363.199 346.861 363.799 347.361 364.199 347.361C364.299 347.361 364.399 347.361 364.599 347.361C370.099 347.461 375.699 347.161 381.099 345.961C384.199 345.261 387.299 344.361 390.199 342.961C397.899 339.261 402.799 333.261 404.599 324.961C404.899 323.361 405.099 321.761 405.199 320.261C405.199 319.661 404.699 319.161 403.999 319.161L404.199 319.261Z" fill="#E66B00"/>
<path d="M684.6 341.36C676.4 329.76 668.3 318.26 660.1 306.66C659.6 305.96 659.1 305.26 658.5 304.56C657.5 303.36 656 303.26 654.9 304.36C654.7 304.56 654.5 304.66 654.4 304.86C651.5 308.26 648.6 311.56 645.8 314.96C645.3 315.56 645 316.16 644.6 316.86C644.2 317.66 644.1 318.56 644.6 319.36C645.2 320.46 645.8 321.56 646.5 322.56C651.1 329.16 655.7 335.66 660.3 342.16C660.7 342.66 661 343.16 661.4 343.66C662.5 345.16 664 345.96 665.7 346.26C666.8 346.46 667.9 346.46 669 346.46C671.1 346.46 673.2 346.46 675.3 346.46C678 346.46 680.7 346.46 683.4 346.46C684 346.46 684.6 346.26 685.2 346.06C685.9 345.86 686.5 344.56 686.1 343.86C685.6 342.96 685.1 342.16 684.6 341.36Z" fill="black"/>
<path d="M753.1 291.06C748.3 288.76 742.1 286.36 734.5 283.76C732.4 282.96 730.1 281.96 727.6 280.76C723.3 278.76 720.5 277.36 719 276.46C715.4 274.16 713.6 271.56 713.6 268.46C713.6 265.36 714.4 264.56 716 262.66C717.6 260.76 719.8 259.16 722.6 257.76C726.3 256.36 730.3 255.56 734.5 255.56C738.7 255.56 741.7 256.06 745.3 257.06C748.4 257.86 752 259.46 756.3 261.86C756.8 262.16 757.3 262.36 757.8 262.36C758.3 262.36 758.9 262.16 759.2 261.86L759.4 261.66L761.2 259.16C764.2 254.96 765.9 252.26 766.4 251.16C766.5 250.96 766.4 250.56 766.1 250.06C765.8 249.56 765.4 249.06 764.9 248.66C762.1 246.26 759.1 244.26 756 242.66C752.5 241.06 748.4 239.76 743.7 238.96C739 238.16 734.1 237.86 729.2 238.06C722.4 238.76 716.4 240.66 711.2 243.66C706 246.66 701.9 250.46 698.9 254.96C696 259.46 694.5 264.26 694.5 269.26C694.5 274.26 695.9 278.76 698.8 283.26C701.2 286.66 704.8 289.46 709.7 291.86C714.5 294.16 720.7 296.56 728.3 299.16C730.4 299.96 732.7 300.96 735.2 302.16C739.5 304.16 742.3 305.56 743.8 306.46C747.4 308.76 749.2 311.36 749.2 314.46C749.2 317.56 748.4 318.36 746.8 320.26C745.2 322.16 743 323.76 740.2 325.16C736.5 326.56 732.5 327.36 728.3 327.36C724.1 327.36 721.1 326.86 717.5 325.86C714.4 325.06 710.8 323.46 706.5 321.06C706 320.76 705.5 320.56 705 320.56C704.5 320.56 703.9 320.76 703.6 321.06L703.4 321.26L701.6 323.76C698.6 327.96 696.9 330.66 696.4 331.76C696.3 331.96 696.4 332.36 696.7 332.86C697 333.36 697.4 333.86 697.9 334.26C700.7 336.66 703.7 338.66 706.8 340.26C710.2 341.86 714.2 343.06 718.8 343.86C724 345.06 728.8 345.26 733.2 344.86C733.3 344.86 733.5 344.86 733.6 344.86C734 344.86 734.4 344.86 734.8 344.76C735.1 344.76 735.4 344.76 735.7 344.66C735.7 344.66 735.7 344.66 735.8 344.66C743.3 343.66 749.2 341.06 752.8 339.06C753.6 338.66 754.3 338.26 755 337.76C756.1 337.06 756.6 336.66 756.6 336.66C759.2 334.76 761.4 332.56 763.1 330.06C765.2 327.16 766.6 323.96 767.3 320.46C767.9 318.26 768.2 315.96 768.2 313.66C768.2 308.86 766.8 304.16 763.9 299.66C761.5 296.26 757.9 293.46 753 291.06H753.1Z" fill="black"/>
</svg>
