<svg width="842" height="596" viewBox="0 0 842 596" fill="none" xmlns="http://www.w3.org/2000/svg">
<path d="M269.9 462.423C286.1 492.323 311.3 511.023 343.6 520.423C349.7 522.223 356.2 522.623 362.6 523.623C363.9 523.823 365.4 523.623 366.7 523.223C367.4 523.023 368.4 522.123 368.5 521.423C368.9 517.823 369.3 514.123 369.4 510.523C370 462.723 370.5 415.023 371 367.223C371 367.223 371 367.223 371.1 367.223C371.1 361.223 371.1 355.323 371.1 349.323C371.1 311.623 371.3 274.023 371.3 236.323C371.3 213.323 368.9 190.523 363.4 168.123C359.7 153.323 354.4 139.223 346.6 126.123C335.5 107.523 320.3 93.2231 300.5 84.1231C290 79.2231 279 75.9231 267.6 74.3231C250.1 71.9231 250.6 70.9231 250.5 88.3231C250.2 138.423 249.8 188.423 249.4 238.523C249.4 245.423 249.2 252.323 249.2 259.223C248.8 293.223 248.2 327.123 248 361.123C248 379.023 249.9 396.923 253.3 414.523C256.6 431.223 261.7 447.423 269.9 462.523V462.423Z" fill="#E66B00"/>
<path d="M594.501 406.723C594.901 403.723 592.801 401.523 589.601 401.323C586.901 401.123 584.101 401.023 581.301 401.023C561.101 400.823 540.901 400.623 520.701 400.423V400.023C499.101 400.023 477.501 400.223 456.001 400.023C445.301 399.923 436.401 403.923 428.101 410.123C422.401 414.423 418.701 420.223 417.101 427.123C416.201 430.623 416.101 434.423 416.101 438.023C415.801 461.923 415.501 485.723 415.301 509.623C415.301 512.323 415.501 515.123 415.601 517.823C415.601 519.423 417.501 521.123 419.201 521.323C420.101 521.323 421.001 521.623 421.901 521.623C442.101 522.023 462.301 521.223 482.301 517.623C500.001 514.523 517.201 509.623 533.301 501.523C564.301 485.823 583.701 460.923 591.401 427.123C592.901 420.423 593.601 413.523 594.501 406.723Z" fill="#E66B00"/>
</svg>
