<svg width="1191" height="842" viewBox="0 0 1191 842" fill="none" xmlns="http://www.w3.org/2000/svg">
<path d="M393.089 297.16C407.149 302.85 421.829 306.36 436.819 308.66C457.379 311.82 478.069 312.56 498.789 311.59C524.509 310.38 550.209 308.83 575.919 307.23C598.259 305.84 620.589 304 642.939 302.71C691.549 299.9 740.189 297.28 788.819 294.66C812.479 293.39 810.119 293.09 805.439 272.22C796.389 231.79 772.859 202.89 734.399 186.69C729.249 184.53 723.989 182.59 718.669 180.89C700.979 175.23 682.709 172.4 664.249 171.29C639.639 169.81 614.989 170.82 590.399 172.07C557.979 173.73 525.589 175.97 493.179 177.96C493.179 177.88 493.169 177.8 493.169 177.71C487.029 178.04 480.869 178.36 474.729 178.71C440.649 180.68 406.559 182.65 372.469 184.67C354.039 185.76 335.599 186.98 317.169 188.19C313.969 188.4 311.899 190.77 312.469 193.79C313.949 201.46 314.899 209.36 317.399 216.7C330.439 254.89 355.529 281.99 393.089 297.16Z" fill="#AABB11"/>
<path d="M801.338 578C788.278 571.43 774.478 566.93 760.158 564.04C734.258 558.82 708.078 557.18 681.708 558.6C677.248 558.83 672.778 559.25 668.318 559.47C629.788 561.37 591.238 563.25 552.708 565.14C552.708 565.23 552.718 565.33 552.718 565.43C524.248 567.13 495.788 568.9 467.308 570.52C439.948 572.08 412.588 573.47 385.228 575.01C381.908 575.2 378.598 575.81 375.298 576.33C373.368 576.64 371.458 579.24 371.748 581.32C372.528 586.84 372.878 592.5 374.388 597.83C385.288 635.93 408.138 664.21 444.118 681.38C458.338 688.17 473.398 692.33 488.848 695.22C509.868 699.16 531.108 699.95 552.358 699.09C585.328 697.74 618.278 695.88 651.208 693.98C678.008 692.43 704.768 690.37 731.558 688.78C759.468 687.11 787.398 685.74 815.318 684.16C828.718 683.41 842.118 682.52 855.508 681.66C857.738 681.52 859.958 681.31 862.178 681.04C864.928 680.71 866.888 678.06 866.788 675.08C866.428 664.88 863.518 655.26 860.318 645.7C850.048 614.94 830.228 592.51 801.338 578Z" fill="#AABB11"/>
<path d="M422.53 521.641C439.33 528.171 456.76 532.031 474.63 533.861C495.82 536.031 517.04 536.731 538.32 534.761C545 534.151 551.74 534.141 558.43 533.761C581.33 532.481 604.24 531.221 627.13 529.821C658.4 527.911 689.67 525.831 720.93 523.911C756.12 521.751 791.29 519.631 826.49 517.621C836.45 517.061 836.86 514.821 835.61 506.241C834.88 501.271 833.71 496.351 832.41 491.481C822.58 454.631 800.69 427.851 765.75 412.111C760.66 409.821 755.45 407.751 750.15 405.981C733.09 400.281 715.54 396.961 697.59 395.811C663.45 393.611 629.37 395.701 595.28 397.381C584.66 397.911 574.06 398.711 563.45 399.321C552.28 399.971 541.11 400.531 529.93 401.131C529.93 401.191 529.94 401.251 529.94 401.321C503.13 402.871 476.32 404.471 449.5 405.971C422.69 407.471 395.87 408.851 369.05 410.391C361.79 410.801 354.54 411.521 347.3 412.201C345.67 412.351 343.98 412.731 342.51 413.421C341.69 413.811 340.75 415.081 340.75 415.951C340.81 425.571 342.94 434.851 346.31 443.771C360.34 480.841 385.36 507.191 422.53 521.641Z" fill="#AABB11"/>
</svg>
