<svg width="699" height="878" viewBox="0 0 699 878" fill="none" xmlns="http://www.w3.org/2000/svg">
<path d="M188.819 775.798C188.18 776.034 187.489 776.183 186.92 776.524C179.943 780.778 172.231 783.615 165.158 787.677C163.398 788.692 161.586 789.629 159.888 790.732C155.476 793.577 150.696 795.625 145.838 797.533C144.105 798.216 142.31 798.426 140.498 798.181C139.632 798.067 138.73 797.752 137.995 797.288C134.747 795.187 133.005 792.062 132.427 788.324C131.613 783.037 132.375 777.925 134.747 773.119C137.679 767.166 141.662 761.984 146.346 757.301C148.263 755.384 150.092 753.37 151.878 751.479C151.729 750.893 151.747 750.385 151.51 750.14C150.408 749.011 149.147 748.022 148.096 746.84C147.064 745.676 146.232 744.336 145.234 742.979C144.271 743.049 143.378 743.076 142.494 743.181C137.96 743.715 133.469 743.435 128.934 742.874C120.356 741.824 111.768 741.552 103.242 743.513C102.576 743.662 101.902 743.767 101.228 743.855C92.7371 744.993 85.1388 748.416 78.0569 753.055C75.6059 754.666 73.3124 756.548 71.0626 758.447C67.2459 761.66 64.4009 760.023 62.3088 757.397C60.7418 755.419 59.6388 753.178 58.9823 750.753C58.5096 749.002 58.0982 747.225 57.8968 745.43C57.748 744.1 57.9318 742.725 58.0631 741.386C58.2032 740.047 58.4833 738.716 58.6759 737.377C58.7459 736.904 57.8793 736.125 57.3541 736.116C52.9772 736.099 48.8191 737.219 44.8011 738.813C39.7413 740.817 34.7954 743.041 30.2609 746.122C28.2038 747.514 26.0416 748.792 23.8006 749.869C20.798 751.313 17.1214 749.545 16.2635 746.21C14.9504 741.097 14.4865 735.854 16.0009 730.75C17.4716 725.769 19.2398 720.832 21.297 716.061C24.7548 708.008 30.331 701.39 36.8176 695.656C42.5863 690.561 48.4164 685.484 54.9205 681.3C55.6821 680.81 56.3386 680.144 57.1352 679.733C64.3747 676.004 71.334 671.688 79.2825 669.482C81.0245 669.001 82.714 668.318 84.3947 667.652C92.9035 664.317 101.71 662.321 110.858 662.05C113.02 661.989 114.657 661.078 116.451 660.045C118.578 658.82 120.995 658.076 123.306 657.2C131.035 654.259 139.036 653.034 147.309 653.498C150.302 653.664 153.139 654.32 155.8 655.668C158.023 656.798 160.273 657.883 162.427 659.126C164.851 660.518 166.567 662.505 167.548 665.228C168.467 667.793 169.876 668.755 172.091 668.151C175.802 667.136 179.278 667.906 182.77 668.948C184.504 669.465 186.202 670.104 187.891 670.751C188.986 671.18 190.106 671.364 191.209 671.014C194.221 670.069 197.048 671.075 199.849 671.872C201.346 672.301 202.668 673.22 203.797 674.437C205.338 676.091 206.966 677.667 208.708 679.103C209.592 679.829 210.94 679.987 211.93 679.321C220.018 673.92 228.571 669.193 235.994 662.82C237.202 661.787 238.419 660.763 239.504 659.608C244.967 653.786 249.414 647.239 252.933 640.078C253.23 639.483 253.388 638.809 253.563 638.152C253.887 636.935 253.046 635.036 251.873 634.782C247.383 633.819 243.435 631.622 239.373 629.617C228.326 624.172 220.561 615.567 215.3 604.642C210.441 594.549 207.815 583.799 206.388 572.699C205.478 565.635 205.802 558.685 207.054 551.717C207.413 549.712 207.649 547.681 207.912 545.878C205.959 537.29 204.016 528.904 202.169 520.5C201.784 518.741 201.635 516.902 201.547 515.099C201.259 509.217 200.374 503.369 200.444 497.46C200.453 496.559 200.261 495.657 200.164 494.773C199.438 494.72 198.702 494.65 198.44 495.438C198.081 496.506 197.818 497.6 197.556 498.694C196.374 503.623 194.264 508.079 191.087 512.044C188.784 514.915 186.281 517.454 182.595 518.496C180.512 519.082 179.155 520.483 178.105 522.374C176.231 525.735 174.174 528.992 172.266 532.335C171.233 534.139 169.929 535.671 168.327 536.966C166.935 538.096 164.799 538.262 163.214 537.378C161.201 536.257 159.529 534.787 158.12 532.948C156.605 530.979 154.995 529.079 153.358 527.215C153.174 527.004 152.307 527.022 152.15 527.223C151.204 528.493 150.434 529.884 149.48 531.145C148.806 532.038 147.983 532.843 147.116 533.561C145.777 534.673 143.282 534.682 142.056 533.544C139.395 531.084 136.787 528.563 134.108 526.015C132.917 525.849 132.208 526.908 131.254 527.442C129.932 528.186 128.68 528.055 127.385 527.407C125.485 526.47 124.146 524.956 122.973 523.258C121.423 521.026 120.014 518.706 117.957 516.64C117.187 517.174 116.46 517.664 115.76 518.172C114.744 518.907 113.58 518.986 112.547 518.469C111.138 517.769 109.746 516.955 108.538 515.957C106.787 514.521 105.246 512.841 103.539 511.344C100.02 508.254 97.7794 504.393 96.405 499.973C95.5296 497.163 94.3741 494.449 93.9102 491.508C93.6913 490.124 93.7001 488.838 93.9977 487.49C95.3195 481.484 97.0615 475.637 100.379 470.384C101.727 468.257 102.725 466.051 102.979 463.478C103.233 460.983 104.345 458.733 105.544 456.51C109.142 449.804 114.114 444.246 119.883 439.413C128.076 432.55 136.848 426.528 146.687 422.212C149.173 421.127 151.686 420.085 154.189 419.017C157.349 417.669 160.65 417.003 164.081 416.767C167.372 416.54 170.349 417.669 173.281 418.798C175.198 419.533 176.765 421.03 177.781 422.825C179.549 425.967 182.061 428.716 182.928 432.349C182.981 432.559 183.121 432.752 183.226 432.953C184.294 434.94 186.561 435.938 188.347 435.238C191.533 433.995 194.842 433.294 198.204 432.708C203.228 431.841 208.122 432.437 212.98 433.706C214.284 434.047 215.527 434.642 216.805 435.098C218.521 435.71 220.036 435.325 221.016 433.986C221.55 433.259 222.067 432.507 222.469 431.701C224.097 428.436 226.233 425.512 228.343 422.562C231.512 418.142 234.69 413.73 237.359 408.967C238.576 406.805 240.126 404.818 241.605 402.822C242.962 401.001 244.371 399.268 244.8 396.913C244.949 396.082 245.606 395.32 246.131 394.585C247.181 393.106 248.17 391.547 249.422 390.252C255.638 383.818 259.988 376.123 264.418 368.472C268.357 361.67 270.265 354.247 270.703 346.456C270.957 341.904 270.204 337.422 268.786 333.08C268.549 332.345 267.228 331.732 266.562 332.03C265.538 332.494 264.523 332.993 263.516 333.501C258.675 335.969 254.123 338.972 249.098 341.108C242.017 344.119 235.031 347.375 227.897 350.264C219.677 353.591 211.089 353.591 202.449 352.348C193.03 350.991 184.644 347.253 177.194 341.362C175.951 340.381 174.673 339.436 173.404 338.481C171.023 336.696 168.475 335.339 165.534 334.621C163.118 334.035 160.772 333.142 158.426 332.31C154.767 331.014 151.423 329.089 148.298 326.821C145.427 324.738 143.641 321.91 143.089 318.365C142.809 316.571 142.617 314.767 142.301 312.982C141.794 310.119 142.468 307.58 144.236 305.313C145.208 304.07 146.249 302.888 147.352 301.567C147.956 299.448 147.414 297.19 147.335 294.949C147.221 291.745 147.519 288.628 148.455 285.538C149.042 283.595 150.25 282.448 152.141 281.94C153.007 281.713 153.9 281.564 154.688 281.398C156.106 280.242 156.238 278.596 156.772 277.135C157.586 274.911 159.389 274.097 161.542 273.939C162.427 273.869 163.337 274.088 164.23 274.211C165.096 274.333 165.963 274.5 166.698 274.622C167.714 273.554 167.924 272.486 167.775 271.313C167.67 270.49 166.576 269.571 165.867 269.773C165.228 269.956 164.589 270.149 163.967 270.403C162.497 270.998 161.087 271.786 159.582 272.215C156.631 273.046 153.769 272.933 151.16 270.989C149.357 269.65 147.44 268.459 145.75 267.313C143.728 267.785 143.124 269.414 142.03 270.49C140.043 272.442 137.714 272.906 135.132 272.127C133.618 271.672 132.156 271.042 130.991 269.878C130.037 268.923 129.004 268.048 127.893 267.033C127.271 267.514 126.588 267.777 126.334 268.267C124.846 271.138 122.649 273.414 120.382 275.646C119.576 276.434 118.71 277.178 117.782 277.826C115.567 279.376 113.256 279.699 110.744 278.43C107.89 276.994 105.273 275.226 102.752 273.292C102.069 272.766 101.255 272.399 100.37 271.882C99.2237 273.563 98.2258 275.06 97.1928 276.548C96.4225 277.669 95.7572 278.894 94.8206 279.848C92.6671 282.054 91.179 282.282 88.8242 280.767C86.9246 279.542 85.0513 278.281 83.353 277.161C81.7598 277.362 81.2959 278.43 80.7006 279.323C79.6939 280.837 78.8098 282.422 77.7768 283.91C77.1203 284.847 76.1924 285.494 75.0631 285.845C73.715 286.265 72.0868 285.792 71.5091 284.619C69.697 280.969 67.7887 277.353 66.1867 273.607C64.1296 268.801 62.9916 263.689 61.9411 258.585C61.0219 254.086 61.5209 249.551 62.1249 245.043C63.3067 236.219 65.7665 227.763 69.4957 219.683C71.2202 215.954 72.2531 212.102 72.6033 207.944C72.9797 203.453 73.6012 198.945 74.7742 194.542C75.4133 192.135 75.9648 189.684 76.2974 187.224C77.5492 177.848 80.9895 169.357 85.8304 161.269C94.3916 146.956 105.815 135.585 119.848 126.7C123.533 124.371 127.49 122.664 131.648 121.579C136.9 120.204 142.249 119.119 147.676 118.594C148.35 118.532 149.042 118.541 149.707 118.41C161.183 116.23 172.739 116.887 184.267 117.657C193.021 118.243 190.903 118.856 195.63 112.116C196.925 110.26 198.02 108.264 199.236 106.356C201.311 103.099 203.578 99.9916 206.283 97.2167C206.914 96.5776 207.421 95.8161 207.947 95.072C208.516 94.2754 208.551 93.4087 208.183 92.5071C207.237 90.2048 206.292 87.9026 205.382 85.5916C204.681 83.832 204.725 82.055 205.312 80.2605C206.668 76.1462 208.498 72.2507 211.089 68.7842C212.026 67.5324 213.243 66.4294 214.512 65.5102C218.941 62.2801 223.782 59.7414 229.122 58.4896C234.462 57.2378 239.837 56.9577 245.177 58.9886C249.615 60.6781 254.176 62.0437 258.684 63.5494C262.999 64.9938 267.105 66.8758 270.948 69.3269C271.692 69.7996 272.541 70.1147 273.329 70.4912C277.268 68.0576 281.129 65.6941 284.954 63.2868C295.31 56.7564 306.165 51.0926 316.696 44.8687C320.005 42.9078 323.462 41.1833 326.92 39.5113C335.21 35.5195 343.246 36.3862 350.774 41.4021C353.401 43.1529 356.009 44.9737 358.592 46.7945C363.249 50.0684 367.503 53.8501 370.829 58.4896C373.779 62.5952 377.369 65.9829 381.282 69.1081C386.07 72.9247 390.832 76.7677 395.594 80.6106C396.478 81.3197 397.406 81.9937 398.194 82.7991C401.844 86.5545 405.924 89.7847 410.239 92.7259C415.885 96.5776 420.63 101.48 425.742 105.971C430.172 109.857 434.522 113.84 438.987 117.674C441.587 119.907 443.872 122.41 445.929 125.124C447.583 127.304 448.817 129.728 449.702 132.32C450.297 134.053 450.665 135.812 450.481 137.659C450.087 141.721 449.754 145.792 449.316 149.845C449.168 151.184 448.896 152.55 448.432 153.81C447.478 156.366 446.533 158.879 446.594 161.689C446.612 162.538 446.148 163.431 445.797 164.254C445.001 166.136 444.248 168.018 444.02 170.084C443.924 170.977 443.688 171.878 443.355 172.71C440.247 180.483 437.376 188.37 432.281 195.172C431.476 196.24 430.881 197.492 430.321 198.726C429.305 200.959 429.524 203.261 430.776 205.248C432.824 208.496 434.995 211.691 437.376 214.711C438.794 216.505 440.011 218.387 441.175 220.322C441.876 221.486 442.506 222.694 443.329 223.762C445.867 227.071 447.356 230.8 448.345 234.818C448.949 237.278 449.474 239.668 448.677 242.172C448.187 243.721 448.266 245.288 448.529 246.881C449.211 251.066 447.469 254.41 444.642 257.246C443.373 258.515 441.832 259.513 440.387 260.651C439.757 262.078 439.206 263.575 438.462 264.967C437.805 266.183 436.79 267.085 435.337 267.383C434.015 267.654 432.614 267.794 431.406 268.346C428.272 269.773 425.217 269.335 422.153 268.302C420.884 267.873 419.685 267.225 418.415 266.805C418.144 266.717 417.654 267.155 417.321 267.418C417.172 267.54 417.085 267.82 417.076 268.039C416.857 272.6 415.658 276.968 414.555 281.363C413.566 285.311 412.804 289.32 411.762 293.259C409.364 302.284 405.276 310.644 401.293 319.03C396.504 329.106 390.289 338.289 383.487 347.095C377.255 355.166 371.031 363.255 364.886 371.396C362.163 375.011 360.001 379.021 357.06 382.505C353.112 387.179 349.321 391.985 345.417 396.703C338.624 404.923 332.242 413.441 326.824 422.641C325.108 425.556 323.611 428.629 322.246 431.736C320.083 436.673 319.698 441.777 321.23 447.012C322 449.655 323.751 451.257 326.281 452.071C330.01 453.271 333.818 453.533 337.696 452.903C339.482 452.605 341.276 452.282 343.071 452.194C350.573 451.818 357.926 450.469 365.279 449.069C366.172 448.903 367.03 448.517 367.923 448.439C378.331 447.519 388.757 447.02 399.131 448.789C403.14 449.472 407.149 450.321 411.062 451.424C417.269 453.174 423.239 452.57 428.955 449.909C436.545 446.373 444.292 443.195 451.829 439.51C458.727 436.139 466.01 433.531 473.188 430.756C480.156 428.06 487.194 425.556 494.215 422.982C497.401 421.809 500.579 420.61 503.8 419.542C505.542 418.973 507.223 418.334 508.659 417.187C510.655 415.594 512.966 414.78 515.417 414.15C525.519 411.567 535.656 409.151 545.994 407.698C547.78 407.444 549.601 407.331 551.404 407.278C561.383 406.989 571.336 407.19 581.298 408.022C590.183 408.757 598.718 410.683 607.183 413.327C616.979 416.391 626.004 421.083 634.951 425.976C635.94 426.519 636.885 427.167 637.892 427.674C649.762 433.758 659.514 442.521 668.662 452.036C669.922 453.341 671.051 454.785 672.399 455.993C674.964 458.287 677.03 460.965 678.939 463.784C680.208 465.657 681.547 467.496 682.825 469.369C683.893 470.936 684.182 472.704 684.007 474.551C683.841 476.276 682.099 477.869 680.278 477.878C679.63 477.878 678.895 477.755 678.343 477.44C677.17 476.784 676.19 475.698 674.956 475.26C668.565 472.976 662.499 469.798 655.82 468.31C653.176 467.723 650.594 466.813 647.933 466.323C643.258 465.456 638.54 464.826 633.848 464.038C631.615 463.662 629.339 463.346 627.186 462.681C624.533 461.876 621.864 461.648 619.132 461.613C610.737 461.508 602.342 461.587 594 462.594C588.826 463.224 583.688 464.108 578.541 464.887C578.094 464.957 577.657 465.097 577.236 465.255C568.947 468.266 560.464 470.743 552.533 474.718C545.013 478.482 537.888 482.876 531.121 487.848C526.377 491.341 521.772 495.027 517.159 498.694C511.407 503.264 506.829 508.919 503.1 515.178C499.957 520.448 496.114 525.219 492.954 530.462C490.626 534.34 487.938 538.008 485.522 541.833C482.625 546.429 479.692 551.025 477.031 555.761C472.033 564.672 466.238 573.05 460.215 581.278C460.084 581.462 459.944 581.646 459.83 581.838C456.188 588.15 451.706 593.849 446.988 599.364C444.633 602.121 442.278 604.879 439.854 607.575C437.578 610.113 435.135 612.468 432.01 614.009C431.432 614.298 430.96 614.832 430.478 615.287C429.76 615.97 429.62 617.738 430.312 618.421C431.275 619.358 432.255 620.312 433.376 621.038C435.879 622.658 438.322 624.47 439.924 626.912C442.129 630.274 445.141 633.154 446.148 637.294C447.382 642.398 448.213 647.501 447.557 652.78C446.83 658.654 445.123 664.3 443.837 670.051C441.508 680.442 439.048 690.798 436.667 701.171C436.361 702.493 436.081 703.832 435.906 705.18C434.864 713.286 432.728 721.174 430.995 729.14C430.417 731.783 429.48 734.357 428.675 736.957C427.012 742.367 425.375 747.785 423.641 753.169C421.637 759.419 419.737 765.722 417.417 771.858C414.923 778.459 411.088 784.385 406.746 789.926C405.652 791.318 404.103 792.412 402.606 793.419C395.305 798.374 387.243 801.263 378.401 801.324C373.893 801.35 369.376 800.615 364.877 800.116C362.399 799.844 359.948 799.372 357.489 798.943C353.654 798.269 349.838 798.207 345.995 798.881C343.763 799.275 341.469 799.319 339.254 799.766C335.035 800.615 330.894 801.718 326.911 803.46C321.93 805.639 316.914 807.688 312.144 810.332C307.592 812.853 302.768 814.84 297.647 816.03C295.45 816.538 293.288 817.273 291.178 818.079C287.51 819.488 283.737 819.812 279.842 819.864C272.953 819.952 266.3 818.91 259.831 816.433C258.981 816.757 258.141 817.054 257.309 817.396C252.933 819.199 248.494 819.234 244.012 817.877C242.927 817.553 241.85 817.203 240.765 816.871C234.234 814.831 227.835 814.971 221.541 817.834C219.685 818.674 217.733 819.295 215.843 820.048C212.892 821.23 210.17 822.736 207.579 824.67C202.502 828.461 197.179 831.927 191.927 835.49C187.708 838.344 183.129 840.086 177.93 840.025C174.052 839.981 170.909 838.431 168.3 835.726C166.024 833.354 164.878 830.544 164.746 827.156C164.519 821.361 165.517 815.873 167.915 810.62C172.17 801.315 177.133 792.447 183.908 784.691C185.694 782.652 187.401 780.533 189.135 778.459C190.413 778.03 191.069 776.936 191.787 775.911C191.901 775.754 191.997 775.386 191.927 775.334C191.612 775.097 191.253 774.791 190.894 774.773C190.036 774.73 189.178 774.817 188.819 775.798ZM371.696 163.658C371.889 163.343 372.23 163.028 372.213 162.722C372.204 162.503 371.731 162.275 371.425 162.126C371.302 162.065 370.969 162.17 370.926 162.275C370.856 162.433 370.891 162.739 371.004 162.853C371.258 163.124 371.591 163.317 371.889 163.536C371.985 164.385 372.423 164.875 373.324 164.831C373.307 165.751 373.762 166.206 374.672 166.206C375.101 166.967 375.408 167.843 375.977 168.482C378.559 171.344 381.246 174.11 383.838 176.973C388.556 182.182 393.563 187.171 397.853 192.712C403.98 200.643 411.08 207.638 417.89 214.921C420.219 217.416 422.556 219.849 424.377 222.756C425.34 224.288 426.451 225.732 427.476 227.229C430.942 232.289 434.102 237.515 436.422 243.213C437.017 244.894 437.577 246.592 438.243 248.247C438.383 248.588 438.882 248.833 439.267 249.026C439.6 249.192 440.072 248.098 440.046 247.398C439.976 245.761 439.363 244.343 438.427 243.03C434.785 233.155 429.27 224.366 422.705 216.216C417.304 209.52 411.929 202.779 405.643 196.853C404.497 195.767 403.464 194.551 402.431 193.351C395.323 185.105 387.444 177.603 380.065 169.611C378.997 168.447 377.789 167.414 376.616 166.346C376.283 166.048 375.872 165.707 375.469 165.672C375.171 165.646 374.839 166.092 374.524 166.32C374.611 165.821 375.46 165.523 374.725 164.779C373.998 164.035 373.683 164.875 373.175 164.945C373.228 164.42 374.06 164.052 373.263 163.343C372.44 162.643 372.186 163.553 371.696 163.658ZM100.764 164.621C99.7052 165.147 99.4251 166.153 99.1887 167.186C98.6722 168.053 98.1558 168.928 97.6393 169.795C97.1403 170.241 96.4925 170.609 96.1774 171.16C93.3849 176.036 90.6975 180.982 88.9205 186.34C87.5724 190.384 86.3818 194.489 85.2001 198.586C84.3247 201.641 84.3159 204.793 84.491 207.944C84.5435 208.802 85.3226 209.537 86.268 209.625C87.1347 209.704 88.369 209.047 88.4127 208.391C88.6754 204.338 89.8133 200.451 90.5574 196.485C90.6712 195.873 91.1965 195.33 91.5379 194.752C91.1877 198.289 91.3453 201.843 90.5487 205.37C89.4632 210.194 90.2248 211.218 95.5209 211.236C98.8823 212.592 102.331 213.757 105.579 215.341C112.906 218.93 120.11 222.756 127.385 226.432C135.684 230.625 144.122 234.547 153.253 236.552C158.776 237.76 164.379 238.845 169.999 239.344C179.059 240.158 188.145 239.616 197.118 238.11C208.069 236.28 219.003 234.319 229.91 232.192C241.929 229.855 253.747 226.66 265.416 222.983C272.979 220.602 280.376 217.722 287.563 214.317C295.879 210.378 303.136 205.134 308.992 197.947C310.69 195.855 312.678 193.894 314.849 192.31C320.381 188.265 326.465 185.254 333.188 183.678C335.175 183.214 337.153 182.724 339.14 182.252C340.909 182.47 342.668 182.698 344.437 182.917L344.393 182.873C344.542 183.661 345.084 184.072 345.802 184.3C345.811 184.983 345.82 185.666 345.828 186.348C343.526 188.222 341.014 189.666 338.09 190.349C337.652 190.454 337.215 190.568 336.786 190.717C330.159 193.019 324.793 196.949 321.099 202.998C320.626 203.769 320.215 204.574 319.777 205.362C316.486 211.314 314.069 217.643 311.907 224.069C311.776 224.463 311.951 224.953 311.986 225.399C310.874 226.301 310.629 227.561 310.542 228.892L310.62 228.743C308.808 230.196 307.845 232.289 306.672 234.197C301.446 242.636 294.505 249.394 286.442 255.031C282.915 257.491 279.299 259.854 275.561 261.99C269.652 265.369 263.971 269.107 258.255 272.784C252.162 276.706 246 280.531 239.837 284.356C236.178 286.624 232.449 288.786 228.781 291.036C222.986 294.59 217.217 298.188 211.431 301.742C209.89 302.687 208.332 303.641 206.703 304.42C201.81 306.784 196.864 309.042 191.962 311.388C190.964 311.87 190.062 312.553 189.108 313.148C188.434 313.174 187.699 313.025 187.104 313.253C184.119 314.391 180.95 314.689 177.86 315.363C172.712 316.474 167.539 316.404 162.392 315.249C161.516 315.056 160.632 314.899 159.748 314.776C159.547 314.75 159.17 314.872 159.144 314.995C159.048 315.371 158.899 315.932 159.091 316.142C159.835 316.973 160.571 317.962 161.534 318.426C163.958 319.608 166.427 320.869 169.027 321.49C173.299 322.514 177.098 324.283 180.529 326.996C181.764 327.977 183.199 328.695 184.486 329.614C187.27 331.601 190.334 333.072 193.476 334.341C199.832 336.906 206.415 338.587 213.313 337.492C218.425 336.687 223.546 335.82 228.509 334.148C232.58 332.774 236.642 331.408 240.563 329.666C246.752 326.909 252.941 324.143 259.122 321.368C259.515 321.193 259.822 320.834 260.172 320.562C262.299 320.519 264.111 319.547 265.871 318.531C268.838 316.816 272.042 315.651 275.334 314.855C282.809 313.034 290.303 311.345 297.98 310.434C306.97 309.375 315.864 307.58 324.627 305.269C338.694 301.567 350.205 293.994 358.915 282.273C360.132 280.636 361.349 278.999 362.601 277.397C365.98 273.09 368.658 268.372 370.838 263.373C374.742 254.453 378.358 245.411 381.168 236.079C382.665 231.089 383.733 226.003 384.617 220.856C385.536 215.516 384.634 210.509 383.015 205.502C382.148 202.814 380.555 200.67 378.41 198.919C377.185 197.921 375.845 197.063 374.559 196.135C373.237 195.172 373.342 193.833 373.639 192.459C376.826 191.452 379.846 191.96 382.813 193.351C384.538 194.157 385.781 195.4 386.42 197.177C387.952 201.422 389.16 205.747 389.641 210.255C389.86 212.269 390 214.291 390.298 216.295C391.313 223.071 391.06 229.767 389.239 236.377C388.048 240.701 386.796 245.008 385.571 249.332C385.343 249.726 385.054 250.094 384.906 250.514C382.271 257.999 379.014 265.229 375.592 272.381C370.199 283.656 364.229 294.572 355.58 303.772C354.819 304.245 354.04 304.674 353.313 305.191C350.179 307.414 347.168 309.848 343.894 311.852C340.62 313.866 337.04 315.24 333.24 316.133C329.905 316.921 326.5 317 323.173 317.647C317.151 318.82 311.032 319.109 304.974 319.845C299.328 320.527 293.804 321.622 288.289 322.891C287.852 322.996 287.44 323.189 287.02 323.346C286.364 323.591 285.681 324.834 285.838 325.596C286.127 326.926 286.372 328.266 286.784 329.553C288.587 335.269 289.349 341.029 287.843 346.955C287.51 348.26 287.563 349.66 287.379 351.008C286.46 357.792 284.683 364.235 281.365 370.346C277.785 376.92 273.933 383.327 270.038 389.7C263.875 399.793 256.242 408.827 248.678 417.835C242.244 425.504 236.248 433.399 231.092 441.952C230.278 443.309 229.446 444.657 228.693 446.04C228.194 446.95 228.448 448.456 229.201 449.191C230.173 450.146 231.127 451.126 232.212 451.94C234.392 453.568 236.624 455.127 238.891 456.623C241.15 458.12 242.883 460.309 245.387 461.473C245.929 461.884 246.455 462.313 247.006 462.716C248.915 464.117 250.858 463.74 252.731 462.681C253.712 462.13 254.648 461.456 255.462 460.685C259.41 456.947 263.376 453.227 266.44 448.657C267.692 446.793 269.311 445.165 270.86 443.528C272.699 441.584 274.896 441.821 277.128 442.775C278.371 443.3 279.124 445.077 278.494 446.163C277.82 447.336 277.154 448.535 276.305 449.577C273.154 453.446 269.898 457.219 266.755 461.088C263.166 465.5 258.981 469.334 254.972 473.326C252.556 475.733 250.744 475.917 247.593 474.446C246.98 474.157 246.341 473.904 245.763 473.545C242.13 471.242 238.392 469.08 234.917 466.55C229.052 462.287 223.336 457.823 217.97 452.921C214.267 449.542 210.153 446.784 205.417 444.963C201.049 443.283 196.969 443.659 193.065 446.058C191.332 447.126 189.634 448.29 188.119 449.638C182.28 454.803 175.724 458.707 168.545 461.718C164.799 463.294 161.183 465.228 157.621 467.198C152.596 469.973 148.525 473.93 144.823 478.245C143.194 480.136 141.89 482.272 141.356 484.776C141.251 485.257 141.899 486.238 142.406 486.29C143.299 486.387 144.201 486.448 145.094 486.544C146.214 486.658 147.352 486.702 148.455 486.938C150.845 487.455 152.508 489.354 152.5 491.735C152.491 493.994 152.255 496.252 152.123 498.511C151.169 499.832 150.95 501.286 151.484 502.8C151.659 503.29 152.15 503.334 152.535 503.08C154.224 501.942 154.382 500.279 154.119 498.476C154.522 496.952 154.942 495.429 155.336 493.897C158.067 483.384 164.028 475.173 173.089 469.238C176.31 467.128 179.847 465.622 183.698 465.018C184.434 464.905 184.959 465.377 185.327 465.973C185.738 466.629 185.467 468.108 184.906 468.441C184.329 468.783 183.751 469.159 183.138 469.43C178.271 471.558 174.446 474.98 170.962 478.911C167.941 482.316 165.429 486.028 163.372 490.063C161.017 492.304 160.151 495.245 159.564 498.292C159.503 498.589 159.923 498.983 160.116 499.333C160.483 499.123 161.008 499.001 161.201 498.686C162.549 496.41 163.827 494.09 165.123 491.779C167.731 489.678 170.568 489.932 173.378 491.166C175.015 491.884 176.485 492.969 178.105 493.749C180.241 494.773 181.659 496.445 182.753 498.467C182.569 500.025 182.403 501.566 181.694 503.028C181.116 504.227 180.748 505.531 180.328 506.801C180.284 506.941 180.477 507.282 180.617 507.326C180.985 507.44 181.545 507.623 181.755 507.448C182.429 506.879 183.191 506.267 183.523 505.496C184.513 503.246 185.502 500.962 185.309 498.406C185.729 497.119 186.184 495.832 186.57 494.536C188.005 489.66 190.29 485.319 194.299 482.045C194.825 481.616 195.28 481.108 195.77 480.635C199.044 477.449 201.906 473.982 203.272 469.5C203.613 468.362 204.349 467.426 205.495 467.128C208.778 466.261 210.275 464.02 210.818 460.843C211.22 458.462 213.129 458.462 214.337 459.223C217.401 461.14 220.412 463.136 223.388 465.193C226.443 467.303 228.439 470.306 229.954 473.632C230.418 474.656 230.672 475.777 231.092 476.827C233.867 483.804 237.027 490.527 243.076 495.403C244.117 496.243 244.897 497.408 245.842 498.388C247.847 500.48 249.912 501.671 253.046 500.27C255.287 499.263 257.703 498.589 259.962 497.539C271.088 492.339 281.339 485.756 290.758 477.895C294.408 474.849 297.822 471.549 300.799 467.811C303.687 464.196 305.928 460.37 305.456 455.459C305.342 454.26 306.594 453.621 307.889 454.102C308.738 454.417 309.544 454.82 310.367 455.188C310.489 457.42 310.437 459.617 309.596 461.744C309.272 462.55 309.237 463.478 309.08 464.344C308.668 464.87 308.169 465.351 307.854 465.929C304.099 472.984 299.267 479.208 293.62 484.872C287.326 491.184 280.061 496.182 272.69 501.067C268.514 503.833 264.032 505.969 259.375 507.807C256.145 509.085 252.81 509.479 249.396 509.593C247.759 509.646 246.358 509.068 244.967 508.157C237.543 503.316 232.256 496.62 228.194 488.89C226.942 486.5 225.839 483.935 225.253 481.318C224.588 478.377 223.117 475.847 222.014 473.133C221.471 471.803 220.281 471.102 219.029 470.498C218.145 470.078 217.007 470.349 216.709 471.111C216.464 471.741 216.088 472.363 216.009 473.019C215.387 478.184 214.652 483.349 214.284 488.531C213.995 492.593 213.987 496.699 214.214 500.769C214.512 505.96 214.801 511.204 215.772 516.298C217.086 523.188 218.959 529.998 221.533 536.529C224.771 544.74 227.897 553.021 232.212 560.768C232.983 562.151 233.613 563.613 234.313 565.04C238.638 573.785 243.4 582.267 248.906 590.339C254.963 599.206 262.518 606.699 270.23 614.061C271.692 615.462 273.408 616.609 275.106 617.729C280.052 620.994 285.366 623.524 291.091 625.1C292.325 625.441 293.717 626.649 294.89 625.573C296.22 624.356 294.697 623.13 294.277 621.966C293.437 619.62 292.412 617.344 291.616 614.989C290.101 610.472 289.138 605.815 288.447 601.097C287.431 594.181 285.497 587.318 287.326 580.245C287.44 579.816 287.431 579.344 287.414 578.888C287.221 573.163 288.99 567.719 289.769 562.134C290.171 559.21 291.134 556.444 292.369 553.73C294.522 548.985 296.623 544.214 298.426 539.33C301.114 532.073 304.353 525.122 308.555 518.618C309.018 517.9 309.097 516.937 309.36 516.097C310.585 514.775 311.828 513.471 313.019 512.114C314.21 510.757 315.251 509.252 316.521 507.974C318.7 505.768 321.37 504.752 324.522 505.172C325.695 505.33 326.622 506.652 326.141 507.615C325.843 508.219 325.555 508.831 325.204 509.409C320.258 517.541 315.584 525.805 312.45 534.848C311.863 536.555 311.032 538.174 310.332 539.846C305.333 551.804 301.508 564.024 300.851 577.129C300.361 586.916 300.65 596.571 303.171 606.087C303.687 608.048 304.151 610.043 304.852 611.943C306.821 617.292 309.561 622.255 313.08 626.719C315.873 630.265 319.042 633.53 322.85 636.025C327.402 639.01 332.225 641.408 337.486 642.993C344.848 645.208 352.201 647.344 359.808 648.63C362.942 649.156 366.015 649.821 369.201 649.725C371.285 649.663 373.272 650.083 375.136 650.933C377.85 652.167 380.695 652.867 383.61 653.27C387.103 653.751 389.983 655.336 392.67 657.559C395.848 660.185 398.211 663.521 400.934 666.532C402.868 668.668 403.753 671.128 403.604 673.99C403.438 674.139 403.289 674.323 403.096 674.445C400.916 675.872 399.752 675.811 398.395 674.148C397.537 673.097 396.837 671.898 395.892 670.935C395.559 670.594 394.719 670.743 393.948 670.655C393.861 672.204 393.817 673.561 393.694 674.909C392.933 683.339 391.252 691.419 386.079 698.484C383.4 702.143 380.791 705.854 377.876 709.33C373.324 714.748 368.072 719.405 361.988 723.064C356.316 726.478 349.986 728.387 343.815 730.636C342.773 731.013 341.6 731.118 340.48 731.214C338.677 731.363 336.856 731.407 335.044 731.486C333.801 730.899 332.776 730.085 331.884 729.008C329.861 726.575 327.699 724.264 325.633 721.874C323.979 719.957 321.965 718.565 319.681 717.497C316.179 715.869 312.643 714.564 308.703 714.311C305.99 714.135 303.328 713.838 300.632 714.512C299.328 714.836 297.945 714.906 296.597 714.967C292.903 715.116 289.471 716.236 286.267 717.961C283.09 719.668 279.956 721.515 276.988 723.563C273.644 725.866 270.493 728.457 267.289 730.952C266.037 731.923 264.829 732.947 263.218 733.28C262.711 732.562 262.037 731.897 261.73 731.1C261.389 730.199 261.932 729.332 262.509 728.632C264.952 725.647 267.525 722.775 270.712 720.552C279.177 714.652 283.755 712.306 293.515 708.743C293.901 707.754 293.533 706.957 292.736 706.432C290.11 704.69 287.545 702.852 284.744 701.39C280.691 698.834 276.384 697.022 271.482 697.03C271.036 697.03 270.58 696.952 270.143 696.855C264.032 695.498 258.054 696.742 252.083 697.836C249.667 698.282 247.33 699.184 244.967 699.919C241.675 700.943 238.891 702.825 236.449 705.215C236.178 705.478 235.959 706.056 236.064 706.362C236.186 706.712 236.659 707.062 237.053 707.185C238.988 707.763 240.984 708.165 242.892 708.804C248.731 710.774 252.206 714.914 253.502 720.858C253.931 722.819 253.983 724.868 254.211 726.881C253.519 728.588 253.729 730.383 253.799 732.151C253.887 734.339 252.959 736.545 253.878 738.725C256.154 740.064 258.071 737.955 260.233 738.051C261.091 738.095 261.967 737.788 262.824 737.648C267.49 736.624 272.174 736.143 276.962 736.554C279.028 736.738 280.962 737.141 282.871 737.885C289.375 740.406 291.826 743.776 291.756 750.718C291.721 754.071 291.826 757.546 289.786 760.54C287.957 766.186 284.954 771.254 281.759 776.165C277.33 782.984 272.594 789.611 267.989 796.317C266.589 797.778 265.153 799.214 263.787 800.702C262.877 801.7 263.236 803.004 264.409 803.372C268.821 804.773 273.347 805.027 277.872 804.379C286.626 803.118 295.222 801.07 303.696 798.549C305.211 798.102 306.716 797.56 308.161 796.912C316.634 793.078 325.414 790.014 334.125 786.792C336.672 785.847 339.254 784.998 341.81 784.061C343.964 783.273 346.179 782.967 348.472 782.888C353.252 782.731 357.996 782.941 362.697 783.746C364.973 784.14 367.205 784.166 369.464 783.851C371.705 783.536 373.946 783.177 376.178 782.792C383.164 781.575 389.799 779.29 395.927 775.736C401.179 772.69 405.267 768.593 406.388 762.247C406.545 761.362 406.878 760.496 407.228 759.664C408.462 756.679 408.97 753.58 408.804 750.359C408.987 749.615 409.171 748.862 409.364 748.118C410.003 745.964 410.791 743.837 411.246 741.64C412.034 737.885 412.506 734.059 413.303 730.304C414.152 726.33 415.395 722.443 415.702 718.346C415.807 717.015 416.306 715.702 416.691 714.407C417.986 710.074 419.343 705.758 420.63 701.425C424.219 689.283 427.581 677.08 430.618 664.79C431.765 660.142 431.923 655.397 432.789 650.74C433.034 649.427 432.885 648.026 432.798 646.669C432.649 644.14 431.879 641.794 430.531 639.649C428.832 636.935 426.819 634.493 423.983 632.891C420.376 630.851 417.505 628.033 415.028 624.767C414.914 624.619 414.642 624.592 414.345 624.47C412.743 626.247 410.747 627 408.322 626.361C408.016 623.988 408.935 621.914 409.863 619.83C412.725 613.414 415.264 606.866 417.61 600.239C418.897 596.606 420.394 593.052 421.733 589.446C424.806 581.156 427.94 572.883 430.014 564.278C432.413 554.351 434.566 544.381 434.785 534.121C434.908 528.23 434.916 522.33 434.041 516.474C433.708 514.233 433.358 512 433.061 509.751C432.141 502.73 430.312 496.025 426.968 489.704C424.298 484.671 421.094 479.996 417.759 475.435C414.389 470.84 410.055 467.041 404.812 464.651C400.076 462.497 395.139 460.773 390.263 458.943C387.917 458.059 385.475 457.516 382.945 457.543C378.638 457.595 374.34 457.648 370.033 457.779C365.017 457.928 360.158 458.952 355.379 460.475C349.339 462.401 343.001 463.224 336.996 465.334C335.945 465.701 334.772 465.78 333.643 465.894C331.148 466.139 328.583 466.191 326.229 465.369C320.819 463.495 315.698 461.097 312.581 455.871C312.24 455.293 311.732 454.811 311.303 454.295C310.979 453.446 310.734 452.562 310.332 451.765C307.539 446.241 307.39 440.534 308.747 434.59C309.92 429.452 312.082 424.768 314.463 420.129C317.982 413.266 322.281 406.884 326.614 400.538C331.201 393.823 335.508 386.89 341.513 381.27C342.003 380.806 342.414 380.255 342.817 379.712C346.214 375.186 349.759 370.766 352.954 366.117C360.255 355.499 367.59 344.924 374.147 333.798C379.119 325.368 382.971 316.492 386.543 307.44C386.945 306.407 387.007 305.234 387.225 304.131C387.899 303.23 388.784 302.416 389.204 301.418C392.171 294.301 394.57 286.965 396.172 279.446C398.054 270.604 400.023 261.763 401.258 252.799C401.932 247.87 402.685 242.942 403.017 237.979C403.376 232.56 403.359 227.115 403.385 221.679C403.394 218.282 403.262 214.886 403.035 211.489C402.798 208.032 401.652 205.003 399.297 202.263C392.521 194.358 386.175 186.077 378.734 178.759C378.095 178.128 377.587 177.358 376.992 176.675C372.493 171.589 367.993 166.503 363.459 161.444C362.093 159.92 360.675 158.467 358.504 158.073C357.313 157.855 356.613 156.874 355.974 155.937C353.926 152.917 351.413 150.326 348.7 147.919C348.56 147.796 348.139 147.726 348.061 147.814C347.798 148.103 347.465 148.488 347.474 148.829C347.483 149.495 347.588 150.204 347.859 150.799C348.919 153.101 348.778 155.115 346.923 157.023C346.362 157.592 346.292 158.651 346.003 159.483C345.426 159.141 344.865 158.756 344.253 158.459C338.79 155.832 335.639 151.35 333.731 145.748C332.628 142.518 331.901 139.209 331.253 135.874C330.255 130.761 329.292 125.64 328.321 120.519C327.489 116.134 325.441 112.431 322 109.568C320.784 108.553 319.523 107.59 318.193 106.723C315.531 104.999 312.835 103.336 310.121 101.681C305.666 98.9674 301 96.6477 296.203 94.5993C291.134 92.4458 285.812 91.4917 280.315 91.4566C273.136 91.4216 267.079 94.0215 262.054 99.1163C255.033 106.233 248.722 113.937 242.997 122.121C241.955 123.61 240.677 124.993 239.968 126.621C238.743 129.44 236.729 131.514 234.453 133.396C232.186 135.27 229.849 137.055 227.538 138.876C227.319 138.841 227.1 138.806 226.881 138.78C225.244 138.614 223.844 138.045 223.388 136.294C222.942 134.613 223.572 133.274 224.964 132.276C226.759 130.989 228.483 129.615 229.787 127.794C230.33 127.032 230.488 126.209 230.225 125.308C230.4 125.299 230.593 125.334 230.742 125.264C230.838 125.22 230.855 125.028 230.908 124.905C230.707 125.071 230.514 125.247 230.313 125.413C229.455 125.632 228.562 125.789 227.73 126.096C224.982 127.12 222.303 128.345 219.502 129.212C216.928 130.009 214.319 130.875 211.562 130.823C202.099 130.63 192.601 131.295 183.182 129.667C181.632 129.396 180.031 129.422 178.455 129.361C175.522 129.229 172.599 129.265 169.683 128.687C168.388 128.424 166.987 128.555 165.648 128.643C163.179 128.809 160.711 129.221 158.242 129.256C154.128 129.308 150.162 130.271 146.267 131.348C137.259 133.834 129.136 138.263 121.415 143.446C118.955 145.1 116.828 147.114 114.928 149.363C111.278 153.67 107.636 157.986 104.817 162.914C104.24 163.921 103.504 164.735 102.261 164.901C102.305 164.508 102.436 164.096 102.366 163.72C102.305 163.369 102.025 163.054 101.841 162.73C101.552 162.976 101.185 163.168 101.001 163.475C100.887 163.816 100.869 164.245 100.764 164.621ZM363.196 156.489C363.625 156.375 364.063 156.27 364.483 156.13C364.693 156.06 364.877 155.911 365.069 155.797C364.964 155.631 364.868 155.465 364.763 155.307C364.483 154.913 364.071 154.896 363.721 155.377C363.476 155.71 363.406 156.165 363.257 156.568C363.66 156.043 364.071 155.526 364.57 154.878C363.748 154.099 362.986 153.311 362.146 152.637C361.988 152.515 361.463 152.786 361.156 152.961C361.069 153.014 361.06 153.443 361.174 153.556C361.795 154.187 362.522 154.729 363.1 155.395C363.292 155.622 363.179 156.13 363.196 156.489ZM83.7644 219.744C79.834 225.119 77.2603 231.116 75.7897 237.576C75.1857 240.22 74.9318 242.933 74.4854 245.612C73.5312 251.319 74.6167 256.878 75.7547 262.428C75.8597 262.953 76.5688 263.444 77.1115 263.741C77.2954 263.846 77.9606 263.391 78.1795 263.05C79.5013 260.949 80.7444 258.795 82.0399 256.686C83.0291 255.066 83.2217 253.342 83.0729 251.468C82.7753 247.634 82.5126 243.791 82.3988 239.948C82.18 233.085 83.2305 226.415 85.8566 220.033C85.9617 219.666 86.2155 219.272 86.1542 218.948C85.9967 218.142 85.4627 217.932 84.8237 218.414C84.351 218.746 83.7119 218.991 83.7644 219.744ZM346.222 128.512C346.616 128.345 347.01 128.197 347.387 128.013C347.43 127.995 347.369 127.776 347.36 127.654C346.984 127.934 346.608 128.214 346.231 128.494C348.034 129.028 348.752 130.91 350.328 131.777C353.339 133.423 355.703 135.882 358.075 138.307C360.281 140.574 362.443 142.885 364.71 145.091C372.002 152.173 379.338 159.211 386.648 166.276C387.619 167.221 388.468 168.289 389.449 169.226C395.664 175.152 401.888 181.061 408.13 186.944C408.602 187.39 409.25 187.661 409.845 187.959C409.933 188.003 410.213 187.74 410.353 187.574C410.467 187.443 410.598 187.197 410.554 187.066C409.74 184.878 408.025 183.346 406.51 181.7C399.63 174.216 392.705 166.766 385.79 159.308C384.713 158.152 383.671 156.953 382.516 155.876C377.395 151.097 372.501 146.072 366.925 141.8C365.49 140.706 364.106 139.533 362.802 138.281C358.697 134.35 353.934 131.304 349.295 128.083C348.166 127.312 347.168 127.829 346.222 128.512ZM186.771 808.773C185.405 808.301 185.187 809.465 184.696 810.235C182.315 812.765 181.65 816.197 180.083 819.147C179.356 820.512 179.54 822.219 179.908 823.804C180.074 824.539 181.274 825.318 182 825.055C182.63 824.837 183.339 824.705 183.856 824.32C186.377 822.429 188.986 820.609 191.314 818.499C195.017 815.137 199.088 812.301 203.325 809.736C208.743 806.454 214.459 803.897 220.867 802.961C224.675 802.409 228.457 801.972 232.3 801.954C237.71 801.937 243.12 801.954 248.398 801.954C255.095 797.122 259.874 790.898 264.383 784.42C265.109 783.562 265.915 782.748 266.554 781.829C271.955 773.977 276.533 765.661 280.603 757.056C281.181 755.83 281.724 754.578 282.258 753.335C283.466 750.516 283.405 747.61 282.792 744.669C282.529 743.4 281.321 742.402 279.921 742.148C276.507 741.544 273.136 741.85 269.836 742.761C263.07 744.643 256.434 746.919 250.07 749.877C247.418 751.112 244.844 752.574 242.358 754.132C237.57 757.143 232.86 760.277 228.15 763.402C226.829 764.277 225.586 765.258 224.343 766.238C216.508 772.427 209.461 779.474 202.475 786.582C196.269 792.903 191.235 800.168 186.395 807.557C186.228 807.81 186.543 808.362 186.631 808.782L186.771 808.773ZM155.388 769.372C155.021 769.617 154.513 769.784 154.303 770.125C152.578 773.005 150.898 775.92 149.226 778.844C149.147 778.984 149.208 779.273 149.305 779.439C149.567 779.912 149.987 780.043 150.469 779.816C159.231 775.692 167.95 771.464 176.757 767.446C190.036 761.389 203.92 757.905 218.617 758.211C218.845 758.22 219.073 758.211 219.292 758.211C226.89 758.211 225.577 758.517 231.748 754.289C232.851 753.536 234.094 752.897 234.506 751.462C238.506 750.429 241.868 748.249 244.958 745.956C245.457 742.086 245.903 738.497 246.393 734.926C246.901 731.31 246.735 727.704 246.21 724.124C245.649 720.316 243.75 717.497 238.778 716.42C235.871 715.79 232.965 715.974 230.111 717.007C219.44 720.867 209.26 725.673 199.963 732.23C193.135 737.044 186.395 741.99 179.532 746.743C170.349 753.099 162.462 760.793 155.388 769.372ZM198.991 706.695C201.635 706.187 203.36 704.594 204.349 702.143C204.603 701.521 204.681 700.812 204.988 700.226C206.213 697.871 208.944 696.873 211.334 697.853C212.814 698.457 214.188 699.201 215.352 700.331C216 700.961 216.709 701.521 217.409 702.09C217.847 702.449 218.941 702.361 219.265 701.941C220.097 700.873 220.85 699.735 221.751 698.737C222.802 697.564 223.835 696.286 225.13 695.428C228.326 693.301 231.608 691.288 234.952 689.397C241.509 685.668 248.634 683.567 255.979 682.009C260.715 681.002 265.372 680.88 270.116 681.659C271.893 681.948 273.714 682.009 275.509 682.236C277.496 682.499 279.465 682.832 281.453 683.138C283.851 680.792 286.083 678.551 288.377 676.38C290.023 674.831 291.651 673.229 293.472 671.907C299.153 667.793 304.843 663.687 310.69 659.827C312.896 658.373 314.367 656.518 315.488 654.277C316.836 651.607 316.258 648.902 313.772 647.107C311.531 645.496 309.649 643.597 308.003 641.408C307.46 640.691 306.935 639.92 306.261 639.343C305.788 638.94 305.044 638.581 304.449 638.625C302.882 638.739 301.315 639.001 299.774 639.36C295.958 640.253 292.132 640.244 288.324 639.535C283.449 638.633 278.476 638.073 273.881 635.99C273.688 635.902 273.417 635.824 273.233 635.885C272.611 636.095 271.832 636.2 271.438 636.646C270.703 637.478 270.125 638.485 269.6 639.483C267.919 642.687 266.273 645.917 264.636 649.147C262.789 652.78 260.697 656.246 258.325 659.581C255.174 664.028 252.013 668.414 248.118 672.248C245.693 676.231 241.885 678.744 238.287 681.475C237.027 682.429 235.758 683.374 234.462 684.276C230.181 687.244 225.787 690.01 220.788 691.647C216.709 692.986 212.665 694.395 208.305 694.711C206.336 694.851 204.244 695.043 202.572 696.689C202.318 697.941 202.195 699.315 201.74 700.558C201.197 702.029 200.339 703.386 199.665 704.821C199.385 705.425 199.245 706.099 199.044 706.747C198.79 707.027 198.519 707.299 198.3 707.605C198.247 707.684 198.379 707.894 198.431 708.043C198.632 707.605 198.808 707.15 198.991 706.695ZM634.635 439.799L634.784 439.834C634.635 438.827 633.865 438.258 633.086 437.873C630.25 436.481 627.44 434.958 624.472 433.916C615.745 430.835 607.07 427.482 597.808 426.213C596.696 426.064 595.628 425.617 594.517 425.407C591.628 424.864 588.739 424.033 585.833 423.945C577.018 423.691 568.194 422.956 559.37 423.534C554.862 423.832 550.362 424.374 545.854 424.777C538.177 425.46 530.605 426.677 523.243 429.093C520.24 430.082 517.167 430.861 514.139 431.771C510.033 433.014 505.928 434.266 501.84 435.562C494.285 437.96 487.037 441.12 479.727 444.149C475.342 445.97 470.93 447.73 466.579 449.629C462.85 451.257 459.156 452.973 455.505 454.776C451.452 456.772 447.469 458.917 443.434 460.974C439.783 462.83 436.011 464.309 431.887 464.721C430.513 464.861 430.11 466.043 430.995 467.172C432.807 469.492 434.54 471.881 436.536 474.035C439.355 477.081 441.377 480.565 442.847 484.399C443.898 487.148 445.036 489.862 445.911 492.663C447.531 497.837 449.238 503.028 449.605 508.49C450.026 514.802 450.831 521.104 450.262 527.46C450.008 529.245 449.719 531.031 449.518 532.826C449.343 534.401 449.343 536.003 449.115 537.57C448.345 542.945 447.644 548.338 446.682 553.677C445.438 560.575 444.327 567.517 441.744 574.118C440.676 576.858 439.862 579.703 439.057 582.539C438.759 583.598 438.794 584.754 438.716 585.865C438.698 586.067 438.864 586.434 438.987 586.452C439.398 586.522 440.011 586.636 440.23 586.417C441.027 585.638 441.806 584.789 442.401 583.852C445.316 579.256 448.283 574.687 451.006 569.986C454.175 564.497 457.107 558.868 460.162 553.318C462.132 549.747 464.312 546.272 466.089 542.613C469.774 535.023 474.624 528.204 479.578 521.437C480.515 520.159 481.609 518.977 482.432 517.629C486.468 511.029 491.79 505.391 496.316 499.158C496.85 498.432 497.48 497.767 498.102 497.11C505.63 489.232 513.587 481.817 522.21 475.147C524.713 473.212 527.296 471.312 530.027 469.728C540.812 463.486 551.518 457.061 563.187 452.527C566.137 451.38 569.148 450.382 572.177 449.454C574.768 448.657 577.42 448.036 580.055 447.371C588.643 445.208 597.309 443.598 606.229 443.799C609.853 443.878 613.486 443.703 617.11 443.755C619.824 443.79 622.59 443.755 625.251 444.202C632.386 445.41 639.59 446.364 646.409 449.016C646.996 449.244 647.714 449.156 648.379 449.165C648.545 449.165 648.808 448.99 648.852 448.841C648.913 448.649 648.869 448.342 648.738 448.185C646.707 445.69 643.704 444.394 641.367 442.258C640.404 441.374 639.021 440.945 637.813 440.341C637.62 440.245 637.367 440.28 637.139 440.262C636.36 439.886 635.572 439.466 634.635 439.799ZM434.128 140.653C434.128 140.478 434.155 140.242 434.12 140.023C433.297 134.771 431.625 129.947 427.537 126.227C424.858 123.785 422.337 121.185 419.711 118.69C418.564 117.596 417.4 116.51 416.131 115.565C409.609 110.68 403.052 105.839 396.513 100.981C395.06 99.9041 393.598 98.8274 392.189 97.6894C385.291 92.1657 378.349 86.7033 371.556 81.0658C367.731 77.8882 363.958 74.6055 360.526 71.0164C357.865 68.2414 355.221 65.4489 352.499 62.7353C349.759 60.0128 346.222 58.3583 343.404 55.7234C341.32 53.7713 338.554 53.3774 335.744 54.1302C334.659 54.4191 333.529 54.6905 332.523 55.1719C329.476 56.6426 326.412 58.1132 323.462 59.7765C316.372 63.777 309.334 67.8825 302.296 71.9793C300.737 72.881 299.249 73.9052 297.752 74.9031C297.192 75.2795 297.376 76.1199 298.076 76.4C299.337 76.9077 300.597 77.3892 301.867 77.8707C311.4 81.5123 320.6 85.8454 329.161 91.4304C334.116 94.6693 338.72 98.3109 341.977 103.371C342.738 104.552 343.657 105.463 344.901 106.102C346.109 106.723 347.264 107.432 348.463 108.08C356.263 112.308 363.406 117.438 369.779 123.645C372.37 126.174 375.049 128.625 377.701 131.085C381.194 134.315 384.599 137.642 388.223 140.715C393.756 145.407 399.008 150.388 404.147 155.5C410.248 161.566 416.507 167.475 422.705 173.445C423.029 173.76 423.387 174.032 423.729 174.321C424.202 174.715 425.173 174.478 425.401 173.9C427.493 168.394 428.649 162.608 430.207 156.944C430.925 154.327 431.319 151.631 431.879 148.969C432.43 146.387 431.712 143.472 433.927 141.336C434.058 141.214 434.058 140.925 434.128 140.653ZM304.353 704.042C309.377 704.042 313.894 704.139 318.411 704.016C322.412 703.911 325.948 705.242 329.336 707.141C330.317 707.693 331.209 708.402 332.137 709.041C335.28 711.203 338.414 713.383 341.25 716.018C346.844 712.647 352.333 709.496 357.646 706.073C360.666 704.13 363.45 701.801 366.225 699.508C367.599 698.361 368.86 697.004 369.91 695.551C372.808 691.515 375.627 687.419 378.358 683.269C380.109 680.608 381.43 677.754 381.246 674.393C381.203 673.553 381.588 672.625 381.956 671.828C382.411 670.83 382.008 670.104 381.483 669.377C380.677 668.265 379.75 667.346 378.314 667.013C375.46 666.348 372.633 665.569 369.77 664.921C368.676 664.676 367.52 664.492 366.417 664.571C362.294 664.895 358.311 664.309 354.346 663.258C351.729 662.566 349.059 662.05 346.406 661.464C343.097 660.737 339.806 659.975 336.803 658.295C336.217 657.971 335.534 657.831 334.886 657.621C334.16 657.384 332.873 657.857 332.514 658.522C331.98 659.511 331.428 660.501 330.999 661.542C329.485 665.254 326.868 667.994 323.524 670.069C321.221 671.495 318.893 672.896 316.494 674.157C312.896 676.047 309.202 677.763 305.596 679.637C302.996 680.993 300.413 682.411 297.919 683.952C295.8 685.256 293.839 686.788 292.229 688.732C291.511 689.607 291.572 690.947 292.509 691.743C295.091 693.94 297.779 696.006 299.914 698.685C301.324 700.427 302.786 702.143 304.353 704.042ZM147.545 696.006C136.927 695.499 126.877 698.037 117.213 702.143C107.155 706.415 97.9194 712.105 89.2093 718.722C84.8324 722.049 81.147 726.006 77.523 730.059C76.7789 730.89 76.2712 731.941 75.7284 732.93C75.5271 733.298 75.4045 733.823 75.5008 734.217C75.5883 734.558 76.1311 735.118 76.3062 735.057C80.6043 733.657 84.99 732.597 89.4019 731.626C93.8401 730.645 98.2696 729.927 102.839 729.805C109.177 729.639 115.523 729.674 121.844 728.999C124.978 728.667 128.19 728.789 131.342 729.069C135.622 729.446 139.877 730.155 144.131 730.759C146.705 731.127 149.121 730.628 151.344 729.385C154.557 727.59 157.306 725.209 159.214 722.04C161.324 718.539 163.031 714.845 164.3 710.94C165.534 707.141 164.939 703.806 162.313 700.821C162.015 700.479 161.709 700.138 161.394 699.814C159.091 697.433 156.386 695.962 152.981 695.997C151.169 696.024 149.357 696.006 147.545 696.006ZM123.638 689.738C124.601 686.298 126.457 683.497 128.768 680.958C129.652 679.987 129.223 678.569 128.076 678.288C122.99 677.037 117.861 676.284 112.617 677.002C110.157 677.334 107.689 677.684 105.264 678.201C101.736 678.945 98.1032 679.488 94.7593 680.757C89.2706 682.84 83.7294 684.801 78.3633 687.244C69.4782 691.288 61.0219 695.98 53.1522 701.784C49.108 704.76 45.5101 708.174 42.1924 711.877C38.7171 715.764 35.627 719.966 33.6049 724.833C33.2722 725.638 33.2022 726.566 33.0534 727.45C32.9484 728.063 33.7274 728.894 34.2614 728.754C35.3469 728.474 36.4586 728.255 37.4828 727.826C43.3742 725.367 49.5544 723.957 55.8222 723.091C60.7331 722.417 65.7315 722.312 70.695 722.101C72.4282 722.023 73.7238 721.419 74.8355 720.176C75.5884 719.326 76.4025 718.547 77.1728 717.716C83.5018 710.835 90.9076 705.285 98.716 700.226C103.294 697.258 108.179 694.903 113.326 693.117C116.521 691.997 119.76 690.999 123.638 689.738ZM129.223 668.073C129.783 669.149 130.939 669.473 131.867 670.06C133.836 671.294 135.281 672.992 136.524 674.918C137.723 676.783 137.96 678.726 137.023 680.731C136.165 682.569 135.176 684.355 134.248 686.158C134.02 686.613 134.624 687.681 135.141 687.681C139.684 687.699 144.149 688.478 148.613 689.099C154.951 689.984 160.938 691.936 166.234 695.709C170.533 698.764 172.844 703.044 174.148 707.99C174.314 708.629 174.358 709.365 174.253 710.012C173.474 714.722 172.423 719.353 169.543 723.318C167.81 725.699 166.051 728.054 163.906 730.102C162.278 731.661 160.79 733.368 159.258 735.031C159.126 735.18 158.995 735.495 159.065 735.626C159.258 735.985 159.538 736.537 159.818 736.563C162.068 736.79 164.317 737.044 166.576 737.036C171.933 737.018 172.336 736.974 176.441 733.499C181.457 729.262 186.491 725.051 191.708 721.06C192.382 720.543 192.855 719.659 193.205 718.854C193.835 717.409 194.317 715.886 194.833 714.389C195.227 713.243 195.122 712.166 194.177 711.29C192.942 710.152 193.083 708.796 193.888 707.614C195.945 704.567 197.179 701.197 198.274 697.722C199.201 694.763 198.282 692.4 196.348 690.255C195.341 689.143 193.503 688.811 191.962 689.493C191.594 689.66 191.148 690.062 191.095 690.421C190.947 691.297 190.903 692.216 190.999 693.1C191.314 696.059 191.13 698.991 190.658 701.906C190.518 702.773 190.159 703.666 189.66 704.384C189.327 704.865 188.609 705.18 187.997 705.364C187.226 705.592 185.983 704.97 185.738 704.261C185.458 703.429 185.152 702.519 185.222 701.661C185.309 700.549 185.651 699.438 186.053 698.387C187.235 695.288 186.377 692.592 184.46 690.141C183.628 689.073 182.525 688.215 181.685 687.156C179.418 684.302 176.284 683.051 172.861 682.578C170.646 682.271 168.283 682.096 166.112 682.525C163.031 683.138 159.897 683.821 157.113 685.467C156.343 685.922 155.511 686.324 154.653 686.587C153.751 686.858 152.859 686.657 152.158 685.957C151.642 685.44 151.694 684.083 152.29 683.488C153.086 682.692 153.865 681.851 154.741 681.151C155.8 680.311 156.982 679.619 158.076 678.814C159.179 678.008 159.608 676.52 159.223 675.172C158.093 671.189 155.599 668.545 151.694 667.075C148.893 666.024 145.952 665.858 143.089 665.201C138.213 664.098 133.67 665.07 129.398 667.53C129.276 667.6 129.276 667.871 129.223 668.073ZM130.886 483.498C131.035 483.498 131.263 483.498 131.49 483.498C133.162 483.48 134.624 483.2 135.132 481.222C135.876 478.307 137.583 475.882 139.36 473.527C142.66 469.159 146.53 465.395 151.073 462.287C155.196 459.477 159.38 456.79 163.915 454.689C166.585 453.455 169.237 452.168 171.863 450.846C173.062 450.233 174.2 449.489 175.338 448.762C175.969 448.36 176.354 447.047 176.091 446.311C174.813 442.687 173.526 439.063 172.231 435.448C172.082 435.019 171.872 434.616 171.671 434.214C170.261 431.5 167.959 430.231 164.983 430.66C162.286 431.045 159.687 431.824 157.192 432.944C148.884 436.691 141.61 442.11 134.117 447.178C133.933 447.301 133.766 447.467 133.6 447.624C127.91 452.824 122.386 458.19 117.449 464.117C116.731 464.983 116.127 465.946 115.488 466.883C115.112 467.426 115.41 468.292 115.987 468.572C118.193 469.649 120.846 469.763 122.658 471.759C123.271 472.433 124.347 472.109 124.908 471.242C125.897 469.728 126.816 468.161 127.805 466.647C129.162 464.563 130.396 462.366 131.972 460.458C138.467 452.64 146.608 447.02 155.896 443.002C156.308 442.827 156.763 442.705 157.2 442.67C158.409 442.565 159.389 443.029 160.159 443.974C160.825 444.779 160.72 446.093 159.783 447.038C158.347 448.482 156.955 449.997 155.353 451.24C147.816 457.105 141.242 463.977 134.764 470.936C132.278 473.606 130.466 476.757 128.785 479.979C128.584 480.373 128.505 480.837 128.357 481.257C128.059 482.097 128.654 483.261 129.451 483.366C129.915 483.401 130.361 483.445 130.886 483.498ZM238.865 111.932C239.329 111.836 239.6 111.862 239.732 111.739C241.982 109.498 243.96 107.012 245.317 104.158C246.499 101.681 247.864 99.3614 249.589 97.2517C251.199 95.2908 252.145 92.9886 253.055 90.66C253.537 89.4345 253.204 88.2177 252.189 87.71C249.755 86.4932 247.321 85.2852 244.862 84.1209C241.342 82.4577 237.613 81.486 233.762 81.1096C227.923 80.5406 225.664 81.7048 222.53 86.6858C222.294 87.0622 222.075 87.5174 222.058 87.9463C222.023 88.5941 221.909 89.5133 222.277 89.8722C225.034 92.6559 226.776 96.1224 228.702 99.4227C231.477 104.202 235.337 107.993 238.865 111.932ZM112.731 262.279C117.379 257.981 119.147 252.046 121.467 246.444C123.017 242.697 124.128 238.801 123.892 234.46C117.852 231.772 112.328 228.262 106.323 225.671C106.131 225.592 105.877 225.662 105.518 225.662C103.881 233.225 104.03 240.867 104.817 248.501C105.29 253.088 108.161 258.147 112.039 261.938C112.179 262.087 112.416 262.13 112.731 262.279ZM99.3988 233.103C99.6702 230.888 99.7665 228.367 100.335 225.96C101.176 222.405 100.791 221.626 97.2891 220.576C96.4225 220.313 95.5909 219.946 94.7243 219.683C92.4483 218.983 91.1527 219.42 90.2335 221.408C89.1918 223.666 88.0888 225.933 87.406 228.306C84.1846 239.458 83.887 250.619 87.7124 261.719C87.835 262.069 88.2289 262.463 88.5703 262.551C88.9292 262.647 89.577 262.542 89.7696 262.288C91.2315 260.275 92.7109 258.27 93.9889 256.143C97.4467 250.4 99.4163 244.211 99.3901 237.453C99.3988 236.096 99.3988 234.731 99.3988 233.103ZM221.314 568.62C221.2 568.778 220.981 568.935 220.99 569.075C221.069 570.642 221.016 572.244 221.331 573.767C221.926 576.647 222.784 579.475 223.45 582.337C225.41 590.794 228.422 598.777 233.525 605.903C239.18 613.799 246.192 620.049 255.06 624.111C255.856 624.479 256.784 624.575 257.66 624.741C257.835 624.776 258.097 624.584 258.237 624.426C258.351 624.295 258.404 624.05 258.386 623.874C258.229 622.649 257.266 621.957 256.504 621.143C253.414 617.834 250.21 614.665 247.479 610.989C243.277 605.343 239.478 599.443 235.539 593.63C234.401 591.94 233.315 590.225 232.667 588.246C232.247 586.968 231.547 585.769 230.917 584.57C228.387 579.764 225.839 574.958 223.266 570.17C222.959 569.601 222.443 569.128 221.979 568.655C221.856 568.559 221.541 568.629 221.314 568.62ZM418.836 252.554C420.901 255.215 423.755 255.933 426.6 256.659C428.999 257.263 431.24 255.906 431.52 253.447C431.774 251.223 431.747 248.965 431.756 246.715C431.756 246.067 431.529 245.376 431.266 244.772C428.368 238.119 424.596 232.026 419.448 226.852C419.308 226.712 418.713 227.027 418.214 227.159C419.282 235.641 418.013 244.211 418.836 252.554ZM161.14 511.072C160.947 514.591 161.901 517.524 163.862 520.159C164.519 521.034 165.998 521.104 166.856 520.422C168.852 518.828 170.034 516.614 171.382 514.556C174.113 510.39 176.31 505.943 177.833 501.189C178.28 499.797 177.816 498.414 176.511 497.732C174.516 496.699 172.485 495.718 170.41 494.834C168.729 494.116 166.681 494.887 165.797 496.62C164.676 498.826 163.678 501.102 162.75 503.395C161.752 505.916 161.157 508.56 161.14 511.072ZM176.695 248.247C176.695 248.168 176.695 248.089 176.695 248.019C174.664 248.019 172.634 248.019 170.594 248.019C169.64 248.019 168.913 248.938 169.263 249.805C170.27 252.317 171.285 254.821 172.362 257.307C174.682 262.629 178.507 266.726 183.033 270.228C183.541 270.622 184.25 270.77 184.88 271.007C185.799 271.348 186.937 270.727 186.894 269.904C186.762 267.427 186.675 264.94 186.421 262.481C186.036 258.664 185.528 254.856 185.082 251.039C184.819 248.816 184.302 248.299 182.114 248.264C180.311 248.229 178.499 248.247 176.695 248.247ZM187.953 302.845C187.97 302.617 188.067 302.354 187.988 302.171C186.149 298.266 183.585 294.817 181.177 291.272C180.95 290.931 180.468 290.65 180.066 290.589C179.724 290.537 179.033 290.782 178.989 290.992C178.245 294.782 178.052 298.634 178.175 302.486C178.28 305.891 176.319 306.224 173.877 304.639C171.977 303.414 170.13 302.092 168.362 300.682C167.127 299.702 166.094 298.476 164.904 297.426C164.641 297.198 164.046 297.085 163.748 297.233C163.424 297.391 163.039 297.916 163.066 298.258C163.284 300.735 163.53 303.212 163.932 305.663C164.02 306.189 164.738 306.74 165.289 307.029C165.867 307.327 166.593 307.414 167.259 307.423C169.526 307.458 171.793 307.414 174.052 307.405C176.196 305.961 178.814 306.442 181.134 305.62C183.453 304.788 185.913 304.35 187.953 302.845ZM118.911 480.276C118.85 479.383 118.867 478.473 118.701 477.606C118.579 476.967 118.333 476.276 117.931 475.794C116.215 473.763 113.046 473.623 111.383 475.435C107.444 479.725 106.7 484.96 107.006 490.457C107.093 491.998 107.68 493.512 108.021 495.044C108.231 495.981 108.783 496.655 109.623 497.066C110.149 497.329 111.304 496.699 111.803 495.893C113.449 493.223 114.928 490.431 116.766 487.901C118.465 485.546 118.946 483.025 118.911 480.276ZM137.837 255.302C138.231 255.127 138.721 255.057 138.992 254.777C141.986 251.53 143.448 247.564 144.236 243.301C144.394 242.452 143.851 241.401 143.063 241.147C139.001 239.852 134.939 238.583 130.878 237.278C130.379 237.121 129.95 237.182 129.731 237.681C129.565 238.049 129.407 238.53 129.495 238.898C130.422 242.609 131.692 246.216 133.495 249.586C134.546 251.547 135.946 253.324 137.215 255.162C137.312 255.285 137.627 255.259 137.837 255.302ZM137.828 497.574C138.108 501.618 139.448 506.547 141.899 511.169C141.995 511.353 142.214 511.589 142.389 511.598C142.783 511.615 143.457 511.624 143.527 511.431C145.645 506.249 147.492 500.979 148.307 495.403C148.342 495.184 148.315 494.957 148.307 494.729C148.245 493.276 147.641 492.085 146.311 491.481C145.313 491.026 144.21 490.667 143.124 490.553C139.859 490.194 137.898 491.91 137.828 495.053C137.819 495.499 137.828 495.955 137.828 497.574ZM296.571 231.264C298.181 229.286 300.002 227.264 301.56 225.058C304.309 221.189 307.04 217.284 308.625 212.741C308.73 212.426 308.432 211.953 308.257 211.577C308.231 211.524 307.802 211.568 307.635 211.682C301.613 215.674 295.59 219.683 289.576 223.692C289.427 223.789 289.375 224.034 289.209 224.331C291.126 226.476 293.069 228.664 295.03 230.835C295.161 230.984 295.406 231.054 295.616 231.116C295.826 231.186 296.063 231.194 296.571 231.264ZM253.143 265.045C251.348 261.456 249.212 258.883 246.665 256.633C246.175 256.195 245.527 255.871 244.905 255.688C244.581 255.591 243.899 255.775 243.767 256.038C241.29 260.817 238.769 265.597 238.471 271.138C238.462 271.357 238.541 271.585 238.541 271.803C238.524 272.372 239.434 272.985 239.951 272.749C244.485 270.718 248.477 267.794 253.143 265.045ZM159.083 260.222C161.674 254.725 162.286 251.818 161.936 246.557C160.982 246.233 159.958 245.84 158.907 245.542C156.973 244.999 155.03 244.5 153.086 244.01C152.272 243.809 151.388 243.143 150.618 243.765C149.541 244.631 150.136 245.84 150.408 246.864C151.633 251.459 153.664 255.653 156.815 259.259C157.419 259.968 158.111 260.406 159.083 260.222ZM227.844 116.817C227.844 116.318 228.028 115.714 227.818 115.486C225.524 113.026 223.178 110.619 220.832 108.22C220.272 107.651 218.941 107.669 218.346 108.229C215.729 110.715 213.4 113.429 211.553 116.545C211.107 117.298 211.483 118.392 212.245 118.821C213.698 119.635 215.212 119.828 216.805 119.451C220.508 118.576 224.202 117.683 227.844 116.817ZM191.078 296.025C191.2 297.146 191.34 298.476 191.489 299.816C191.542 300.323 192.487 301.103 192.89 300.989C196.164 300.061 199.105 298.468 201.81 296.437C202.003 296.288 201.994 295.535 201.793 295.264C199.937 292.725 198.063 290.222 195.394 288.418C193.249 286.974 191.962 287.377 191.699 289.758C191.472 291.762 191.297 293.776 191.078 296.025ZM272.804 252.694C270.624 250.059 268.593 248.317 266.256 246.907C265.214 246.277 263.805 246.584 263.437 247.66C262.045 251.696 260.688 255.749 259.367 259.819C259.279 260.1 259.612 260.52 259.769 260.922C260.794 260.388 261.844 259.951 262.781 259.347C265.985 257.263 269.153 255.119 272.804 252.694ZM216.359 288.331C216.219 287.744 216.263 287.193 216.018 286.956C213.435 284.514 210.975 281.932 207.877 279.901C207.404 280.619 206.922 281.1 206.73 281.687C205.539 285.328 204.935 289.084 204.708 292.9C204.699 293.11 204.734 293.425 204.874 293.539C205.163 293.776 205.609 294.134 205.854 294.047C209.671 292.681 212.989 290.414 216.359 288.331ZM260.19 81.6173C260.452 81.1271 260.382 80.7157 259.944 80.4355C258.806 79.7265 257.73 78.8511 256.495 78.3784C253.108 77.0653 250 75.3145 247.155 73.0648C243.198 69.9484 238.611 69.2569 233.762 69.6858C233.333 69.7208 232.877 69.9134 232.527 70.1585C232.177 70.4036 231.862 70.78 231.696 71.1652C231.652 71.2703 232.177 71.813 232.466 71.8393C239.574 72.4083 246.026 74.9119 252.118 78.4747C254.062 79.6127 255.979 80.7682 257.931 81.8799C258.307 82.0988 258.789 82.3089 259.192 82.2739C259.542 82.2476 259.857 81.8537 260.19 81.6173ZM130.396 509.505C131.666 509.085 132.287 508.14 132.287 506.967C132.287 505.4 132.313 503.745 131.823 502.292C130.58 498.624 130.843 495.202 132.681 491.84C132.9 491.446 133.145 491.009 133.154 490.588C133.171 489.958 133.101 489.275 132.847 488.706C132.567 488.085 131.184 487.848 130.387 488.129C128.75 488.689 127.753 489.906 127.359 491.508C126.361 495.517 126.317 499.579 127.525 503.544C128.181 505.654 128.593 507.947 130.396 509.505ZM222.776 283.866C223.178 283.752 223.668 283.726 224.027 283.507C226.907 281.722 229.77 279.901 232.624 278.071C233 277.835 233.429 277.546 233.604 277.178C233.762 276.846 233.77 276.172 233.552 275.97C231.389 273.939 228.859 272.477 226.076 271.453C225.568 271.269 224.5 271.716 224.404 272.241C223.66 275.979 222.46 279.647 222.408 283.507C222.399 283.612 222.636 283.735 222.776 283.866ZM191.647 248.142C191.743 248.737 191.691 249.201 191.883 249.507C193.45 252.028 195.569 254.016 198.037 255.626C198.396 255.863 198.878 255.906 199.289 256.082C199.762 256.292 200.716 255.749 200.9 255.215C201.74 252.825 201.845 250.392 201.25 247.94C201.171 247.608 200.602 247.135 200.278 247.153C197.398 247.328 194.518 247.617 191.647 248.142ZM209.96 245.682C210.179 246.444 210.161 247.389 210.546 247.608C213.864 249.446 217.252 251.171 220.622 252.904C221.191 253.193 222.031 252.615 222.005 252.02C221.865 249.324 221.042 246.82 219.834 244.43C217.541 243.248 215.527 244.877 213.374 245.078C212.288 245.183 211.212 245.454 209.96 245.682ZM213.461 706.931C213.558 706.204 212.253 705.285 211.509 705.548C207.526 706.949 204.585 709.627 202.318 713.12C202.204 713.295 202.152 713.706 202.23 713.759C202.563 713.978 203.106 714.346 203.307 714.223C206.572 712.236 209.802 710.196 212.998 708.104C213.286 707.92 213.321 707.334 213.461 706.931ZM157.901 303.09C158.12 303.046 158.531 303.02 158.54 302.958C158.794 299.676 158.645 296.358 159.485 293.119C159.608 292.655 159.03 291.92 158.61 291.447C158.163 290.948 157.472 290.685 156.824 291.106C156.474 291.333 156.097 291.727 156.019 292.104C155.835 292.97 155.642 293.916 155.791 294.765C156.264 297.408 156.894 300.026 157.489 302.643C157.533 302.81 157.761 302.941 157.901 303.09ZM277.715 248.264C277.934 248.282 278.196 248.387 278.38 248.308C280.245 247.459 281.724 246.12 283.002 244.561C282.897 244.343 282.862 244.097 282.722 244.001C278.958 241.393 277.977 242.924 277.68 245.673C277.575 246.54 277.19 247.406 277.715 248.264ZM173.631 283.131C176.179 282.168 178.043 280.89 179.356 278.596C178.534 278.281 177.947 278.019 177.334 277.835C174.936 277.117 173.701 277.266 173.526 280.426C173.483 281.24 173.588 282.063 173.631 283.131ZM170.069 286.904C168.624 284.698 168.309 284.435 166.611 283.919C166.042 283.744 165.254 284.234 165.193 284.873C165.07 286.177 164.991 287.49 164.939 288.795C164.913 289.442 165.744 289.871 166.313 289.495C167.583 288.655 168.817 287.77 170.069 286.904ZM220.167 565.968C220.289 565.828 220.543 565.661 220.517 565.548C220.456 565.197 220.281 564.865 220.158 564.532C220.036 564.681 219.791 564.839 219.817 564.961C219.878 565.311 220.044 565.635 220.167 565.968ZM437.989 588.535L437.744 589.034L438.155 589.069L437.989 588.535ZM366.82 157.181C366.724 157.347 366.558 157.522 366.593 157.618C366.654 157.793 366.838 158.021 366.978 158.03C367.118 158.038 367.267 157.793 367.415 157.662C367.223 157.496 367.021 157.347 366.82 157.181ZM411.692 188.423C411.614 188.572 411.439 188.747 411.474 188.852C411.535 189.036 411.789 189.333 411.85 189.307C412.384 189.071 412.471 188.747 412.113 188.458C412.025 188.388 411.841 188.432 411.692 188.423Z" fill="#070704"/>
<path d="M188.82 775.797C189.179 774.817 190.037 774.72 190.877 774.747C191.236 774.755 191.595 775.071 191.91 775.307C191.972 775.36 191.875 775.727 191.77 775.885C191.061 776.918 190.396 778.003 189.118 778.432C189.022 777.548 188.925 776.673 188.82 775.797Z" fill="#B7C139"/>
<path d="M434.129 140.653C434.05 140.916 434.059 141.205 433.919 141.345C431.704 143.481 432.422 146.405 431.87 148.978C431.301 151.631 430.916 154.336 430.198 156.953C428.64 162.617 427.493 168.394 425.392 173.909C425.174 174.487 424.193 174.732 423.72 174.329C423.379 174.04 423.02 173.769 422.696 173.454C416.498 167.484 410.239 161.575 404.138 155.509C399 150.396 393.747 145.415 388.215 140.723C384.591 137.651 381.177 134.324 377.693 131.094C375.032 128.634 372.362 126.183 369.77 123.653C363.406 117.447 356.263 112.326 348.455 108.089C347.264 107.441 346.1 106.732 344.892 106.111C343.649 105.472 342.73 104.561 341.968 103.379C338.712 98.3197 334.107 94.6693 329.153 91.4392C320.591 85.8454 311.391 81.521 301.858 77.8794C300.589 77.398 299.328 76.9165 298.068 76.4088C297.367 76.1287 297.184 75.2883 297.744 74.9119C299.249 73.9139 300.738 72.8985 302.287 71.9881C309.325 67.8913 316.363 63.7945 323.454 59.7852C326.404 58.122 329.468 56.6514 332.514 55.1807C333.521 54.6905 334.641 54.4279 335.735 54.139C338.545 53.3862 341.312 53.7801 343.395 55.7322C346.223 58.3759 349.75 60.0216 352.49 62.744C355.222 65.4577 357.856 68.2502 360.518 71.0252C363.949 74.6055 367.722 77.897 371.547 81.0746C378.34 86.7121 385.291 92.1745 392.18 97.6982C393.59 98.8274 395.052 99.9041 396.505 100.99C403.044 105.848 409.6 110.689 416.122 115.574C417.383 116.519 418.556 117.604 419.702 118.699C422.329 121.193 424.85 123.802 427.528 126.236C431.616 129.956 433.28 134.788 434.111 140.032C434.164 140.251 434.129 140.478 434.129 140.653Z" fill="white"/>
<path d="M238.865 111.932C235.337 107.993 231.485 104.202 228.701 99.4313C226.776 96.1311 225.034 92.6646 222.276 89.8809C221.917 89.5132 222.022 88.6028 222.057 87.955C222.084 87.5261 222.294 87.0709 222.53 86.6945C225.664 81.7136 227.922 80.5405 233.761 81.1183C237.613 81.4947 241.342 82.4664 244.861 84.1296C247.321 85.2939 249.754 86.5019 252.188 87.7187C253.195 88.2264 253.527 89.4432 253.055 90.6687C252.144 92.9973 251.19 95.2995 249.588 97.2604C247.855 99.3701 246.498 101.69 245.316 104.167C243.959 107.012 241.981 109.507 239.731 111.748C239.6 111.862 239.329 111.836 238.865 111.932Z" fill="white"/>
<path d="M112.732 262.279C112.425 262.139 112.18 262.087 112.031 261.947C108.153 258.156 105.282 253.105 104.809 248.51C104.022 240.867 103.873 233.225 105.51 225.671C105.869 225.671 106.122 225.601 106.315 225.68C112.32 228.271 117.853 231.781 123.884 234.468C124.12 238.81 123.009 242.706 121.459 246.452C119.139 252.037 117.371 257.981 112.732 262.279Z" fill="white"/>
<path d="M99.3986 233.102C99.3986 234.731 99.3986 236.087 99.3986 237.453C99.4161 244.211 97.4464 250.409 93.9974 256.143C92.7194 258.27 91.2312 260.274 89.7781 262.288C89.5942 262.55 88.9465 262.647 88.5788 262.55C88.2374 262.463 87.8435 262.069 87.7209 261.719C83.8867 250.619 84.1931 239.449 87.4145 228.305C88.0973 225.933 89.2003 223.666 90.242 221.407C91.1612 219.42 92.4567 218.982 94.7327 219.683C95.5994 219.945 96.431 220.322 97.2976 220.576C100.79 221.635 101.184 222.405 100.344 225.959C99.7662 228.367 99.6787 230.888 99.3986 233.102Z" fill="white"/>
<path d="M346.223 128.52C347.168 127.838 348.166 127.312 349.287 128.092C353.926 131.313 358.679 134.359 362.794 138.29C364.098 139.533 365.49 140.706 366.917 141.809C372.493 146.081 377.386 151.105 382.507 155.885C383.663 156.962 384.705 158.161 385.781 159.316C392.697 166.775 399.621 174.216 406.502 181.709C408.016 183.363 409.732 184.895 410.546 187.075C410.59 187.206 410.458 187.443 410.345 187.583C410.205 187.749 409.924 188.012 409.837 187.968C409.242 187.67 408.594 187.399 408.121 186.952C401.88 181.061 395.647 175.152 389.44 169.235C388.46 168.298 387.62 167.221 386.639 166.285C379.33 159.211 371.994 152.182 364.702 145.1C362.435 142.894 360.281 140.583 358.067 138.316C355.694 135.882 353.331 133.431 350.319 131.786C348.744 130.919 348.026 129.037 346.223 128.503V128.52Z" fill="white"/>
<path d="M436.404 243.214C434.084 237.515 430.924 232.289 427.458 227.229C426.434 225.732 425.313 224.297 424.359 222.756C422.538 219.85 420.21 217.416 417.872 214.921C411.071 207.638 403.963 200.644 397.835 192.713C393.554 187.163 388.538 182.182 383.82 176.973C381.229 174.12 378.541 171.345 375.959 168.482C375.39 167.843 375.084 166.976 374.655 166.206L374.488 166.329C374.803 166.092 375.145 165.655 375.434 165.681C375.836 165.716 376.257 166.048 376.58 166.355C377.753 167.423 378.961 168.456 380.029 169.62C387.4 177.612 395.287 185.114 402.396 193.36C403.429 194.56 404.461 195.777 405.608 196.862C411.893 202.788 417.268 209.529 422.669 216.226C429.235 224.367 434.759 233.155 438.391 243.03C437.7 242.732 437.035 242.793 436.404 243.214Z" fill="white"/>
<path d="M85.8387 220.033C83.2126 226.415 82.1621 233.085 82.381 239.948C82.5035 243.791 82.7574 247.634 83.055 251.468C83.2038 253.333 83.0112 255.066 82.0221 256.685C80.7265 258.804 79.4834 260.957 78.1616 263.049C77.9428 263.391 77.2775 263.837 77.0936 263.741C76.5509 263.443 75.8506 262.953 75.7368 262.428C74.5988 256.887 73.5133 251.319 74.4675 245.612C74.9139 242.933 75.1678 240.219 75.7718 237.576C77.2425 231.115 79.8161 225.119 83.7466 219.753C84.4469 219.849 85.1384 219.946 85.8387 220.033Z" fill="white"/>
<path d="M418.836 252.554C418.013 244.211 419.283 235.641 418.215 227.159C418.714 227.028 419.309 226.712 419.449 226.853C424.588 232.026 428.361 238.119 431.267 244.772C431.529 245.376 431.757 246.067 431.757 246.715C431.748 248.956 431.775 251.223 431.521 253.447C431.241 255.907 429 257.263 426.601 256.659C423.747 255.933 420.902 255.215 418.836 252.554Z" fill="white"/>
<path d="M176.693 248.247C178.497 248.247 180.309 248.23 182.112 248.256C184.292 248.282 184.817 248.799 185.08 251.031C185.526 254.848 186.034 258.655 186.419 262.472C186.664 264.941 186.76 267.418 186.892 269.895C186.935 270.727 185.789 271.34 184.878 270.998C184.248 270.771 183.548 270.613 183.031 270.219C178.505 266.726 174.68 262.621 172.36 257.299C171.275 254.821 170.259 252.309 169.261 249.797C168.911 248.93 169.638 248.011 170.592 248.011C172.623 248.011 174.654 248.011 176.693 248.011C176.693 248.09 176.693 248.168 176.693 248.247Z" fill="white"/>
<path d="M187.954 302.845C185.923 304.35 183.454 304.788 181.143 305.611C178.824 306.434 176.206 305.952 174.062 307.397C171.794 307.405 169.527 307.449 167.269 307.414C166.603 307.405 165.868 307.318 165.299 307.02C164.747 306.731 164.03 306.18 163.942 305.655C163.531 303.203 163.294 300.726 163.076 298.249C163.049 297.916 163.426 297.391 163.758 297.225C164.056 297.085 164.651 297.19 164.914 297.417C166.096 298.468 167.137 299.693 168.372 300.674C170.14 302.083 171.996 303.405 173.887 304.63C176.329 306.215 178.29 305.882 178.185 302.477C178.071 298.625 178.255 294.774 178.999 290.983C179.043 290.773 179.734 290.528 180.075 290.58C180.478 290.642 180.96 290.931 181.187 291.263C183.595 294.809 186.159 298.258 187.998 302.162C188.068 302.354 187.971 302.617 187.954 302.845Z" fill="white"/>
<path d="M137.835 255.302C137.625 255.258 137.31 255.285 137.222 255.153C135.953 253.315 134.553 251.538 133.502 249.577C131.699 246.207 130.421 242.6 129.502 238.889C129.414 238.521 129.572 238.048 129.738 237.672C129.957 237.173 130.386 237.112 130.885 237.269C134.946 238.565 139.008 239.834 143.07 241.138C143.858 241.392 144.401 242.443 144.243 243.292C143.455 247.555 141.985 251.521 138.999 254.768C138.719 255.066 138.22 255.136 137.835 255.302Z" fill="white"/>
<path d="M253.141 265.046C248.475 267.794 244.475 270.718 239.949 272.749C239.432 272.985 238.522 272.373 238.539 271.804C238.548 271.585 238.461 271.357 238.469 271.138C238.767 265.588 241.297 260.818 243.765 256.038C243.897 255.784 244.571 255.592 244.903 255.688C245.534 255.88 246.173 256.204 246.663 256.633C249.21 258.883 251.355 261.457 253.141 265.046Z" fill="white"/>
<path d="M159.082 260.222C158.111 260.406 157.419 259.968 156.806 259.259C153.655 255.653 151.624 251.46 150.398 246.864C150.127 245.849 149.532 244.632 150.609 243.765C151.379 243.144 152.263 243.809 153.077 244.01C155.02 244.5 156.964 244.999 158.898 245.542C159.949 245.84 160.973 246.234 161.927 246.558C162.286 251.827 161.665 254.734 159.082 260.222Z" fill="white"/>
<path d="M191.078 296.026C191.297 293.785 191.463 291.763 191.691 289.758C191.954 287.377 193.249 286.974 195.385 288.419C198.055 290.213 199.928 292.725 201.784 295.264C201.985 295.535 201.994 296.297 201.802 296.437C199.097 298.468 196.155 300.061 192.881 300.989C192.479 301.103 191.542 300.324 191.481 299.816C191.341 298.477 191.201 297.137 191.078 296.026Z" fill="white"/>
<path d="M272.805 252.693C269.154 255.127 265.994 257.263 262.79 259.338C261.854 259.95 260.803 260.388 259.779 260.913C259.621 260.511 259.28 260.091 259.376 259.81C260.698 255.749 262.055 251.696 263.447 247.651C263.814 246.575 265.224 246.268 266.265 246.898C268.594 248.317 270.625 250.05 272.805 252.693Z" fill="white"/>
<path d="M216.36 288.331C212.998 290.414 209.672 292.681 205.855 294.038C205.61 294.126 205.163 293.758 204.875 293.531C204.735 293.417 204.7 293.11 204.708 292.892C204.936 289.075 205.54 285.319 206.73 281.678C206.923 281.1 207.404 280.61 207.877 279.892C210.976 281.914 213.445 284.505 216.018 286.948C216.263 287.193 216.22 287.744 216.36 288.331Z" fill="white"/>
<path d="M260.189 81.6176C259.856 81.8539 259.541 82.2479 259.182 82.2829C258.771 82.3179 258.298 82.1078 257.921 81.889C255.969 80.7685 254.044 79.613 252.109 78.4837C246.016 74.9209 239.565 72.4173 232.457 71.8483C232.168 71.822 231.642 71.2793 231.686 71.1742C231.852 70.7891 232.168 70.4127 232.518 70.1676C232.868 69.9224 233.323 69.7386 233.752 69.6949C238.602 69.2659 243.197 69.9575 247.145 73.0738C249.99 75.3236 253.098 77.0743 256.486 78.3874C257.72 78.8689 258.797 79.7355 259.935 80.4446C260.381 80.7072 260.451 81.1274 260.189 81.6176Z" fill="white"/>
<path d="M222.775 283.866C222.635 283.735 222.398 283.612 222.398 283.499C222.451 279.638 223.659 275.979 224.394 272.232C224.499 271.707 225.559 271.261 226.066 271.444C228.85 272.469 231.38 273.931 233.542 275.961C233.761 276.172 233.752 276.837 233.595 277.169C233.42 277.537 232.991 277.826 232.614 278.062C229.76 279.892 226.898 281.713 224.018 283.499C223.668 283.735 223.178 283.761 222.775 283.866Z" fill="white"/>
<path d="M191.648 248.142C194.511 247.616 197.391 247.327 200.28 247.161C200.595 247.144 201.164 247.608 201.251 247.949C201.847 250.391 201.742 252.834 200.901 255.223C200.717 255.757 199.763 256.291 199.291 256.09C198.879 255.915 198.398 255.871 198.039 255.635C195.57 254.024 193.452 252.037 191.885 249.516C191.692 249.201 191.745 248.737 191.648 248.142Z" fill="white"/>
<path d="M209.961 245.682C211.213 245.454 212.289 245.183 213.375 245.078C215.528 244.877 217.542 243.24 219.835 244.43C221.043 246.82 221.866 249.324 222.006 252.02C222.041 252.615 221.192 253.202 220.623 252.904C217.244 251.171 213.865 249.455 210.547 247.608C210.162 247.389 210.18 246.444 209.961 245.682Z" fill="white"/>
<path d="M157.901 303.089C157.761 302.941 157.533 302.818 157.49 302.643C156.894 300.017 156.264 297.408 155.791 294.765C155.643 293.915 155.835 292.97 156.019 292.103C156.098 291.727 156.474 291.333 156.824 291.105C157.472 290.685 158.164 290.948 158.61 291.447C159.03 291.92 159.599 292.655 159.485 293.119C158.654 296.358 158.794 299.675 158.54 302.958C158.531 303.019 158.12 303.046 157.901 303.089Z" fill="#B7C139"/>
<path d="M277.716 248.265C277.19 247.407 277.575 246.531 277.672 245.665C277.969 242.916 278.95 241.384 282.714 243.993C282.854 244.089 282.898 244.343 282.994 244.553C281.716 246.111 280.245 247.451 278.372 248.3C278.197 248.387 277.934 248.282 277.716 248.265Z" fill="white"/>
<path d="M173.631 283.131C173.587 282.063 173.482 281.24 173.526 280.426C173.701 277.266 174.935 277.126 177.334 277.835C177.947 278.019 178.533 278.282 179.356 278.597C178.043 280.899 176.179 282.177 173.631 283.131Z" fill="white"/>
<path d="M170.068 286.903C168.825 287.77 167.582 288.654 166.312 289.495C165.743 289.871 164.912 289.451 164.938 288.794C164.991 287.481 165.069 286.177 165.192 284.873C165.253 284.234 166.041 283.752 166.61 283.918C168.308 284.435 168.623 284.706 170.068 286.903Z" fill="white"/>
<path d="M363.207 156.515C363.181 156.13 363.295 155.631 363.093 155.395C362.516 154.729 361.798 154.187 361.168 153.556C361.063 153.451 361.071 153.014 361.15 152.961C361.456 152.786 361.982 152.515 362.139 152.637C362.98 153.311 363.741 154.099 364.564 154.878C364.056 155.526 363.654 156.051 363.251 156.568L363.207 156.515Z" fill="white"/>
<path d="M152.104 498.537C152.769 498.528 153.434 498.511 154.099 498.502C154.353 500.305 154.196 501.968 152.515 503.106C152.13 503.36 151.64 503.325 151.465 502.826C150.922 501.312 151.149 499.859 152.104 498.537Z" fill="#7E890C"/>
<path d="M85.8355 220.033C85.1352 219.946 84.4437 219.849 83.7521 219.753C83.7084 218.992 84.3474 218.746 84.8026 218.405C85.4416 217.932 85.9756 218.134 86.1332 218.939C86.1945 219.272 85.9406 219.666 85.8355 220.033Z" fill="#B7C139"/>
<path d="M220.167 565.968C220.045 565.635 219.879 565.303 219.817 564.961C219.8 564.839 220.036 564.672 220.159 564.532C220.29 564.874 220.456 565.197 220.518 565.548C220.544 565.661 220.299 565.828 220.167 565.968Z" fill="#7E890C"/>
<path d="M97.6484 169.804C98.1649 168.937 98.6814 168.062 99.1979 167.195C99.4605 167.414 99.7231 167.642 99.9682 167.887C99.9157 168.964 99.7143 169.979 98.7602 170.662C98.3838 170.364 98.0161 170.084 97.6484 169.804Z" fill="#7E890C"/>
<path d="M99.1992 167.186C99.4356 166.153 99.7069 165.146 100.775 164.621C100.941 164.779 101.108 164.936 101.274 165.094C101.178 165.952 101.09 166.81 100.994 167.667L101.099 167.527C100.757 167.764 100.381 167.878 99.9695 167.878C99.7157 167.641 99.4618 167.405 99.1992 167.186Z" fill="#7E890C"/>
<path d="M100.766 164.621C100.862 164.236 100.888 163.807 101.081 163.492C101.265 163.186 101.632 162.993 101.921 162.748C102.105 163.081 102.376 163.387 102.446 163.737C102.516 164.114 102.385 164.525 102.341 164.919L102.446 164.814C102.087 165.068 101.694 165.164 101.256 165.112C101.107 164.936 100.941 164.779 100.766 164.621Z" fill="#7E890C"/>
<path d="M198.989 706.695C198.814 707.15 198.63 707.605 198.455 708.06C198.412 707.912 198.272 707.702 198.324 707.623C198.543 707.316 198.814 707.045 199.068 706.765C199.059 706.756 198.989 706.695 198.989 706.695Z" fill="#7E890C"/>
<path d="M312.003 225.408C311.767 226.678 311.95 228.113 310.559 228.901C310.637 227.57 310.891 226.31 312.003 225.408Z" fill="#B7C139"/>
<path d="M637.158 440.271C635.652 441.374 635.556 441.357 634.637 439.798C635.573 439.466 636.361 439.886 637.158 440.271Z" fill="#B7C139"/>
<path d="M344.402 182.882C345.4 182.838 345.82 183.355 345.812 184.3C345.094 184.081 344.551 183.67 344.402 182.882Z" fill="#7E890C"/>
<path d="M437.987 588.535L438.154 589.069L437.742 589.034L437.987 588.535Z" fill="#7E890C"/>
<path d="M374.666 166.215C373.755 166.215 373.3 165.759 373.318 164.84L373.16 164.963C373.659 164.884 373.974 164.044 374.71 164.788C375.445 165.532 374.587 165.829 374.499 166.328C374.499 166.337 374.666 166.215 374.666 166.215Z" fill="white"/>
<path d="M371.68 163.667C372.187 163.553 372.432 162.652 373.247 163.37C374.043 164.079 373.212 164.446 373.159 164.972L373.317 164.849C372.406 164.893 371.977 164.403 371.881 163.553L371.68 163.667Z" fill="white"/>
<path d="M371.87 163.544C371.572 163.317 371.24 163.124 370.986 162.861C370.872 162.739 370.837 162.441 370.907 162.284C370.96 162.17 371.284 162.074 371.406 162.135C371.713 162.284 372.185 162.511 372.194 162.73C372.211 163.036 371.87 163.352 371.677 163.667L371.87 163.544Z" fill="white"/>
<path d="M366.818 157.18C367.02 157.338 367.221 157.495 367.414 157.653C367.265 157.784 367.116 158.029 366.976 158.021C366.836 158.012 366.652 157.784 366.591 157.609C366.556 157.522 366.722 157.355 366.818 157.18Z" fill="white"/>
<path d="M363.248 156.568C363.397 156.165 363.467 155.71 363.712 155.377C364.071 154.896 364.473 154.913 364.753 155.307C364.867 155.465 364.964 155.631 365.06 155.797C364.867 155.911 364.683 156.06 364.473 156.13C364.053 156.27 363.615 156.375 363.195 156.498C363.204 156.515 363.248 156.568 363.248 156.568Z" fill="white"/>
<path d="M411.69 188.423C411.83 188.432 412.023 188.379 412.111 188.449C412.469 188.747 412.382 189.071 411.848 189.298C411.795 189.325 411.533 189.027 411.472 188.843C411.445 188.747 411.612 188.572 411.69 188.423Z" fill="#B7C139"/>
<path d="M346.224 128.494C346.6 128.214 346.976 127.934 347.353 127.654C347.362 127.776 347.423 127.995 347.379 128.013C347.003 128.197 346.609 128.354 346.215 128.52C346.224 128.52 346.224 128.494 346.224 128.494Z" fill="white"/>
<path d="M230.381 125.439C230.582 125.273 230.775 125.097 230.976 124.931C230.924 125.054 230.898 125.255 230.81 125.29C230.661 125.36 230.469 125.325 230.294 125.334C230.285 125.334 230.381 125.439 230.381 125.439Z" fill="#7E890C"/>
<path d="M186.77 808.773C186.402 809.727 185.579 810.016 184.695 810.235C185.186 809.456 185.404 808.3 186.77 808.773Z" fill="#B7C139"/>
<path d="M369.614 550.071C377.747 550.561 385.888 551.025 394.02 551.568C398.809 551.883 403.378 553.056 407.746 555.096C413.716 557.888 417.41 562.405 418.575 568.927C418.732 569.82 418.872 570.713 418.995 571.606C419.109 572.42 418.242 573.33 417.34 573.391C416.666 573.435 415.984 573.523 415.31 573.496C407.843 573.164 400.384 572.787 392.917 572.481C386.807 572.227 380.697 571.982 374.587 571.851C370.717 571.772 366.918 571.255 363.11 570.669C359.95 570.188 356.939 569.198 354.085 567.789C347.248 564.41 343.519 558.799 342.53 551.297C342.372 550.106 343.248 549.064 344.491 549.099C347.66 549.187 350.829 549.283 353.989 549.441C359.189 549.712 364.388 550.036 369.579 550.343C369.606 550.246 369.606 550.159 369.614 550.071Z" fill="#070704"/>
<path d="M340.867 523.301C341.97 523.17 343.064 522.899 344.159 522.934C349.131 523.065 354.103 523.258 359.075 523.485C364.494 523.73 369.912 524.116 375.331 524.282C381.66 524.483 387.98 524.86 394.274 525.586C398.59 526.085 402.704 527.197 406.539 529.245C412.57 532.475 415.949 537.518 416.737 544.302C416.763 544.521 416.728 544.757 416.746 544.976C416.842 546.517 415.975 547.383 414.216 547.339C410.828 547.252 407.432 547.129 404.044 546.981C397.268 546.674 390.493 546.368 383.726 546C377.178 545.65 370.639 545.256 364.1 544.81C359.53 544.503 355.215 543.216 351.162 541.08C345.629 538.157 342.294 533.517 340.771 527.521C340.605 526.873 340.552 526.173 340.57 525.507C340.578 524.851 340.736 524.194 340.867 523.301Z" fill="#070704"/>
<path d="M365.333 488.251C371.452 488.496 377.562 488.803 383.681 488.978C388.005 489.1 392.277 489.626 396.523 490.361C400.339 491.026 403.999 492.261 407.281 494.388C412.822 497.977 415.807 503.019 415.834 509.707C415.834 510.372 414.81 511.598 414.179 511.598C412.822 511.607 411.457 511.633 410.1 511.572C401.267 511.186 392.435 510.801 383.602 510.372C377.264 510.066 370.918 509.733 364.589 509.313C360.256 509.024 356.054 508.026 352.106 506.223C344.963 502.966 340.769 497.408 339.64 489.591C339.465 488.4 340.306 487.332 341.549 487.358C345.855 487.428 350.162 487.516 354.46 487.647C358.085 487.752 361.709 487.919 365.342 488.05C365.342 488.111 365.342 488.181 365.333 488.251Z" fill="#070704"/>
<path d="M254.719 136.049C255.323 124.003 260.601 115.241 270.248 109.174C276.568 105.2 283.519 103.624 291.021 104.841C301.99 106.627 310.271 114.786 312.293 125.763C313.825 134.062 311.698 141.494 306.944 148.208C301.429 155.999 293.787 160.56 284.333 161.706C271.657 163.238 258.789 155.596 255.629 142.211C255.113 140.04 254.964 137.773 254.719 136.049ZM303.889 144.487C303.714 144.575 303.504 144.628 303.373 144.75C303.294 144.82 303.338 145.013 303.32 145.153C303.486 144.908 303.644 144.654 303.81 144.409C304.125 144.26 304.449 144.12 304.747 143.936C304.791 143.91 304.703 143.516 304.633 143.498C303.749 143.323 304.029 144.067 303.889 144.487ZM278.03 116.055C275.369 116.633 273.207 118.182 271.045 119.697C270.537 120.055 270.231 120.712 269.837 121.228C265.293 124.537 262.501 129.046 260.934 134.368C259.638 138.762 260.304 142.815 263.201 146.413C265.32 149.039 267.639 151.394 270.537 153.268C273.68 155.307 277.164 155.946 280.674 156.542C282.188 156.795 283.825 156.629 285.217 155.692C286.74 155.421 288.264 155.158 289.778 154.861C289.883 154.843 289.944 154.581 290.032 154.414C288.263 153.942 286.486 153.985 284.709 154.336C280.385 153.469 277.4 150.913 275.553 146.982C274.879 145.555 274.179 144.111 273.785 142.597C273.259 140.592 272.498 138.745 271.299 137.064C268.847 133.598 268.909 129.869 270.257 126.052C270.633 124.993 271.185 123.995 271.657 122.962C273.75 121.246 275.842 119.539 277.934 117.823C280.359 117.079 282.845 117 285.331 117.289C286.434 117.421 287.659 117.631 288.544 118.226C291.931 120.493 295.661 122.148 299.145 124.205C303.031 126.498 305.272 130.14 305.22 134.893C305.193 136.88 305.255 138.876 305.281 141.284C306.121 140.592 306.822 140.294 307.049 139.778C307.688 138.342 308.319 136.854 308.616 135.322C309.886 128.783 308.038 123.146 302.944 118.891C297.201 114.085 290.452 112.781 283.178 114.339C281.418 114.733 279.737 115.477 278.03 116.055ZM275.071 133.449C275.01 135.576 276.884 137.283 279.028 137.012C279.702 136.924 280.359 136.74 281.033 136.644C285.865 135.926 288.176 132.311 288.701 128.345C289.034 125.824 288.053 123.916 285.9 122.638C285.138 122.183 284.28 121.885 283.326 122.218C278.223 124.003 275.229 128.056 275.071 133.449Z" fill="#070704"/>
<path d="M129.583 159.387C132.06 157.82 134.607 156.34 137.006 154.66C141.777 151.333 147.257 149.994 152.815 148.996C156.684 148.304 160.457 149.302 164.055 150.747C166.725 151.823 168.467 153.819 169.246 156.612C169.08 157.496 168.922 158.38 168.738 159.255C167.749 163.921 164.974 166.819 160.265 167.799C158.497 168.167 156.746 168.622 154.969 168.902C151.301 169.471 148.141 171.108 145.199 173.297C143.125 174.837 141.759 176.851 141.059 179.319C140.63 180.834 140.437 182.436 139.895 183.897C138.048 188.835 134.056 191.154 129.189 192.179C127.911 192.45 126.492 192.196 125.153 192.039C123.507 191.846 122.221 190.927 121.196 189.658C119.095 187.049 118.299 184.046 118.92 180.781C119.638 177.017 120.505 173.288 122.203 169.795C122.982 168.202 124.199 166.74 124.173 164.814C125.494 163.413 126.816 162.013 128.138 160.603C128.944 160.568 129.399 160.14 129.583 159.387Z" fill="#070704"/>
<path d="M129.579 159.386C129.395 160.139 128.94 160.568 128.152 160.62C128.345 159.885 128.826 159.483 129.579 159.386Z" fill="#7E890C"/>
<path d="M99.9668 167.878C100.378 167.878 100.755 167.755 101.096 167.528C100.921 170.163 100.089 172.526 98.2773 174.487C98.4349 173.209 98.5925 171.922 98.7588 170.644C99.713 169.97 99.9143 168.955 99.9668 167.878Z" fill="#070704"/>
<path d="M92.8242 189.465C93.2882 187.6 92.9117 185.526 94.2511 183.889C94.1548 184.755 94.0147 185.622 93.971 186.489C93.9272 187.627 93.6646 188.651 92.8242 189.465Z" fill="#070704"/>
<path d="M95.5547 181.28C95.9749 179.844 95.686 178.172 96.9991 177.043C96.6752 178.505 96.7189 180.098 95.5547 181.28Z" fill="#070704"/>
<path d="M94.207 183.967C94.5747 182.978 94.6272 181.823 95.6339 181.157C95.2663 182.146 95.24 183.311 94.207 183.967Z" fill="#070704"/>
<path d="M96.9023 177.2C97.2175 176.15 97.2788 174.977 98.373 174.32C98.0754 175.38 97.9791 176.544 96.9023 177.2Z" fill="#070704"/>
<path d="M101.265 165.094C101.702 165.147 102.096 165.05 102.455 164.796C102.262 165.899 102.341 167.151 100.984 167.659C101.081 166.81 101.177 165.952 101.265 165.094Z" fill="#070704"/>
<path d="M275.068 133.449C275.225 128.056 278.21 124.003 283.323 122.209C284.277 121.876 285.135 122.174 285.896 122.629C288.059 123.898 289.039 125.815 288.698 128.337C288.164 132.311 285.853 135.917 281.029 136.635C280.355 136.731 279.699 136.915 279.025 137.003C276.889 137.274 275.007 135.576 275.068 133.449Z" fill="white"/>
<path d="M303.811 144.409C303.645 144.654 303.487 144.908 303.321 145.153C303.33 145.013 303.295 144.82 303.373 144.75C303.513 144.628 303.715 144.566 303.89 144.487L303.811 144.409Z" fill="#7E890C"/>
</svg>
