<svg width="1191" height="842" viewBox="0 0 1191 842" fill="none" xmlns="http://www.w3.org/2000/svg">
<path d="M470.969 48.7102C476.919 66.1102 488.359 78.4602 505.469 85.3802C511.879 87.9702 518.569 89.5702 525.399 90.6202C534.769 92.0602 544.199 92.4002 553.649 91.9502C565.369 91.4002 577.089 90.6902 588.799 89.9602C598.989 89.3302 609.159 88.4902 619.349 87.9002C641.509 86.6202 663.669 85.4302 685.839 84.2302C696.619 83.6502 695.549 83.5102 693.419 74.0002C689.299 55.5702 678.569 42.4002 661.039 35.0202C658.689 34.0302 656.289 33.1502 653.869 32.3702C645.799 29.7902 637.479 28.5002 629.069 27.9902C617.849 27.3102 606.619 27.7702 595.409 28.3502C580.629 29.1002 565.869 30.1302 551.099 31.0302C551.099 30.9902 551.099 30.9502 551.089 30.9202C548.289 31.0702 545.479 31.2102 542.679 31.3802C527.139 32.2802 511.609 33.1702 496.069 34.1002C487.669 34.6002 479.269 35.1502 470.869 35.7102C469.409 35.8102 468.459 36.8902 468.729 38.2702C469.389 41.7702 469.819 45.3702 470.969 48.7102Z" fill="#AABB11"/>
<path d="M691.542 213.38C685.582 210.39 679.302 208.34 672.772 207.02C660.962 204.64 649.032 203.89 637.012 204.54C634.972 204.65 632.942 204.84 630.912 204.94C613.342 205.81 595.782 206.67 578.212 207.53C578.212 207.57 578.212 207.62 578.222 207.66C565.242 208.44 552.272 209.24 539.292 209.98C526.822 210.69 514.352 211.32 501.882 212.03C500.362 212.12 498.862 212.39 497.352 212.63C496.472 212.77 495.602 213.96 495.732 214.91C496.082 217.43 496.242 220.01 496.942 222.43C501.912 239.79 512.322 252.68 528.722 260.51C535.202 263.6 542.062 265.5 549.112 266.82C558.692 268.61 568.372 268.98 578.062 268.58C593.092 267.97 608.102 267.12 623.122 266.25C635.332 265.54 647.532 264.61 659.742 263.88C672.462 263.12 685.192 262.49 697.922 261.78C704.032 261.44 710.132 261.03 716.242 260.64C717.262 260.58 718.272 260.48 719.282 260.36C720.532 260.21 721.432 259 721.382 257.65C721.212 253 719.892 248.62 718.432 244.26C713.742 230.22 704.712 219.99 691.542 213.38Z" fill="#AABB11"/>
<path d="M675.331 137.78C673.011 136.73 670.631 135.79 668.221 134.99C660.441 132.39 652.441 130.88 644.261 130.35C628.701 129.35 613.161 130.3 597.631 131.07C592.791 131.31 587.961 131.68 583.121 131.95C578.031 132.24 572.941 132.5 567.841 132.78C567.841 132.81 567.841 132.84 567.841 132.86C555.621 133.57 543.401 134.3 531.181 134.98C518.961 135.67 506.731 136.29 494.511 136.99C491.201 137.18 487.901 137.5 484.601 137.81C483.861 137.88 483.081 138.05 482.421 138.37C482.041 138.55 481.611 139.13 481.621 139.52C481.651 143.9 482.611 148.13 484.151 152.2C490.541 169.09 501.941 181.11 518.881 187.69C526.541 190.67 534.481 192.42 542.631 193.26C552.291 194.25 561.961 194.57 571.661 193.67C574.701 193.39 577.771 193.39 580.831 193.22C591.271 192.63 601.711 192.06 612.141 191.43C626.391 190.56 640.641 189.61 654.891 188.74C670.921 187.76 686.961 186.79 703.001 185.87C707.541 185.61 707.731 184.6 707.161 180.68C706.831 178.41 706.291 176.17 705.701 173.95C701.231 157.16 691.251 144.96 675.331 137.78Z" fill="#AABB11"/>
<path d="M918 614.9C909.16 603.63 898.38 594.4 885.88 587.34C870.42 578.61 853.75 574.12 835.97 573.83C828.22 573.7 820.54 574.31 812.92 575.59C803.55 577.16 794.46 579.74 786.07 584.35C771.71 592.24 759.18 602.49 749.06 615.3C730.31 639.05 724.26 666.39 727.69 696.12C732.55 725.46 746.61 749.32 770.38 767.29C780.2 774.71 791.05 780.17 802.95 783.48C817.78 787.6 832.76 788.7 848.05 786.63C868.61 783.85 887 776.06 902.52 762.41C927.21 740.7 939.88 713.2 940.22 682.44C940.04 672.94 939.59 665.74 938.07 658.64C934.63 642.56 928.14 627.83 918 614.9ZM833.73 749.06C803.66 750.16 765.36 725.93 765.18 680.95C765.02 642.36 796.02 611.84 833.15 612.31C871.9 612.24 901.43 642.35 901.77 680.33C902.11 718.08 870.04 750.13 833.73 749.06Z" fill="black"/>
<path d="M1098.4 784.64C1098.29 783.63 1098.21 782.58 1097.85 781.65C1096.92 779.28 1095.84 776.96 1094.8 774.63C1084.7 752.04 1074.59 729.46 1064.48 706.87C1063.75 705.24 1063.01 703.61 1062.33 701.96C1061.36 699.6 1061.69 697.45 1063.57 695.66C1064.86 694.43 1066.23 693.28 1067.55 692.07C1072.84 687.2 1077.41 681.73 1081.13 675.58C1090.92 659.42 1093.26 642.14 1088.19 624.03C1082.64 604.21 1070.11 590.05 1051.71 581.06C1041.91 576.27 1031.47 574.29 1020.58 574.32C1000.68 574.38 980.772 574.33 960.872 574.34C959.342 574.34 957.812 574.37 956.292 574.52C953.562 574.78 951.492 576.81 951.322 579.47C951.172 581.76 951.182 584.06 951.182 586.36C951.172 618.01 951.172 649.67 951.172 681.32C951.172 712.97 951.172 744.63 951.182 776.28C951.182 778.58 951.172 780.88 951.312 783.17C951.472 785.86 953.452 787.88 956.162 788.27C956.922 788.38 957.682 788.49 958.442 788.49C965.582 788.51 972.732 788.51 979.872 788.48C980.882 788.47 981.902 788.27 982.892 788.06C984.792 787.64 986.572 785.72 986.742 783.77C986.912 781.74 986.982 779.7 986.982 777.66C987.002 766.94 986.992 756.22 986.992 745.5C986.992 736.31 987.022 727.12 987.002 717.93C986.992 712.14 988.652 710.16 994.662 709.89C995.172 709.87 995.682 709.86 996.192 709.86C1003.33 709.86 1010.48 709.85 1017.62 709.87C1018.89 709.87 1020.17 709.98 1021.44 710.1C1025.06 710.42 1027.67 712.04 1028.84 715.68C1029.23 716.89 1029.86 718.02 1030.38 719.18C1039.25 738.97 1048.12 758.75 1057 778.54C1057.84 780.4 1058.73 782.24 1059.53 784.11C1060.65 786.72 1062.63 788.07 1065.41 788.32C1066.43 788.41 1067.44 788.52 1068.46 788.52C1076.63 788.53 1084.79 788.54 1092.96 788.5C1093.97 788.5 1094.99 788.3 1095.99 788.12C1097.41 787.85 1098.57 786.2 1098.4 784.64ZM1048.71 650.28C1045.08 661.29 1037.23 668.06 1025.62 670.02C1023.62 670.36 1021.57 670.47 1019.54 670.48C1011.39 670.53 1003.24 670.51 995.092 670.49C993.822 670.49 992.552 670.4 991.282 670.27C989.262 670.05 987.482 668.33 987.242 666.28C987.062 664.77 987.012 663.23 987.012 661.71C986.992 655.09 987.002 648.46 987.002 641.84H987.012C987.012 635.22 986.982 628.59 987.032 621.97C987.042 620.46 987.222 618.92 987.582 617.45C988.042 615.58 989.332 614.33 991.252 613.99C992.742 613.73 994.282 613.61 995.802 613.61C1003.69 613.58 1011.59 613.56 1019.48 613.62C1021.51 613.63 1023.55 613.83 1025.56 614.11C1034.46 615.34 1041.18 620.06 1045.94 627.5C1050.47 634.58 1051.28 642.5 1048.71 650.28Z" fill="black"/>
<path d="M246.472 779.54C242.102 769.76 237.722 759.99 233.342 750.21C226.782 735.54 220.222 720.88 213.682 706.2C212.852 704.34 212.052 702.46 211.492 700.51C211.062 699 211.372 697.41 212.602 696.27C214.272 694.7 216.062 693.26 217.772 691.72C235.982 675.26 245.672 648.95 236.922 621.92C229.292 598.36 212.822 583.39 189.162 576.36C182.262 574.31 175.112 573.91 167.952 573.9C150.602 573.89 133.262 573.89 115.912 573.89C113.612 573.89 111.322 573.87 109.022 573.94C108.012 573.97 106.982 574.11 106.002 574.35C103.822 574.89 102.402 576.36 102.002 578.52C101.682 580.26 101.632 582.07 101.632 583.85C101.602 597.63 101.612 611.41 101.622 625.19C101.622 626.46 101.642 627.74 101.742 629.01C102.102 633.4 105.252 636.32 109.122 636.37C116.012 636.45 122.892 636.46 129.782 636.36C133.132 636.31 136.172 634.36 136.922 629.66C137.162 628.16 137.072 626.61 137.132 625.08C137.192 623.55 137.162 622.01 137.322 620.5C137.652 617.39 140.002 614.77 143.052 614.07C144.042 613.84 145.062 613.66 146.072 613.65C154.492 613.62 162.912 613.54 171.322 613.69C175.412 613.76 179.442 614.53 183.192 616.31C202.772 625.61 204.852 650.84 189.682 663.39C185.022 667.24 179.782 669.63 173.692 669.94C171.142 670.07 168.592 670.09 166.042 670.09C148.692 670.1 131.352 670.09 114.002 670.1C111.962 670.1 109.912 670.07 107.882 670.2C104.332 670.43 102.062 672.52 101.782 675.88C101.592 678.16 101.602 680.47 101.602 682.76C101.592 698.33 101.592 713.89 101.592 729.46C101.592 744.77 101.592 760.08 101.592 775.4C101.592 777.44 101.572 779.49 101.662 781.52C101.712 782.53 101.902 783.55 102.202 784.51C102.682 786.06 103.802 787.09 105.342 787.59C106.062 787.82 106.832 787.99 107.592 788C115.502 788.02 123.402 788.01 131.312 788C131.562 788 131.812 787.93 132.072 787.9C134.722 787.59 136.722 785.61 136.942 782.82C137.122 780.54 137.112 778.23 137.112 775.94C137.122 757.82 137.112 739.7 137.132 721.58C137.132 719.29 137.182 716.99 137.342 714.7C137.502 712.46 138.832 710.89 141.082 710.47C143.072 710.1 145.122 709.88 147.142 709.86C154.542 709.79 161.942 709.83 169.332 709.84C170.352 709.84 171.372 709.87 172.392 709.89C176.032 709.96 178.682 711.36 180.152 714.95C182.172 719.91 184.452 724.76 186.622 729.65C194.182 746.66 201.782 763.66 209.292 780.69C212.402 787.75 213.102 788.04 220.822 788.08C227.452 788.11 234.092 788.1 240.722 788.08C241.992 788.08 243.272 788.03 244.542 787.93C247.132 787.71 248.632 785.56 247.882 783.08C247.522 781.87 246.992 780.7 246.472 779.54Z" fill="black"/>
<path d="M734.679 609.69C736.099 609.52 737.539 607.96 737.729 606.61C737.839 605.85 737.939 605.09 737.939 604.33C737.949 595.91 737.949 587.49 737.939 579.07C737.939 578.82 737.919 578.56 737.899 578.31C737.719 575.64 736.229 573.9 733.699 573.71C731.419 573.54 729.119 573.52 726.819 573.52C677.599 573.51 628.369 573.51 579.149 573.52C577.359 573.52 575.579 573.52 573.799 573.59C573.039 573.62 572.289 573.81 571.539 573.96C570.339 574.19 569.229 575.31 569.069 576.55C568.899 577.81 568.729 579.08 568.719 580.35C568.689 587.75 568.689 595.15 568.709 602.55C568.709 603.82 568.819 605.1 568.969 606.36C569.189 608.18 570.679 609.75 572.459 609.89C574.739 610.07 577.039 610.14 579.329 610.14C592.339 610.16 605.349 610.13 618.349 610.17C620.639 610.18 622.949 610.22 625.199 610.56C628.269 611.03 630.879 613.91 631.029 616.83C631.169 619.63 631.229 622.44 631.229 625.24C631.239 674.99 631.239 724.74 631.239 774.5C631.239 777.05 631.209 779.61 631.329 782.15C631.479 785.24 633.129 786.9 636.059 787.07C636.819 787.12 637.589 787.13 638.349 787.13C648.299 787.13 658.239 787.13 668.189 787.13C668.959 787.13 669.719 787.13 670.479 787.09C674.019 786.92 675.349 785.54 675.479 781.75C675.559 779.46 675.529 777.16 675.529 774.86C675.529 750.11 675.529 725.36 675.529 700.61C675.529 675.1 675.529 649.58 675.539 624.07C675.539 621.78 675.489 619.47 675.699 617.19C676.059 613.27 678.709 610.67 682.669 610.31C684.949 610.11 687.249 610.14 689.549 610.13C702.559 610.11 715.569 610.14 728.569 610.1C730.619 610.11 732.659 609.92 734.679 609.69Z" fill="black"/>
<path d="M532.648 582.99C522.238 576.87 510.908 573.81 498.668 573.81H430.998C429.568 573.81 428.288 574.37 427.168 575.49C426.048 576.61 425.488 577.99 425.488 579.62V607.79C425.488 609.43 426.048 610.8 427.168 611.92C428.288 613.04 429.568 613.61 430.998 613.61H498.658C506.408 613.61 513.098 616.36 518.708 621.88C524.318 627.39 527.128 634.13 527.128 642.09C527.128 649.85 524.318 656.48 518.708 661.99C513.088 667.5 506.408 670.26 498.658 670.26H430.998C429.568 670.26 428.288 670.82 427.168 671.94C426.048 673.06 425.488 674.44 425.488 676.07V782.92C425.488 784.35 426.048 785.63 427.168 786.75C428.288 787.87 429.568 788.43 430.998 788.43H454.578C456.208 788.43 457.588 787.92 458.708 786.9C459.828 785.88 460.388 784.56 460.388 782.92V714.64C460.388 712.8 460.798 711.58 461.608 710.97C462.418 710.36 463.948 710.05 466.198 710.05H498.648C510.898 710.05 522.228 706.99 532.628 700.87C543.038 694.75 551.308 686.48 557.428 676.07C563.548 665.66 566.618 654.33 566.618 642.09C566.618 629.84 563.558 618.47 557.428 607.95C551.328 597.43 543.058 589.11 532.648 582.99Z" fill="black"/>
<path d="M258.748 631.5C264.088 633.66 269.658 634.99 275.348 635.87C283.158 637.07 291.008 637.35 298.878 636.98C308.638 636.52 318.398 635.93 328.158 635.33C336.638 634.8 345.118 634.1 353.598 633.61C372.058 632.54 390.518 631.55 408.978 630.55C417.958 630.07 417.058 629.95 415.288 622.03C411.858 606.68 402.918 595.71 388.318 589.56C386.368 588.74 384.368 588 382.348 587.36C375.628 585.21 368.698 584.14 361.688 583.72C352.348 583.16 342.988 583.54 333.648 584.02C321.338 584.65 309.048 585.5 296.738 586.26C296.738 586.23 296.738 586.2 296.728 586.17C294.398 586.3 292.058 586.41 289.728 586.55C276.788 587.3 263.848 588.04 250.908 588.81C243.908 589.23 236.908 589.69 229.918 590.15C228.708 590.23 227.918 591.13 228.138 592.28C228.698 595.19 229.058 598.19 230.008 600.98C234.968 615.45 244.498 625.74 258.748 631.5Z" fill="black"/>
<path d="M436.129 763.81C432.229 752.14 424.699 743.62 413.739 738.11C408.779 735.62 403.539 733.91 398.109 732.81C388.269 730.83 378.339 730.21 368.329 730.75C366.629 730.84 364.939 731 363.249 731.08C348.619 731.8 333.989 732.52 319.359 733.23C319.359 733.27 319.359 733.3 319.369 733.34C308.559 733.99 297.749 734.65 286.939 735.27C276.549 735.86 266.159 736.39 255.779 736.97C254.519 737.04 253.259 737.27 252.009 737.47C251.279 737.58 250.549 738.58 250.659 739.37C250.949 741.47 251.089 743.62 251.669 745.64C255.809 760.1 264.479 770.84 278.139 777.36C283.539 779.94 289.249 781.52 295.119 782.62C303.099 784.11 311.16 784.42 319.229 784.09C331.75 783.58 344.249 782.87 356.759 782.15C366.929 781.56 377.089 780.78 387.259 780.17C397.859 779.53 408.459 779.01 419.059 778.42C424.149 778.13 429.229 777.79 434.319 777.47C435.169 777.42 436.009 777.33 436.849 777.23C437.889 777.11 438.639 776.1 438.599 774.97C438.449 771.1 437.349 767.44 436.129 763.81Z" fill="black"/>
<path d="M269.927 716.72C276.307 719.2 282.917 720.66 289.707 721.36C297.757 722.19 305.807 722.45 313.887 721.71C316.427 721.48 318.977 721.48 321.527 721.33C330.217 720.84 338.917 720.37 347.607 719.84C359.477 719.11 371.347 718.33 383.217 717.6C396.577 716.78 409.927 715.98 423.287 715.21C427.067 714.99 427.227 714.15 426.747 710.89C426.477 709 426.027 707.13 425.537 705.29C421.807 691.3 413.497 681.13 400.227 675.16C398.297 674.29 396.317 673.5 394.307 672.83C387.827 670.67 381.167 669.41 374.357 668.97C361.397 668.14 348.457 668.93 335.517 669.57C331.487 669.77 327.457 670.07 323.437 670.31C319.197 670.55 314.957 670.77 310.717 671C310.717 671.02 310.717 671.05 310.717 671.07C300.537 671.66 290.357 672.27 280.177 672.84C269.997 673.41 259.817 673.93 249.637 674.51C246.877 674.67 244.127 674.94 241.377 675.19C240.757 675.25 240.117 675.39 239.557 675.65C239.247 675.8 238.887 676.28 238.887 676.61C238.907 680.26 239.717 683.78 240.997 687.17C246.317 701.23 255.817 711.23 269.927 716.72Z" fill="black"/>
<path d="M647.441 337.88C642.411 331.86 636.411 326.98 629.751 322.88C629.431 322.68 629.071 322.45 628.721 322.42C628.381 322.39 627.911 322.5 627.691 322.73C627.261 323.18 626.921 323.74 626.621 324.29C624.941 327.43 623.291 330.59 621.621 333.74C607.181 360.95 593.051 388.33 578.421 415.44C571.471 428.32 564.761 441.34 557.941 454.29C554.741 460.38 551.831 466.61 549.331 473.02C545.751 482.18 543.021 491.56 541.781 501.36C540.341 512.69 541.411 523.72 545.431 534.43C545.921 535.74 546.461 537.04 547.091 538.29C550.481 545.06 554.861 551.13 560.131 556.56C563.891 560.43 568.291 563.42 572.921 566.17C573.301 565.92 573.711 565.78 573.891 565.5C574.371 564.76 574.771 563.95 575.191 563.17C596.551 522.62 617.911 482.07 639.261 441.52C639.791 440.51 640.281 439.47 640.771 438.44C641.541 436.83 642.231 435.19 643.061 433.62C646.551 426.96 649.781 420.19 652.501 413.17C656.101 403.88 658.891 394.37 660.031 384.43C660.761 378.08 660.801 371.73 659.831 365.39C658.261 355.05 654.141 345.89 647.441 337.88Z" fill="black"/>
<path d="M544.26 427.16C545.88 429.03 549.05 429.02 550.69 427.13C551.26 426.46 551.73 425.69 552.16 424.91C556.19 417.55 560.21 410.18 564.21 402.8C564.81 401.69 565.33 400.51 565.76 399.32C566.75 396.61 566.78 393.86 565.93 391.08C565.37 389.24 564.59 387.52 563.69 385.83C559.8 378.54 555.92 371.24 552.05 363.94C548.71 357.65 545.4 351.34 542.06 345.05C541.46 343.93 540.82 342.83 540.12 341.77C539.24 340.44 537.98 339.58 536.37 339.4C534.98 339.24 533.59 339.1 532.19 339.09C527.61 339.05 523.03 339.08 518.45 339.08C518.45 339.08 518.45 339.08 518.45 339.07C514 339.07 509.55 339.07 505.1 339.07C504.21 339.07 503.31 339.02 502.43 339.13C501.68 339.22 500.93 339.41 500.24 339.69C499.23 340.11 498.66 340.94 498.51 342.02C498.36 343.05 498.46 344.06 498.94 344.99C499.46 346.01 500 347.02 500.56 348.02C514.08 372.66 527.61 397.29 541.14 421.93C541.75 423.04 542.34 424.18 542.98 425.27C543.34 425.94 543.76 426.58 544.26 427.16Z" fill="black"/>
<path d="M792.301 437.28C782.501 432.64 769.791 427.63 754.211 422.28C749.951 420.57 745.241 418.54 740.051 416.16C731.321 412.17 725.481 409.22 722.531 407.32C715.161 402.69 711.481 397.22 711.481 390.91C711.481 386.92 713.111 382.97 716.371 379.07C719.631 375.18 724.101 371.86 729.781 369.13C737.361 366.19 745.451 364.71 754.081 364.71C761.441 364.71 768.811 365.76 776.171 367.87C782.481 369.56 789.951 372.82 798.581 377.65C799.631 378.28 800.681 378.6 801.741 378.6C803.001 378.6 803.951 378.28 804.581 377.65L804.901 377.34C804.851 377.34 804.821 377.37 804.781 377.38L808.381 372.29C814.481 363.66 818.061 358.19 819.111 355.88C819.321 355.46 819.111 354.73 818.481 353.67C817.851 352.62 817.011 351.67 815.961 350.83C810.281 345.99 804.171 341.89 797.651 338.52C790.681 335.24 782.501 332.77 773.141 331.09C762.521 328.72 752.601 328.29 743.631 329.03C743.331 329.04 743.031 329.04 742.731 329.06C741.931 329.15 741.151 329.26 740.361 329.36C739.721 329.43 739.081 329.52 738.451 329.6C738.351 329.61 738.251 329.63 738.151 329.64C722.821 331.77 710.741 337.11 703.411 341.13C701.841 341.98 700.331 342.87 698.871 343.8C696.681 345.18 695.511 346.08 695.511 346.08C690.211 349.94 685.751 354.41 682.141 359.49C677.901 365.47 675.071 372.04 673.631 379.21C672.361 383.74 671.711 388.38 671.711 393.13C671.711 403.02 674.651 412.6 680.551 421.85C685.391 428.79 692.811 434.63 702.801 439.37C712.601 444.02 725.311 449.02 740.891 454.37C745.151 456.08 749.861 458.11 755.051 460.49C763.781 464.49 769.621 467.43 772.571 469.33C779.941 473.96 783.621 479.43 783.621 485.74C783.621 489.74 781.991 493.68 778.731 497.58C775.471 501.47 771.001 504.79 765.321 507.52C757.741 510.46 749.651 511.94 741.021 511.94C733.661 511.94 726.291 510.89 718.931 508.78C712.621 507.09 705.151 503.83 696.521 499C695.471 498.37 694.421 498.05 693.361 498.05C692.101 498.05 691.151 498.37 690.521 499L690.201 499.31C690.261 499.31 690.281 499.28 690.321 499.27L686.721 504.36C680.621 512.99 677.041 518.46 675.991 520.77C675.781 521.19 675.991 521.92 676.621 522.98C677.251 524.03 678.091 524.98 679.141 525.82C684.821 530.66 690.931 534.76 697.451 538.13C704.611 541.49 713.031 544.02 722.701 545.7C732.381 547.38 742.271 548.01 752.371 547.59C766.261 546.12 778.571 542.27 789.301 536.07C800.031 529.86 808.401 522.13 814.391 512.87C820.391 503.61 823.391 493.82 823.391 483.52C823.391 473.63 820.451 464.05 814.551 454.8C809.721 447.85 802.301 442.01 792.301 437.28Z" fill="black"/>
<path d="M462.93 437.22C453.13 432.58 440.42 427.57 424.84 422.22C420.58 420.51 415.87 418.48 410.68 416.1C401.95 412.11 396.11 409.16 393.16 407.26C385.79 402.63 382.11 397.16 382.11 390.85C382.11 386.85 383.74 382.91 387 379.01C390.26 375.12 394.73 371.8 400.41 369.07C407.99 366.13 416.08 364.65 424.71 364.65C432.07 364.65 439.44 365.7 446.8 367.81C453.11 369.5 460.58 372.76 469.21 377.59C470.26 378.22 471.31 378.54 472.37 378.54C473.63 378.54 474.58 378.22 475.21 377.59L475.53 377.28C475.48 377.28 475.45 377.31 475.41 377.32L479.01 372.23C485.11 363.6 488.69 358.13 489.74 355.82C489.95 355.4 489.74 354.67 489.11 353.61C488.48 352.56 487.64 351.61 486.59 350.77C480.91 345.93 474.8 341.83 468.28 338.46C461.12 335.1 452.7 332.57 443.03 330.89C433.35 329.21 423.46 328.58 413.36 329C399.47 330.47 387.16 334.32 376.43 340.52C365.7 346.73 357.33 354.46 351.34 363.72C345.34 372.98 342.34 382.77 342.34 393.07C342.34 402.96 345.28 412.54 351.18 421.79C356.02 428.73 363.44 434.57 373.43 439.31C383.23 443.95 395.94 448.96 411.52 454.31C415.78 456.02 420.49 458.05 425.68 460.43C434.41 464.42 440.25 467.37 443.2 469.27C450.57 473.9 454.25 479.37 454.25 485.68C454.25 489.67 452.62 493.62 449.36 497.52C446.1 501.41 441.63 504.73 435.95 507.46C428.37 510.4 420.28 511.88 411.65 511.88C404.29 511.88 396.92 510.83 389.56 508.72C383.25 507.03 375.78 503.77 367.15 498.94C366.1 498.31 365.05 497.99 363.99 497.99C362.73 497.99 361.78 498.31 361.15 498.94L360.83 499.25C360.88 499.25 360.91 499.22 360.95 499.21L357.35 504.3C351.25 512.93 347.67 518.4 346.62 520.71C346.41 521.13 346.62 521.86 347.25 522.92C347.88 523.97 348.72 524.92 349.77 525.76C355.45 530.6 361.56 534.7 368.08 538.07C375.05 541.35 383.23 543.82 392.59 545.5C403.21 547.87 413.13 548.3 422.1 547.56C422.4 547.55 422.7 547.55 423 547.53C423.8 547.44 424.58 547.33 425.37 547.23C426.01 547.16 426.65 547.07 427.28 546.99C427.38 546.98 427.48 546.96 427.58 546.95C442.91 544.82 454.99 539.48 462.32 535.46C463.89 534.61 465.4 533.72 466.86 532.79C469.05 531.41 470.22 530.51 470.22 530.51C475.52 526.65 479.98 522.18 483.59 517.1C487.83 511.12 490.66 504.55 492.1 497.38C493.37 492.85 494.02 488.21 494.02 483.46C494.02 473.57 491.08 463.99 485.18 454.74C480.34 447.79 472.93 441.95 462.93 437.22Z" fill="black"/>
</svg>
