<svg width="629" height="772" viewBox="0 0 629 772" fill="none" xmlns="http://www.w3.org/2000/svg">
<path d="M141.174 663.05C139.015 660.891 136.527 659.098 135.309 656.476C133.599 655.721 132.097 656.214 130.633 656.409C128.048 656.752 125.494 656.79 122.909 656.438C116.686 655.594 110.434 655.833 104.189 656.05C102.269 656.117 100.364 656.573 98.4593 656.887C97.3986 657.066 96.3602 657.365 95.2995 657.537C87.9339 658.702 81.278 661.6 75.1301 665.739C73.3448 666.941 71.6715 668.294 69.9683 669.608C69.1167 670.266 68.3323 671.013 67.4882 671.67C65.277 673.396 63.0808 673.254 61.1461 671.319C59.5997 669.773 58.4643 667.957 57.7098 665.911C56.5071 662.639 55.8199 659.292 56.2905 655.774C56.4324 654.72 56.4623 653.645 56.5295 652.718C55.2297 651.247 53.6311 651.314 52.2043 651.583C49.8886 652.016 47.5654 652.606 45.3617 653.435C40.3194 655.333 35.4787 657.656 31.0564 660.801C29.1291 662.176 27.1794 663.513 24.916 664.334C23.026 665.022 20.2172 664.155 19.3507 662.332C19.0146 661.623 18.9772 660.629 19.1416 659.837C19.9259 656.043 20.7775 652.263 21.7038 648.505C23.2501 642.23 24.5723 635.911 25.4015 629.494C25.5733 628.172 25.9767 626.999 26.7984 625.953C30.6605 621.045 34.6346 616.287 39.4976 612.238C43.6361 608.794 47.67 605.238 52.0699 602.116C52.9513 601.496 53.7581 600.756 54.6993 600.241C61.1012 596.73 67.3313 592.853 74.4055 590.716C76.2507 590.156 78.051 589.424 79.8438 588.699C87.2915 585.689 95.0081 583.911 103.053 583.59C103.696 583.567 104.338 583.47 105.16 583.388C105.907 582.843 106.848 582.29 107.633 581.573C111.584 577.972 116.432 576.254 121.46 574.924C128.056 573.184 134.719 573.303 141.3 574.842C146.985 576.172 151.408 579.496 154.433 584.561C154.866 585.286 155.217 586.062 155.673 586.944C157.018 586.989 158.288 587.063 159.557 587.056C163.031 587.048 166.437 587.452 169.642 588.879C171.861 589.865 174.147 590.246 176.567 590.022C177.635 589.924 178.726 589.969 179.794 590.066C182.879 590.335 185.681 591.359 187.914 593.577C189.132 594.788 190.26 596.095 191.029 596.931C192.538 597.462 193.263 596.961 194.032 596.618C204.423 591.912 212.932 584.725 220.618 576.463C221.35 575.679 222.135 574.91 222.725 574.021C225.705 569.531 228.133 564.735 230.292 559.805C230.531 559.26 230.135 558.423 229.612 558.214C229.411 558.132 229.231 557.99 229.03 557.945C225.407 557.153 222.112 555.622 219.064 553.523C218.534 553.157 217.981 552.805 217.399 552.537C211.198 549.661 206.425 544.992 201.831 540.129C198.701 536.819 196.154 533.099 194.406 528.864C193.173 525.883 191.813 522.947 190.671 519.929C187.668 511.989 186.017 503.809 186.652 495.263C187.018 490.333 186.921 485.365 188.086 480.495C188.639 478.179 188.385 475.856 187.204 473.615C186.203 471.725 185.703 469.611 185.329 467.467C184.777 464.284 183.985 461.147 183.305 457.995C181.938 451.675 181.131 445.265 180.16 438.886C180.115 438.61 179.533 438.378 179.159 438.206C179.047 438.154 178.763 438.348 178.629 438.498C178.352 438.796 178.061 439.11 177.874 439.469C177.381 440.425 176.903 441.396 176.485 442.382C175.461 444.787 173.893 446.827 172.324 448.896C170.703 451.032 168.813 452.609 166.139 453.251C164.152 453.729 162.956 455.029 162.038 456.986C160.103 461.087 157.13 464.561 154.351 468.132C153.701 468.961 152.834 469.67 151.96 470.268C150.832 471.037 149.533 471.172 148.278 470.544C146.328 469.573 144.655 468.251 143.31 466.503C141.868 464.628 140.352 462.82 138.783 460.878C138.156 461.356 137.565 461.633 137.244 462.088C136.37 463.306 135.675 464.665 134.764 465.853C134.264 466.518 133.509 467.011 132.807 467.489C131.672 468.259 130.185 468.229 129.176 467.482C128.661 467.101 128.146 466.705 127.668 466.272C125.621 464.397 123.581 462.507 121.602 460.676C120.511 460.497 120.033 461.379 119.301 461.752C117.628 462.619 115.992 462.447 114.445 461.341C113.019 460.318 111.965 458.973 110.942 457.576C109.799 456.022 108.626 454.484 107.341 453.042C106.998 452.653 106.288 452.429 105.668 453.102C104.301 454.573 102.553 454.738 100.977 453.677C94.8363 449.531 89.2487 444.862 87.0076 437.347C86.7611 436.525 86.4922 435.696 86.1411 434.912C82.0475 425.768 84.6471 415.938 89.4728 408.55C90.1899 407.452 90.8398 406.361 91.1386 405.091C91.781 402.312 93.1555 399.87 94.6645 397.509C97.9215 392.414 101.544 387.596 106.012 383.48C110.763 379.103 115.461 374.65 120.9 371.102C124.142 368.988 127.399 366.867 130.79 365.021C135.19 362.623 140.083 361.615 144.998 361.025C148.479 360.607 151.983 361.271 155.031 362.93C161.642 366.53 161.657 365.656 164.951 373.231C165.377 374.21 165.728 375.226 166.236 376.167C166.378 376.436 167.013 376.69 167.297 376.585C168.305 376.242 169.269 375.748 170.24 375.293C176.306 372.469 182.528 371.513 189.057 373.605C191.5 374.389 193.995 374.994 196.423 375.674C196.804 375.353 197.222 375.143 197.438 374.8C200.187 370.43 202.914 366.037 205.648 361.652C211.811 351.777 218.579 342.327 226.049 333.4C228.701 330.233 230.636 326.632 232.869 323.211C238.375 314.8 241.55 305.47 243.253 295.609C243.395 294.802 243.268 293.913 243.111 293.099C243.051 292.808 242.536 292.427 242.199 292.397C241.579 292.345 240.9 292.397 240.317 292.613C238.098 293.428 235.887 294.279 233.713 295.198C225.13 298.829 216.248 301.264 206.94 302.071C204.804 302.257 202.683 302.609 200.755 302.855C199 305.096 197.453 307.15 195.825 309.145C194.592 310.646 192.919 310.945 191.141 310.437C190.118 310.146 189.109 309.705 188.183 309.167C186.136 307.987 184.149 306.695 182.132 305.455C181.378 304.991 180.489 305.343 180.123 306.276C179.734 307.27 179.458 308.316 179.025 309.294C178.539 310.377 176.963 311.005 175.738 310.848C174.169 310.646 172.817 309.922 171.704 308.928C168.492 306.067 165.332 303.146 162.247 300.143C160.402 298.343 158.751 296.356 157.01 294.451C156.652 294.063 155.531 294.332 155.412 294.862C155.12 296.109 154.919 297.379 154.605 298.619C154.045 300.831 151.236 301.869 149.435 300.45C146.559 298.179 143.766 295.773 142.085 292.419C139.963 288.191 137.782 283.971 135.937 279.615C134.495 276.209 134.279 272.496 134.615 268.821C134.809 266.685 135.175 264.541 135.705 262.457C136.176 260.611 136.975 258.849 137.588 257.168C137.297 255.905 136.46 255.226 135.616 254.553C131.672 251.416 128.758 247.449 126.413 243.027C125.606 241.503 124.821 239.964 123.94 238.492C117.531 227.803 115.133 216.209 115.723 203.824C116.074 196.451 117.179 189.264 119.6 182.287C121.512 176.782 123.932 171.508 126.95 166.518C133.315 155.985 140.441 146.005 148.666 136.839C149.241 136.197 149.772 135.517 150.347 134.874C151.4 133.701 151.968 132.379 151.916 130.773C151.863 129.264 151.983 127.755 151.901 126.246C151.662 121.996 153.051 118.194 154.971 114.518C155.27 113.95 155.621 113.398 156.009 112.882C160.245 107.287 161.32 100.758 161.597 93.9978C161.649 92.7055 161.657 91.4131 161.597 90.1208C161.305 83.4276 162.038 76.7941 162.62 70.1532C162.941 66.5003 163.636 62.9146 165.011 59.4783C165.825 57.4539 166.871 55.5715 168.32 53.9729C170.636 51.4181 173.108 49.0276 175.887 46.951C179.996 43.8807 184.582 42.312 189.684 42.1626C190.977 42.1253 192.314 42.3045 193.547 42.0356C195.302 41.6546 196.983 42.439 198.656 42.1327C200.434 41.8115 201.33 40.0187 202.839 39.2119C206.679 37.1651 210.758 35.7756 215.098 35.4619C219.602 35.1332 224.144 35.2976 228.634 34.5804C232.683 35.0585 236.813 34.8942 240.788 36.0147C241.609 36.2463 242.461 36.4181 243.313 36.5451C244.418 36.7019 245.449 36.4479 246.315 35.7009C247.137 34.9987 247.937 34.2891 248.766 33.6018C251.418 31.4056 254.017 29.1422 256.744 27.0505C261.181 23.6442 265.678 20.2975 270.212 17.0182C272.304 15.5092 274.56 14.2243 276.726 12.8199C279.46 11.0421 282.478 9.92154 285.541 8.86825C289.411 7.53857 293.235 7.72532 296.851 9.50321C299.929 11.0122 302.991 12.6481 305.404 15.2179C306.286 16.1591 307.279 16.9957 308.228 17.8698C309.416 18.9679 310.73 19.4086 312.366 18.9305C315.257 18.0789 318.2 17.3917 321.084 16.5177C323.183 15.8827 325.305 15.6661 327.463 15.7109C330.474 15.7781 333.492 15.9201 336.502 16.0172C338.041 16.0695 339.453 16.5401 340.82 17.2348C344.839 19.2891 348.933 21.2238 352.884 23.4126C359.099 26.8563 365.165 30.569 370.521 35.2901C372.127 36.7019 373.494 38.3902 374.884 40.0261C375.422 40.6686 375.87 41.4754 376.094 42.2821C376.968 45.3822 377.917 48.445 377.797 51.7617C377.722 53.8758 378.507 56.0197 378.425 58.1337C378.335 60.2478 377.267 62.3319 377.289 64.4236C377.334 69.197 376.609 73.8733 376.049 78.572C375.818 80.5441 375.989 82.3967 376.654 84.2792C377.573 86.9161 378.26 89.6203 378.843 92.3693C379.373 94.8793 380.12 97.449 381.338 99.6826C384.251 105.001 386.201 110.701 388.502 116.266C389.249 118.074 390.444 119.628 391.057 121.406C391.594 122.982 391.348 124.812 391.572 126.515C391.714 127.576 392.125 128.592 392.349 129.645C394.261 138.602 394.642 147.566 392.685 156.575C391.527 161.894 389.376 166.832 386.634 171.463C385.23 173.838 383.176 175.84 381.114 178.38C381.002 181.779 381.114 185.641 381.136 189.503C381.159 193.589 381.301 197.72 380.815 201.762C380.083 207.947 379.373 214.155 377.722 220.206C376.871 223.321 376.258 226.495 375.526 229.64C374.697 233.204 373.547 236.655 372.284 240.099C370.133 245.97 367.75 251.707 364.971 257.31C363.26 260.768 362.013 264.466 360.414 267.984C359.174 270.726 357.83 273.438 356.313 276.03C352.078 283.283 347.573 290.365 342.463 297.058C337.369 303.736 332.132 310.333 327.531 317.347C322.795 324.556 317.349 331.249 312.688 338.488C311.993 339.571 311.208 340.602 310.402 341.61C306.353 346.652 302.737 352.008 299.182 357.402C296.455 361.54 294.289 366 292.727 370.714C291.779 373.575 290.957 376.473 290.016 379.334C289.463 381.007 289.328 382.718 289.493 384.444C289.665 386.281 290.569 387.686 292.279 388.493C294.834 389.703 297.605 390.188 300.347 390.651C301.333 390.816 302.528 390.532 303.454 390.091C306.032 388.873 308.736 388.38 311.522 387.947C316.415 387.178 321.278 386.229 326.126 385.221C333.768 383.637 341.5 383.346 349.261 383.241C352.959 383.189 356.597 383.734 360.1 384.772C363.402 385.751 366.719 386.64 370.081 387.32C376.946 388.702 383.751 388.47 390.429 386.139C395.927 384.22 401.231 381.814 406.393 379.17C414.438 375.039 422.678 371.326 430.865 367.516C431.253 367.337 431.672 367.195 432.045 366.994C441.943 361.652 452.708 358.478 463.188 354.593C463.995 354.294 464.809 354.018 465.616 353.712C475.11 350.111 484.956 347.788 494.944 346.159C499.381 345.435 503.953 345.315 508.465 345.255C520.379 345.106 532.018 346.974 543.552 350.006C552.576 352.382 561.084 355.93 569.309 360.196C574.082 362.668 578.714 365.432 583.278 368.278C587.506 370.908 591.069 374.411 594.476 378.004C598.771 382.539 602.738 387.387 606.129 392.653C607.518 394.82 608.714 397.121 609.804 399.459C610.342 400.602 610.536 401.939 610.708 403.209C611.029 405.584 608.885 407.937 606.473 407.9C605.404 407.885 604.321 407.78 603.275 407.556C602.446 407.384 601.647 407.011 600.863 406.66C591.928 402.686 582.419 400.744 572.887 399.152C566.545 398.099 560.106 397.233 553.607 397.494C549.52 397.658 545.412 397.472 541.333 397.688C529.179 398.338 517.526 401.214 506.328 405.95C499.583 408.804 493.084 412.143 487.025 416.304C485.255 417.521 483.357 418.552 481.557 419.733C480.123 420.681 478.636 421.6 477.381 422.758C471.047 428.592 464.66 434.382 458.512 440.402C452.028 446.752 446.492 453.894 441.906 461.745C441.689 462.118 441.51 462.507 441.271 462.865C437.685 468.244 434.48 473.831 431.507 479.583C428.743 484.932 425.591 490.079 422.603 495.308C422.177 496.055 421.766 496.824 421.236 497.497C418.158 501.396 415.745 505.736 412.944 509.815C409.777 514.431 406.594 519.018 402.598 523.015C399.363 526.249 395.89 529.065 391.811 531.135C390.862 531.613 389.981 532.233 389.122 532.86C388.352 533.428 388.128 534.847 388.524 535.781C388.95 536.782 389.391 537.805 390.384 538.336C394.441 540.517 397.257 544.192 400.805 546.971C402.703 548.458 404.032 550.467 405.086 552.589C407.64 557.736 408.611 563.196 407.827 568.911C407.386 572.108 406.953 575.313 406.333 578.48C405.1 584.815 403.741 591.127 402.426 597.447C401.687 601.025 400.917 604.603 400.2 608.189C398.385 617.258 395.681 626.117 393.806 635.178C393.201 638.114 392.035 640.93 391.184 643.821C389.48 649.596 387.852 655.4 386.111 661.167C384.378 666.934 382.832 672.776 380.681 678.386C378.522 684.018 375.339 689.187 371.761 694.058C371.007 695.081 370.006 695.978 368.975 696.732C360.885 702.656 351.951 705.898 341.799 705.017C337.937 704.681 334.06 704.337 330.25 703.665C324.871 702.716 319.553 702.664 314.211 703.762C312.74 704.068 311.246 704.27 309.767 704.561C302.506 706.025 295.895 709.185 289.448 712.644C283.741 715.714 277.989 718.553 271.669 720.159C269.802 720.637 268.031 721.466 266.179 722.019C264.535 722.504 262.847 723.109 261.166 723.162C254.279 723.401 247.369 723.602 240.773 720.995C240.377 720.838 239.951 720.749 239.48 720.614C237.702 721.212 235.88 721.847 234.05 722.422C231.51 723.229 228.97 723.221 226.423 722.407C225.19 722.019 223.92 721.757 222.695 721.346C218.497 719.942 214.231 719.957 209.921 720.637C209.712 720.667 209.48 720.659 209.286 720.734C203.885 722.825 198.275 724.484 193.479 727.883C188.564 731.371 183.716 734.942 178.801 738.438C177.575 739.312 176.246 740.037 174.953 740.799C171.241 742.995 167.132 743.316 163.054 742.689C158.086 741.927 154.112 736.974 153.701 732.387C153.29 727.808 153.783 723.319 155.441 719.053C156.838 715.452 158.28 711.867 160.2 708.468C163.599 702.462 167.162 696.59 171.667 691.324C172.503 690.353 173.228 689.277 173.9 688.186C174.064 687.91 173.87 687.35 173.728 686.961C173.556 686.483 172.548 686.162 172.085 686.356C171.891 686.439 171.659 686.446 171.48 686.543C165.593 689.673 159.699 692.788 153.828 695.948C151.938 696.964 150.078 698.047 148.278 699.22C144.289 701.827 139.963 703.709 135.556 705.465C132.314 706.757 129.737 705.98 127.324 703.672C125.173 701.61 124.216 698.996 123.865 696.209C123.29 691.638 123.977 687.215 126.047 683.032C128.639 677.773 132.06 673.119 136.131 668.921C137.872 667.128 139.694 665.298 141.174 663.05ZM374.6 106.324C374.675 105.502 374.413 104.919 373.532 104.747C373.337 104.217 373.218 103.649 372.919 103.186C372.815 103.022 372.292 103.126 371.963 103.104C371.956 103.433 371.814 103.888 371.97 104.053C372.344 104.441 372.867 104.695 373.33 105.009C373.382 105.786 373.771 106.256 374.563 106.353C374.712 106.69 374.861 107.026 375.011 107.354C375.175 107.168 375.339 106.981 375.504 106.802C375.198 106.645 374.899 106.48 374.6 106.324ZM171.562 717.992C170.374 717.693 170.24 718.657 169.896 719.374C167.917 721.234 167.282 723.737 166.766 726.239C166.602 727.016 166.916 727.905 167.072 728.727C167.155 729.168 168.208 729.758 168.626 729.638C169.239 729.466 169.941 729.399 170.427 729.048C172.331 727.674 174.259 726.299 176.014 724.745C179.719 721.481 183.641 718.515 187.727 715.751C192.023 712.845 196.669 710.589 201.734 709.514C206.111 708.58 210.526 707.721 215.068 707.728C219.767 707.736 224.48 707.893 228.97 707.452C231.465 705.726 233.385 703.732 235.282 701.678C238.928 697.718 241.901 693.281 244.978 688.904C245.314 688.426 245.27 687.686 245.404 687.066C247.302 685.564 248.579 683.57 249.685 681.478C252.695 675.786 255.765 670.131 258.253 664.178C259.381 661.473 259.5 658.777 259.067 655.975C258.873 654.69 257.775 653.607 256.55 653.376C253.083 652.733 249.722 653.211 246.39 654.22C240.832 655.901 235.402 657.925 230.15 660.36C227.633 661.526 225.22 662.967 222.882 664.484C218.736 667.166 214.672 669.974 210.593 672.761C209.353 673.605 208.136 674.494 206.993 675.465C197.64 683.398 188.833 691.884 181.236 701.543C178.457 705.069 175.79 708.692 173.96 712.845L174.109 712.815C172.436 713.772 172.436 713.772 172.765 715.475L172.817 715.4C172.137 715.393 171.569 715.706 171.42 716.341C171.293 716.887 171.45 717.492 171.48 718.074L171.562 717.992ZM369.259 101.348C369.49 101.617 369.677 102.021 369.968 102.125C370.208 102.215 370.581 101.968 370.88 101.826C370.91 101.812 370.865 101.468 370.76 101.371C370.506 101.117 370.2 100.915 369.909 100.698C369.871 99.832 369.498 99.1148 368.736 98.7339C368.459 98.5994 367.907 98.7189 367.66 98.9281C367.459 99.0999 367.376 99.6377 367.481 99.9216C367.78 100.706 368.377 101.229 369.259 101.348ZM164.107 442.912C165.608 441.919 166.512 440.619 166.266 438.722C167.02 436.032 167.737 433.328 168.529 430.654C169.709 426.665 171.622 423.146 174.797 420.323C178.868 416.7 182.102 412.449 183.589 407.063C184.478 406.652 185.232 406.257 186.017 405.943C187.996 405.158 189.057 403.642 189.513 401.632C189.655 401.005 189.722 400.363 189.901 399.743C190.103 399.033 191.418 398.443 192.038 398.801C194.63 400.31 197.252 401.774 199.777 403.403C203.489 405.801 206.193 409.058 207.65 413.278C208.92 416.954 210.623 420.412 212.558 423.781C213.537 425.485 214.694 426.994 216.084 428.361C218.078 430.318 220.08 432.267 222.06 434.24C223.718 435.891 225.556 436.645 227.879 435.681C230.061 434.777 232.331 434.068 234.453 433.037C240.653 430.026 246.614 426.568 252.194 422.549C257.603 418.657 262.839 414.518 267.411 409.603C269.473 407.384 271.355 405.054 272.879 402.439C274.194 400.183 275.232 397.845 275.023 395.126C274.993 394.73 275.18 394.312 275.285 393.908C275.419 393.408 275.755 393.244 276.263 393.229C277.414 393.199 278.392 393.512 278.9 394.618C279.259 395.395 279.475 396.232 279.759 397.046C278.669 400.079 277.668 403.149 276.039 405.965C271.572 413.674 266.052 420.524 259.201 426.224C255.728 429.115 252.09 431.812 248.392 434.404C244.515 437.116 240.407 439.491 236.066 441.426C233.101 442.748 230.031 443.689 226.781 444.018C224.548 444.25 222.531 443.861 220.693 442.487C212.207 436.152 205.521 428.495 202.742 417.985C202.13 415.661 201.039 413.57 199.859 411.523C199.463 410.836 198.626 410.358 197.917 409.909C196.475 409.006 195.339 409.424 194.958 410.895C194.055 414.459 193.517 418.067 193.502 421.75C193.479 427.136 193.487 432.521 193.517 437.907C193.554 444.631 194.787 451.174 196.699 457.591C198.664 464.202 201.226 470.574 204.005 476.894C209.309 488.943 215.449 500.529 222.396 511.682C225.018 515.888 227.894 519.937 231.263 523.575C235.215 527.84 239.286 531.994 243.439 536.065C245.27 537.858 247.309 539.524 249.475 540.891C254.787 544.245 260.539 546.643 266.634 548.204C266.836 548.256 267.067 548.241 267.277 548.204C267.471 548.166 267.732 548.099 267.822 547.95C268.024 547.614 268.367 547.121 268.255 546.874C265.813 541.585 263.833 536.14 262.69 530.425C261.809 525.995 260.972 521.565 260.337 517.083C259.971 514.491 259.829 511.996 260.225 509.397C260.583 507.066 260.441 504.668 260.718 502.322C261.024 499.768 261.801 497.258 261.936 494.703C262.204 489.653 263.616 484.977 265.79 480.48C267.478 476.984 268.883 473.383 270.07 469.685C272.67 461.633 276.532 454.207 281.388 447.297C283.113 444.847 284.906 442.434 286.662 440.007C287.894 439.618 289.104 439.14 290.359 438.871C291.174 438.699 292.063 438.789 292.907 438.856C293.923 438.931 294.744 440.402 294.289 441.299C293.908 442.061 293.467 442.8 293.064 443.555C290.636 448.119 287.827 452.526 285.87 457.277C282.351 465.831 278.788 474.384 276.121 483.273C274.5 488.674 273.342 494.18 272.842 499.723C271.968 509.397 272.125 519.055 274.762 528.587C275.92 532.771 277.182 536.857 279.199 540.674C282.979 547.853 288.103 553.881 295.17 558.005C298.696 560.059 302.364 561.882 306.375 562.913C310.962 564.093 315.459 565.699 320.105 566.513C325.17 567.402 330.19 568.799 335.442 568.635C337.122 568.582 338.923 568.904 340.491 569.509C343.337 570.607 346.243 571.294 349.239 571.72C351.883 572.093 354.102 573.303 356.194 574.91C359.465 577.434 362.065 580.609 364.792 583.65C366.599 585.667 367.294 588.147 366.42 590.881C364.635 591.635 363.118 591.463 361.848 589.812C361.079 588.804 360.138 587.915 359.189 587.063C359.032 586.921 358.464 587.228 357.919 587.37C358.151 592.972 357.269 598.463 355.618 603.856C355.11 605.522 354.543 607.128 353.601 608.585C351.032 612.559 348.649 616.653 345.683 620.373C338.84 628.963 330.773 635.851 320.195 639.466C318.387 640.086 316.744 641.184 315.026 642.058C312.702 642.35 310.379 642.686 308.049 642.91C306.248 643.082 304.657 642.462 303.417 641.132C301.378 638.936 299.353 636.725 297.374 634.484C296.223 633.184 294.901 632.138 293.392 631.287C287.58 628.022 281.403 626.857 274.814 627.977C273.342 628.231 271.871 628.62 270.384 628.679C267.067 628.821 264.132 630.054 261.301 631.593C256.781 634.058 252.553 636.979 248.557 640.221C246.726 641.707 244.889 643.172 243.051 644.643C242.095 645.413 241.042 645.114 240.003 644.882C239.622 643.56 239.772 642.275 240.578 641.199C242.782 638.271 245.27 635.649 248.355 633.565C254.421 629.471 260.554 625.52 267.568 623.189C268.121 623.002 268.263 621.971 267.844 621.538C266.335 619.954 264.625 618.722 262.384 618.445C262.145 618.094 261.973 617.661 261.652 617.407C259.074 615.375 256.079 614.09 252.949 613.388C242.558 611.065 232.451 612.283 222.665 616.354C220.26 617.355 218.198 618.916 216.428 620.828C216.196 621.082 216.226 621.583 216.106 622.076C218.176 622.621 220.26 623.107 222.307 623.727C226.206 624.907 229.067 627.417 230.949 630.995C231.644 632.317 232.092 633.774 232.653 635.171C232.6 639.974 232.541 644.785 232.496 649.588C232.488 650.335 233.288 650.94 234.311 650.828C234.909 650.761 235.476 650.447 236.059 650.246C239.226 649.671 242.386 649.095 245.546 648.513C248.967 647.878 252.426 648.005 255.81 648.49C258.566 648.886 261.226 649.947 263.407 651.792C264.371 652.606 265.357 653.585 265.865 654.698C267.717 658.777 267.897 663.162 266.5 667.285C265.342 670.699 264.214 674.195 262.242 677.332C259.851 681.15 257.685 685.109 255.459 689.023C254.936 689.949 254.525 690.936 254.062 691.892C253.606 692.34 253.046 692.721 252.702 693.244C249.759 697.763 246.584 702.096 242.827 705.988C242.536 706.287 242.364 706.697 242.125 707.049C241.789 707.534 242.132 708.543 242.7 708.632C245.456 709.058 248.213 709.484 250.977 709.872C251.395 709.932 251.843 709.872 252.262 709.79C256.475 708.953 260.8 708.797 264.976 707.654C271.617 705.831 278.37 704.367 284.615 701.364C290.643 698.473 296.978 696.351 303.126 693.767C305.703 692.683 308.303 691.623 310.962 690.771C316.109 689.128 321.323 688.194 326.806 689.12C330.623 689.763 334.553 689.979 338.4 689.412C345.877 688.306 353.146 686.498 359.884 682.838C363.186 681.045 365.837 678.602 368.176 675.771C368.982 674.793 369.752 673.642 370.103 672.439C371.179 668.734 372.157 664.984 372.971 661.212C373.786 657.432 374.353 653.6 375.041 649.79C375.227 648.737 375.608 647.683 375.638 646.63C375.735 642.932 376.826 639.422 377.551 635.836C377.849 634.364 378.29 632.885 378.342 631.406C378.432 628.777 379.164 626.304 379.919 623.839C384.326 609.429 387.971 594.825 391.37 580.154C392.551 575.059 392.76 569.934 392.655 564.758C392.625 563.211 392.252 561.784 391.572 560.41C390.018 557.265 387.964 554.568 384.946 552.663C383.31 551.633 381.674 550.572 380.195 549.332C378.753 548.122 377.521 546.658 376.184 545.29C374.458 546.06 373.225 548.092 370.992 547.038C370.588 545.769 370.521 544.499 370.992 543.244C371.672 541.428 372.404 539.636 373.069 537.82C377.73 525.099 382.481 512.4 386.589 499.484C389.533 490.221 391.415 480.704 392.476 471.09C393.888 458.338 392.289 445.751 389.249 433.328C388.577 430.587 387.478 428.039 386.246 425.515C383.967 420.846 380.95 416.662 377.969 412.442C373.89 406.667 368.691 402.312 361.938 399.989C358.479 398.801 354.998 397.681 351.502 396.62C346.064 394.969 340.514 394.85 334.889 395.328C329.07 395.821 323.385 396.792 317.887 398.809C316.684 399.25 315.399 399.489 314.152 399.817C312.075 400.363 309.991 400.9 307.922 401.453C306.054 401.954 304.194 402.477 302.326 402.977C295.364 404.845 289.538 402.148 284.473 397.875C280.252 394.319 278.004 389.344 277.003 383.898C276.809 382.853 276.689 381.74 276.823 380.694C277.429 375.995 278.146 371.311 280.125 366.934C280.745 365.567 281.201 364.125 281.731 362.721C282.441 362.355 282.747 361.787 282.628 360.995C282.859 360.763 282.994 360.48 283.039 360.151C283.494 359.703 284.055 359.322 284.383 358.799C287.341 354.048 290.135 349.192 293.205 344.508C297.217 338.398 301.042 332.138 306.241 326.894C306.995 326.132 307.638 325.258 308.265 324.384C313.024 317.728 317.991 311.214 322.346 304.282C324.408 301.002 326.38 297.656 328.562 294.459C331.363 290.357 333.798 286.055 336.129 281.677C337.952 278.256 339.931 274.917 341.642 271.443C345.354 263.913 348.955 256.324 352.571 248.741C353.87 246.022 355.267 243.333 356.328 240.524C359.309 232.658 361.296 224.501 362.999 216.284C363.783 212.496 364.299 208.657 364.874 204.825C365.195 202.703 365.576 200.567 365.621 198.43C365.89 185.514 366.375 172.583 364.381 159.735C364.485 156.037 363.679 152.437 362.872 148.881C361.729 143.853 360.631 138.826 358.86 133.933C356.821 128.293 354.968 122.534 354.221 116.52C354.005 114.817 353.766 113.114 353.534 111.411C354.386 104.762 354.177 98.1587 352.802 91.5775C351.741 86.4828 348.933 82.4639 345.018 79.3563C340.312 75.6213 334.792 74.0077 328.726 74.8593C326.821 75.1283 324.931 75.5541 323.064 76.0396C317.82 77.3917 313.113 79.9764 308.407 82.5536C305.404 84.197 302.379 85.818 299.361 87.4465C297.284 88.5595 295.2 89.6651 293.123 90.7707C291.868 91.0023 290.576 91.1218 289.366 91.5028C287.73 92.0182 286.184 92.7951 284.563 93.3703C282.553 94.08 280.551 94.9316 278.392 93.6915C277.884 93.4002 277.13 93.4599 276.495 93.4898C270.959 93.7363 265.932 91.6821 260.912 89.8519C256.482 88.2383 252.15 86.2662 248.347 83.3379C247.668 82.815 246.876 82.4565 246.129 82.0232C244.231 80.9325 242.207 80.32 239.996 80.2602C234.617 80.1034 229.246 79.9166 223.957 81.2538C221.193 81.9485 218.437 81.7991 215.658 81.1716C212.707 80.5068 209.846 79.6925 207.105 78.3778C205.529 77.6233 204.289 78.0192 203.041 79.3041C200.471 81.9485 198.574 85.0785 196.684 88.2159C194.025 92.6308 191.634 97.2174 188.093 101.057C187.376 101.834 186.876 102.827 186.301 103.731C183.088 108.819 179.831 113.861 175.969 118.515C173.504 121.48 171.465 124.805 169.246 127.972C167.64 130.258 166.116 132.603 164.45 134.844C159.177 141.911 153.566 148.724 148.688 156.082C148.091 156.978 147.516 157.882 146.881 158.756C142.287 165.031 138.447 171.747 135.242 178.814C134.002 181.548 132.882 184.364 132.045 187.247C129.625 195.562 128.661 204.078 128.84 212.743C128.9 215.813 129.229 218.741 130.573 221.513C130.738 222.349 130.753 223.246 131.096 224C132.426 226.944 133.793 229.872 135.287 232.733C136.273 234.638 137.476 236.431 138.619 238.253C139.53 239.71 140.636 241.077 141.39 242.608C142.414 244.678 143.818 246.097 146.119 246.612C148.046 247.046 149.6 247.927 150.802 249.683C151.803 251.139 153.611 251.52 155.441 251.468C156.607 251.431 157.593 252.043 158.056 253.059C158.84 254.785 160.148 255.711 161.888 256.204C164.376 256.914 166.841 257.676 169.336 258.341C169.926 258.497 170.598 258.363 171.45 258.363C171.577 257.287 171.779 256.249 171.801 255.203C171.913 250.893 171.853 246.583 172.062 242.28C172.638 230.417 174.371 218.704 176.993 207.125C178.995 198.273 181.781 189.712 185.972 181.607C189.841 174.115 194.943 167.422 199.373 160.295C199.553 160.011 200.105 159.899 200.501 159.832C200.867 159.772 201.211 161.027 200.942 161.498C200.09 162.992 199.336 164.568 198.335 165.958C195.182 170.342 192.613 175.079 189.841 179.695C184.792 188.099 181.639 197.205 179.368 206.685C177.06 216.351 175.783 226.174 174.744 236.027C174.005 243.109 174.079 250.228 174.214 257.34C174.244 258.804 175.133 259.767 176.477 260.066C182.842 261.471 189.304 261.523 195.773 261.373C196.632 261.351 197.491 261.246 198.335 261.09C205.969 259.625 213.469 257.586 220.514 254.314C226.804 251.393 233.265 249.137 240.011 247.636C241.482 247.307 242.932 246.881 244.411 246.59C249.311 245.619 253.853 243.677 258.357 241.6C268.36 236.991 277.705 231.209 287.125 225.562C290.075 223.791 292.877 221.782 295.76 219.899C301.706 216.007 307.615 212.071 313.868 208.649C320.3 205.131 326.35 201.007 332.11 196.451C336.114 193.283 338.878 189.332 340.626 184.536C343.158 177.588 344.667 170.462 344.914 163.089C345.093 157.703 345.093 152.317 345.16 146.931C345.183 145.422 345.123 143.913 345.183 142.404C345.272 139.879 346.251 138.998 349.336 138.594C349.545 138.565 349.769 138.572 349.978 138.565C350.494 139.961 351.308 141.231 351.241 142.845C350.912 151.226 351.697 159.653 350.203 167.989C350.105 174.996 347.61 181.473 345.668 188.062C345.25 189.481 344.391 190.788 343.621 192.081C342.74 193.56 341.687 194.934 340.783 196.406C339.177 199.02 337.085 201.112 334.56 202.867C325.723 209.015 316.953 215.253 308.138 221.438C304.441 224.038 300.795 226.727 296.955 229.102C293.108 231.485 289.299 233.906 285.758 236.729C282.561 239.277 279.333 241.779 276.084 244.252C274.112 245.753 272.946 247.636 272.386 250.094C271.811 252.589 270.825 255.001 269.921 257.414C269.495 258.557 267.815 259.274 266.642 258.834C265.036 258.228 263.489 257.481 261.913 256.802C260.725 256.286 259.022 256.876 258.664 258.049C258.029 260.103 257.558 262.203 256.945 264.257C256.579 265.482 256.139 266.7 255.616 267.872C254.996 269.247 253.151 269.837 251.731 269.202C251.141 268.941 250.559 268.664 250.013 268.321C248.915 267.641 247.854 266.909 246.771 266.207C246.248 265.87 245.337 266.229 245.285 266.797C245.046 269.583 244.784 272.362 243.82 275.021C243.133 276.926 240.915 277.927 239.069 277.113C238.487 276.852 237.897 276.568 237.366 276.217C236.111 275.387 234.894 274.498 233.639 273.662C232.892 273.161 231.779 273.542 231.555 274.356C231.144 275.798 230.83 277.27 230.322 278.682C229.762 280.228 228.163 280.982 226.684 280.534C226.064 280.348 225.459 280.131 224.854 279.884C222.859 279.085 220.887 278.241 218.885 277.457C217.854 277.053 215.994 278.024 215.74 279.1C215.344 280.773 214.948 282.447 214.672 284.142C214.433 285.621 214.343 287.13 214.201 288.624C214.164 289.08 215.15 289.767 215.613 289.625C216.637 289.312 217.69 289.058 218.661 288.632C225.175 285.793 231.935 283.649 238.726 281.588C245.135 279.645 251.619 278.211 258.342 278.092C261.562 278.487 264.767 278.166 267.971 277.875C269.465 277.74 270.959 277.546 272.453 277.524C282.165 277.382 291.607 275.604 300.959 273.087C311.179 270.33 319.859 265.153 327.038 257.362C331.624 252.387 335.232 246.807 337.01 240.293C338.811 233.697 341.126 227.19 341.403 220.235C341.485 218.106 342.038 216 342.381 213.878C343.024 213.781 343.659 213.609 344.301 213.602C347.297 213.557 349.799 215.738 349.926 218.607C349.993 220.101 349.859 221.617 349.657 223.104C349.426 224.807 349.022 226.48 348.694 228.176C347.073 236.685 344.473 244.85 340.215 252.454C337.772 256.817 334.874 260.768 331.318 264.287C325.447 270.099 318.611 274.558 311.507 278.652C309.072 280.056 306.465 281.132 303.761 281.856C296.283 283.866 288.798 285.89 280.984 286.144C280.125 286.174 279.259 286.256 278.415 286.413C272.491 287.534 266.507 288.236 260.501 288.707C258.962 288.826 257.999 289.67 258.006 291.097C258.029 294.787 257.132 298.358 256.684 301.981C256.296 305.163 255.28 308.241 254.069 311.274C252.396 315.487 250.297 319.484 248.407 323.585C244.874 331.249 240.474 338.39 235.536 345.203C231.749 350.432 227.767 355.519 223.868 360.666C223.479 361.182 223.054 361.667 222.613 362.145C217.033 368.189 212.58 375.054 208.315 382.038C207.307 383.689 206.313 385.355 205.334 387.021C204.968 387.641 205.103 388.993 205.596 389.456C206.694 390.487 207.747 391.585 208.965 392.452C213.522 395.709 218.116 398.906 222.74 402.066C223.218 402.394 223.95 402.35 224.57 402.484C226.729 402.648 228.23 401.311 229.657 400.041C233.205 396.889 236.455 393.46 239.167 389.523C240.384 387.76 241.751 386.095 243.171 384.489C244.799 382.658 246.846 382.457 249.072 383.316C250.222 383.764 250.902 385.363 250.364 386.535C250.095 387.118 249.864 387.738 249.483 388.239C243.342 396.291 237 404.172 229.717 411.254C227.73 413.189 225.601 413.435 223.218 412.457C222.03 411.971 220.932 411.254 219.797 410.641C212.946 406.929 206.843 402.148 200.748 397.352C198.044 395.223 195.407 393.004 192.755 390.793C190.409 388.836 187.757 387.514 184.874 386.491C180.205 384.825 175.984 385.452 172.092 388.433C170.382 389.74 168.686 391.077 167.08 392.497C163.009 396.09 158.429 398.861 153.514 401.147C150.003 402.775 146.582 404.591 143.146 406.383C138.484 408.811 134.764 412.397 131.276 416.229C129.528 418.156 128.146 420.33 127.428 422.87C127.212 423.639 127.869 424.663 128.691 424.715C130.192 424.812 131.709 424.79 133.195 424.984C135.802 425.328 137.438 427.18 137.603 429.765C137.745 431.939 137.491 434.06 137.005 436.174C136.766 437.213 136.527 438.288 137.14 439.304C137.483 439.118 137.887 438.991 138.148 438.729C138.432 438.43 138.686 438.027 138.776 437.631C139.209 435.741 139.612 433.851 139.971 431.946C141.121 425.866 143.982 420.584 147.837 415.871C151.871 410.948 156.891 407.302 163.001 405.308C164.04 404.972 165.115 404.777 166.161 405.173C166.497 405.3 166.826 405.726 166.923 406.085C167.028 406.451 167.013 407.041 166.781 407.28C166.206 407.878 165.549 408.475 164.802 408.826C160.417 410.881 156.928 414.003 153.858 417.693C151.505 420.524 149.391 423.483 147.822 426.822C145.685 428.809 144.871 431.468 144.191 434.165C144.042 434.755 144.251 435.427 144.296 436.07C144.132 436.152 143.923 436.204 143.818 436.339C143.743 436.443 143.751 436.765 143.818 436.794C144.154 436.959 144.386 436.75 144.468 436.249C144.811 436.032 145.275 435.891 145.469 435.584C146.888 433.261 148.255 430.908 149.637 428.562C152.864 427.516 155.867 428.002 158.713 429.825C159.602 430.392 160.596 430.788 161.492 431.341C164.308 433.074 165.713 435.427 164.675 438.811C163.502 439.633 163.42 440.903 163.285 442.158C162.605 443.278 162.59 443.697 163.158 443.622C163.509 443.547 163.801 443.151 164.107 442.912ZM185.763 628.799C186.868 629.031 187.892 628.814 188.825 628.209C190.626 627.044 192.419 625.871 194.182 624.653C194.697 624.295 195.175 623.824 195.519 623.301C195.713 623.01 195.735 622.449 195.586 622.128C195.436 621.807 195.003 621.523 194.637 621.419C194.256 621.314 193.763 621.329 193.405 621.486C190.573 622.688 188.288 624.593 186.51 627.088C186.159 627.589 186.054 628.269 185.837 628.866C185.329 629.113 185.255 629.277 185.606 629.277C185.658 629.277 185.71 628.963 185.763 628.799ZM234.968 547.315C235.118 547.935 235.282 548.047 235.402 547.629C235.409 547.606 235.058 547.487 234.879 547.412C234.819 546.224 233.952 545.53 233.22 544.768C231.293 542.751 229.187 540.876 227.461 538.694C222.658 532.636 218.138 526.361 213.903 519.885C213.312 518.988 212.573 518.137 212.199 517.158C210.347 512.31 207.307 508.097 205.051 503.465C203.639 500.567 202.242 497.668 200.778 494.8C200.412 494.083 200.12 493.194 199.015 493C198.962 493.627 198.746 494.292 198.888 494.86C200.292 500.477 201.696 506.095 203.228 511.682C204.483 516.247 206.41 520.564 208.382 524.86C209.002 526.219 209.891 527.459 210.683 528.729C213.2 532.785 216.525 536.125 219.968 539.382C223.449 542.676 227.498 545.066 231.831 547.009C232.824 547.464 233.885 547.561 234.968 547.315ZM172.854 110.193C174.274 109.961 174.916 108.766 175.745 107.825C183.163 99.3688 188.332 89.4709 193.823 79.827C193.614 79.0949 193.539 78.4226 193.24 77.8773C190.036 71.9983 187.526 65.8952 186.928 59.1347C186.913 58.9853 186.711 58.7986 186.555 58.7388C186.368 58.6641 186.084 58.6118 185.927 58.7015C185.382 59.0077 184.777 59.2841 184.366 59.7323C181.228 63.1088 179.398 67.1875 178.054 71.5351C176.268 77.3319 175.842 83.3379 175.588 89.3364C175.305 96.0073 174.557 102.573 172.839 109.028C172.735 109.416 172.892 109.872 172.929 110.298C172.75 110.327 172.548 110.32 172.406 110.41C172.316 110.462 172.316 110.664 172.272 110.798C172.473 110.589 172.668 110.387 172.854 110.193ZM152.155 672.701C151.662 672.156 151.146 672.163 150.616 672.649C145.708 676.406 142.638 681.575 139.739 686.864C139.59 687.141 139.709 687.738 139.933 688.007C140.15 688.276 140.74 688.523 141.009 688.411C143.183 687.507 145.364 686.595 147.463 685.542C154.575 681.956 161.619 678.236 169.03 675.308C179.301 671.252 189.879 668.548 201.039 668.712C202.331 668.734 203.624 668.66 204.916 668.682C206.933 668.712 208.733 668.122 210.332 666.912C214.627 663.655 219.229 660.868 223.845 658.097C224.017 657.992 224.114 657.768 224.435 657.357C225.309 653.652 226.243 649.693 225.623 645.562C226.579 642.566 225.9 639.586 225.436 636.635C225.085 634.409 223.666 632.743 221.627 631.727C218.4 630.121 215.113 629.897 211.662 631.175C203.781 634.08 196.184 637.576 189.124 642.133C179.017 648.662 169.508 656.028 160.065 663.468C157.212 665.716 154.747 668.45 152.132 670.99C151.639 671.468 151.632 672.103 152.013 672.701H152.155ZM155.479 381.837C155.27 381.045 155.001 380.26 154.866 379.461C154.612 377.952 153.828 376.817 152.588 375.973C152.035 374.949 151.131 374.337 150.018 374.277C148.741 374.21 147.419 374.202 146.178 374.464C143.646 374.994 141.226 375.905 138.97 377.205C137.11 378.281 135.309 379.469 133.405 380.47C128.422 383.092 124.097 386.67 119.727 390.114C113.616 394.917 108.634 400.885 103.987 407.108C103.741 407.437 103.659 407.885 103.494 408.288C104.398 409.782 106.154 409.372 107.409 410.044C108.723 410.746 109.948 411.605 111.218 412.397C111.39 412.315 111.644 412.277 111.726 412.135C112.757 410.507 113.803 408.886 114.774 407.22C120.504 397.412 128.908 390.614 138.977 385.699C139.552 385.415 140.18 385.221 140.807 385.071C141.958 384.81 142.907 385.333 143.728 386.057C144.348 386.603 144.176 388.194 143.37 388.978C141.831 390.48 140.262 391.944 138.656 393.371C132.874 398.525 127.204 403.776 122.177 409.693C119.368 413.002 117.112 416.633 115.312 420.562C114.782 421.712 115.491 422.526 116.933 422.414C117.15 422.399 117.359 422.34 117.575 422.34C119.958 422.362 121.676 421.54 122.222 418.956C122.677 416.804 123.992 415.056 125.24 413.308C128.011 409.416 131.358 406.115 135.19 403.268C140.217 399.533 145.648 396.493 151.251 393.744C153.178 392.795 155.113 391.862 156.973 390.793C157.668 390.397 158.146 389.635 158.773 388.986C157.63 386.491 156.554 384.16 155.479 381.837ZM33.2526 645.696C34.3955 645.794 35.292 645.181 36.2705 644.74C44.0021 641.289 52.0176 639.033 60.5709 639.033C63.3572 639.033 66.1436 638.824 68.8403 638.712C71.029 637.024 72.5903 634.947 74.3383 633.064C75.3617 631.959 76.288 630.749 77.416 629.77C82.787 625.116 88.3074 620.671 94.3657 616.899C98.4145 614.382 102.635 612.305 107.147 610.796C109.381 610.049 111.622 609.317 113.631 608.66C115.641 605.545 117.493 602.669 119.346 599.793C119.66 599.299 119.301 598.298 118.756 598.194C117.284 597.91 115.768 597.798 114.341 597.372C110.934 596.371 107.558 596.453 104.129 597.215C102.874 597.492 101.559 597.514 100.304 597.776C95.8896 598.687 91.3851 599.277 87.1794 601.01C82.6077 602.893 78.0659 604.85 73.5539 606.874C67.2566 609.705 61.3104 613.179 55.6107 617.056C51.3303 619.962 47.2292 623.099 43.7108 626.924C39.6022 631.391 36.0539 636.224 33.7158 641.872C33.2153 643.074 32.8268 644.3 33.1854 645.629C33.0061 645.681 32.782 645.689 32.655 645.801C32.5654 645.876 32.5579 646.219 32.6027 646.242C32.9762 646.429 33.2003 646.219 33.2526 645.696ZM72.2093 649.753C73.0534 649.626 73.9424 649.618 74.7267 649.342C84.3408 645.95 94.2686 644.464 104.435 644.352C109.164 644.299 113.893 644.21 118.606 643.933C120.332 643.829 121.998 643.874 123.716 644.008C127.996 644.359 132.292 644.494 136.579 644.628C138.589 644.688 140.27 643.829 141.853 642.566C147.531 638.025 150.227 631.795 151.871 624.997C152.155 623.816 152.102 622.293 151.602 621.217C149.577 616.892 146.455 613.806 141.338 613.56C136.4 613.313 131.522 613.463 126.584 614.322C118.001 615.808 109.956 618.64 102.396 622.823C95.6207 626.565 89.1665 630.838 83.1157 635.686C79.0594 638.943 75.5783 642.731 72.6501 647.011C72.1944 647.676 72.1197 648.602 71.8732 649.409C71.3503 649.551 71.0888 649.917 71.3876 650.216C71.6939 650.53 72.0674 650.276 72.2093 649.753ZM578.766 384.518C578.841 384.69 578.878 384.914 579.012 385.019C579.117 385.101 579.453 385.086 579.49 385.019C579.67 384.668 579.461 384.429 578.938 384.347C578.654 383.786 578.497 383.077 578.056 382.703C576.6 381.463 575.15 380.156 573.499 379.215C570.16 377.31 566.933 375.241 563.758 373.074C562.025 371.894 560.33 370.497 558.081 370.318C552.523 367.404 546.652 365.358 540.511 364.095C537.561 363.49 534.595 363.004 531.637 362.429C527.827 361.682 524.017 361.159 520.11 361.242C516.458 361.324 512.797 361.055 509.144 361.085C505.491 361.115 501.816 361.129 498.186 361.488C493.061 361.996 487.967 362.9 482.849 363.49C478.338 364.013 473.975 365.044 469.672 366.463C466.617 367.472 463.509 368.338 460.439 369.302C456.749 370.46 453.036 371.55 449.406 372.858C441.316 375.778 433.397 379.095 425.598 382.741C422.872 384.01 420.048 385.071 417.307 386.296C413.385 388.052 409.478 389.837 405.773 392.048C400.043 395.462 394.119 398.517 387.561 400.497C387.65 401.125 387.538 401.886 387.859 402.29C389.869 404.807 391.916 407.302 394.075 409.7C395.965 411.807 397.585 414.115 398.661 416.685C402.329 425.425 405.661 434.284 406.228 443.891C406.423 447.111 406.527 450.33 406.692 453.55C406.766 455.051 406.871 456.545 406.961 458.047C406.057 460.714 405.601 463.455 405.661 466.264C405.765 470.806 404.294 475.153 404.032 479.65C404.01 480.069 403.845 480.487 403.674 480.883C400.872 487.434 399.894 494.486 398.011 501.291C397.16 504.377 396.226 507.477 396.121 510.734C395.688 511.1 395.225 511.63 395.718 512.071C396.278 512.571 396.57 511.877 396.853 511.466C399.558 509.8 400.798 506.961 402.337 504.406C406.662 497.205 410.89 489.959 415.148 482.721C415.693 481.794 416.186 480.838 416.702 479.89C422.282 469.685 428.034 459.608 435.22 450.39C441.316 442.569 447.508 434.86 454.657 427.965C458.99 423.781 463.375 419.658 467.872 415.639C474.685 409.551 482.476 404.987 490.17 400.288C494.742 397.494 499.799 395.5 504.625 393.109C508.89 390.988 513.372 389.464 517.996 388.403C523.024 387.245 528.118 386.371 533.146 385.191C535.693 384.593 538.218 384.324 540.818 384.279C542.969 384.242 545.128 384.197 547.257 383.928C554.772 382.972 562.257 382.942 569.772 384.01C572.73 384.429 575.733 384.914 578.766 384.518ZM325.551 63.2059C326.164 62.8474 326.858 62.6457 327.232 62.19C328.584 60.5242 330.377 60.061 332.379 60.0013C333.454 59.9639 334.545 59.7622 335.591 59.9116C340.693 60.6512 345.788 61.3534 350.501 63.7214C354.035 65.4918 357.135 67.6805 359.346 71.0048C360.295 72.439 361.176 73.9256 362.207 75.2926C362.543 75.7333 363.23 75.9799 363.806 76.1293C363.977 76.1741 364.47 75.5914 364.545 75.2403C364.941 73.3578 365.479 71.4679 365.561 69.563C365.733 65.2752 365.673 60.9724 365.688 56.677C365.696 55.3847 365.621 54.0999 365.576 52.8075C365.539 51.6646 365.008 50.7607 364.194 50.0062C363.88 49.7149 363.582 49.3862 363.223 49.1621C361.064 47.8548 359.854 45.9574 359.421 43.4699C359.025 41.2214 357.62 39.5854 355.79 38.3379C354.371 37.3742 352.952 36.3732 351.405 35.6412C345.586 32.8996 339.946 29.6875 333.559 28.3205C328.218 26.0271 323.168 26.3857 318.186 29.5456C315.28 31.3907 311.963 32.4066 308.549 33.064C304.47 33.8483 301.43 32.3917 299.114 29.0899C298.128 27.6855 297.135 26.2811 296.134 24.8917C293.691 21.5152 290.232 20.671 286.4 21.3359C283.875 21.7766 281.395 22.6282 279.132 23.9131C273.843 26.9161 269.652 31.3085 265.006 35.1257C262.937 36.8215 262.025 39.3015 260.389 41.2737C259.687 42.1252 260.023 42.9544 261.017 42.9993C267.486 43.2831 273.858 44.3439 280.163 45.7184C285.407 46.8613 290.606 48.2507 295.82 49.5431C296.649 49.7522 297.456 50.066 298.278 50.32C305.718 52.6133 312.747 55.7881 319.306 59.9863C321.286 61.2861 323.228 62.5859 325.551 63.2059ZM310.678 628.605C311.373 628.351 312.023 628.231 312.546 627.91C316.946 625.206 321.353 622.509 325.686 619.708C327.12 618.782 328.42 617.609 329.667 616.428C334.859 611.513 339.027 605.828 342.785 599.74C345.31 595.639 346.101 591.418 345.758 586.802C345.653 585.45 344.697 584.285 343.375 584.143C338.459 583.59 333.626 582.41 328.659 582.23C324.341 582.073 320.098 581.304 315.945 580.124C312.426 579.123 308.93 578.062 305.419 577.046C304.149 576.68 303.208 576.986 302.745 578.144C300.646 583.418 296.642 586.936 292.01 589.835C287.633 592.576 283.233 595.288 278.728 597.813C275.135 599.83 271.878 602.273 268.748 604.91C268.322 605.268 268.091 605.866 267.665 606.501C271.602 609.653 275.24 612.97 277.981 616.795C281.537 617.041 284.764 617.19 287.984 617.504C292.511 617.952 296.985 618.782 300.87 621.299C304.269 623.518 307.847 625.535 310.678 628.605ZM256.505 600.091C258.178 598.433 259.754 596.969 261.218 595.408C264.326 592.098 267.822 589.275 271.535 586.675C275.583 583.844 279.52 580.856 283.517 577.95C285.317 576.643 286.49 574.887 287.312 572.848C288.014 571.115 287.745 569.374 286.415 568.104C284.861 566.625 283.143 565.295 281.687 563.734C277.339 559.05 278.101 559.797 272.214 560.335C264.864 561 257.61 560.724 250.611 558.027C250.215 557.87 249.789 557.788 249.371 557.676C248.228 557.362 247.197 557.736 246.659 558.782C245.083 561.837 243.462 564.877 242.02 567.992C238.562 575.462 233.878 582.141 228.776 588.528C226.101 591.882 223.308 595.221 219.811 597.768C216.353 600.293 213.014 602.982 209.271 605.156C204.572 607.89 199.724 609.944 194.376 611.005C191.679 611.543 188.863 611.715 186.256 612.723C185.905 614.344 185.763 615.868 185.217 617.228C184.59 618.811 183.626 620.261 182.782 621.755C182.513 622.225 182.528 622.606 182.984 622.868C183.126 622.95 183.41 622.927 183.544 622.838C185.359 621.635 186.988 620.298 187.458 617.982C187.585 617.37 187.929 616.78 188.25 616.227C188.818 615.248 189.707 614.658 190.812 614.471C193.307 614.038 195.549 614.651 197.334 616.443C200.06 619.185 200.882 618.438 202.675 615.726C203.997 613.724 205.76 612.223 207.74 610.848C211.639 608.137 215.74 605.821 220.036 603.819C225.13 601.443 230.464 599.628 236.037 599.12C242.67 598.53 249.348 598.635 256.505 600.091ZM175.417 611.745C175.506 611.745 175.596 611.752 175.693 611.752C175.544 613.896 175.506 616.055 175.207 618.184C175.065 619.2 174.468 620.171 173.997 621.127C173.661 621.807 172.361 621.956 171.711 621.523C170.509 620.716 169.986 619.558 170.187 618.206C170.404 616.727 170.92 615.293 171.233 613.829C171.667 611.804 171.188 609.982 169.866 608.391C169.455 607.898 169.015 607.419 168.574 606.949C164.189 602.273 164.077 602.205 157.57 601.115C156.517 600.943 155.367 600.614 154.396 600.868C151.281 601.668 148.046 602.138 145.192 603.782C144.259 604.319 143.325 604.865 142.331 605.253C141.749 605.477 140.972 605.38 140.651 604.738C140.389 604.215 140.232 603.513 140.352 602.96C140.479 602.377 140.882 601.765 141.338 601.354C142.615 600.211 143.99 599.158 145.319 598.074C146.597 597.036 146.746 596.468 146.223 594.69C146.044 594.07 145.917 593.428 145.656 592.838C144.55 590.35 142.675 588.55 140.15 587.706C135.19 586.047 130.05 585.532 124.859 586.219C123.185 586.443 121.579 587.183 119.966 587.758C119.652 587.87 119.301 588.333 119.271 588.662C119.241 588.991 119.518 589.573 119.787 589.663C121.893 590.388 123.559 591.672 124.963 593.376C126.278 594.974 126.831 596.79 126.502 598.792C126.293 600.046 125.8 601.257 125.367 602.459C125.001 603.46 124.478 604.402 124.157 605.41C124.074 605.671 124.463 606.374 124.679 606.396C126.592 606.59 128.519 606.762 130.446 606.777C136.781 606.822 142.787 608.353 148.651 610.639C153.514 612.537 156.943 615.935 159.102 620.627C159.632 621.777 159.998 623.077 160.095 624.332C160.409 628.261 159.879 632.078 157.877 635.559C157.13 636.859 156.383 638.196 155.427 639.339C152.946 642.312 150.347 645.181 147.822 648.117C147.568 648.416 147.299 649.043 147.441 649.267C147.755 649.76 148.27 650.343 148.793 650.447C151.348 650.955 153.932 650.881 156.51 650.574C158.041 650.395 159.438 649.865 160.656 648.923C161.507 648.266 162.366 647.601 163.128 646.854C166.983 643.074 171.278 639.84 175.484 636.486C176.709 635.507 177.635 634.446 177.994 632.878C178.233 631.839 178.726 630.861 179.069 629.837C179.361 628.986 179.398 628.074 178.748 627.417C177.508 626.155 177.433 624.847 178.203 623.331C179.271 621.224 180.317 619.095 181.288 616.936C182.013 615.33 182.125 613.612 181.99 611.864C181.886 610.535 181.355 609.384 180.556 608.331C179.689 607.188 178.517 606.829 177.157 606.912C176.343 606.964 175.417 607.808 175.417 608.518C175.417 609.601 175.417 610.676 175.417 611.745ZM235.708 44.2169C233.885 44.2169 231.95 44.2393 230.023 44.2094C223.674 44.1198 217.683 45.6511 211.916 48.1835C210.153 48.9604 208.435 49.8494 206.754 50.7906C204.214 52.2099 203.362 54.7049 203.362 57.3344C203.362 60.3374 203.825 63.3553 205.237 66.0969C206.074 67.7328 207.456 68.8309 209.256 68.9654C211.602 69.1447 213.985 69.0924 216.338 68.9953C217.608 68.943 219.005 68.8683 220.103 68.3155C222.546 67.0904 225.048 67.0829 227.655 67.195C231.741 67.3743 235.805 67.6282 239.794 68.6741C242.08 69.2791 244.426 69.6078 246.734 70.1233C249.251 70.6835 251.701 71.4231 254.032 72.5809C258.066 74.5829 262.16 76.4953 266.246 78.3852C267.605 79.0127 269.025 79.5356 270.451 80.0063C276.809 82.1128 283.42 83.0167 290.023 83.9281C291.555 84.1372 293.026 83.8758 294.386 83.1213C297.583 81.3583 300.788 79.5954 303.962 77.7951C304.187 77.6681 304.224 77.19 304.426 76.6671C302.132 75.935 299.876 75.2702 297.658 74.5082C292.376 72.693 287.125 70.8031 281.843 68.9953C279.812 68.3006 277.727 67.7702 275.681 67.1203C274.844 66.8514 274.022 66.5824 273.178 66.9036C271.647 67.4863 270.332 67.2323 268.935 66.3509C266.552 64.8494 263.825 64.1696 261.084 63.557C254.376 62.0555 247.668 60.5391 240.982 58.948C239.047 58.4848 237.374 58.3354 235.417 59.2916C231.547 61.1815 227.506 60.7333 223.569 59.1721C222.426 58.7164 221.649 57.2747 221.948 55.9973C222.142 55.1681 222.411 54.3389 222.792 53.5844C223.181 52.815 223.778 52.1576 224.719 52.0381C229.186 51.448 232.608 48.8558 235.947 46.1367C236.56 45.6063 236.089 44.9714 235.708 44.2169ZM188.228 267.163C188.228 267.125 188.228 267.096 188.228 267.058C186.076 266.969 183.925 266.849 181.774 266.812C181.139 266.804 180.459 267.081 180.287 267.79C179.383 271.615 179.062 275.462 180.339 279.257C182.072 284.419 184.68 289.08 188.489 293.024C188.773 293.323 189.191 293.57 189.58 293.659C189.931 293.741 190.461 293.727 190.708 293.51C192.053 292.33 192.74 290.701 193.203 289.065C194.084 285.965 194.876 282.828 195.481 279.66C195.922 277.345 196.027 274.954 196.221 272.594C196.288 271.742 196.184 270.875 196.131 270.016C196.004 268.104 195.168 267.223 193.382 267.17C191.672 267.125 189.946 267.163 188.228 267.163ZM171.084 294.623C171.958 293.405 172.458 292.068 172.907 290.634C174.953 284.053 175.768 277.24 176.664 270.457C177.15 266.737 177.023 265.93 173.063 265.288C169.702 264.742 166.415 263.749 163.098 262.957C162.665 262.853 161.739 263.547 161.672 264.003C161.612 264.421 161.485 264.84 161.477 265.258C161.403 275.626 164.435 285.069 170.008 293.741C170.225 294.093 170.658 294.287 171.084 294.623ZM145.73 446.745C145.476 449.68 146.425 452.459 148.248 454.977C148.815 455.761 150.496 455.903 151.079 455.104C152.476 453.206 153.91 451.331 155.135 449.329C157.496 445.482 159.438 441.426 160.656 437.056C160.85 436.376 160.409 435.211 159.767 434.792C157.608 433.366 155.337 432.185 152.715 431.939C151.594 431.834 150.474 432.215 149.936 433.209C147.71 437.385 145.685 441.642 145.73 446.745ZM380.135 166.899C380.688 166.667 381.54 166.578 381.711 166.189C384.662 159.436 386.216 152.414 386.5 144.996C386.985 132.133 383.676 120.39 377.005 109.498C376.916 109.349 376.482 109.207 376.453 109.244C376.243 109.521 375.885 109.917 375.959 110.148C376.497 111.762 377.043 113.383 377.752 114.929C380.008 119.852 381.45 125.036 382.078 130.37C382.959 137.825 383.026 145.347 383.28 152.847C383.295 153.273 383.318 153.706 383.28 154.132C383.049 156.934 382.653 159.623 380.606 161.856C379.366 163.223 379.433 165.016 380.135 166.899ZM96.4872 427.658C96.5993 428.607 96.7487 430.542 97.0923 432.439C97.2417 433.246 97.7795 433.986 98.1904 434.733C98.5714 435.42 99.9758 435.412 100.372 434.733C101.903 432.14 103.3 429.459 104.988 426.971C107.065 423.908 107.401 420.607 106.901 417.111C106.736 415.953 105.959 415.191 104.973 414.69C103.046 413.719 101.104 414.197 99.804 415.811C97.2342 418.993 96.4349 422.698 96.4872 427.658ZM124.209 432.76C124.732 437.892 125.755 442.703 128.243 447.096C128.347 447.275 128.534 447.417 128.713 447.536C128.885 447.656 129.087 447.768 129.289 447.798C129.438 447.82 129.707 447.738 129.744 447.641C131.35 443.189 132.762 438.684 133.711 434.045C133.838 433.418 133.8 432.761 133.815 432.118C133.83 430.878 132.926 429.586 131.761 429.078C130.11 428.361 128.429 428.286 126.726 428.779C125.86 429.025 125.195 429.601 124.874 430.437C124.567 431.229 124.396 432.073 124.209 432.76ZM240.661 258.482C240.623 258.057 240.526 256.57 240.302 255.106C240.257 254.822 239.66 254.366 239.406 254.411C236.694 254.934 233.997 255.524 231.308 256.137C230.516 256.316 230.068 257.347 230.277 258.221C231.047 261.388 232.331 264.369 234.445 266.819C235.648 268.209 236.679 269.942 238.576 270.636C240.212 269.202 239.802 267.125 240.138 265.318C240.489 263.428 240.451 261.478 240.661 258.482ZM205.491 265.654C203.071 266.177 201.614 266.476 200.165 266.804C199.642 266.924 199.119 267.843 199.239 268.313C199.657 269.979 200.21 271.607 201.278 272.975C203.25 275.499 205.275 277.987 207.321 280.452C207.553 280.729 208.083 280.938 208.442 280.893C209.211 280.811 209.189 280.086 209.294 279.503C210.115 275.044 209.846 270.569 209.525 266.087C209.473 265.31 208.494 264.757 207.613 265.011C206.582 265.31 205.566 265.631 205.491 265.654ZM213.537 263.42C213.641 263.928 213.611 264.414 213.828 264.742C215.21 266.931 216.943 268.829 219.177 270.136C225.041 273.542 225.817 272.765 226.303 266.192C226.46 264.1 225.967 261.964 225.75 259.85C225.713 259.454 224.57 258.976 224.122 259.155C220.588 260.574 217.055 262.001 213.537 263.42ZM153.245 273.968C152.438 271.809 151.505 269.665 150.832 267.439C150.093 265.011 149.592 262.516 148.972 259.969C147.934 261.717 147.501 263.547 147.321 265.467C146.843 270.636 147.635 275.679 148.815 280.676C148.838 280.781 149.159 280.915 149.294 280.87C149.682 280.758 150.25 280.654 150.384 280.377C151.378 278.278 152.289 276.134 153.245 273.968ZM244.515 253.067C245.158 256.361 247.003 258.684 249.087 260.858C249.371 261.157 249.774 261.336 250.125 261.575C250.954 262.143 252.471 261.642 252.755 260.679C253.666 257.608 254.465 254.508 254.182 251.259C254.152 250.945 253.674 250.377 253.464 250.407C250.334 250.848 247.406 251.939 244.515 253.067ZM114.072 433.776C114.43 437.885 115.013 441.471 117.12 444.616C117.232 444.78 117.463 444.855 117.635 444.974C118.016 445.243 118.352 445.146 118.726 444.758C119.928 443.495 119.861 441.964 119.383 440.529C118.113 436.697 117.897 432.955 119.801 429.264C119.899 429.085 119.869 428.839 119.921 428.637C120.257 427.3 119.002 426.217 117.545 426.53C116.373 426.777 115.544 427.494 115.237 428.547C114.699 430.385 114.386 432.297 114.072 433.776ZM158.669 268.627C158.654 268.627 158.639 268.627 158.616 268.627C158.616 266.498 158.646 264.369 158.586 262.247C158.579 261.889 158.258 261.418 157.944 261.217C156.681 260.417 155.307 259.857 153.791 259.842C153.499 259.842 152.939 260.343 152.946 260.597C153.058 265.624 154.582 270.196 157.6 274.237C157.705 274.379 157.907 274.506 158.071 274.521C158.265 274.536 158.639 274.409 158.639 274.342C158.669 272.437 158.669 270.532 158.669 268.627ZM260.427 248.032C262.033 249.354 263.654 250.699 265.364 252.11C265.887 251.483 266.5 251.057 266.627 250.519C267.015 248.868 267.232 247.173 267.486 245.484C267.583 244.82 266.836 244.095 266.32 244.334C264.595 245.141 262.869 245.948 261.181 246.829C260.86 247.001 260.733 247.524 260.427 248.032ZM207.127 291.396C207.971 291.246 209.182 291.045 210.377 290.798C210.459 290.783 210.578 290.283 210.504 290.223C208.233 288.356 205.954 286.51 203.631 284.71C203.534 284.635 202.787 285.069 202.772 285.285C202.69 286.966 202.683 288.647 202.757 290.32C202.772 290.626 203.258 291.119 203.579 291.164C204.625 291.329 205.686 291.321 207.127 291.396ZM394.822 514.289L394.553 514.073L394.515 514.446L394.822 514.289ZM175.267 686.222C175.095 686.05 174.953 685.908 174.804 685.759C174.662 686.043 174.468 686.319 174.401 686.625C174.378 686.73 174.662 686.909 174.804 687.051C174.961 686.767 175.118 686.491 175.267 686.222Z" fill="#070808"/>
<path d="M325.55 63.2059C323.226 62.5859 321.284 61.2786 319.297 60.0087C312.746 55.8105 305.709 52.6357 298.269 50.3423C297.447 50.0884 296.648 49.7746 295.811 49.5655C290.597 48.2657 285.405 46.8837 280.154 45.7407C273.849 44.3662 267.477 43.3055 261.008 43.0216C260.014 42.9768 259.678 42.1476 260.38 41.296C262.016 39.3239 262.928 36.8438 264.997 35.1481C269.651 31.3309 273.834 26.9384 279.123 23.9354C281.386 22.6506 283.859 21.799 286.391 21.3583C290.223 20.6934 293.682 21.5375 296.125 24.914C297.133 26.3035 298.127 27.7079 299.105 29.1123C301.421 32.414 304.454 33.8707 308.54 33.0864C311.954 32.429 315.271 31.4131 318.177 29.5679C323.159 26.4081 328.209 26.0495 333.55 28.3428C339.937 29.7099 345.577 32.9145 351.396 35.6636C352.943 36.3882 354.362 37.3892 355.781 38.3603C357.611 39.6078 359.016 41.2437 359.412 43.4922C359.852 45.9723 361.055 47.8697 363.214 49.1845C363.573 49.4011 363.871 49.7373 364.185 50.0286C364.999 50.7831 365.53 51.687 365.567 52.8299C365.604 54.1222 365.679 55.4071 365.679 56.6994C365.664 60.9947 365.724 65.2975 365.552 69.5854C365.477 71.4903 364.94 73.3802 364.536 75.2627C364.462 75.6138 363.968 76.1964 363.797 76.1516C363.221 76.0097 362.534 75.7632 362.198 75.315C361.167 73.9405 360.286 72.4614 359.337 71.0271C357.126 67.7029 354.026 65.5142 350.492 63.7437C345.779 61.3757 340.684 60.6735 335.582 59.934C334.536 59.7846 333.438 59.9863 332.37 60.0236C330.375 60.0909 328.575 60.5465 327.223 62.2124C326.857 62.6456 326.162 62.8473 325.55 63.2059Z" fill="white"/>
<path d="M235.708 44.217C236.089 44.9715 236.567 45.6064 235.932 46.1219C232.593 48.8485 229.179 51.4406 224.705 52.0233C223.764 52.1502 223.166 52.8076 222.777 53.5696C222.396 54.324 222.128 55.1532 221.933 55.9824C221.635 57.2598 222.411 58.709 223.554 59.1572C227.491 60.7185 231.532 61.1667 235.402 59.2768C237.352 58.3206 239.032 58.47 240.967 58.9331C247.653 60.5317 254.361 62.0407 261.069 63.5422C263.811 64.1547 266.53 64.8345 268.92 66.336C270.317 67.2175 271.632 67.4789 273.163 66.8888C274.015 66.5676 274.837 66.8365 275.666 67.1054C277.713 67.7553 279.797 68.2857 281.829 68.9804C287.11 70.7882 292.369 72.6782 297.643 74.4934C299.862 75.2553 302.118 75.9277 304.411 76.6523C304.209 77.1752 304.179 77.6533 303.948 77.7802C300.773 79.588 297.568 81.3435 294.371 83.1064C293.012 83.8609 291.54 84.1299 290.009 83.9132C283.405 83.0019 276.801 82.098 270.437 79.9914C269.01 79.5208 267.591 78.9979 266.231 78.3704C262.138 76.4804 258.051 74.5681 254.018 72.5661C251.687 71.4082 249.237 70.6687 246.719 70.1084C244.411 69.593 242.058 69.2643 239.779 68.6592C235.79 67.6059 231.727 67.3519 227.64 67.1801C225.041 67.0681 222.531 67.0756 220.088 68.3007C218.99 68.8534 217.593 68.9281 216.323 68.9804C213.963 69.0776 211.587 69.1298 209.242 68.9506C207.441 68.8086 206.059 67.7105 205.223 66.082C203.811 63.333 203.355 60.3226 203.348 57.3196C203.348 54.6901 204.199 52.1951 206.739 50.7757C208.42 49.8345 210.138 48.9381 211.901 48.1687C217.668 45.6363 223.659 44.1124 230.009 44.1946C231.951 44.2394 233.878 44.217 235.708 44.217Z" fill="white"/>
<path d="M188.227 267.163C189.945 267.163 191.671 267.125 193.389 267.17C195.174 267.215 196.011 268.104 196.138 270.016C196.198 270.875 196.302 271.742 196.227 272.594C196.033 274.954 195.929 277.337 195.488 279.66C194.883 282.828 194.091 285.965 193.209 289.065C192.739 290.709 192.059 292.337 190.714 293.51C190.468 293.727 189.938 293.741 189.586 293.659C189.191 293.562 188.78 293.316 188.496 293.024C184.694 289.08 182.086 284.419 180.346 279.257C179.069 275.455 179.382 271.615 180.294 267.79C180.458 267.081 181.145 266.804 181.78 266.812C183.932 266.849 186.083 266.969 188.234 267.058C188.227 267.096 188.227 267.133 188.227 267.163Z" fill="white"/>
<path d="M171.081 294.623C170.655 294.287 170.222 294.085 170.005 293.749C164.425 285.076 161.399 275.634 161.474 265.265C161.474 264.847 161.608 264.429 161.668 264.011C161.728 263.555 162.654 262.86 163.095 262.965C166.419 263.757 169.706 264.75 173.06 265.295C177.027 265.938 177.154 266.745 176.661 270.465C175.764 277.255 174.95 284.06 172.903 290.641C172.463 292.068 171.962 293.413 171.081 294.623Z" fill="white"/>
<path d="M380.135 166.899C379.433 165.017 379.358 163.231 380.606 161.864C382.645 159.623 383.048 156.941 383.28 154.14C383.317 153.714 383.295 153.281 383.28 152.855C383.026 145.355 382.959 137.833 382.077 130.378C381.442 125.044 380.008 119.86 377.752 114.937C377.042 113.391 376.497 111.77 375.959 110.156C375.885 109.924 376.243 109.529 376.452 109.252C376.482 109.215 376.915 109.357 377.005 109.506C383.676 120.398 386.993 132.141 386.5 145.004C386.216 152.422 384.662 159.444 381.711 166.197C381.547 166.57 380.688 166.66 380.135 166.899Z" fill="white"/>
<path d="M240.661 258.483C240.452 261.478 240.489 263.435 240.138 265.318C239.802 267.118 240.213 269.195 238.577 270.636C236.68 269.942 235.649 268.209 234.446 266.819C232.332 264.376 231.047 261.396 230.278 258.221C230.069 257.347 230.517 256.324 231.309 256.137C233.998 255.524 236.695 254.934 239.406 254.411C239.668 254.359 240.265 254.822 240.303 255.106C240.527 256.57 240.624 258.057 240.661 258.483Z" fill="white"/>
<path d="M205.492 265.653C205.567 265.631 206.583 265.31 207.614 265.019C208.495 264.765 209.466 265.317 209.526 266.094C209.847 270.576 210.116 275.051 209.295 279.511C209.19 280.101 209.205 280.818 208.443 280.9C208.085 280.937 207.547 280.736 207.323 280.459C205.276 277.994 203.259 275.507 201.279 272.982C200.211 271.615 199.666 269.986 199.24 268.32C199.12 267.85 199.643 266.931 200.166 266.811C201.615 266.475 203.072 266.169 205.492 265.653Z" fill="white"/>
<path d="M213.535 263.421C217.054 262.002 220.587 260.575 224.128 259.155C224.576 258.976 225.711 259.447 225.756 259.85C225.973 261.964 226.466 264.101 226.309 266.192C225.824 272.773 225.039 273.543 219.183 270.137C216.942 268.837 215.216 266.932 213.834 264.743C213.61 264.407 213.64 263.929 213.535 263.421Z" fill="white"/>
<path d="M153.245 273.968C152.289 276.134 151.385 278.278 150.384 280.385C150.25 280.661 149.682 280.766 149.293 280.878C149.159 280.915 148.845 280.788 148.815 280.684C147.635 275.679 146.843 270.636 147.321 265.475C147.501 263.555 147.926 261.725 148.972 259.977C149.592 262.524 150.093 265.019 150.832 267.447C151.505 269.665 152.431 271.817 153.245 273.968Z" fill="white"/>
<path d="M244.516 253.067C247.407 251.939 250.335 250.848 253.457 250.407C253.659 250.378 254.145 250.945 254.174 251.259C254.458 254.508 253.659 257.601 252.748 260.679C252.464 261.642 250.947 262.143 250.118 261.575C249.775 261.336 249.371 261.157 249.08 260.858C247.003 258.684 245.166 256.361 244.516 253.067Z" fill="white"/>
<path d="M158.672 268.627C158.672 270.532 158.679 272.437 158.649 274.341C158.649 274.409 158.276 274.528 158.082 274.521C157.917 274.513 157.716 274.379 157.611 274.237C154.593 270.195 153.069 265.624 152.957 260.596C152.95 260.335 153.51 259.834 153.801 259.842C155.31 259.849 156.692 260.417 157.955 261.216C158.268 261.418 158.59 261.889 158.597 262.247C158.657 264.376 158.627 266.505 158.627 268.627C158.634 268.627 158.649 268.627 158.672 268.627Z" fill="white"/>
<path d="M260.426 248.031C260.732 247.524 260.859 246.993 261.18 246.829C262.868 245.947 264.594 245.141 266.32 244.334C266.835 244.095 267.59 244.819 267.485 245.484C267.231 247.165 267.014 248.861 266.626 250.519C266.499 251.057 265.879 251.483 265.364 252.11C263.653 250.698 262.032 249.361 260.426 248.031Z" fill="white"/>
<path d="M164.694 438.78C165.217 438.758 165.74 438.743 166.263 438.721C166.509 440.618 165.605 441.918 164.104 442.911C163.842 442.643 163.573 442.374 163.297 442.12C163.439 440.872 163.521 439.602 164.694 438.78Z" fill="#7B8A27"/>
<path d="M369.262 101.348C368.381 101.236 367.783 100.713 367.484 99.9136C367.38 99.6297 367.455 99.0919 367.664 98.9201C367.91 98.7109 368.463 98.5914 368.739 98.7259C369.509 99.0994 369.882 99.8165 369.912 100.69C369.681 100.892 369.464 101.109 369.262 101.348Z" fill="#B5C30D"/>
<path d="M174.101 712.83C174.303 714.048 174.086 715.049 172.757 715.489C172.428 713.794 172.428 713.794 174.101 712.83Z" fill="#B5C30D"/>
<path d="M373.328 105.008C372.864 104.702 372.349 104.448 371.968 104.059C371.811 103.895 371.953 103.432 371.961 103.111C372.289 103.126 372.812 103.029 372.917 103.193C373.216 103.656 373.335 104.224 373.529 104.754L373.328 105.008Z" fill="#B5C30D"/>
<path d="M172.809 715.415C172.876 716.565 172.645 717.559 171.472 718.089C171.442 717.507 171.285 716.902 171.412 716.356C171.554 715.721 172.122 715.415 172.809 715.415Z" fill="#B5C30D"/>
<path d="M374.6 106.323C374.898 106.488 375.197 106.644 375.496 106.809C375.332 106.996 375.167 107.182 375.003 107.362C374.853 107.025 374.704 106.689 374.555 106.361L374.6 106.323Z" fill="#B5C30D"/>
<path d="M374.561 106.361C373.769 106.256 373.38 105.786 373.328 105.016C373.328 105.016 373.53 104.762 373.53 104.755C374.411 104.919 374.68 105.509 374.598 106.324L374.561 106.361Z" fill="#B5C30D"/>
<path d="M234.879 547.412C235.066 547.486 235.41 547.614 235.402 547.628C235.283 548.047 235.118 547.943 234.969 547.314L234.879 547.412Z" fill="#7B8A27"/>
<path d="M172.853 110.193C172.666 110.388 172.472 110.59 172.285 110.784C172.33 110.649 172.33 110.455 172.42 110.395C172.562 110.306 172.764 110.313 172.943 110.283L172.853 110.193Z" fill="#B5C30D"/>
<path d="M394.818 514.289L394.512 514.446L394.549 514.08L394.818 514.289Z" fill="#7B8A27"/>
<path d="M396.852 511.472C396.575 511.883 396.276 512.585 395.716 512.077C395.223 511.637 395.686 511.106 396.12 510.74C396.366 510.979 396.613 511.226 396.852 511.472Z" fill="#7B8A27"/>
<path d="M164.108 442.913C163.802 443.152 163.518 443.548 163.182 443.593C162.607 443.667 162.621 443.249 163.301 442.121C163.578 442.383 163.847 442.644 164.108 442.913Z" fill="#7B8A27"/>
<path d="M33.2516 645.696C33.2067 646.22 32.9824 646.429 32.616 646.249C32.5637 646.227 32.5787 645.883 32.6684 645.808C32.7955 645.696 33.0123 645.689 33.1918 645.636C33.1843 645.629 33.2516 645.696 33.2516 645.696Z" fill="#7B8A27"/>
<path d="M369.919 100.69C370.203 100.915 370.51 101.116 370.771 101.363C370.876 101.46 370.92 101.803 370.891 101.818C370.592 101.96 370.226 102.199 369.979 102.117C369.688 102.013 369.501 101.617 369.27 101.34C369.464 101.109 369.68 100.892 369.919 100.69Z" fill="#B5C30D"/>
<path d="M72.2064 649.752C72.057 650.275 71.691 650.529 71.3772 650.216C71.0784 649.917 71.3324 649.551 71.8628 649.401C71.8628 649.409 72.2064 649.752 72.2064 649.752Z" fill="#7B8A27"/>
<path d="M144.489 436.226C144.407 436.727 144.175 436.937 143.838 436.772C143.771 436.742 143.764 436.421 143.838 436.316C143.936 436.181 144.152 436.137 144.309 436.047C144.309 436.054 144.489 436.226 144.489 436.226Z" fill="#7B8A27"/>
<path d="M152.152 672.701C151.487 673.702 151.487 673.702 150.613 672.649C151.144 672.163 151.659 672.156 152.152 672.701Z" fill="#B5C30D"/>
<path d="M175.266 686.221C175.117 686.49 174.96 686.774 174.803 687.058C174.661 686.916 174.377 686.737 174.4 686.632C174.467 686.326 174.661 686.049 174.803 685.766C174.952 685.9 175.094 686.042 175.266 686.221Z" fill="white"/>
<path d="M578.938 384.347C579.461 384.429 579.671 384.668 579.491 385.02C579.454 385.094 579.117 385.102 579.013 385.02C578.878 384.915 578.841 384.691 578.766 384.526C578.758 384.526 578.938 384.347 578.938 384.347Z" fill="#7B8A27"/>
<path d="M281.708 362.75C281.581 361.951 281.887 361.383 282.604 361.024C282.724 361.816 282.417 362.384 281.708 362.75Z" fill="#7B8A27"/>
<path d="M171.564 717.992C171.258 718.754 170.631 719.127 169.898 719.374C170.242 718.664 170.384 717.693 171.564 717.992Z" fill="#B5C30D"/>
<path d="M354.629 499.447C347.121 499.081 339.621 498.73 332.114 498.341C328.431 498.147 324.905 497.228 321.558 495.697C315.201 492.791 311.504 487.876 310.547 480.921C310.391 479.793 311.167 478.926 312.437 478.896C313.513 478.867 314.581 478.852 315.657 478.874C321.02 478.994 326.392 479.091 331.755 479.27C339.479 479.531 347.203 479.905 354.927 480.122C358.177 480.211 361.337 480.771 364.474 481.489C367.634 482.206 370.607 483.446 373.199 485.463C377.144 488.54 379.25 492.612 379.683 497.572C379.788 498.752 379.033 499.611 377.831 499.656C376.972 499.686 376.113 499.723 375.261 499.708C368.389 499.581 361.524 499.439 354.651 499.297C354.636 499.35 354.636 499.394 354.629 499.447Z" fill="#070808"/>
<path d="M334.222 423.542C339.122 423.774 346.428 424.095 353.726 424.468C358.731 424.73 363.527 425.85 367.875 428.427C372.626 431.236 375.345 435.419 375.965 440.925C376.032 441.545 375.957 442.217 375.785 442.822C375.688 443.151 375.285 443.577 374.964 443.629C373.918 443.808 372.842 443.928 371.789 443.906C365.126 443.779 358.455 443.644 351.791 443.442C344.911 443.233 338.039 442.934 331.159 442.718C326.811 442.583 322.621 441.739 318.602 440.096C313.335 437.944 309.667 434.202 307.837 428.793C307.434 427.598 307.359 426.276 307.187 425.006C307.09 424.267 307.942 423.183 308.599 423.169C310.317 423.131 312.035 423.086 313.761 423.116C319.767 423.228 325.788 423.363 334.222 423.542Z" fill="#070808"/>
<path d="M333.209 455.566C340.724 455.962 348.238 456.343 355.753 456.762C360.549 457.031 365.099 458.241 369.23 460.721C374.19 463.701 376.797 468.183 377.23 473.943C377.32 475.19 376.617 476.109 375.46 476.094C369.872 476.027 364.277 475.975 358.689 475.818C350.308 475.579 341.926 475.198 333.545 475.011C329.847 474.929 326.246 474.331 322.735 473.345C316.393 471.575 311.553 467.892 309.229 461.498C308.729 460.116 308.639 458.569 308.408 457.098C308.296 456.366 309.215 455.41 309.984 455.395C311.485 455.372 312.994 455.327 314.496 455.35C320.733 455.454 326.971 455.589 333.201 455.708C333.209 455.671 333.209 455.619 333.209 455.566Z" fill="#070808"/>
<path d="M298.2 105.128C298.506 105.405 298.88 105.958 299.096 105.905C300.127 105.644 301.151 105.293 302.099 104.822C304.624 103.582 307.299 102.88 310.003 102.163C312.64 101.46 315.112 101.692 317.562 102.618C319.363 103.298 321.088 104.187 322.851 104.979C327.401 107.026 329.5 110.873 330.411 115.504C330.702 116.968 330.822 118.507 330.732 119.994C330.194 128.659 328.439 136.988 323.643 144.429C323.18 145.153 322.687 145.855 322.201 146.565C317.787 152.982 311.706 156.553 303.937 157.158C302.675 157.255 301.36 157.232 300.12 156.993C295.817 156.157 292.007 154.207 288.676 151.398C285.785 148.963 283.977 145.841 283.685 141.986C283.573 140.492 283.551 138.99 283.544 137.489C283.536 135.771 283.603 134.06 283.641 132.342C284.604 127.613 286.046 123.064 288.571 118.903C288.997 118.209 289.243 117.379 289.445 116.58C289.535 116.221 289.325 115.781 289.251 115.377L289.198 115.445C290.267 115.616 290.513 114.944 290.565 114.085L290.506 114.167C291.746 113.674 292.388 112.875 291.843 111.493L291.791 111.56C292.396 111.881 293.031 111.844 293.509 111.411C295.204 109.879 296.855 108.303 298.521 106.742C299.141 106.085 299.074 105.517 298.312 105.031L298.2 105.128ZM294.622 127.24C297.572 124.185 300.516 121.122 303.466 118.067C303.862 117.94 304.116 117.678 304.236 117.275C305.939 117.095 307.642 116.916 309.345 116.744C311.967 116.49 314.462 116.991 316.913 117.895C319.706 118.918 321.611 120.771 322.582 123.609C323.576 126.5 324.151 129.391 323.098 132.409C322.605 133.821 322.261 135.285 321.798 136.705C321.2 138.535 320.551 140.35 319.923 142.173C318.115 143.659 316.315 145.161 314.492 146.64C312.416 148.328 310.1 149.239 307.358 148.888C306.522 148.784 305.663 148.881 304.811 148.888C303.1 146.879 302.996 146.759 304.258 145.094C306.081 142.681 306.425 140.036 306.059 137.19C305.849 135.539 304.841 134.501 303.339 133.918C301.838 133.336 300.299 133.433 299.052 134.366C297.871 135.248 296.937 136.458 295.899 137.519C294.353 137.683 293.441 136.966 293.187 135.465C293.046 134.62 293.09 133.739 292.926 132.902C292.866 132.581 292.448 132.335 292.067 131.916C291.918 133.97 291.626 135.905 291.679 137.825C291.746 140.649 292.284 143.375 294.629 145.347C295.884 146.827 297.147 148.298 298.402 149.777C299.119 152.847 301.591 153.609 304.169 153.692C307.358 153.796 310.451 153.124 313.148 151.167C316.24 148.926 319.288 146.67 320.648 142.875C320.812 142.74 321.029 142.643 321.141 142.471C325.937 135.016 327.326 126.724 327.102 118.037C327.094 117.611 327.012 117.185 326.93 116.767C326.228 113.189 322.963 110.357 319.37 110.036C316.733 109.797 314.32 110.499 311.885 111.329C308.628 112.434 305.595 113.838 303.354 116.573C302.921 116.483 302.555 116.595 302.249 116.909C298.865 118.463 296.594 121.212 294.592 124.207C294.151 124.864 294.159 125.813 293.964 126.627C293.725 127.165 293.456 127.696 293.262 128.248C293.217 128.383 293.359 128.637 293.486 128.771C293.755 129.063 294.069 128.936 294.278 128.405C294.442 128.054 294.51 127.643 294.622 127.24Z" fill="#070808"/>
<path d="M290.51 114.153L290.569 114.071C289.524 113.929 289.217 114.526 289.202 115.43L289.255 115.363C288.321 115.467 287.746 116.102 287.32 116.835C284.511 121.615 282.576 126.732 281.545 132.186C280.776 134.651 280.014 137.123 279.237 139.581C278.782 141.015 278.341 142.457 277.833 143.876C276.645 147.208 274.621 149.823 271.685 151.929C266.792 155.44 262.101 159.242 257.342 162.94C256.491 163.598 255.669 164.307 254.922 165.077C248.147 172.054 241.827 179.382 237.606 188.256C236.403 190.774 235.485 193.426 234.342 195.981C234.006 196.728 233.445 197.437 232.825 197.982C232.37 198.378 231.645 198.483 231.018 198.102C230.457 197.758 229.942 197.37 229.949 196.63C229.957 196.212 229.957 195.764 230.099 195.375C232.661 188.01 236.097 181.107 240.893 174.907C247.78 165.995 255.363 157.823 264.887 151.638C265.791 151.055 266.65 150.398 267.517 149.755C271.401 146.894 271.05 147.731 272.17 142.517C273.216 137.676 274.016 132.791 274.979 127.935C276.167 121.989 278.102 116.327 281.06 111C284.735 104.389 290.076 99.5188 296.658 96.0003C299.489 94.4839 302.484 93.1692 305.547 92.213C312.868 89.9197 320.405 89.7329 327.913 91.0028C331.513 91.6154 334.897 93.1617 337.452 96.0228C338.012 96.6502 338.102 97.711 337.646 98.3908C337.138 99.1453 336.473 99.6831 335.54 99.6234C334.912 99.586 334.277 99.4217 333.679 99.205C332.058 98.6298 330.46 97.9725 328.846 97.3898C325.97 96.3589 322.997 95.8883 319.957 96.1647C313.928 96.7175 308.005 97.6886 302.656 100.826C301.155 101.708 299.735 102.649 298.585 103.956C298.338 104.24 298.331 104.733 298.219 105.129L298.323 105.017C297.898 105.084 297.479 105.151 297.053 105.218C294.76 106.332 293.318 108.296 292.011 110.373C291.817 110.687 291.862 111.157 291.802 111.553" fill="#070808"/>
<path d="M170.04 236.08C169.697 237.447 169.405 239.157 168.815 240.749C168.248 242.272 166.933 243.057 165.297 243.184C163.444 243.326 161.674 242.422 161.054 240.861C160.583 239.673 160.083 238.41 160.03 237.163C159.844 233.077 157.931 229.753 155.705 226.548C154.928 225.427 153.8 224.86 152.411 224.845C151.768 224.837 151.096 224.912 150.499 224.74C149.908 224.568 149.236 224.262 148.863 223.799C146.943 221.379 145.867 218.689 145.807 215.5C145.733 211.54 147.249 208.403 150.02 205.744C151.029 204.78 152.224 204.504 153.584 204.631C154.913 204.758 156.153 205.191 157.132 206.05C158.253 207.036 159.366 208.097 160.21 209.314C162.174 212.145 163.96 215.111 165.118 218.376C166.768 223.037 168.748 227.601 169.495 232.539C169.644 233.592 169.816 234.653 170.04 236.08Z" fill="#070808"/>
<path d="M207.648 213.608C207.946 213.623 208.813 213.623 209.657 213.743C211.278 213.967 212.414 214.946 213.071 216.372C213.422 217.127 213.624 218.016 213.654 218.852C213.833 223.992 209.538 228.847 204.368 229.415C203.942 229.46 203.509 229.445 203.083 229.46C200.992 229.505 199.416 230.558 198.101 232.06C196.532 233.852 195.367 235.869 194.567 238.148C193.932 239.956 193.156 241.763 192.155 243.392C190.802 245.603 188.674 246.499 186.074 246.059C184.206 245.745 182.929 244.647 182.391 242.861C181.756 240.755 181.592 238.551 182.735 236.594C185.663 231.604 188.046 226.27 191.893 221.863C193.163 220.414 194.47 218.972 195.912 217.702C199.572 214.49 202.097 213.623 207.648 213.608Z" fill="#070808"/>
<path d="M342.279 205.968C342.369 205.788 342.496 205.445 342.533 205.459C342.937 205.564 342.825 205.736 342.219 205.908C342.212 205.908 342.279 205.968 342.279 205.968Z" fill="#B5C30D"/>
<path d="M295.908 137.533C296.946 136.465 297.88 135.262 299.06 134.381C300.308 133.447 301.846 133.343 303.348 133.933C304.849 134.523 305.858 135.561 306.067 137.205C306.433 140.051 306.082 142.695 304.267 145.108C303.012 146.774 303.109 146.893 304.827 148.91C303.692 149.978 302.362 150.277 300.838 150.008C300.039 149.866 299.217 149.866 298.41 149.799C297.155 148.32 295.893 146.849 294.638 145.369C294.406 142.643 294.802 140.028 295.908 137.533Z" fill="white"/>
<path d="M294.625 127.239C294.512 127.635 294.438 128.046 294.288 128.434C294.079 128.957 293.765 129.084 293.497 128.8C293.37 128.666 293.22 128.412 293.272 128.277C293.467 127.724 293.736 127.194 293.975 126.656C294.184 126.843 294.408 127.045 294.625 127.239Z" fill="#7B8A27"/>
<path d="M303.468 118.066C303.065 117.685 302.661 117.311 302.258 116.93C302.564 116.617 302.93 116.505 303.363 116.594C303.647 116.818 303.939 117.043 304.23 117.267C304.118 117.678 303.864 117.939 303.468 118.066Z" fill="#B5C30D"/>
</svg>
