<svg width="657" height="894" viewBox="0 0 657 894" fill="none" xmlns="http://www.w3.org/2000/svg">
<path d="M237.014 806.027C236.764 806.05 236.483 805.995 236.272 806.105C228.945 809.839 221.626 813.596 214.299 817.322C211.183 818.907 208.105 820.532 205.199 822.492C200.825 825.453 195.912 827.328 191.014 829.202C189.874 829.64 188.601 829.835 187.374 829.952C185.039 830.163 183 829.562 181.235 827.835C179.415 826.054 177.986 824.164 177.197 821.665C175.806 817.228 175.853 812.854 176.861 808.386C177.923 803.668 180.11 799.481 182.821 795.576C185.515 791.686 188.374 787.905 191.842 784.617C194.006 782.562 195.959 780.282 197.912 778.204C197.357 775.775 195.193 775.087 193.983 773.572C192.748 772.041 191.592 770.455 190.327 768.799C189.218 768.916 188.241 768.971 187.281 769.119C182.797 769.83 178.314 769.776 173.853 768.979C166.152 767.62 158.356 767.807 150.678 768.534C143.507 769.213 136.282 770.596 129.533 773.244C123.269 775.704 117.419 779.125 112.091 783.343C110.724 784.429 109.428 785.609 108.045 786.679C105.03 789.006 101.992 788.639 99.5 785.679C97.5394 783.359 96.1334 780.742 95.321 777.805C94.04 773.158 93.4854 768.518 94.9539 763.8C95.2351 762.894 94.2665 761.824 93.3527 761.777C90.3141 761.621 87.385 762.183 84.5027 763.042C77.7696 765.05 71.4114 767.917 65.4437 771.619C63.7487 772.674 62.1318 773.861 60.4212 774.892C59.148 775.665 57.8201 776.399 56.4454 776.977C53.3834 778.258 49.6341 776.649 48.3609 773.533C47.986 772.619 47.6501 771.635 47.572 770.658C47.3299 767.424 47.1346 764.175 47.0877 760.933C47.0487 758.168 47.6501 755.497 48.6421 752.888C49.97 749.389 50.9542 745.749 52.4539 742.335C54.7582 737.086 57.2109 731.923 61.007 727.471C65.225 722.511 69.6461 717.84 74.6608 713.638C79.8317 709.295 85.0495 705.038 90.5875 701.179C91.4077 700.609 92.1498 699.898 93.0246 699.437C100.953 695.242 108.67 690.587 117.364 688.017C119.27 687.455 121.144 686.736 123.003 686.018C132.861 682.206 143.008 679.823 153.623 679.675C154.115 679.667 154.615 679.558 155.482 679.456C156.825 678.503 158.52 677.449 160.036 676.183C163.371 673.387 167.253 671.809 171.362 670.606C176.9 668.982 182.508 667.677 188.304 668.091C192.272 668.38 196.31 668.779 200.138 669.794C206.644 671.512 211.8 675.355 215.315 681.214C215.947 682.268 216.494 683.362 217.158 684.573C218.494 684.627 219.728 684.705 220.962 684.713C225.508 684.737 229.921 685.447 234.092 687.314C236.904 688.572 239.794 689.04 242.849 688.783C244.083 688.681 245.364 688.712 246.59 688.884C250.363 689.423 253.878 690.603 256.588 693.485C257.619 694.579 258.635 695.672 259.681 696.75C260.814 697.914 261.806 698.203 262.993 697.617C267.469 695.414 272.085 693.454 276.186 690.556C283.747 685.213 290.926 679.417 297.198 672.551C299.401 670.138 301.252 667.521 302.791 664.623C305.478 659.562 308.399 654.617 311.164 649.595C311.875 648.298 312.39 646.884 312.937 645.494C313.265 644.658 312.703 643.244 311.953 642.869C311.07 642.424 310.188 641.955 309.258 641.612C301.721 638.839 294.636 635.207 288.2 630.387C284.661 629.989 281.17 630.309 277.686 630.379C265.446 630.637 253.198 630.598 240.974 629.856C236.24 629.567 231.468 629.348 226.797 628.598C220.642 627.606 214.494 626.419 208.488 624.771C198.615 622.061 188.991 618.647 179.923 613.718C174.002 610.5 167.698 608.141 161.176 606.306C154.17 604.337 147.054 603.228 139.86 602.306C135.29 601.721 130.838 601.994 126.534 603.447C119.887 605.681 113.021 606.993 106.217 608.579C103.07 609.305 99.8124 609.696 96.5864 609.875C93.0871 610.078 91.3374 607.68 91.4702 604.759C91.6342 601.291 91.5795 597.776 92.884 594.417C93.5011 592.832 93.7901 591.019 93.8135 589.309C93.8682 584.06 93.712 578.819 93.6417 573.57C93.6338 573.07 93.6495 572.562 93.5714 572.07C91.9779 561.939 92.0716 551.644 90.6188 541.505C89.205 531.616 87.4865 521.767 85.9009 511.901C83.8778 499.318 82.0657 486.711 80.9487 474.018C80.2926 466.535 80.5816 459.075 81.2924 451.569C82.1906 442.086 84.2684 432.83 85.7212 423.457C86.4867 418.489 87.6428 413.669 89.1191 408.897C89.8455 406.53 91.7045 405.249 94.2119 405.421C95.446 405.507 96.7348 405.608 97.8753 406.03C101.148 407.233 104.405 408.506 107.584 409.943C110.076 411.076 112.474 412.435 114.856 413.794C117.051 415.044 119.449 415.692 121.785 416.559C124.847 417.692 127.003 416.919 128.916 414.333C130.393 412.341 132.283 410.646 133.962 408.803C134.97 407.702 136.157 406.686 136.884 405.421C138.93 401.875 141.766 399.125 144.953 396.657C145.741 396.048 146.585 395.446 147.194 394.673C151.194 389.541 156.536 385.643 160.34 380.316C161.481 378.715 163.105 377.442 164.566 376.09C165.847 374.903 167.316 373.903 168.511 372.638C171.69 369.287 175.72 367.358 179.821 365.475C183.063 363.991 186.375 363.389 189.952 363.288C196.873 363.085 201.88 366.342 206.027 371.372C207.129 372.708 208.05 374.255 208.745 375.84C212.175 383.62 216.76 390.791 220.454 398.43C221.751 401.125 223.063 403.812 224.477 406.452C226.594 410.412 228.679 414.404 231.007 418.239C233.35 422.097 235.631 425.941 236.49 430.455C236.67 431.408 237.662 432.103 238.701 432.088C241.693 432.049 244.692 431.978 247.684 431.893C248.785 431.861 249.636 431.104 249.738 430.135C250.527 422.433 251.542 414.747 252.019 407.03C252.433 400.266 253.55 393.618 254.643 386.971C255.659 380.839 256.588 374.637 258.713 368.732C259.892 361.038 262.673 353.79 264.829 346.361C265.032 345.666 265.188 344.916 265.134 344.206C265.11 343.838 264.602 343.479 264.259 343.182C264.087 343.034 263.728 342.917 263.556 343.003C262.9 343.315 262.111 343.573 261.697 344.104C257.994 348.83 253.011 351.275 247.379 353.024C241.919 354.727 236.584 354.766 231.163 353.384C228.265 352.649 225.43 351.657 222.563 350.759C220.837 350.22 219.134 350.197 217.416 350.782C215.994 351.267 214.565 351.704 213.135 352.149C209.495 353.274 205.801 353.469 202.02 353.102C199.052 352.813 196.755 351.493 195.162 349.087C194.068 347.439 193.295 345.58 192.389 343.799C190.304 339.699 189.421 335.348 189.733 330.755C189.835 329.263 189.913 327.771 189.999 326.396C188.577 323.6 187.14 320.975 185.898 318.257C184.656 315.523 183.664 312.696 183.672 309.618C183.672 308.337 183.875 307.134 184.726 306.127C185.57 305.127 185.992 304.057 185.695 302.705C185.429 301.487 185.234 300.229 185.242 298.995C185.25 297.777 185.297 296.433 185.797 295.363C186.687 293.465 186.882 291.567 186.781 289.544C186.671 287.349 187.679 285.716 189.569 284.607C189.999 284.357 190.358 283.998 191.007 283.49C191.132 281.74 191.178 279.772 191.428 277.819C191.905 274.093 192.506 270.407 195.092 267.376C195.881 266.454 196.427 265.259 196.849 264.103C198.404 259.893 199.935 255.675 201.333 251.41C202.262 248.567 202.965 245.653 203.77 242.771C204.684 239.483 204.278 236.343 202.731 233.367C201.512 232.945 200.349 232.546 199.208 232.156C198.404 229.898 197.654 227.789 196.873 225.681C196.818 225.54 196.552 225.399 196.396 225.407C196.162 225.423 195.888 225.524 195.709 225.681C194.717 226.563 194.607 227.86 194.193 229.016C193.241 231.687 191.577 233.812 189.226 235.405C188.32 236.015 186.64 236.093 185.687 235.39C184.898 234.812 184.242 234.046 183.477 233.421C182.938 232.984 182.305 232.648 181.571 232.171C179.22 237.874 176.166 242.982 173.119 248.098C172.619 248.942 171.908 249.66 171.252 250.403C170.721 251.004 169.042 251.121 168.464 250.559C167.253 249.387 166.089 248.169 164.972 247.028C163.41 247.262 162.754 248.395 162.129 249.442C159.645 253.605 155.435 255.277 151.279 256.933C149.366 257.698 147.257 257.44 145.585 256.081C143.445 254.331 141.063 253.011 138.704 251.598C133.509 248.473 129.244 244.255 125.62 239.412C124.425 237.811 123.285 236.163 122.261 234.452C115.435 223.095 108.842 211.621 105.639 198.584C105.21 196.826 104.358 195.358 103.398 193.889C101.476 190.96 99.7577 187.937 98.3674 184.704C94.5477 175.791 93.0793 166.418 93.7823 156.857C94.3447 149.14 96.1256 141.602 99.8593 134.619C103.163 128.441 106.78 122.473 110.685 116.669C111.662 115.216 112.662 113.764 113.81 112.459C118.934 106.656 124.034 100.821 129.307 95.1499C135.4 88.6042 142.945 84.23 151.404 81.5586C155.911 80.137 160.637 79.4106 165.222 78.2233C172.338 76.3799 179.556 76.5049 186.804 76.7939C188.788 76.872 190.78 76.8095 192.991 76.8095C193.03 76.0206 193.311 75.2551 193.069 74.7552C189.991 68.522 190.967 62.6402 194.436 56.9225C195.342 55.4306 196.099 53.845 197.044 52.3765C200.341 47.2993 205.191 44.1514 210.886 42.7923C215.486 41.6988 220.314 41.9565 224.961 43.386C230.718 45.1513 236.139 47.682 241.458 50.4472C242.778 51.1345 243.966 52.0797 245.473 52.3218C245.723 52.2749 245.996 52.2906 246.184 52.1656C252.87 47.807 259.424 43.2922 265.259 37.762C268.688 34.5126 272.609 31.7787 276.397 28.9277C278.787 27.1311 281.263 25.4049 283.857 23.9286C286.45 22.4523 289.168 21.1557 291.949 20.0934C295.058 18.9061 298.338 19.0623 301.549 19.8122C302.486 20.0309 303.462 20.4995 304.197 21.1166C306.485 23.0381 308.852 24.9206 310.859 27.1233C317.28 34.1533 324.271 40.5427 331.778 46.3854C334.73 48.6897 337.589 51.1189 340.448 53.5403C345.603 57.8989 351.008 61.9138 356.515 65.8193C362.217 69.8576 367.763 74.1303 373.2 78.5279C377.496 82.0038 380.722 86.5186 384.018 90.9163C385.393 92.7519 386.025 94.9155 386.01 97.2432C385.978 100.743 386.213 104.258 385.924 107.733C384.893 120.184 383.463 132.58 380.315 144.719C379.12 149.312 377.558 153.748 375.402 158.107C376.324 159.474 377.129 160.708 377.972 161.911C381.55 167.027 385.158 172.12 388.712 177.252C391.001 180.556 392.696 184.165 394.016 187.961C394.844 190.343 395.344 192.757 395.43 195.288C395.688 202.653 393.469 209.035 388.072 214.175C386.892 215.3 386.525 216.651 386.517 218.221C386.494 224.22 386.377 230.211 386.408 236.21C386.424 238.733 386.111 241.154 385.533 243.615C384.002 250.176 382.792 256.815 381.261 263.369C378.402 275.57 373.856 287.185 368.583 298.519C367.318 301.237 366.052 303.932 365.56 306.947C365.326 308.407 364.662 309.798 364.162 311.204C361.819 317.789 359.46 324.365 357.124 330.95C355.117 336.598 352.891 342.159 350.243 347.541C343.4 361.437 337.698 375.825 331.84 390.142C330.426 393.595 329.512 397.25 328.395 400.82C328.255 401.281 328.317 401.804 328.278 402.296C328.208 403.14 329.208 404.319 330.036 404.413C332.059 404.632 334.011 404.413 335.98 403.554C336.363 403.015 336.933 402.468 337.191 401.804C339.542 395.696 343.338 390.385 346.587 384.776C349.86 379.129 354.18 374.239 358.601 369.49C362.514 365.288 366.716 361.359 370.794 357.305C373.137 354.977 375.972 353.399 378.917 352.024C381.925 350.618 385.065 350.001 388.392 350.736C390.337 351.165 392.329 351.415 394.266 351.915C396.93 352.602 399.39 353.712 401.718 355.274C409.263 360.335 409.318 360.265 413.739 368.131C415.207 370.74 416.723 373.31 418.504 375.731C419.972 377.723 421.136 379.972 422.23 382.206C426.393 390.72 433.095 397.071 440.023 403.226C441.156 404.234 442.484 404.874 444.022 405.132C448.717 405.929 453.24 407.335 457.582 409.272C459.012 409.912 460.418 410.154 461.933 410.014C463.675 409.858 465.425 409.787 467.167 409.592C471.947 409.069 476.251 407.592 480.18 404.546C490.889 396.243 500.809 387.166 509.245 376.543C511.565 373.614 513.549 370.419 515.705 367.358C519.149 362.452 522.602 357.555 526.062 352.657C536.521 337.879 544.363 321.772 550.433 304.76C551.776 301.003 553.065 297.222 554.229 293.402C557.673 282.162 559.876 270.664 561.634 259.049C564.407 240.686 564.516 222.197 564.407 203.7C564.36 196.202 563.454 188.75 562.219 181.345C561.313 175.924 560.493 170.495 559.72 165.059C558.595 157.131 557.048 149.288 554.799 141.618C551.018 128.691 547.214 115.763 542.067 103.289C540.341 99.1101 540.77 97.8525 544.395 95.0093C545.379 94.236 546.277 93.3221 547.363 92.7362C548.433 92.1582 549.659 91.7755 550.862 91.5411C552.385 91.2443 553.869 91.5177 554.932 92.83C556.51 94.7671 558.126 96.673 559.595 98.6883C563.719 104.336 567.789 110.022 571.85 115.709C572.577 116.724 573.217 117.802 573.811 118.895C582.02 134.096 589.05 149.773 593.19 166.629C593.667 168.566 594.315 170.464 594.877 172.378C595.37 174.049 595.948 175.705 596.33 177.408C598.986 189.351 601.743 201.271 603.657 213.37C603.774 214.112 603.774 214.878 603.977 215.596C607.031 226.54 607.039 237.835 607.719 249.036C608.687 265.033 608.328 281.037 606.438 296.949C604.579 312.571 602.314 328.138 598.713 343.487C596.768 351.767 594.073 359.796 591.62 367.92C587.496 381.581 581.919 394.665 576.154 407.663C573.428 413.81 569.866 419.582 566.851 425.612C563.5 432.33 559.743 438.798 555.596 445.039C555.041 445.874 554.471 446.702 554.026 447.593C550.354 455.013 545.316 461.567 540.731 468.401C537.396 473.377 533.779 478.157 529.6 482.493C527.366 484.812 525.304 487.312 522.734 490.218C521.953 494.178 520.883 498.786 520.188 503.45C519.633 507.176 518.438 510.706 517.525 514.323C515.869 520.853 514.025 527.328 512.229 533.827C509.167 544.903 505.394 555.745 501.481 566.54C500.293 569.82 498.833 573.007 497.528 576.249C496.849 577.952 496.661 579.6 498.005 581.154C498.473 581.693 498.723 582.466 498.95 583.169C499.45 584.739 498.723 586.973 497.45 587.903C496.849 588.348 496.247 588.887 495.56 589.106C492.748 589.973 491.881 592.183 491.326 594.738C490.67 597.768 490.99 600.533 492.295 603.447C496.81 613.562 502.879 622.67 509.706 631.317C515.291 638.386 520.336 645.791 524.484 653.805C525.32 655.414 525.859 656.992 525.828 658.78C525.765 661.772 526.093 664.842 525.554 667.748C524.14 675.34 523.195 683.01 521.305 690.548C518.337 702.405 515.947 714.411 513.189 726.323C512.291 730.205 510.776 733.954 509.917 737.844C508.081 746.147 505.488 754.216 502.879 762.293C501.192 767.518 499.637 772.783 498.02 778.032C496.482 783.031 494.935 788.03 493.412 793.037C490.779 801.723 486.437 809.534 481.344 817.001C479.328 819.962 476.837 822.274 473.861 824.211C466.815 828.796 459.152 831.585 450.795 832.389C448.811 832.577 446.788 832.733 444.811 832.537C439.844 832.045 434.844 831.592 429.947 830.663C425.487 829.811 421.027 829.405 416.535 829.585C407.998 829.913 399.671 831.436 391.751 834.787C386.01 837.216 380.284 839.646 374.809 842.707C369.591 845.629 363.998 847.832 358.132 849.261C355.718 849.847 353.367 850.722 351.008 851.526C347.189 852.823 343.307 853.627 339.245 853.33C338.003 853.237 336.753 853.081 335.503 853.112C330.707 853.229 326.052 852.495 321.506 850.956C319.858 850.401 318.163 850.011 316.593 849.573C313.336 851.3 310.063 852.385 306.446 852.307C304.439 852.26 302.463 852.174 300.549 851.479C298.909 850.886 297.237 850.339 295.55 849.894C288.582 848.058 281.724 848.222 275.03 851.151C272.976 852.05 270.882 852.87 268.789 853.682C265.516 854.955 262.517 856.611 259.666 858.728C253.854 863.04 247.824 867.055 241.841 871.132C237.178 874.311 232.03 875.928 226.336 875.881C218.744 875.819 212.503 868.562 212.237 862.766C211.995 857.463 212.292 852.245 214.19 847.269C215.877 842.848 217.658 838.443 220.111 834.357C222.165 830.936 224.094 827.429 226.234 824.062C227.703 821.75 229.398 819.571 231.069 817.4C233.507 814.244 236.014 811.143 238.498 808.019C238.982 807.659 239.474 807.292 239.958 806.933C240.599 806.331 241.263 805.753 241.872 805.121C241.989 804.996 242.021 804.566 241.919 804.488C241.607 804.23 241.216 803.933 240.841 803.918C240.146 803.894 239.521 804.183 239.201 804.886C238.482 805.253 237.748 805.644 237.014 806.027ZM375.715 183.313C375.48 182.954 375.668 181.814 374.723 182.767C375.035 182.97 375.348 183.165 375.66 183.368C375.754 183.759 375.824 184.173 375.972 184.547C376.027 184.68 376.316 184.86 376.418 184.813C376.965 184.602 377.121 184.196 376.769 183.86C376.488 183.602 376.074 183.493 375.715 183.313ZM251.206 727.682C252.058 727.596 252.573 727.112 252.815 726.315C253.8 726.01 254.682 725.51 255.104 724.542C255.495 723.636 255.651 722.628 256.034 721.714C256.901 719.644 258.572 718.644 260.752 718.699C261.97 718.73 263.251 718.933 264.384 719.371C265.524 719.808 266.547 720.589 267.578 721.292C268.399 721.855 269.141 722.527 269.937 723.128C270.383 723.464 271.64 723.323 272.023 722.925C274.28 720.605 276.272 717.926 278.842 716.028C287.762 709.435 297.581 704.616 308.469 702.179C311.383 701.523 314.249 700.616 317.296 700.64C324.037 700.695 330.793 700.327 337.417 702.038C339.253 702.515 340.854 702.085 342.166 700.64C347.9 694.297 354.594 689.103 361.624 684.299C363.686 682.893 365.748 681.479 367.771 680.019C370.2 678.269 372.715 676.605 374.98 674.653C377.324 672.637 378.784 670.028 378.706 666.795C378.675 665.521 378.386 664.272 377.269 663.483C373.965 661.155 371.341 658.148 368.669 655.164C368.013 654.43 367.201 653.844 366.56 653.274C350.149 655.539 348.852 654.906 330.106 650.149C329.473 651.087 328.7 652.055 328.13 653.125C326.607 655.992 325.115 658.874 323.701 661.803C321.303 666.763 318.514 671.497 315.335 675.98C312.594 679.839 309.907 683.768 306.852 687.369C303.634 691.173 300.408 695.024 296.456 698.14C294.3 699.835 292.082 701.444 289.863 703.061C284.185 707.193 278.241 710.779 271.437 712.825C267.125 714.13 262.806 715.286 258.314 715.762C257.096 715.895 255.893 716.184 254.542 716.434C254.018 718.223 253.456 719.863 253.081 721.55C252.761 722.995 252.651 724.479 252.464 725.963C251.542 726.229 251.144 726.838 251.3 727.791C250.706 727.791 249.941 727.635 250.597 728.65C250.808 728.338 251.003 728.01 251.206 727.682ZM364.482 145.031C363.061 144.836 363.061 144.836 363.381 143.594C362.577 143.719 362.022 143.328 361.483 142.774C354.906 136.017 348.345 129.237 341.705 122.543C339.44 120.262 336.972 118.185 334.574 116.044C333.972 115.505 332.894 115.552 332.684 116.13C332.441 116.787 332.199 117.568 332.356 118.2C332.512 118.864 333.051 119.505 333.574 119.997C339.167 125.269 344.752 130.557 350.415 135.752C353.703 138.767 357.124 141.633 360.507 144.539C361.483 145.375 362.108 145.141 363.397 143.602C363.1 144.071 361.928 143.875 362.327 144.813C362.584 145.422 363.155 145.891 363.928 145.297C364.115 145.156 364.35 145.078 364.561 144.977L364.459 145.406C364.459 145.398 364.514 145 364.482 145.031ZM266.11 274.836L266.211 274.687C265.118 275.445 264.142 276.257 264.618 277.819L264.68 277.694C264.235 277.741 263.657 277.624 263.368 277.858C261.931 279.046 260.478 280.256 260.119 282.256L260.166 282.201C259.346 282.717 258.385 283.092 257.744 283.779C253.323 288.497 248.972 293.285 244.59 298.042C238.693 304.447 232.843 310.899 226.859 317.226C223.961 320.296 220.782 323.1 217.775 326.068C214.526 329.271 210.722 331.552 206.457 333.106C205.762 333.356 205.02 333.543 204.418 333.942C204.137 334.129 204.098 334.746 204.043 335.176C204.02 335.363 204.207 335.723 204.363 335.762C205.551 336.074 206.754 336.519 207.957 336.574C211.518 336.723 214.822 335.66 217.97 334.059C222.602 334.692 227.226 335.465 231.882 335.934C237.654 336.512 243.341 335.629 248.316 332.692C253.37 329.708 258.205 326.232 261.658 321.264C262.556 320.405 263.509 319.601 264.337 318.679C265.165 317.757 265.68 316.476 266.641 315.773C271.109 312.493 274.46 308.079 278.506 304.377C282.552 300.675 286.458 296.8 291.105 293.816C295.933 290.715 300.791 287.669 306.001 285.224C312.562 282.147 318.796 278.475 324.927 274.632C338.214 266.329 346.892 254.566 351.243 239.545C352.571 234.976 353.203 230.305 353.789 225.587C355.437 212.292 354.18 199.185 351.633 186.157C350.173 178.705 346.915 171.979 342.783 165.668C340.846 162.716 338.636 160.052 334.839 159.302C333.941 159.122 333.199 158.24 332.363 157.709C331.27 157.021 330.379 156.24 330.536 154.772C330.653 153.631 332.316 152.952 334.285 153.366C335.246 153.569 336.214 153.866 337.089 154.303C338.417 154.975 339.573 155.998 341.143 156.115C341.541 156.732 341.83 157.49 342.369 157.943C349.001 163.606 353.219 170.941 356.601 178.775C358.077 182.189 358.804 185.914 360.116 189.406C362.155 194.858 362.858 200.591 363.217 206.27C363.733 214.479 363.545 222.736 363.553 230.969C363.553 232.687 363.162 234.421 362.826 236.132C361.616 242.271 359.585 248.106 356.984 253.832C354.601 259.081 351.985 264.142 348.704 268.868C343.369 276.546 337.175 283.264 328.528 287.357C326.052 288.528 323.724 290.012 321.318 291.325C315.195 294.676 309.04 297.972 302.947 301.385C300.557 302.721 298.276 304.26 295.987 305.775C293.62 307.345 292.261 309.478 291.386 312.297C287.044 326.349 282.88 340.464 277.881 354.305C276.358 358.523 274.905 362.796 273.882 367.154C272.288 373.942 271.007 380.808 269.765 387.666C268.922 392.314 268.328 397.016 267.68 401.703C267.336 404.171 266.985 406.639 266.844 409.123C266.461 415.849 266.157 422.574 265.883 429.299C265.821 430.822 267.141 431.932 268.875 431.939C273.616 431.963 278.358 431.978 283.099 431.924C284.075 431.908 285.052 431.572 286.02 431.385C286.747 431.564 287.481 431.932 288.192 431.885C293.66 431.486 299.127 431.01 304.587 430.533C305.517 430.455 306.399 429.51 306.493 428.534C306.743 426.05 306.735 423.527 307.235 421.098C308.899 413.037 310.5 404.944 313.226 397.165C315.124 391.759 317.507 386.518 319.35 381.097C322.81 370.904 327.481 361.265 332.254 351.657C334.363 347.416 336.698 343.292 338.823 339.05C341.721 333.247 344.424 327.349 347.361 321.569C352.781 310.884 357.859 300.057 361.936 288.77C364.998 280.303 367.497 271.703 369.06 262.838C369.364 261.65 369.825 260.479 369.942 259.276C370.528 253.339 370.747 247.356 371.63 241.467C372.372 236.514 372.723 231.57 372.731 226.602C372.762 216.916 373.512 207.184 371.294 197.608C370.723 188.828 367.794 180.603 365.303 172.276C364.787 170.542 363.795 169.183 362.623 167.863C360.639 165.637 358.788 163.294 356.742 161.122C352.828 156.974 349.399 152.366 344.916 148.765C344.603 147.257 343.799 146.031 342.713 144.961C338.292 140.602 333.894 136.236 329.473 131.885C329.13 131.542 328.708 131.206 328.263 131.057C327.841 130.917 327.333 131.026 326.747 131.026C326.56 132.744 326.372 134.439 326.161 136.408C325.318 135.986 324.474 135.838 324.154 135.353C323.201 133.916 322.459 132.346 321.631 130.831C321.272 121.333 321.498 122.832 324.623 115.787C324.826 115.334 325.044 114.888 325.247 114.435C327.724 109.038 327.895 103.516 326.81 97.7041C325.615 91.299 322.365 85.5891 321.139 79.2309C320.998 78.5201 320.553 77.8718 320.241 77.2C320.131 76.9735 319.983 76.7782 319.85 76.5673C319.905 75.4504 319.748 74.4193 318.71 73.7476L318.85 73.8413C317.616 69.0062 314.078 66.4833 309.68 65.007C305.65 63.6557 301.471 63.2807 297.221 63.8744C295.019 64.179 292.792 64.2962 290.582 64.5383C280.1 65.6865 271.195 70.1467 263.72 77.5047C262.681 78.5279 261.798 79.7777 261.587 81.3321L261.736 81.254C260.806 81.418 260.361 82.0507 260.111 82.8865L260.213 82.7459C259.744 83.3317 259.275 83.9254 258.814 84.5112C258.603 84.6284 258.307 84.6908 258.197 84.8627C255.948 88.5105 253.714 92.166 251.503 95.845C251.269 96.2356 251.253 96.7511 251.136 97.212C249.769 98.9304 248.418 100.649 247.043 102.352C246.278 103.297 245.512 104.258 244.661 105.125C243.575 106.218 241.482 106.163 239.982 105.039C239.607 104.757 239.365 104.297 239.06 103.914C239.209 102.117 239.755 100.555 241.294 99.3991C243.083 98.0634 245.036 96.8527 246.075 94.7671C246.246 94.4312 246.043 93.8532 245.895 93.4314C245.84 93.2674 245.465 93.1034 245.247 93.119C244.27 93.2049 243.255 93.2283 242.325 93.5173C238.178 94.814 234.053 94.814 229.788 94.0094C226.625 93.4158 223.344 93.1112 220.134 93.2283C216.4 93.3611 212.838 91.5958 209.042 92.5644C208.199 92.7831 207.129 92.1582 206.183 91.877C204.762 91.4552 203.379 90.8303 201.926 90.557C194.568 89.1744 187.132 88.7526 179.657 88.4323C168.714 87.9559 159.137 91.8458 149.952 97.0636C146.718 98.8992 143.773 101.25 140.789 103.5C139.211 104.687 137.766 106.093 136.392 107.523C135.009 108.952 133.83 110.569 132.494 112.053C130.174 114.638 128.034 117.372 124.933 119.216C123.511 120.067 122.425 121.614 121.418 123.004C119.668 125.418 118.051 127.941 116.458 130.464C115.528 131.932 114.567 133.424 113.935 135.033C112.466 138.736 111.17 142.508 109.842 146.258C107.561 152.71 106.999 159.365 107.577 166.145C108.162 172.956 110.115 179.322 113.927 185.055C114.396 185.766 115.755 186.071 116.637 185.68C117.809 185.165 118.723 184.438 119.223 183.165C119.512 182.431 120.215 182.321 121.027 182.626C121.699 182.876 122.636 183.173 123.175 182.899C127.674 180.579 132.634 179.876 137.43 178.572C139.165 178.463 140.922 178.517 142.617 178.205C146.288 177.533 149.889 176.33 153.584 175.955C161.762 175.127 169.94 174.073 178.196 174.534C179.438 174.604 180.68 174.721 181.922 174.862C185.39 175.26 188.858 175.643 192.311 176.104C196.755 176.697 201.208 177.252 205.441 178.853C214.994 182.462 224.618 185.883 233.96 190.031C236.928 191.351 239.982 192.437 243.223 192.858C247.145 194.702 251.128 195.702 255.44 194.108C256.58 193.686 257.885 193.6 259.119 193.546C263.649 193.358 268 192.179 272.226 190.726C276.694 189.187 281.037 187.195 284.325 183.571C288.176 179.337 291.996 175.065 295.831 170.816C296.831 169.706 297.784 168.558 299.276 168.035C300.783 167.512 301.666 166.316 302.361 164.95C303.822 162.059 305.196 159.13 306.759 156.295C307.962 154.116 309.875 153.17 312.406 153.795C312.617 154.615 312.836 155.443 313.047 156.264C312.922 157.248 312.672 158.24 312.695 159.224C312.797 163.731 312.554 168.191 311.391 172.581C310.82 174.745 310.422 176.955 310.039 179.166C309.742 180.868 309.125 182.563 309.657 184.329C309.297 184.969 308.743 185.571 308.61 186.258C308.024 189.195 307.579 192.148 307.063 195.1C306.368 199.029 305.517 202.911 303.884 206.598C303.189 208.176 302.634 209.879 302.377 211.582C301.846 215.057 300.697 218.346 299.776 221.712C298.846 225.126 297.588 228.274 295.355 231.094C293.816 233.031 292.707 235.312 291.465 237.475C287.997 243.544 284.161 249.379 280.045 255.034C277.694 258.26 275.444 261.557 273.179 264.853C272.617 265.665 272.109 266.548 271.75 267.462C271.617 267.806 271.968 268.345 272.093 268.798L272.163 268.696C271.718 268.657 271.101 268.415 270.867 268.618C269.414 269.891 267.852 271.133 267.602 273.265L267.727 273.211C266.735 273.297 266.344 273.984 266.11 274.836ZM195.935 320.968C196.107 321.553 196.482 321.757 196.959 321.413C197.443 321.061 197.404 320.624 196.951 320.257C196.177 318.429 195.42 316.593 194.615 314.773C194.147 313.711 193.241 313.391 192.217 313.86C191.647 314.117 191.499 315.039 191.858 315.781C192.827 317.82 194.037 319.679 195.935 320.968ZM360.866 156.389C360.991 155.092 360.069 154.545 359.155 153.991C359.085 153.545 359.171 152.96 358.913 152.686C357.195 150.811 355.734 148.656 353.414 147.406C353.156 146.992 352.969 146.5 352.625 146.164C345.314 139.111 337.987 132.081 330.661 125.051C330.489 124.879 330.262 124.754 330.043 124.637C329.825 124.519 329.598 124.402 329.364 124.363C329.161 124.332 328.786 124.363 328.755 124.457C328.622 124.871 328.364 125.535 328.544 125.722C335.644 132.979 342.783 140.188 349.93 147.398C350.094 147.57 350.36 147.64 350.571 147.75C352.477 150.163 354.328 152.624 356.312 154.975C357.359 156.217 358.296 157.693 360.124 157.982C362.912 161.013 365.662 164.075 368.505 167.058C370.513 169.16 372.637 171.144 374.715 173.182C375.457 174.463 376.074 175.838 376.964 177.002C381.37 182.751 385.275 188.797 388.15 195.467C388.337 195.905 388.728 196.272 389.064 196.631C389.228 196.803 389.486 196.881 389.704 197.006C389.9 196.639 390.329 196.209 390.243 195.92C387.627 186.922 382.612 179.275 376.738 172.12C376.597 171.948 376.293 171.917 376.058 171.823C371.856 166.645 367.552 161.559 362.717 156.951C362.248 156.506 361.436 156.428 360.788 156.185L360.866 156.389ZM224.696 56.4304C224.282 56.1649 223.829 55.9383 223.454 55.6181C219.947 52.6577 215.877 52.2906 211.557 52.9545C210.683 53.0873 209.839 53.9934 210.3 54.3527C210.651 54.6261 210.979 55.0791 211.354 55.1182C215.807 55.5634 220.173 56.3289 224.289 58.1723C224.438 58.3598 224.547 58.6253 224.75 58.7269C228.609 60.6718 232.499 62.5387 235.475 65.8662C236.24 66.7254 237.451 67.2253 238.506 67.7799C238.881 67.9752 239.427 67.8502 239.888 67.8736C243.794 71.6542 248.535 74.2631 253.003 77.2547C253.456 77.5593 253.878 77.3328 254.096 76.7314C254.175 76.5205 254.237 76.2549 254.182 76.044C254.057 75.591 253.987 74.9817 253.659 74.7474C249.91 71.9901 246.27 69.0375 241.935 67.1863C236.818 62.6012 231.155 58.8753 224.696 56.4304ZM377.621 188.664C379.097 193.655 380.565 198.646 382.065 203.63C382.26 204.27 382.706 204.38 383.206 204.028C383.401 203.895 383.744 203.833 383.807 203.661C384.057 202.974 384.354 202.255 384.401 201.537C384.815 195.67 382.034 191.023 378.542 186.695C378.324 186.422 377.613 186.547 377.129 186.485C376.824 187.687 376.84 187.758 377.621 188.664ZM236.209 841.598C234.811 841.208 234.584 842.372 234.1 843.192C233.756 843.543 233.296 843.832 233.077 844.246C231.835 846.668 230.624 849.113 229.453 851.573C228.453 853.674 228.398 855.885 228.828 858.142C228.984 858.962 230.32 859.743 231.155 859.478C231.624 859.329 232.179 859.298 232.554 859.025C235.959 856.533 239.341 854.01 242.708 851.464C246.27 848.761 249.66 845.808 253.37 843.332C261.806 837.708 271.086 834.381 281.31 834.061C284.294 833.967 287.278 833.889 290.262 833.85C294.98 833.787 299.697 833.764 304.087 833.733C307.868 831.491 311.086 829.202 312.937 825.468C314.031 824.453 315.265 823.563 316.187 822.414C326.255 809.909 334.386 796.232 340.995 781.602C342.619 778.001 342.877 774.415 342.338 770.658C342.151 769.33 341.315 768.409 340.081 767.909C337.448 766.846 334.761 766.846 331.996 767.393C323.873 769.01 316.202 771.986 308.571 775.056C304.626 776.642 300.869 778.587 297.37 781.039C294.511 783.039 291.597 784.976 288.614 786.788C280.888 791.483 273.991 797.2 267.422 803.355C264.688 805.917 262.103 808.628 259.369 811.182C250.191 819.766 242.747 829.741 235.928 840.216C235.725 840.52 235.998 841.137 236.053 841.614L236.209 841.598ZM140.094 228.172C143.601 230.961 147.108 233.742 150.623 236.522C151.006 236.827 151.404 237.124 151.834 237.358C152.022 237.46 152.295 237.374 152.529 237.397C153.185 237.452 153.482 237.155 153.467 236.507C153.443 235.522 153.662 234.46 153.388 233.554C152.076 229.242 151.342 224.829 150.616 220.4C150.295 218.447 149.975 216.362 149.053 214.659C146.499 209.926 145.593 204.802 145.015 199.592C144.624 196.084 143.523 192.788 142.57 189.445C142.32 188.578 141.094 187.828 140.196 188.031C137.29 188.703 134.392 189.39 131.525 190.171C131.158 190.273 130.729 190.898 130.682 191.32C130.525 192.796 130.361 194.296 130.502 195.764C130.76 198.49 131.408 201.185 131.58 203.919C132.056 211.496 134.189 218.572 137.579 225.321C137.798 225.751 137.876 226.274 137.907 226.758C137.923 226.93 137.61 227.141 137.438 227.313C137.024 227.704 135.681 227.899 135.446 227.571C134.587 226.36 133.541 225.227 132.963 223.892C130.69 218.635 128.502 213.362 127.51 207.645C126.87 203.974 125.839 200.365 124.792 196.78C124.511 195.819 124.105 194.569 122.613 194.264C122.464 195.319 122.558 196.412 122.136 197.256C121.332 198.896 120.996 200.42 121.637 202.216C122.043 203.364 122.175 204.653 122.222 205.887C122.402 210.949 123.847 215.714 125.651 220.369C128.198 226.938 132.814 231.633 139.125 234.679C139.414 234.819 139.977 234.398 140.406 234.241C140.313 234.445 140.094 234.757 140.157 234.835C140.367 235.101 140.664 235.335 140.977 235.468C141.109 235.522 141.359 235.288 141.563 235.179C141.344 234.905 141.164 234.577 140.891 234.366C140.758 234.265 140.461 234.366 140.235 234.382C140.492 233.624 140.102 233.101 139.68 232.515C139.141 231.781 138.735 230.953 138.266 230.164C138.876 229.508 139.485 228.836 140.094 228.172ZM311.141 748.725C310.844 749.389 310.313 750.045 310.281 750.724C310.071 754.927 309.969 759.129 309.836 763.331C309.813 764.003 310.649 764.8 311.281 764.636C312.703 764.261 314.109 763.816 315.523 763.394C319.444 762.722 323.357 761.98 327.286 761.394C332.285 760.644 337.206 761.066 342.002 762.699C344.377 763.511 346.54 764.722 348.462 766.347C349.821 767.503 350.797 768.94 351.313 770.643C352.703 775.282 352.578 780.039 351.422 784.624C350.587 787.96 349.056 791.17 347.462 794.248C344.385 800.208 341.096 806.074 337.198 811.557C333.449 816.822 329.669 822.071 325.958 827.367C324.826 828.983 323.881 830.741 322.881 832.452C322.498 833.108 323.24 834.787 323.935 834.967C324.412 835.092 324.88 835.31 325.365 835.373C330.332 835.99 335.339 836.076 340.245 835.217C346.111 834.186 351.875 832.616 357.687 831.28C359.163 831.155 360.71 831.272 362.1 830.858C364.951 830.007 367.747 828.929 370.528 827.859C377.019 825.343 383.291 822.305 389.931 820.149C394.891 818.54 399.749 816.603 404.592 814.65C410.989 812.073 417.613 811.096 424.331 812.393C433.368 814.135 442.148 812.986 450.92 810.963C451.373 810.862 451.748 810.44 452.162 810.167C457.168 809.393 461.636 807.347 465.761 804.472C467.057 804.394 468.182 804.058 468.596 802.629C469.119 802.207 469.643 801.778 470.174 801.356C474.532 798.989 477.438 795.411 478.766 790.662C480.836 783.242 483.234 775.939 485.671 768.643C486.538 766.058 487.382 763.449 488.014 760.793C491.373 746.772 495.825 733.064 500.161 719.332C504.277 706.287 507.55 693.048 510.151 679.636C510.62 677.23 510.432 674.699 510.549 672.231C511.393 667.833 512.049 663.42 511.94 658.913C511.893 657.14 511.651 655.453 510.776 653.899C505.41 644.353 499.825 634.964 491.467 627.614C490.904 627.122 490.381 626.591 489.881 626.036C484.999 620.647 479.18 616.429 473.126 612.476C470.807 610.961 468.401 609.75 465.722 609.071C465.956 607.61 466.167 606.15 466.44 604.697C466.573 603.97 466.854 603.267 467.018 602.541C467.323 601.229 466.245 599.963 464.956 600.26C461.332 601.088 457.684 601.846 454.138 602.939C436.782 608.313 419.019 611.937 401.163 614.984C389.657 616.944 378.261 619.335 366.841 621.686C366.248 621.811 365.545 622.85 365.717 623.357C366.568 625.951 367.451 628.528 369.716 630.309C370.333 632.824 371.911 634.746 373.528 636.66C374.652 637.987 375.848 639.284 376.84 640.713C379.128 643.994 382.167 647.611 384.088 649.04C388.728 652.493 393.915 655 399.257 657.062C403.194 658.577 407.381 659.429 411.45 660.616C416.715 662.155 422.058 663.334 427.471 664.256C430.431 664.764 433.353 665.396 436.368 665.287C439.164 665.186 441.835 665.685 444.382 666.834C447.373 668.177 450.482 668.958 453.755 669.271C456.551 669.544 459.035 670.77 461.285 672.387C466.432 676.066 470.268 681.011 473.978 686.025C474.673 686.963 474.954 688.33 475.087 689.54C475.228 690.759 474.946 692.017 474.845 693.266C472.439 693.961 470.439 693.547 468.94 691.329C468.12 690.111 467.463 688.689 465.987 688.048C465.8 687.97 465.518 688.064 465.3 688.134C465.081 688.205 464.714 688.33 464.706 688.462C464.542 690.197 464.472 691.938 464.292 693.672C464.034 696.149 463.894 698.656 463.363 701.077C461.09 711.372 461.043 711.357 455.294 720.144C454.88 720.769 454.521 721.433 454.075 722.027C449.029 728.861 443.835 735.477 437.133 740.914C428.588 747.842 418.769 751.849 408.396 754.849C407.201 755.192 405.967 755.419 404.748 755.677C403.007 756.044 401.304 756.036 399.593 755.388C398.679 755.044 397.672 754.95 396.703 754.739L396.719 754.755C396.641 752.599 395.531 751.185 393.579 750.373C392.555 748.983 391.61 747.538 390.501 746.217C385.604 740.375 379.058 737.75 371.715 736.852C366.748 736.251 361.858 737.079 356.929 737.664C352.375 738.211 348.243 739.625 344.33 741.82C341.307 743.515 338.331 745.319 335.519 747.342C331.504 750.24 327.606 753.31 323.763 756.434C322.201 757.7 320.623 757.637 318.889 757.208C318.772 755.724 318.639 754.278 319.733 752.982C322.459 749.756 325.146 746.413 328.669 744.085C336.097 739.172 343.361 733.892 352.203 731.611C352.844 731.447 353.453 730.884 353.922 730.369C354.281 729.97 353.977 729.502 353.375 729.275C352.992 728.658 352.742 727.822 352.188 727.463C349.079 725.432 345.962 723.394 342.721 721.589C338.784 719.402 334.55 718.129 330.028 717.637C321.022 716.66 312.234 717.324 303.556 720.035C298.729 721.542 294.394 723.768 290.676 727.174C290.348 727.471 290.262 728.033 289.949 728.728C291.84 729.213 293.675 729.72 295.534 730.15C303.283 731.947 308.172 736.625 310.016 744.421C310.336 745.858 310.758 747.288 311.141 748.725ZM207.761 792.123C206.699 792.186 206.121 792.912 205.598 793.709C204.379 794.927 202.95 796.005 201.973 797.396C199.536 800.856 197.31 804.457 195.014 808.019C194.889 808.206 194.873 808.503 194.889 808.737C194.904 808.948 194.982 809.19 195.115 809.346C195.264 809.518 195.56 809.753 195.701 809.706C196.865 809.292 198.044 808.893 199.153 808.354C206.551 804.777 213.932 801.145 221.329 797.56C227.39 794.623 233.616 792.107 240.076 790.155C244.372 788.85 248.769 788.046 253.159 787.124C259.767 785.741 266.399 784.851 273.155 785.015C274.397 785.046 275.647 785.038 276.897 785.085C278.959 785.163 280.849 784.656 282.529 783.437C287.786 779.633 293.316 776.267 299.026 773.197C299.448 772.97 299.776 772.549 300.369 772.025C301.057 767.354 302.634 762.566 301.814 757.504C303.056 753.771 302.135 750.06 301.564 746.389C301.166 743.819 299.612 741.789 297.182 740.656C293.714 739.039 290.145 738.102 286.317 739.367C285.372 739.68 284.38 739.859 283.443 740.203C272.148 744.351 261.462 749.662 251.449 756.387C242.107 762.652 233.186 769.487 224.079 776.064C218.79 779.883 214.221 784.507 209.644 789.108C208.792 789.959 208.269 791.139 207.597 792.162L207.761 792.123ZM496.88 460.934C495.864 459.247 494.982 457.466 493.81 455.888C491.295 452.506 488.663 449.194 485.983 445.945C485.671 445.562 484.71 445.718 483.773 445.585C483.726 452.303 483.578 458.763 483.671 465.222C483.812 474.658 483.117 484.133 484.991 493.491C485.234 494.701 485.14 495.975 485.234 497.209C485.351 498.693 485.523 500.177 485.655 501.661C486.429 510.316 487.218 518.97 487.952 527.633C488.186 530.359 488.007 533.14 488.475 535.819C489.241 540.248 489.506 544.708 489.873 549.16C489.936 549.871 490.225 550.574 490.483 551.253C490.545 551.417 490.904 551.511 491.139 551.55C491.342 551.581 491.662 551.566 491.771 551.441C492.248 550.894 492.818 550.363 493.092 549.707C496.247 542.146 499.192 534.506 501.238 526.555C503.48 520.486 504.777 514.182 506.183 507.886C507.167 503.481 507.636 499.083 507.237 494.6C506.862 490.405 506.901 486.07 505.8 482.055C503.777 474.666 501.457 467.292 496.88 460.934ZM150.85 449.053C150.116 451.155 149.584 453.287 149.944 455.544C150.287 457.732 150.608 459.919 150.975 462.098C151.006 462.293 151.287 462.465 151.483 462.606C151.834 462.856 152.279 462.66 152.35 462.012C152.849 457.622 153.279 453.225 153.732 448.835C154.31 447.733 154.857 446.609 155.474 445.531C156.911 443.008 159.083 441.695 161.91 440.883C165.332 439.891 168.269 440.149 171.026 442.406C171.385 442.703 171.94 442.773 172.408 442.945C173.393 441.57 172.713 440.133 172.494 438.751C172.182 436.767 171.815 434.783 172.455 432.83C174.533 426.456 175.916 419.785 180.126 414.286C181.36 412.669 182.039 410.85 182.446 408.842C182.789 407.155 183.383 405.46 184.172 403.929C185.125 402.062 186.742 400.859 188.96 400.883C190.85 400.906 192.311 401.875 193.287 403.421C194.639 405.546 195.685 407.874 195.506 410.443C195.107 416.145 197.419 421.168 199.224 426.323C200.231 429.19 202.512 430.799 205.402 431.057C208.355 431.322 211.347 431.057 214.323 431.002C214.862 430.994 215.65 429.815 215.44 429.338C213.924 425.933 212.424 422.519 210.831 419.145C209.019 415.317 206.925 411.615 205.293 407.709C201.825 399.391 197.505 391.548 192.584 384.019C191.913 382.987 191.116 382.003 190.241 381.144C189.077 379.996 187.617 379.824 186.086 380.34C184.398 380.91 182.922 381.824 181.735 383.152C179.415 385.76 176.939 388.252 174.877 391.048C168.745 399.383 161.145 406.132 152.85 412.201C149.834 414.404 147.069 416.95 144.023 419.106C136.837 424.175 133.166 431.252 131.814 439.743C131.697 440.485 131.533 441.211 131.455 441.953C131.408 442.445 131.346 443 131.525 443.422C131.689 443.812 132.252 444.375 132.51 444.32C133.705 444.047 134.861 443.601 136.024 443.18C137.923 442.484 139.86 441.867 141.859 442.469C145.202 443.484 145.835 442.258 146.687 439.641C147.226 437.985 147.874 436.36 148.546 434.751C149.897 431.525 151.483 428.401 153.67 425.659C154.412 424.73 155.537 424.081 156.575 423.449C156.864 423.269 157.497 423.519 157.919 423.699C158.45 423.925 158.63 424.449 158.333 424.972C156.638 428.01 154.943 431.065 154.068 434.455C152.826 439.29 151.373 444.062 150.85 449.053ZM113.685 761.137C115.77 760.34 117.801 759.348 119.949 758.778C126.917 756.926 133.845 754.833 141.156 754.685C146.39 754.575 151.686 754.841 156.833 754.099C162.324 753.31 167.776 753.708 173.236 753.466C174.705 753.404 176.228 753.661 177.673 753.989C181.602 754.88 185.609 754.7 189.561 755.091C194.451 755.575 198.326 753.732 201.723 750.553C202.981 749.373 204.192 748.061 205.113 746.608C207.652 742.601 209.597 738.328 211.198 733.829C213.057 728.604 211.573 724.596 207.832 721.027C207.113 720.339 206.34 719.691 205.519 719.144C204.059 718.16 202.473 717.442 200.677 717.324C194.451 716.91 188.187 716.528 182.016 717.481C170.854 719.207 160.208 722.706 150.319 728.19C142.695 732.415 135.353 737.118 128.432 742.484C123.66 746.178 119.567 750.506 115.669 755.036C114.403 756.512 113.646 758.426 112.669 760.145C112.201 760.668 111.748 761.262 112.607 761.754C112.787 761.863 113.31 761.363 113.685 761.137ZM501.324 440.243C502.121 441.195 502.84 442.219 503.715 443.086C506.956 446.265 509.424 449.889 511.393 454.029C513.744 458.989 515.869 464.027 517.814 469.159C518.579 471.167 519.743 471.815 521.586 469.604C523.82 466.925 526.218 464.34 528.14 461.45C532.975 454.185 537.661 446.819 542.254 439.399C545.402 434.314 548.277 429.057 551.315 423.91C558.423 411.865 564.828 399.484 569.835 386.393C571.265 382.659 572.608 378.926 573.702 375.083C575.67 368.131 577.724 361.202 579.747 354.266C581.208 349.244 582.817 344.252 584.106 339.183C586.684 329.036 588.886 318.82 590.503 308.454C591.581 301.557 592.909 294.715 593.307 287.732C593.347 286.99 593.386 286.216 593.589 285.505C594.581 282.1 594.565 278.6 594.659 275.109C594.799 270.118 594.854 265.134 595.018 260.143C595.112 257.409 595.393 254.675 595.495 251.941C595.58 249.707 595.58 247.466 595.502 245.232C595.424 242.998 595.143 240.764 595.065 238.53C594.924 234.288 594.815 230.047 594.776 225.805C594.713 218.291 593.456 210.925 592.105 203.567C590.113 192.788 587.277 182.212 584.575 171.589C580.927 157.224 575.248 143.719 568.82 130.464C567.179 127.081 565.07 123.988 562.844 120.981C562.407 120.387 561.876 119.747 561.235 119.458C560.649 119.192 559.821 119.224 559.173 119.403C558.9 119.474 558.611 120.286 558.681 120.7C558.97 122.41 559.259 124.129 559.79 125.777C561.844 132.19 563.805 138.618 565.235 145.211C565.977 148.617 566.734 152.022 567.562 155.412C567.789 156.35 568.273 157.224 568.64 158.13C569.656 163.778 570.749 169.417 571.671 175.08C573.116 183.946 574.842 192.78 575.24 201.794C575.319 203.536 575.694 205.262 575.873 206.996C576.162 209.723 576.584 212.456 576.623 215.198C576.779 225.688 577.506 236.179 576.561 246.661C576.428 248.153 576.443 249.66 576.436 251.152C576.381 257.917 575.264 264.58 574.342 271.25C573.21 279.428 571.304 287.435 568.789 295.3C566.203 303.385 563.625 311.477 560.954 319.53C559.134 325.006 556.15 329.943 553.619 335.098C548.183 346.143 541.458 356.328 533.561 365.741C525.859 374.926 518.064 384.042 510.221 393.111C507.284 396.508 504.339 399.977 500.973 402.913C496.271 407.006 491.873 411.482 486.647 414.966C486.022 415.38 485.429 415.841 484.882 416.356C484.531 416.692 484.226 417.122 484.023 417.559C483.156 419.457 483.734 423.23 485.382 424.503C491.139 428.971 495.849 434.462 500.731 439.797C500.879 439.977 501.113 440.094 501.324 440.243ZM447.803 498.521C445.952 500.192 444.241 502.067 442.21 503.497C436.008 507.886 429.463 511.448 421.433 510.417C420.152 510.253 418.972 510.425 417.816 511.011C416.707 511.581 415.575 512.12 414.426 512.604C411.88 513.667 409.248 514.416 406.482 514.674C403.467 514.955 400.952 512.815 401.077 509.87C401.171 507.636 401.476 505.402 401.897 503.208C402.319 501.005 403.046 498.865 403.569 496.677C405.584 488.312 406.193 479.946 403.756 471.518C403.139 469.378 402.827 467.113 402.71 464.886C402.46 459.903 402.296 454.904 402.343 449.913C402.382 445.64 401.905 441.445 401.101 437.267C401.015 436.821 400.577 436.446 400.187 435.876C399.304 436.009 398.304 436.064 397.359 436.321C393.516 437.399 389.736 438.743 385.846 439.602C383.541 440.11 381.8 441.399 380.315 442.391C376.699 442.555 373.473 442.719 370.247 442.844C368.747 442.906 367.216 443.125 365.763 442.891C361.998 442.297 358.288 442.859 354.562 443.125C348.837 443.531 343.127 444.086 337.409 444.585C336.167 444.695 334.886 444.687 333.691 445C331.231 445.648 328.755 445.601 326.255 445.632C317.015 445.757 307.774 445.781 298.549 446.195C294.308 446.39 290.074 446.156 285.841 446.366C281.349 446.593 276.866 446.866 272.382 447.116C269.648 447.265 266.922 447.452 264.188 447.53C262.954 447.562 261.704 447.382 260.47 447.257C258.486 447.062 256.51 446.749 254.518 446.632C246.301 446.132 238.084 445.398 229.835 446.07C228.625 446.171 227.273 446.163 226.188 445.71C223.563 444.625 220.829 444.586 218.095 444.468C207.613 444 197.162 443.203 186.796 441.469C185.344 441.227 183.82 441.289 182.336 441.36C181.977 441.375 181.61 441.953 181.329 442.336C181.204 442.5 181.251 442.828 181.297 443.07C183.195 452.123 182.836 460.926 178.556 469.354C178.025 470.409 178.056 471.784 177.962 473.018C177.634 477.579 178.728 481.946 179.915 486.289C180.313 487.726 180.837 489.14 181.133 490.6C181.602 492.873 180.368 495.256 178.275 496.17C175.494 497.38 172.666 498.255 169.565 497.365C168.144 496.959 166.659 496.763 165.105 496.459C164.644 497.138 164.082 497.677 163.871 498.326C162.988 501.036 161.098 502.403 158.341 502.606C155.599 502.801 152.857 502.911 150.116 503.012C147.788 503.106 145.741 502.301 143.757 501.106C138.743 498.076 134.907 493.889 131.424 489.249C127.112 483.5 124.503 477.15 123.839 470.011C123.699 468.472 123.261 467.199 122.3 465.917C119.699 462.465 118.215 458.481 117.7 454.209C117.13 449.475 117.255 444.742 118.379 440.063C119.082 437.157 119.652 434.22 120.215 431.275C120.293 430.877 119.957 430.408 119.629 429.424C114.31 429.362 109.256 427.175 104.015 425.612C103.78 425.542 103.53 425.511 103.281 425.464C101.906 425.198 100.289 426.214 99.7968 427.667C99.4765 428.612 99.1328 429.557 98.9141 430.533C95.8288 444.234 93.8135 458.021 95.4851 472.112C95.6335 473.354 95.7194 474.596 95.8131 475.845C95.9772 478.079 96.2662 480.321 96.2662 482.555C96.2818 490.819 96.7036 499.029 99.125 507.012C99.3437 507.722 99.4609 508.472 99.5937 509.206C101.468 519.267 103.351 529.328 105.202 539.396C106.92 548.723 108.725 558.033 109.451 567.516C110.045 575.257 110.256 582.966 109.248 590.676C109.217 590.918 109.248 591.176 109.233 591.426C109.178 592.363 110.435 593.136 111.373 592.761C115.075 591.277 118.762 589.746 122.496 588.348C126.745 586.762 131.221 586.028 135.704 585.903C145.288 585.63 154.654 587.2 163.543 590.77C172.572 594.394 181.672 597.878 190.288 602.47C193.358 604.103 196.584 605.548 200.091 606.079C207.738 607.235 215.205 609.36 222.899 610.305C230.327 611.211 237.709 612.43 245.247 612.375C258.229 612.289 271.203 612.555 284.138 613.898C294.12 614.937 304.103 614.117 314.031 613.039C320.475 612.336 326.88 611.227 333.293 610.25C335.761 609.875 338.222 609.43 340.651 608.868C357.921 604.884 375.355 601.775 392.813 598.752C401.171 597.307 409.568 596.003 417.652 593.339C422.659 591.691 427.799 590.652 432.978 589.926C442.929 588.536 452.482 585.708 461.863 582.255C466.55 580.529 471.205 578.756 476.095 577.639C476.516 577.545 476.86 577.108 477.477 576.655C477.532 575.874 477.758 574.882 477.649 573.929C477.055 568.719 476.548 563.501 475.712 558.33C474.033 547.949 473.111 537.522 473.103 527.016C473.103 524.774 473.15 522.501 472.837 520.283C471.642 511.878 471.4 503.379 470.447 494.943C469.354 485.289 468.463 475.572 468.338 465.816C468.307 463.316 468.284 460.817 468.049 458.333C467.463 452.108 467.292 445.874 467.393 439.633C467.424 437.384 467.448 435.134 467.401 432.892C467.346 430.572 465.167 428.667 462.917 428.917C460.918 429.143 458.965 429.588 457.262 430.713C456.887 430.955 456.598 431.479 456.489 431.924C456.372 432.385 456.434 432.931 456.559 433.408C457.629 437.524 458.856 441.68 458.84 445.906C458.824 450.413 459.34 454.857 459.465 459.333C459.52 461.317 459.192 463.309 459.02 465.3C458.574 470.292 456.731 474.986 455.841 479.884C455.161 483.602 453.997 487.125 452.302 490.499C451.63 491.827 451.091 493.225 450.49 494.584C449.014 495.475 448.178 496.834 447.803 498.521ZM406.545 738.586C413.106 734.587 419.3 730.853 425.44 727.041C426.705 726.26 427.846 725.253 428.947 724.245C435.391 718.277 440.648 711.38 445.507 704.053C448.764 699.148 449.67 694.016 449.506 688.447C449.42 685.541 448.787 684.674 445.499 684.252C439.812 683.526 434.165 682.448 428.478 681.768C424.26 681.261 420.042 680.878 415.91 679.823C411.31 678.652 406.795 677.238 402.327 675.652C398.664 674.348 398.273 674.488 396.555 677.839C393.954 682.893 389.954 686.572 385.299 689.611C379.448 693.43 373.434 697.008 367.24 700.242C362.78 702.569 358.796 705.545 354.953 708.74C354.461 709.154 354.273 709.935 353.875 710.661C358.335 714.434 362.85 718.004 365.662 723.003C370.856 723.573 375.816 724.073 380.768 724.675C386.041 725.323 390.993 726.916 395.406 729.97C397.664 731.533 399.984 733.001 402.179 734.649C403.546 735.673 404.748 736.946 406.545 738.586ZM412.302 464.137C412.88 464.082 413.497 464.207 413.825 463.957C416.621 461.801 419.683 461.512 423.042 462.223C425.573 462.754 426.51 462.153 426.252 458.919C425.995 455.685 425.666 452.459 425.432 449.225C425.362 448.241 425.463 447.241 425.541 446.257C425.604 445.484 426.768 444.359 427.627 444.429C428.307 444.484 429.166 444.734 429.58 445.21C430.212 445.937 430.666 446.898 430.947 447.835C431.587 449.983 432.072 452.178 432.61 454.357C432.728 454.841 432.775 455.341 432.884 455.826C433.228 457.31 434.274 458.075 435.563 457.497C438.914 455.997 442.249 455.748 445.733 457.013C447.186 457.536 447.944 456.615 447.498 455.06C446.678 452.186 445.936 449.28 445.014 446.437C443.554 441.93 442.187 437.376 440.359 433.017C439.398 430.721 438.18 428.698 438.211 426.034C438.227 424.394 437.453 422.613 436.633 421.113C435.212 418.497 433.673 415.911 431.478 413.802C427.526 409.998 423.589 406.179 419.668 402.335C417.887 400.594 415.996 398.93 414.45 396.993C408.513 389.603 402.593 382.199 398.101 373.77C397.297 372.255 396.164 370.849 394.953 369.631C394.118 368.787 392.938 368.178 391.806 367.764C387.658 366.241 383.924 367.233 380.722 370.091C379.245 371.404 378.011 373.013 376.824 374.606C373.09 379.605 369.474 384.682 365.74 389.682C362.592 393.892 359.858 398.352 357.312 402.937C356.71 404.023 356 405.14 355.797 406.319C355.367 408.897 353.914 410.904 352.563 412.998C349.993 416.981 347.415 420.957 344.877 424.964C344.478 425.589 344.135 426.456 344.728 427.026C345.181 427.464 346.001 427.714 346.658 427.706C348.649 427.682 350.672 427.659 352.625 427.323C356.578 426.644 360.553 426.425 364.545 426.315C365.795 426.284 367.037 426.198 368.279 426.105C369.653 426.003 370.528 425.316 370.575 423.73C370.669 420.793 371.825 418.426 373.879 416.434C375.152 415.2 376.441 413.911 376.808 412.177C377.746 407.788 380.651 404.015 380.683 399.344C380.69 398.649 381.089 397.891 381.487 397.282C382.596 395.626 383.643 393.884 385.01 392.462C386.705 390.689 389.986 390.705 391.673 392.861C392.579 394.017 393.243 395.415 393.79 396.79C396.305 403.14 400.218 408.584 404.78 413.568C406.397 415.333 407.357 417.106 407.107 419.582C406.99 420.754 407.264 422.129 407.81 423.168C410.677 428.573 411.263 434.58 412.544 440.407C412.747 441.328 412.505 442.359 412.435 443.336C412.286 445.32 411.997 447.296 411.966 449.28C411.896 453.521 411.927 457.763 411.966 462.012C411.974 462.723 412.185 463.434 412.302 464.137ZM264.688 53.8137C266.188 54.3527 267.781 54.9463 269.406 55.4931C271.289 56.1258 273.148 57.0319 275.085 57.2506C277.42 57.5162 279.232 55.7431 281.217 54.7589C287.793 51.486 294.73 49.7285 302.064 49.3067C307.719 48.9787 312.906 50.0878 317.749 53.1107C320.342 54.7354 322.662 56.5788 324.295 59.1409C325.63 61.2342 326.825 63.4448 327.833 65.7178C329.051 68.4438 329.825 71.373 331.106 74.0756C334.449 81.1368 336.214 88.6823 337.808 96.2356C338.433 99.196 339.292 101.977 340.542 104.656C347.767 110.874 354.344 117.7 360.553 124.879C363.818 128.651 366.826 132.643 370.036 136.463C370.395 136.884 371.348 136.798 372.223 136.994C374.176 127.784 375.316 118.669 376.019 109.483C376.222 106.788 375.598 103.976 376.98 101.399C377.191 101.008 377.105 100.399 376.996 99.9224C376.152 96.2434 375.012 92.6191 372.293 89.893C368.95 86.5343 365.537 83.2067 361.834 80.262C357.343 76.7001 352.524 73.5445 347.845 70.2248C345.603 68.6391 343.307 67.1238 341.12 65.4678C335.542 61.2499 329.95 57.0553 324.482 52.6967C320.975 49.9004 317.358 47.1353 314.351 43.839C309.93 38.9961 304.829 35.0672 299.596 31.2476C297.346 29.6072 294.948 29.6697 292.48 30.5524C291.785 30.8023 291.144 31.2241 290.535 31.6459C288.473 33.0519 286.348 34.3876 284.411 35.942C278.373 40.7771 272.398 45.698 266.407 50.5956C265.454 51.3532 264.415 52.1109 264.688 53.8137ZM71.3723 752.646C78.2304 749.74 85.7369 747.951 93.4464 747.116C98.6407 746.553 103.882 746.405 109.1 746.069C110.42 745.983 111.435 745.35 112.341 744.413C114.771 741.906 117.145 739.328 119.684 736.938C126.971 730.064 134.9 724.026 143.672 719.176C150.233 715.543 157.044 712.45 164.457 710.927C165.457 710.724 166.324 710.107 166.722 709.131C168.058 705.85 170.026 703.007 172.377 700.382C173.244 699.414 172.565 698.047 171.143 697.633C167.034 696.414 162.848 696.047 158.567 696.047C150.483 696.055 142.844 698.476 135.087 700.265C132.689 700.82 130.471 702.14 128.12 702.968C117.965 706.553 108.342 711.2 99.125 716.762C90.9547 721.691 83.4795 727.424 77.0353 734.509C72.0988 739.937 68.3104 746.03 65.7171 752.872C65.5453 753.318 65.5453 753.849 65.5453 754.341C65.5453 754.552 65.7093 754.802 65.8655 754.966C65.9983 755.099 66.2951 755.255 66.4123 755.192C67.9823 754.427 69.5211 753.615 71.3723 752.646ZM172.291 686.51C173.502 687.299 174.541 687.939 175.548 688.627C177.634 690.064 179.368 691.852 180.602 694.071C181.735 696.109 182.313 698.203 181.032 700.484C180.055 702.218 179.259 704.053 178.392 705.85C177.907 706.842 178.454 708.053 179.407 708.115C180.399 708.185 181.391 708.279 182.391 708.271C188.937 708.224 195.31 709.373 201.551 711.208C204.41 712.052 207.175 713.239 209.901 714.458C214.94 716.692 218.283 720.683 220.634 725.518C221.61 727.518 222.587 729.681 222.329 731.962C221.634 738.235 220.118 744.265 215.721 749.123C212.713 752.451 210.011 756.059 206.519 758.949C206.035 759.348 205.723 760.215 205.715 760.871C205.699 761.754 206.59 761.988 207.316 762.097C211.042 762.683 214.783 762.511 218.517 762.168C219.806 762.05 220.907 761.527 221.891 760.715C228.257 755.489 234.631 750.271 240.997 745.046C242.185 744.077 243.028 742.882 243.505 741.398C243.966 739.976 244.583 738.602 245.059 737.188C245.497 735.899 245.34 734.759 244.028 733.978C243.395 733.603 242.747 733.15 242.833 732.275C242.88 731.798 242.95 731.251 243.216 730.869C245.637 727.346 247.418 723.542 248.746 719.465C249.699 716.543 249.144 714.075 247.527 711.685C246.457 710.099 244.911 709.474 243.005 709.638C241.661 709.755 240.654 710.724 240.747 712.052C240.982 715.543 241.239 719.051 240.56 722.503C240.279 723.933 239.662 725.331 239.013 726.659C238.388 727.932 235.99 727.729 235.209 726.455C234.53 725.346 234.178 724.159 234.452 722.901C234.819 721.199 235.358 719.527 235.756 717.832C236.303 715.497 235.85 713.317 234.288 711.505C232.663 709.615 230.898 707.842 229.171 706.045C227.195 703.983 224.688 702.843 221.923 702.444C217.705 701.835 213.534 701.874 209.323 703.085C206.16 703.991 203.356 705.561 200.38 706.811C199.63 707.123 198.146 706.615 197.716 705.92C197.287 705.225 197.458 703.678 198.036 703.124C198.575 702.608 199.091 702.062 199.692 701.624C201.302 700.437 202.957 699.328 204.567 698.14C205.66 697.328 206.082 696.188 205.808 694.852C204.816 690.04 201.911 686.76 197.349 685.19C193.1 683.729 188.702 682.815 184.148 682.776C180.587 682.745 177.197 683.385 173.978 684.885C173.385 685.135 172.994 685.807 172.291 686.51ZM148.397 188.258C149.155 192.429 149.803 195.85 150.389 199.287C151.061 203.247 152.178 207.059 153.748 210.754C157.075 218.557 162.402 224.657 169.409 229.336C169.628 229.484 170.362 229.188 170.612 228.891C171.081 228.336 171.518 227.665 171.705 226.969C172.627 223.587 173.229 220.158 173.33 216.635C173.4 214.394 173.385 212.089 173.932 209.949C175.494 203.755 174.931 197.529 174.541 191.312C174.416 189.351 173.721 187.414 173.104 185.524C172.9 184.899 172.182 184.352 171.33 184.399C167.847 184.602 164.347 184.665 160.887 185.094C158.934 185.336 157.075 186.242 155.146 186.742C152.998 187.289 150.826 187.719 148.397 188.258ZM232.475 87.6669C237.295 88.0496 242.802 85.6126 248.402 83.6364C248.793 83.4958 249.207 82.949 249.285 82.5272C249.355 82.1601 249.074 81.5508 248.754 81.3165C245.52 79.0044 242.325 76.6298 238.974 74.4974C233.522 71.0371 227.968 67.7408 221.798 65.6709C218.728 64.6399 215.627 63.7103 212.354 63.765C207.339 63.8431 205.285 65.3116 203.418 70.0529C202.84 71.5292 203.012 72.9977 203.793 74.3568C204.285 75.216 204.957 75.9737 205.441 76.8407C208.05 81.4883 212.237 83.98 217.174 85.4017C221.72 86.7061 226.398 87.2997 232.475 87.6669ZM142.851 457.825C142.961 456.224 143.062 455.232 143.093 454.24C143.125 453.248 143.125 452.256 143.062 451.264C142.976 449.897 141.274 448.335 139.477 447.897C138.305 447.608 136.563 448.725 136.04 450.209C135.462 451.85 134.9 453.498 134.494 455.185C133.322 460.044 133.205 465.027 132.908 469.979C132.861 470.698 133.033 471.471 133.259 472.166C135.017 477.626 137.048 482.899 141.695 486.718C143.601 488.288 145.242 490.179 147.069 491.858C147.6 492.342 148.327 492.631 148.991 492.959C149.194 493.061 149.616 493.131 149.702 493.022C149.983 492.686 150.405 492.186 150.319 491.882C149.647 489.507 149.092 487.062 148.069 484.844C146.796 482.094 146.077 479.251 145.515 476.322C144.953 473.401 144.234 470.51 143.672 467.589C143.008 464.152 142.453 460.715 142.851 457.825ZM158.739 463.918C159.02 467.386 159.762 472.791 161.442 478.032C162.137 480.204 163.449 482.008 165.152 483.539C166.128 484.422 167.269 484.758 168.542 484.836C169.596 484.898 170.448 484.047 170.221 482.985C169.339 478.853 168.925 474.65 168.198 470.51C167.534 466.714 167.519 463.137 168.62 459.481C169.05 458.052 169.307 456.576 169.62 455.115C170.151 452.6 169.76 450.178 168.862 447.804C168.151 445.913 166.269 444.742 164.105 445.07C163.121 445.218 162.152 445.656 161.738 446.655C159.731 451.537 158.598 456.607 158.739 463.918ZM350.954 639.339C351.829 639.261 352.571 639.206 353.313 639.12C355.133 638.917 356.296 636.839 355.328 635.222C354.039 633.059 353.133 630.801 352.664 628.325C352.485 627.372 352.024 626.419 351.493 625.607C351.126 625.044 350.446 624.623 349.821 624.302C349.415 624.092 348.845 624.123 348.353 624.138C341.385 624.341 334.558 625.771 327.653 626.489C327.278 626.529 326.778 627.06 326.653 627.458C326.536 627.849 326.677 628.489 326.95 628.802C328.934 631.082 331.356 632.809 334.066 634.121C338.331 636.199 342.861 637.542 347.4 638.839C348.579 639.182 349.852 639.19 350.954 639.339ZM444.96 473.104C444.843 471.37 444.78 469.628 444.608 467.894C444.405 465.871 443.585 464.074 442.445 462.41C441.734 461.371 440.297 461.145 439.172 461.801C437.032 463.059 436.063 465.097 435.844 467.347C435.54 470.557 435.626 473.807 435.54 477.04C435.501 478.532 435.68 480.063 435.391 481.501C434.415 486.367 433.938 491.374 431.454 495.834C431.337 496.045 431.244 496.342 431.298 496.553C431.415 496.998 431.595 497.443 431.845 497.834C431.908 497.927 432.329 497.849 432.556 497.779C436.125 496.638 438.297 493.866 440.047 490.85C443.21 485.391 445.343 479.587 444.96 473.104ZM424.635 480.446C424.799 475.83 423.706 472.588 421.628 469.659C420.574 468.175 418.199 468.245 417.254 469.854C416.754 470.698 416.309 471.596 415.989 472.526C415.067 475.166 415.098 477.892 415.239 480.649C415.551 486.648 415.309 492.592 413.481 498.388C413.411 498.622 413.419 498.88 413.372 499.122C413.184 500.052 413.512 500.911 414.083 500.888C414.551 500.872 415.114 500.872 415.473 500.63C417.801 499.083 419.449 496.927 420.8 494.498C423.409 489.812 424.307 484.703 424.635 480.446ZM214.44 226.883C215.127 226.313 215.916 225.97 216.205 225.376C218.423 220.877 219.923 216.135 219.97 211.089C220.009 205.872 219.806 200.662 219.618 195.444C219.595 194.796 219.173 193.882 218.65 193.577C216.314 192.202 213.971 190.781 211.19 190.453C211.026 190.437 210.683 190.687 210.683 190.82C210.667 191.78 210.55 192.78 210.776 193.686C212.44 200.193 213.541 206.801 214.494 213.441C215.026 217.159 215.205 220.853 214.463 224.564C214.323 225.251 214.44 225.977 214.44 226.883ZM190.796 203.388C192.186 200.779 192.475 197.904 192.569 194.991C192.67 191.749 192.631 188.515 191.092 185.407C190.421 185.235 189.718 184.938 188.999 184.907C186.015 184.766 183.031 184.743 180.126 183.923C179.852 183.844 179.36 184.352 179.056 184.672C178.915 184.813 178.868 185.219 178.97 185.391C182.563 191.343 185.297 197.826 189.874 203.177C190.007 203.317 190.35 203.286 190.796 203.388ZM265.891 262.221C262.946 258.799 259.924 256.269 256.471 254.269C255.956 253.972 255.128 254.23 254.307 254.23C254.331 260.127 254.909 265.759 256.291 271.313C256.455 271.977 257.666 272.328 258.143 271.844C260.931 269.024 263.235 265.822 265.891 262.221ZM206.043 196.006C205.949 193.983 205.879 191.765 205.738 189.547C205.621 187.75 204.809 186.703 203.254 186.305C201.817 185.938 200.372 185.633 198.919 185.313C198.685 185.258 198.427 185.321 198.177 185.297C197.529 185.227 196.748 186.141 196.974 186.758C198.982 192.062 200.989 197.358 203.028 202.646C203.286 203.317 203.653 203.95 204.012 204.567C204.082 204.684 204.41 204.755 204.559 204.7C204.777 204.622 205.027 204.434 205.121 204.231C206.238 201.661 205.801 198.904 206.043 196.006ZM294.862 205.091C295.167 204.739 295.659 204.434 295.753 204.036C296.839 199.482 297.885 194.913 298.885 190.335C299.034 189.64 298.893 188.875 298.838 188.148C298.823 187.977 298.627 187.742 298.456 187.68C298.245 187.594 297.901 187.539 297.737 187.648C296.917 188.18 296.104 188.734 295.347 189.351C292.863 191.382 290.402 193.444 287.942 195.499C287.192 196.131 287.098 197.475 287.825 198.115C290.051 200.091 292.019 202.279 293.574 204.833C293.691 205.02 293.972 205.153 294.198 205.2C294.402 205.239 294.636 205.13 294.862 205.091ZM222.602 309.892C219.025 307.275 215.096 305.228 210.909 303.635C210.683 303.549 210.394 303.526 210.175 303.588C209.956 303.651 209.745 303.846 209.589 304.033C209.456 304.189 209.3 304.463 209.355 304.619C210.956 309.056 213.698 312.883 215.822 317.117C218.4 315.484 220.267 313.485 222.056 311.415C222.352 311.079 222.391 310.524 222.602 309.892ZM269.516 249.207C269.476 249.207 269.437 249.207 269.398 249.207C269.398 250.926 269.359 252.652 269.43 254.371C269.445 254.761 269.773 255.159 270.015 255.511C270.304 255.933 271.257 255.503 271.789 254.667C273.64 251.769 275.468 248.856 277.295 245.95C277.608 245.45 277.319 244.326 276.795 243.99C275.975 243.466 275.171 242.896 274.296 242.459C270.117 240.381 269.57 241.678 269.516 245.521C269.5 246.747 269.516 247.973 269.516 249.207ZM261.158 66.6707C263.579 65.9287 265.298 64.1243 267.133 62.5309C267.344 62.3512 267.25 61.328 267.071 61.2577C262.275 59.344 257.377 57.7974 251.863 57.5787C252.152 58.391 252.183 59.2034 252.605 59.5627C255.393 61.9685 258.26 64.2805 261.158 66.6707ZM242.7 290.504C242.231 289.942 241.997 289.419 241.591 289.216C238.943 287.864 236.272 286.56 233.577 285.31C233.233 285.146 232.538 285.224 232.296 285.474C232.007 285.771 231.843 286.412 231.944 286.833C232.702 289.966 233.522 293.082 234.381 296.183C234.499 296.621 234.959 296.964 235.389 297.503C238.232 295.55 240.693 293.254 242.7 290.504ZM199.771 316.078C200.677 319.179 202.247 321.702 204.645 323.756C204.949 324.022 205.676 324.162 205.996 323.983C208.347 322.694 210.659 321.335 212.94 319.921C213.237 319.741 213.245 319.101 213.385 318.671C208.855 317.804 204.324 316.945 199.771 316.078ZM232.007 300.815C228.859 298.831 226.063 296.152 221.727 297.761C222.54 299.503 223.266 301.081 224 302.643C224.703 304.143 224.516 306.166 226.578 306.939C228.617 305.197 230.859 303.619 232.007 300.815ZM254.19 277.421C251.206 275.226 249.793 274.609 246.168 274.062C245.918 274.023 245.262 274.711 245.309 274.984C245.801 278.14 246.379 281.28 246.965 284.427C246.996 284.599 247.223 284.732 247.356 284.881C247.793 284.685 248.371 284.615 248.644 284.279C250.488 281.998 252.73 280.014 254.19 277.421ZM228.812 204.747C228.812 202.614 228.812 201.63 228.812 200.646C228.812 198.022 227.789 197.115 224.649 196.584C224.407 196.545 223.758 197.209 223.805 197.475C224.375 201.115 225.36 204.645 226.828 208.028C226.914 208.231 227.141 208.434 227.351 208.52C227.562 208.598 228.039 208.574 228.054 208.512C228.406 206.887 228.718 205.262 228.812 204.747ZM265.508 729.01C265.251 728.627 265.079 728.072 264.72 727.893C263.79 727.424 262.775 727.541 261.869 728.018C258.502 729.76 255.799 732.251 253.745 735.43C253.636 735.602 253.589 736.032 253.659 736.071C254.073 736.282 254.643 736.665 254.948 736.524C258.775 734.774 262.298 732.532 265.43 729.705C265.563 729.588 265.485 729.252 265.508 729.01ZM239.38 212.605C239.498 209.363 239.552 206.215 238.834 203.224C237.146 201.833 235.561 200.826 233.296 202.052C234.67 205.575 236.014 208.996 237.826 212.214C237.974 212.472 238.654 212.433 239.38 212.605ZM198.56 305.947C198.7 304.619 198.029 303.447 197.162 303.057C196.498 302.76 195.787 302.494 195.076 302.385C194.646 302.323 194.053 302.463 193.74 302.744C193.451 303.002 193.248 303.643 193.365 304.002C193.944 305.884 194.717 307.704 196.232 309.048C196.443 309.235 197.333 309.11 197.427 308.9C197.951 307.79 198.318 306.619 198.56 305.947ZM264.259 206.372C262.525 205.879 260.869 206.184 259.353 207.082C259.096 207.239 258.916 208.137 259.088 208.309C260.095 209.348 261.158 210.363 262.314 211.23C263.368 212.019 264.688 211.246 264.969 209.855C265.212 208.59 265.04 207.442 264.259 206.372ZM218.689 246.77C218.486 246.536 218.361 246.278 218.181 246.216C217.736 246.067 217.252 245.935 216.791 245.927C214.213 245.896 212.963 247.637 213.791 250.184C213.87 250.426 214.729 250.715 214.908 250.574C216.244 249.551 217.509 248.434 218.775 247.309C218.853 247.231 218.705 246.888 218.689 246.77ZM249.308 215.753C249.519 214.62 249.793 213.683 249.832 212.738C249.886 211.535 249.761 210.316 249.691 209.105C249.652 208.457 248.832 207.949 248.082 208.074C245.793 208.449 245.215 209.355 245.934 211.535C246.309 212.683 246.629 213.894 247.246 214.909C247.535 215.37 248.473 215.432 249.308 215.753ZM197.412 296.542C197.412 295.66 197.443 295.16 197.404 294.668C197.255 292.832 196.63 292.106 194.701 291.707C194.272 291.621 193.662 291.739 193.342 292.012C193.053 292.262 192.912 292.856 192.951 293.27C192.998 293.738 193.264 294.215 193.53 294.621C194.076 295.449 194.654 296.261 195.303 297.019C195.599 297.37 196.076 297.581 196.498 297.808C196.912 298.019 197.404 297.152 197.412 296.542ZM280.092 238.163C280.896 237.756 281.638 237.569 282.068 237.1C282.537 236.585 282.802 235.827 283.005 235.124C283.185 234.499 283.45 233.507 283.161 233.234C282.732 232.828 281.841 232.82 281.146 232.828C280.279 232.835 279.834 233.515 279.826 234.273C279.811 235.491 279.982 236.71 280.092 238.163ZM207.917 260.924C207.98 260.096 207.347 259.635 206.472 259.862C205.73 260.057 205.152 260.424 205.129 261.283C205.113 262.103 205.535 262.619 206.301 262.846C207.004 263.056 207.527 262.619 207.8 261.635C207.863 261.408 207.878 261.166 207.917 260.924ZM265.048 342.917C265.594 342.823 265.985 342.854 266.032 342.737C266.493 341.667 266.938 340.581 267.258 339.464C267.313 339.269 266.618 338.605 266.469 338.66C265.087 339.222 264.032 340.198 264.009 341.776C264.001 342.198 264.759 342.628 265.048 342.917ZM199.474 274.929C199.216 275.257 198.786 275.57 198.755 275.921C198.724 276.312 198.943 276.937 199.247 277.109C200.169 277.632 200.185 276.655 200.466 276.179C200.583 275.984 200.684 275.578 200.606 275.523C200.263 275.273 199.856 275.117 199.474 274.929ZM198.185 322.983C198.036 323.116 197.794 323.233 197.779 323.373C197.763 323.514 197.982 323.686 198.099 323.842C198.247 323.709 198.49 323.592 198.505 323.452C198.521 323.303 198.302 323.139 198.185 322.983Z" fill="#070705"/>
<path d="M264.689 53.8134C264.416 52.1184 265.454 51.3608 266.415 50.5718C272.406 45.6743 278.374 40.7533 284.42 35.9183C286.365 34.3639 288.489 33.0282 290.544 31.6222C291.161 31.2004 291.801 30.7786 292.489 30.5287C294.957 29.646 297.355 29.5835 299.604 31.2238C304.838 35.0513 309.938 38.9802 314.36 43.8153C317.367 47.1037 320.975 49.8767 324.49 52.673C329.958 57.0238 335.551 61.2261 341.128 65.4441C343.315 67.1 345.612 68.6154 347.853 70.201C352.532 73.5207 357.352 76.6764 361.843 80.2383C365.545 83.183 368.959 86.5105 372.302 89.8693C375.02 92.5954 376.161 96.2197 377.004 99.8987C377.114 100.375 377.199 100.984 376.989 101.375C375.606 103.953 376.231 106.765 376.028 109.459C375.325 118.653 374.184 127.769 372.232 136.97C371.357 136.775 370.396 136.861 370.045 136.439C366.834 132.619 363.827 128.628 360.562 124.855C354.352 117.677 347.775 110.85 340.55 104.632C339.3 101.953 338.441 99.1723 337.816 96.2119C336.215 88.6508 334.457 81.1131 331.114 74.0519C329.833 71.3571 329.06 68.4279 327.841 65.6941C326.834 63.421 325.639 61.2105 324.303 59.1171C322.67 56.5629 320.343 54.7117 317.757 53.087C312.914 50.0563 307.728 48.955 302.073 49.283C294.738 49.7048 287.802 51.4623 281.225 54.7351C279.241 55.7193 277.429 57.4924 275.093 57.2269C273.156 57.0082 271.297 56.1021 269.415 55.4694C267.79 54.946 266.189 54.3446 264.689 53.8134Z" fill="white"/>
<path d="M138.261 230.173C138.729 230.962 139.135 231.79 139.674 232.524C140.096 233.102 140.487 233.633 140.229 234.391L140.401 234.242C139.963 234.398 139.409 234.82 139.12 234.68C132.816 231.633 128.192 226.939 125.646 220.37C123.841 215.714 122.396 210.95 122.217 205.888C122.17 204.654 122.045 203.365 121.631 202.217C120.99 200.42 121.318 198.897 122.131 197.257C122.545 196.413 122.459 195.32 122.607 194.265C124.091 194.562 124.505 195.82 124.786 196.78C125.833 200.366 126.864 203.974 127.505 207.646C128.504 213.363 130.684 218.636 132.957 223.893C133.535 225.228 134.589 226.361 135.441 227.572C135.675 227.9 137.019 227.704 137.433 227.314C137.612 227.142 137.917 226.931 137.901 226.759C137.87 226.275 137.784 225.752 137.573 225.322C134.183 218.573 132.051 211.496 131.574 203.92C131.402 201.194 130.754 198.499 130.496 195.765C130.356 194.304 130.52 192.797 130.676 191.32C130.723 190.899 131.152 190.274 131.52 190.172C134.394 189.399 137.292 188.704 140.19 188.032C141.088 187.821 142.322 188.571 142.564 189.446C143.517 192.797 144.619 196.093 145.009 199.592C145.587 204.802 146.493 209.919 149.048 214.66C149.969 216.363 150.29 218.448 150.61 220.401C151.336 224.83 152.07 229.243 153.383 233.555C153.656 234.461 153.437 235.515 153.461 236.507C153.476 237.156 153.18 237.453 152.524 237.398C152.289 237.382 152.016 237.46 151.828 237.359C151.399 237.125 151 236.828 150.618 236.523C147.103 233.742 143.595 230.954 140.096 228.181C140.104 228.189 139.487 228.134 139.487 228.134C138.893 227.9 138.589 226.939 137.628 227.572C137.12 227.907 137.003 228.103 136.987 228.696C136.964 229.876 137.932 229.571 138.464 229.907L138.261 230.173Z" fill="white"/>
<path d="M148.402 188.258C150.832 187.719 153.003 187.289 155.143 186.735C157.073 186.235 158.932 185.329 160.884 185.087C164.337 184.657 167.844 184.602 171.328 184.392C172.179 184.345 172.898 184.884 173.101 185.516C173.718 187.407 174.413 189.352 174.538 191.304C174.929 197.522 175.491 203.747 173.929 209.942C173.39 212.09 173.398 214.394 173.327 216.628C173.218 220.151 172.624 223.58 171.703 226.962C171.515 227.657 171.078 228.321 170.609 228.883C170.359 229.18 169.625 229.477 169.406 229.329C162.4 224.65 157.073 218.549 153.745 210.746C152.167 207.051 151.058 203.24 150.386 199.279C149.808 195.858 149.16 192.437 148.402 188.258Z" fill="white"/>
<path d="M232.476 87.6668C226.407 87.2997 221.72 86.7061 217.166 85.3938C212.229 83.98 208.043 81.4805 205.434 76.8329C204.95 75.9659 204.278 75.2082 203.786 74.349C203.012 72.9899 202.833 71.5292 203.411 70.0451C205.278 65.3038 207.332 63.8353 212.347 63.7572C215.619 63.7025 218.728 64.632 221.79 65.6631C227.961 67.733 233.515 71.0293 238.967 74.4896C242.318 76.622 245.512 78.9966 248.746 81.3086C249.066 81.5352 249.34 82.1522 249.277 82.5193C249.199 82.9411 248.785 83.4879 248.395 83.6285C242.802 85.6125 237.295 88.0496 232.476 87.6668Z" fill="white"/>
<path d="M214.445 226.884C214.445 225.978 214.328 225.252 214.461 224.572C215.203 220.862 215.023 217.167 214.492 213.449C213.539 206.81 212.438 200.202 210.774 193.695C210.539 192.789 210.664 191.782 210.68 190.829C210.68 190.696 211.032 190.438 211.188 190.461C213.968 190.782 216.312 192.203 218.647 193.586C219.171 193.898 219.592 194.804 219.616 195.453C219.803 200.663 220.006 205.88 219.967 211.098C219.928 216.144 218.421 220.886 216.202 225.385C215.913 225.971 215.125 226.314 214.445 226.884Z" fill="white"/>
<path d="M190.796 203.388C190.343 203.287 190.008 203.318 189.875 203.169C185.29 197.827 182.556 191.344 178.971 185.384C178.869 185.212 178.924 184.806 179.056 184.665C179.369 184.353 179.853 183.837 180.127 183.915C183.04 184.735 186.024 184.759 189 184.899C189.719 184.931 190.422 185.235 191.093 185.399C192.632 188.5 192.671 191.734 192.57 194.983C192.484 197.905 192.187 200.779 190.796 203.388Z" fill="white"/>
<path d="M363.408 143.603C362.111 145.141 361.486 145.376 360.51 144.54C357.128 141.634 353.707 138.76 350.418 135.753C344.755 130.558 339.17 125.27 333.577 119.998C333.054 119.505 332.515 118.865 332.359 118.201C332.21 117.568 332.445 116.787 332.687 116.131C332.898 115.553 333.984 115.514 334.577 116.045C336.975 118.193 339.444 120.263 341.709 122.544C348.348 129.238 354.909 136.018 361.486 142.775C362.025 143.329 362.58 143.72 363.377 143.587L363.408 143.603Z" fill="white"/>
<path d="M265.896 262.221C263.241 265.829 260.928 269.024 258.148 271.852C257.679 272.328 256.461 271.977 256.297 271.32C254.922 265.767 254.336 260.135 254.312 254.238C255.133 254.238 255.961 253.98 256.476 254.277C259.929 256.268 262.952 258.799 265.896 262.221Z" fill="white"/>
<path d="M206.044 196.008C205.802 198.898 206.24 201.663 205.131 204.24C205.045 204.443 204.787 204.623 204.568 204.709C204.42 204.764 204.092 204.693 204.021 204.576C203.662 203.951 203.295 203.319 203.037 202.655C201.006 197.367 198.991 192.063 196.984 186.767C196.749 186.15 197.538 185.236 198.186 185.306C198.429 185.33 198.686 185.267 198.929 185.322C200.374 185.634 201.826 185.939 203.264 186.314C204.818 186.712 205.63 187.759 205.748 189.556C205.88 191.766 205.951 193.992 206.044 196.008Z" fill="white"/>
<path d="M222.603 309.893C222.384 310.525 222.353 311.08 222.064 311.416C220.283 313.486 218.416 315.485 215.83 317.118C213.706 312.884 210.964 309.057 209.363 304.62C209.308 304.472 209.464 304.198 209.597 304.034C209.746 303.847 209.956 303.659 210.183 303.589C210.402 303.527 210.698 303.55 210.917 303.636C215.096 305.229 219.025 307.276 222.603 309.893Z" fill="white"/>
<path d="M350.589 147.758C350.37 147.641 350.104 147.571 349.94 147.407C342.793 140.197 335.654 132.988 328.554 125.731C328.374 125.544 328.632 124.88 328.765 124.466C328.796 124.38 329.171 124.341 329.374 124.372C329.608 124.411 329.843 124.528 330.053 124.645C330.272 124.763 330.491 124.888 330.671 125.059C337.997 132.089 345.324 139.127 352.635 146.173C352.979 146.501 353.166 146.993 353.424 147.415C352.471 147.524 351.526 147.641 350.589 147.758Z" fill="white"/>
<path d="M269.516 249.209C269.516 247.982 269.5 246.748 269.516 245.522C269.57 241.679 270.117 240.382 274.296 242.46C275.171 242.889 275.975 243.46 276.796 243.991C277.319 244.327 277.616 245.451 277.295 245.951C275.468 248.865 273.64 251.771 271.789 254.668C271.257 255.504 270.305 255.926 270.016 255.512C269.773 255.161 269.445 254.762 269.43 254.372C269.367 252.653 269.398 250.935 269.398 249.209C269.437 249.209 269.477 249.209 269.516 249.209Z" fill="white"/>
<path d="M261.158 66.6722C258.261 64.282 255.394 61.9699 252.605 59.5641C252.184 59.197 252.152 58.3924 251.863 57.5801C257.378 57.7988 262.275 59.3454 267.071 61.2591C267.251 61.3294 267.345 62.3526 267.134 62.5323C265.298 64.1179 263.58 65.9223 261.158 66.6722Z" fill="white"/>
<path d="M242.7 290.505C240.693 293.255 238.232 295.559 235.397 297.504C234.967 296.957 234.506 296.621 234.389 296.184C233.53 293.083 232.718 289.966 231.952 286.834C231.851 286.42 232.015 285.772 232.304 285.475C232.546 285.225 233.241 285.147 233.585 285.311C236.279 286.561 238.951 287.865 241.599 289.216C241.997 289.42 242.231 289.943 242.7 290.505Z" fill="white"/>
<path d="M376.07 171.84C376.297 171.934 376.609 171.965 376.75 172.137C382.624 179.292 387.638 186.939 390.255 195.937C390.341 196.218 389.903 196.656 389.716 197.023C389.497 196.898 389.24 196.82 389.075 196.648C388.74 196.288 388.349 195.921 388.162 195.484C385.287 188.813 381.382 182.768 376.976 177.019C376.086 175.855 375.469 174.48 374.727 173.191C375.172 172.738 375.625 172.285 376.07 171.84Z" fill="white"/>
<path d="M199.773 316.078C204.335 316.945 208.866 317.804 213.396 318.664C213.255 319.093 213.24 319.734 212.951 319.913C210.67 321.327 208.358 322.686 206.007 323.975C205.679 324.155 204.96 324.014 204.655 323.749C202.25 321.702 200.672 319.171 199.773 316.078Z" fill="white"/>
<path d="M376.067 171.84C375.614 172.285 375.169 172.738 374.724 173.191C372.654 171.153 370.522 169.169 368.514 167.067C365.671 164.091 362.921 161.022 360.133 157.991C360.359 157.389 360.578 156.796 360.797 156.194C361.453 156.444 362.265 156.522 362.726 156.96C367.569 161.568 371.865 166.661 376.067 171.84Z" fill="white"/>
<path d="M232.01 300.815C230.862 303.62 228.62 305.197 226.581 306.939C224.519 306.166 224.714 304.135 224.003 302.643C223.269 301.081 222.543 299.511 221.73 297.761C226.066 296.144 228.862 298.824 232.01 300.815Z" fill="white"/>
<path d="M254.191 277.422C252.731 280.015 250.489 281.999 248.638 284.28C248.372 284.608 247.786 284.686 247.349 284.881C247.216 284.733 246.99 284.6 246.958 284.428C246.38 281.288 245.795 278.14 245.302 274.985C245.263 274.711 245.912 274.024 246.162 274.063C249.794 274.61 251.208 275.227 254.191 277.422Z" fill="white"/>
<path d="M377.133 186.492C377.617 186.555 378.328 186.43 378.547 186.703C382.038 191.03 384.819 195.67 384.405 201.544C384.35 202.263 384.061 202.974 383.811 203.669C383.749 203.841 383.405 203.895 383.21 204.036C382.702 204.387 382.257 204.278 382.069 203.637C380.57 198.654 379.101 193.663 377.625 188.687C377.875 187.867 377.711 187.133 377.133 186.492Z" fill="white"/>
<path d="M239.899 67.8739C239.431 67.8504 238.892 67.9754 238.517 67.7801C237.455 67.2256 236.252 66.7256 235.486 65.8664C232.518 62.5389 228.628 60.6799 224.762 58.7271C224.566 58.6256 224.457 58.36 224.301 58.1725C224.434 57.5867 224.566 57.0087 224.699 56.4229C231.159 58.8677 236.822 62.5936 241.946 67.1787C241.266 67.4208 240.579 67.6473 239.899 67.8739Z" fill="white"/>
<path d="M228.813 204.747C228.712 205.263 228.407 206.895 228.056 208.512C228.04 208.567 227.571 208.598 227.353 208.52C227.142 208.442 226.915 208.239 226.829 208.028C225.361 204.646 224.369 201.115 223.806 197.475C223.767 197.217 224.416 196.546 224.65 196.585C227.79 197.116 228.813 198.03 228.813 200.646C228.813 201.631 228.813 202.615 228.813 204.747Z" fill="white"/>
<path d="M239.898 67.8739C240.586 67.6474 241.265 67.4209 241.953 67.1865C246.288 69.0377 249.928 71.9825 253.677 74.7476C253.997 74.982 254.076 75.5912 254.2 76.0443C254.255 76.2474 254.193 76.5129 254.115 76.7316C253.888 77.3331 253.474 77.5596 253.021 77.255C248.537 74.2633 243.796 71.6544 239.898 67.8739Z" fill="white"/>
<path d="M239.382 212.605C238.647 212.433 237.968 212.472 237.827 212.207C236.015 208.988 234.672 205.567 233.297 202.044C235.562 200.826 237.148 201.826 238.835 203.216C239.554 206.215 239.499 209.363 239.382 212.605Z" fill="white"/>
<path d="M224.698 56.4306C224.565 57.0165 224.432 57.5945 224.3 58.1803C220.183 56.3369 215.817 55.5714 211.364 55.1262C210.989 55.0871 210.654 54.6263 210.31 54.3607C209.849 54.0014 210.693 53.0953 211.568 52.9625C215.879 52.3064 219.957 52.6735 223.464 55.6261C223.831 55.9385 224.284 56.1651 224.698 56.4306Z" fill="white"/>
<path d="M360.799 156.194C360.58 156.795 360.354 157.389 360.135 157.99C358.307 157.693 357.37 156.217 356.323 154.975C354.339 152.624 352.488 150.164 350.582 147.75C351.527 147.633 352.472 147.523 353.417 147.406C355.737 148.656 357.198 150.812 358.916 152.687C359.166 152.96 359.088 153.546 359.159 153.991C359.612 154.874 359.44 156.202 360.869 156.389L360.799 156.194Z" fill="white"/>
<path d="M264.262 206.372C265.043 207.435 265.215 208.583 264.965 209.856C264.692 211.239 263.364 212.02 262.309 211.231C261.153 210.364 260.091 209.356 259.083 208.31C258.911 208.13 259.091 207.232 259.349 207.083C260.872 206.185 262.528 205.888 264.262 206.372Z" fill="white"/>
<path d="M218.687 246.771C218.711 246.888 218.859 247.232 218.765 247.31C217.508 248.435 216.242 249.552 214.899 250.575C214.711 250.715 213.86 250.426 213.782 250.184C212.954 247.638 214.196 245.896 216.781 245.927C217.25 245.935 217.726 246.068 218.172 246.216C218.359 246.279 218.476 246.536 218.687 246.771Z" fill="white"/>
<path d="M280.091 238.164C279.981 236.711 279.81 235.492 279.825 234.282C279.833 233.524 280.278 232.836 281.145 232.836C281.84 232.829 282.731 232.836 283.161 233.243C283.45 233.516 283.184 234.508 283.004 235.133C282.801 235.828 282.543 236.594 282.067 237.109C281.637 237.57 280.888 237.757 280.091 238.164Z" fill="white"/>
<path d="M264.687 277.694C264.46 280.514 263.242 282.334 260.125 282.256C260.484 280.256 261.937 279.046 263.374 277.858C263.663 277.624 264.241 277.741 264.687 277.694Z" fill="#B5C038"/>
<path d="M207.914 260.924C207.875 261.166 207.868 261.408 207.805 261.643C207.54 262.627 207.008 263.056 206.305 262.853C205.54 262.627 205.11 262.111 205.134 261.291C205.157 260.424 205.727 260.065 206.477 259.87C207.344 259.635 207.977 260.096 207.914 260.924Z" fill="white"/>
<path d="M396.714 754.724C395.058 754.834 393.988 754.123 393.691 752.459C393.566 751.772 393.613 751.053 393.582 750.342C395.527 751.162 396.636 752.568 396.714 754.724Z" fill="#7E890B"/>
<path d="M450.515 494.569C450.5 497.576 450.492 497.592 447.805 498.521C448.18 496.834 449.015 495.475 450.515 494.569Z" fill="#B5C038"/>
<path d="M239.211 804.871C239.531 804.168 240.156 803.871 240.851 803.902C241.226 803.918 241.617 804.222 241.929 804.472C242.031 804.55 241.999 804.98 241.882 805.105C241.273 805.738 240.609 806.316 239.969 806.917C239.711 806.238 239.461 805.55 239.211 804.871Z" fill="#B5C038"/>
<path d="M260.238 82.7393C260.183 83.1532 260.152 83.575 260.082 83.9812C259.926 84.817 259.918 84.817 258.84 84.5046C259.301 83.9187 259.769 83.3251 260.238 82.7393Z" fill="#B5C038"/>
<path d="M199.475 274.93C199.858 275.117 200.264 275.273 200.608 275.523C200.686 275.578 200.577 275.992 200.468 276.179C200.186 276.656 200.178 277.632 199.249 277.109C198.944 276.937 198.726 276.312 198.757 275.922C198.788 275.57 199.218 275.258 199.475 274.93Z" fill="#B5C038"/>
<path d="M319.867 76.5522C319.484 75.6149 319.109 74.6776 318.727 73.7324C319.765 74.4042 319.922 75.4352 319.867 76.5522Z" fill="#B5C038"/>
<path d="M377.129 186.492C377.707 187.133 377.871 187.867 377.622 188.679C376.84 187.758 376.825 187.687 377.129 186.492Z" fill="#B5C038"/>
<path d="M465.766 804.457C466.156 802.997 467.195 802.52 468.601 802.614C468.187 804.043 467.062 804.379 465.766 804.457Z" fill="#7E890B"/>
<path d="M364.516 145L364.461 145.398L364.555 144.969L364.516 145Z" fill="white"/>
<path d="M261.749 81.2471C261.21 81.7935 260.664 82.3321 260.125 82.8786C260.375 82.0355 260.828 81.4032 261.749 81.2471Z" fill="#B5C038"/>
<path d="M267.737 273.218C267.198 273.756 266.652 274.295 266.113 274.841C266.347 273.983 266.738 273.296 267.737 273.218Z" fill="#B5C038"/>
<path d="M140.238 234.39C140.464 234.382 140.761 234.273 140.893 234.374C141.166 234.585 141.346 234.905 141.565 235.186C141.369 235.288 141.112 235.53 140.979 235.475C140.667 235.342 140.378 235.108 140.159 234.843C140.097 234.765 140.316 234.452 140.409 234.249C140.409 234.242 140.238 234.39 140.238 234.39Z" fill="white"/>
<path d="M198.188 322.983C198.305 323.14 198.524 323.304 198.508 323.452C198.493 323.592 198.251 323.717 198.102 323.842C197.985 323.686 197.766 323.522 197.782 323.374C197.798 323.233 198.04 323.116 198.188 322.983Z" fill="#7E890B"/>
<path d="M251.312 727.8C251.164 726.847 251.555 726.237 252.469 725.964C252.461 725.956 252.812 726.315 252.812 726.315C252.57 727.12 252.055 727.597 251.203 727.682L251.312 727.8Z" fill="#7E890B"/>
<path d="M251.203 727.682C251 728.01 250.805 728.33 250.602 728.657C249.946 727.643 250.719 727.791 251.305 727.799L251.203 727.682Z" fill="#7E890B"/>
<path d="M139.5 228.134C139.5 228.134 140.117 228.188 140.109 228.181C139.492 228.837 138.883 229.509 138.266 230.172L138.477 229.915C139.328 229.61 139.664 229.016 139.5 228.134Z" fill="#7E890B"/>
<path d="M196.948 320.258C197.409 320.617 197.448 321.054 196.956 321.413C196.488 321.757 196.105 321.554 195.941 320.976C195.949 320.984 196.207 320.297 196.207 320.297L196.948 320.258Z" fill="#7E890B"/>
<path d="M113.686 761.136C113.319 761.354 112.789 761.862 112.601 761.753C111.743 761.261 112.195 760.675 112.664 760.145C113.015 760.465 113.359 760.792 113.686 761.136Z" fill="#7E890B"/>
<path d="M375.711 183.313C376.062 183.493 376.484 183.602 376.757 183.868C377.108 184.203 376.952 184.609 376.406 184.82C376.296 184.859 376.008 184.687 375.961 184.555C375.812 184.18 375.75 183.774 375.648 183.376L375.711 183.313Z" fill="#B5C038"/>
<path d="M207.765 792.124C207.39 793.123 206.531 793.467 205.602 793.709C206.133 792.912 206.703 792.186 207.765 792.124Z" fill="#B5C038"/>
<path d="M375.663 183.368C375.351 183.165 375.039 182.969 374.727 182.767C375.679 181.814 375.484 182.954 375.718 183.313L375.663 183.368Z" fill="#B5C038"/>
<path d="M239.211 804.871C239.46 805.558 239.71 806.238 239.96 806.925C239.476 807.285 238.992 807.644 238.5 808.011C238 807.355 237.508 806.691 237.008 806.035C237.75 805.644 238.484 805.254 239.211 804.871Z" fill="white"/>
<path d="M360.871 156.388C359.441 156.209 359.613 154.873 359.16 153.99C360.066 154.553 360.996 155.092 360.871 156.388Z" fill="white"/>
<path d="M364.557 144.97C364.346 145.079 364.112 145.149 363.924 145.29C363.151 145.884 362.588 145.407 362.323 144.806C361.917 143.868 363.088 144.064 363.393 143.603C363.393 143.603 363.37 143.587 363.37 143.595C363.049 144.837 363.049 144.837 364.494 145.017C364.518 145.001 364.557 144.97 364.557 144.97Z" fill="white"/>
<path d="M236.211 841.598C235.898 842.652 235.062 843.004 234.102 843.191C234.586 842.371 234.812 841.207 236.211 841.598Z" fill="#B5C038"/>
<path d="M250.24 111.928C250.482 111.881 250.74 111.865 250.966 111.772C253.529 110.772 256.106 110.006 258.918 110.709C259.691 110.905 260.894 109.827 261.105 109.007C261.23 108.53 261.379 108.046 261.426 107.554C261.918 102.703 263.886 98.4304 266.823 94.6499C269.408 91.3145 272.236 88.1667 275.064 85.0344C276.751 83.1676 278.883 81.9178 281.273 81.0274C284.788 79.7229 288.381 78.8559 292.084 78.2622C297.208 77.4343 301.965 78.6762 306.652 80.4571C307.565 80.8086 308.487 81.3086 309.221 81.9491C312.838 85.0891 315.658 88.8619 317.626 93.2126C318.228 94.5405 318.517 96.0715 318.642 97.5321C318.907 100.75 318.923 103.992 319.126 107.218C319.462 112.42 317.728 116.997 314.963 121.262C314.158 122.496 313.244 123.668 312.611 124.551C312.26 126.753 314.424 128.12 313.494 129.909C312.822 131.206 311.807 132.323 310.94 133.518C308.44 134.408 305.98 134.244 303.816 132.737C296.497 127.644 287.866 126.05 279.578 123.574C277.204 122.863 274.759 122.418 272.345 121.832C268.479 120.895 264.605 120.098 260.613 119.887C258.887 119.794 257.168 119.473 255.442 119.263C253.935 119.075 252.521 118.739 251.545 117.411C250.318 115.771 249.396 114.06 250.24 111.928ZM300.239 121.293C303.207 122.051 305.574 120.77 307.612 118.966C310.518 116.396 312.166 113.084 312.682 109.21C313.049 106.46 312.721 103.726 312.611 100.985C312.385 95.3216 309.612 91.088 305.55 87.4481C302.34 84.5658 298.7 83.5347 294.466 84.3627C289.233 85.3937 284.554 87.5262 280.211 90.6584C275.017 94.3999 272.017 99.4927 271.088 105.593C270.268 110.952 270.072 113.303 277.321 113.826C278.274 112.506 277.594 110.975 277.758 109.553C278.469 103.367 280.672 97.9774 285.913 94.1734C288.6 92.2206 291.826 91.5957 294.841 90.4553C295.482 90.2132 296.325 90.385 297.06 90.5022C298.794 90.7677 300.426 91.338 301.824 92.6424C301.395 93.236 301.09 94.0093 300.528 94.3999C297.021 96.8291 297.083 100.258 297.888 103.804C298.505 106.515 301.934 108.952 304.91 107.202C305.753 106.702 306.659 106.304 307.714 105.765C307.933 106.648 308.245 107.319 308.245 107.991C308.245 110.334 307.261 112.358 305.956 114.224C305.097 115.451 304.121 116.591 303.215 117.786C302.332 118.966 300.59 119.372 300.239 121.293Z" fill="#070705"/>
<path d="M141.137 138.29C141.394 136.564 141.683 134.846 141.91 133.112C142.488 128.761 144.339 125.035 147.315 121.832C153.923 114.717 161.719 109.585 171.334 107.538C176.513 106.437 181.223 107.835 185.589 110.522C186.605 111.147 187.456 112.201 188.12 113.225C188.933 114.467 189.479 115.88 190.136 117.224C190.089 118.466 190.112 119.723 189.971 120.958C189.729 123.137 188.323 124.574 186.136 124.933C183.434 125.386 180.723 125.824 178.013 126.23C175.224 126.644 172.811 127.909 170.506 129.44C168.952 130.472 168.085 131.979 167.835 133.768C167.624 135.244 167.702 136.759 167.624 138.251C167.538 139.814 166.913 141.149 165.734 142.188C162.508 145.031 158.969 147.078 154.634 148.015C150.877 148.827 147.745 148.007 144.675 146.148C143.121 145.203 142.113 143.813 141.816 141.954C141.621 140.727 141.363 139.509 141.137 138.29Z" fill="#070705"/>
<path d="M139.496 228.134C139.66 229.017 139.317 229.61 138.473 229.915C137.934 229.579 136.966 229.876 136.997 228.696C137.012 228.103 137.13 227.908 137.637 227.572C138.606 226.939 138.903 227.9 139.496 228.134Z" fill="#070705"/>
</svg>
