<svg width="1191" height="842" viewBox="0 0 1191 842" fill="none" xmlns="http://www.w3.org/2000/svg">
<path d="M216.998 327.33C228.968 332.17 241.458 335.16 254.218 337.12C271.718 339.81 289.328 340.44 306.968 339.61C328.858 338.58 350.738 337.26 372.618 335.9C391.638 334.72 410.638 333.15 429.668 332.05C471.048 329.66 512.448 327.43 553.838 325.2C573.978 324.12 571.968 323.86 567.988 306.1C560.288 271.69 540.258 247.09 507.518 233.3C503.138 231.46 498.658 229.81 494.128 228.36C479.068 223.54 463.518 221.13 447.808 220.19C426.858 218.93 405.878 219.79 384.948 220.85C357.348 222.26 329.778 224.17 302.198 225.86C302.198 225.79 302.188 225.72 302.188 225.65C296.958 225.93 291.718 226.2 286.488 226.5C257.478 228.18 228.458 229.85 199.448 231.57C183.758 232.5 168.068 233.54 152.378 234.57C149.658 234.75 147.888 236.77 148.378 239.34C149.638 245.87 150.448 252.59 152.578 258.84C163.668 291.35 185.028 314.42 216.998 327.33Z" fill="#AABB11"/>
<path d="M564.5 566.38C553.38 560.79 541.64 556.96 529.45 554.5C507.4 550.06 485.12 548.66 462.67 549.87C458.87 550.07 455.07 550.42 451.27 550.61C418.47 552.23 385.66 553.83 352.86 555.44C352.86 555.52 352.87 555.6 352.87 555.69C328.64 557.14 304.41 558.64 280.17 560.02C256.88 561.35 233.59 562.53 210.3 563.84C207.47 564 204.66 564.52 201.85 564.96C200.21 565.22 198.58 567.44 198.83 569.21C199.49 573.91 199.79 578.73 201.08 583.26C210.36 615.69 229.81 639.76 260.43 654.38C272.53 660.16 285.35 663.7 298.5 666.16C316.39 669.51 334.47 670.19 352.56 669.45C380.62 668.3 408.67 666.72 436.7 665.1C459.51 663.78 482.29 662.03 505.09 660.67C528.85 659.25 552.62 658.08 576.39 656.74C587.8 656.1 599.2 655.34 610.6 654.61C612.5 654.49 614.39 654.31 616.28 654.08C618.62 653.8 620.29 651.54 620.2 649.01C619.89 640.33 617.42 632.14 614.69 624C605.96 597.83 589.09 578.73 564.5 566.38Z" fill="#AABB11"/>
<path d="M242.059 518.41C256.359 523.97 271.199 527.25 286.409 528.81C304.449 530.66 322.509 531.25 340.619 529.58C346.309 529.06 352.039 529.05 357.739 528.73C377.229 527.64 396.729 526.57 416.219 525.38C442.839 523.75 469.449 521.98 496.059 520.35C526.009 518.51 555.949 516.71 585.909 515C594.389 514.52 594.739 512.62 593.669 505.31C593.049 501.08 592.049 496.89 590.949 492.75C582.579 461.38 563.949 438.59 534.209 425.19C529.879 423.24 525.439 421.48 520.929 419.97C506.409 415.12 491.469 412.29 476.189 411.31C447.129 409.44 418.119 411.22 389.099 412.65C380.059 413.1 371.039 413.78 362.009 414.3C352.499 414.85 342.989 415.33 333.479 415.84C333.479 415.89 333.489 415.94 333.489 416C310.669 417.32 287.849 418.68 265.019 419.96C242.199 421.24 219.369 422.41 196.539 423.72C190.359 424.07 184.189 424.68 178.029 425.26C176.639 425.39 175.199 425.71 173.949 426.3C173.249 426.63 172.449 427.71 172.449 428.45C172.499 436.64 174.309 444.54 177.179 452.13C189.119 483.68 210.419 506.11 242.059 518.41Z" fill="#AABB11"/>
<path d="M841.729 545.38C835.669 537.66 828.279 531.33 819.719 526.49C809.119 520.5 797.699 517.43 785.509 517.23C780.199 517.14 774.929 517.56 769.709 518.43C763.289 519.51 757.059 521.28 751.309 524.43C741.469 529.84 732.879 536.86 725.949 545.64C713.099 561.92 708.949 580.65 711.309 601.03C714.639 621.14 724.279 637.49 740.569 649.8C747.299 654.89 754.729 658.63 762.889 660.89C773.049 663.72 783.319 664.47 793.799 663.05C807.889 661.15 820.489 655.81 831.129 646.45C848.049 631.57 856.729 612.72 856.969 591.65C856.849 585.14 856.539 580.21 855.499 575.34C853.139 564.34 848.689 554.24 841.729 545.38ZM783.979 637.33C763.379 638.08 737.129 621.48 736.999 590.65C736.889 564.2 758.139 543.29 783.579 543.61C810.129 543.56 830.369 564.2 830.609 590.22C830.849 616.09 808.869 638.05 783.979 637.33Z" fill="black"/>
<path d="M964.991 659.66C964.351 658.03 963.611 656.45 962.901 654.85C955.981 639.37 949.051 623.89 942.121 608.41C941.621 607.29 941.111 606.18 940.651 605.05C939.981 603.43 940.211 601.96 941.501 600.73C942.381 599.88 943.321 599.1 944.231 598.27C947.861 594.94 950.991 591.18 953.541 586.97C960.251 575.9 961.851 564.06 958.381 551.64C954.571 538.05 945.991 528.35 933.381 522.19C926.661 518.91 919.511 517.55 912.051 517.57C898.411 517.61 884.771 517.58 871.131 517.58C870.081 517.58 869.031 517.6 867.991 517.7C866.121 517.88 864.701 519.27 864.581 521.09C864.481 522.66 864.481 524.24 864.481 525.81C864.471 547.5 864.481 569.19 864.481 590.89C864.481 612.58 864.481 634.27 864.481 655.97C864.481 657.54 864.481 659.12 864.571 660.69C864.681 662.53 866.041 663.92 867.901 664.19C868.421 664.27 868.941 664.34 869.461 664.34C874.361 664.35 879.251 664.36 884.151 664.33C884.841 664.33 885.541 664.19 886.221 664.04C887.531 663.76 888.741 662.43 888.861 661.1C888.981 659.71 889.021 658.31 889.031 656.91C889.051 649.56 889.041 642.22 889.041 634.87C889.041 628.57 889.061 622.27 889.041 615.98C889.031 612.01 890.171 610.66 894.291 610.47C894.641 610.45 894.991 610.45 895.341 610.45C900.241 610.45 905.131 610.44 910.031 610.46C910.901 610.46 911.781 610.54 912.651 610.61C915.131 610.83 916.921 611.94 917.721 614.43C917.981 615.26 918.421 616.03 918.781 616.83C924.861 630.39 930.941 643.95 937.021 657.51C937.591 658.79 938.201 660.05 938.751 661.33C939.521 663.12 940.881 664.04 942.781 664.22C943.481 664.28 944.171 664.36 944.871 664.36C950.471 664.37 956.061 664.37 961.661 664.35C962.351 664.35 963.051 664.21 963.731 664.09C964.701 663.92 965.501 662.78 965.381 661.72C965.291 661.02 965.241 660.3 964.991 659.66ZM931.311 569.63C928.821 577.18 923.441 581.81 915.481 583.16C914.111 583.39 912.701 583.47 911.311 583.47C905.731 583.5 900.141 583.49 894.561 583.48C893.691 583.48 892.821 583.42 891.951 583.33C890.561 583.18 889.341 582 889.181 580.6C889.061 579.56 889.021 578.51 889.021 577.47C889.001 572.93 889.011 568.39 889.011 563.85C889.011 563.85 889.011 563.85 889.021 563.85C889.021 559.31 889.001 554.77 889.041 550.23C889.051 549.2 889.171 548.14 889.421 547.13C889.731 545.85 890.621 544.99 891.941 544.76C892.961 544.58 894.021 544.5 895.061 544.5C900.471 544.48 905.881 544.47 911.291 544.51C912.681 544.52 914.081 544.65 915.461 544.84C921.561 545.68 926.161 548.92 929.431 554.01C932.521 558.87 933.071 564.3 931.311 569.63Z" fill="black"/>
<path d="M726.491 444.78C738.971 433.5 745.611 415.47 739.611 396.94C734.381 380.79 723.091 370.53 706.881 365.71C702.151 364.3 697.251 364.03 692.341 364.03C680.451 364.02 668.561 364.03 656.681 364.03C655.111 364.03 653.531 364.02 651.961 364.06C651.271 364.08 650.561 364.18 649.891 364.34C648.391 364.71 647.431 365.71 647.151 367.2C646.931 368.39 646.901 369.63 646.891 370.85C646.871 380.29 646.881 389.74 646.881 399.18C646.881 400.05 646.891 400.93 646.961 401.8C647.211 404.81 649.361 406.81 652.021 406.84C656.741 406.89 661.461 406.9 666.181 406.83C668.481 406.8 670.561 405.46 671.071 402.24C671.231 401.21 671.181 400.15 671.221 399.1C671.261 398.05 671.241 397 671.351 395.96C671.581 393.83 673.191 392.03 675.281 391.55C675.961 391.39 676.661 391.27 677.351 391.27C683.121 391.25 688.891 391.19 694.661 391.3C697.461 391.35 700.221 391.87 702.801 393.1C716.221 399.48 717.651 416.76 707.251 425.37C704.061 428.01 700.461 429.65 696.291 429.86C694.551 429.95 692.801 429.96 691.051 429.96C679.161 429.97 667.271 429.96 655.391 429.97C653.991 429.97 652.591 429.95 651.201 430.04C648.771 430.2 647.211 431.63 647.021 433.93C646.891 435.5 646.901 437.07 646.901 438.65C646.891 449.32 646.901 459.99 646.891 470.65C646.891 481.14 646.891 491.64 646.891 502.13C646.891 503.53 646.871 504.93 646.941 506.33C646.971 507.02 647.111 507.72 647.311 508.38C647.641 509.44 648.411 510.15 649.461 510.49C649.951 510.65 650.481 510.77 651.001 510.77C656.421 510.79 661.841 510.78 667.261 510.77C667.431 510.77 667.611 510.72 667.781 510.7C669.601 510.48 670.961 509.13 671.121 507.22C671.251 505.65 671.241 504.08 671.241 502.5C671.251 490.08 671.241 477.67 671.251 465.25C671.251 463.68 671.281 462.1 671.391 460.54C671.501 459 672.411 457.93 673.961 457.64C675.321 457.39 676.731 457.24 678.111 457.22C683.181 457.17 688.251 457.2 693.321 457.2C694.021 457.2 694.721 457.22 695.421 457.23C697.921 457.27 699.731 458.24 700.741 460.7C702.131 464.1 703.691 467.42 705.181 470.78C710.361 482.44 715.571 494.09 720.721 505.76C722.851 510.6 723.331 510.8 728.621 510.82C733.171 510.84 737.711 510.83 742.261 510.82C743.131 510.82 744.011 510.79 744.881 510.72C746.651 510.57 747.681 509.09 747.171 507.4C746.921 506.57 746.551 505.77 746.201 504.98C743.211 498.28 740.201 491.58 737.201 484.88C732.701 474.83 728.211 464.78 723.731 454.72C723.161 453.45 722.611 452.15 722.231 450.82C721.941 449.78 722.151 448.7 722.991 447.91C724.091 446.82 725.321 445.83 726.491 444.78Z" fill="black"/>
<path d="M942.279 370.27C935.149 366.07 927.379 363.98 918.989 363.98H872.619C871.639 363.98 870.759 364.37 869.999 365.13C869.229 365.9 868.849 366.84 868.849 367.96V387.26C868.849 388.38 869.229 389.33 869.999 390.09C870.769 390.86 871.639 391.24 872.619 391.24H918.989C924.299 391.24 928.879 393.13 932.729 396.9C936.579 400.68 938.499 405.29 938.499 410.75C938.499 416.07 936.579 420.61 932.729 424.39C928.879 428.17 924.299 430.06 918.989 430.06H872.619C871.639 430.06 870.759 430.45 869.999 431.21C869.229 431.98 868.849 432.92 868.849 434.04V453.95C866.279 444.42 860.589 437.49 851.539 433.41C850.219 432.81 848.859 432.28 847.479 431.82C843.039 430.34 838.479 429.47 833.799 429.17C824.919 428.6 816.049 429.14 807.179 429.58C804.419 429.72 801.659 429.93 798.899 430.09C795.989 430.26 793.089 430.41 790.179 430.56C790.179 430.58 790.179 430.59 790.179 430.61C783.199 431.01 776.229 431.43 769.249 431.82C762.269 432.21 755.299 432.57 748.319 432.97C746.429 433.08 744.549 433.26 742.659 433.44C742.239 433.48 741.789 433.58 741.409 433.76C741.189 433.86 740.949 434.19 740.949 434.42C740.969 436.92 741.519 439.34 742.399 441.66C746.049 451.3 752.559 458.16 762.229 461.92C766.599 463.62 771.139 464.62 775.789 465.1C781.299 465.67 786.819 465.85 792.359 465.34C794.099 465.18 795.849 465.18 797.589 465.08C803.549 464.75 809.509 464.42 815.459 464.06C823.599 463.56 831.729 463.02 839.859 462.52C849.009 461.96 858.169 461.41 867.319 460.88C867.969 460.84 868.459 460.78 868.829 460.67V482.3C866.549 480.04 863.859 478.14 860.769 476.59C857.369 474.88 853.779 473.71 850.059 472.96C843.319 471.6 836.509 471.18 829.649 471.55C828.489 471.61 827.329 471.72 826.169 471.78C816.139 472.28 806.119 472.76 796.089 473.26C796.089 473.29 796.089 473.31 796.089 473.34C788.679 473.78 781.279 474.24 773.869 474.66C766.749 475.07 759.629 475.43 752.509 475.83C751.639 475.88 750.779 476.04 749.929 476.17C749.429 476.25 748.929 476.93 749.009 477.47C749.209 478.91 749.299 480.38 749.699 481.76C752.539 491.67 758.479 499.03 767.839 503.5C771.539 505.27 775.459 506.35 779.479 507.1C784.949 508.12 790.469 508.33 795.999 508.11C804.579 507.76 813.149 507.28 821.719 506.78C828.689 506.38 835.649 505.84 842.619 505.42C849.879 504.98 857.149 504.63 864.409 504.22C865.879 504.14 867.349 504.04 868.829 503.95V507.31C868.829 508.29 869.209 509.17 869.979 509.93C870.749 510.7 871.619 511.08 872.599 511.08H888.759C889.879 511.08 890.819 510.73 891.589 510.03C892.359 509.33 892.739 508.42 892.739 507.3V460.51C892.739 459.25 893.019 458.41 893.579 457.99C894.139 457.57 895.189 457.36 896.729 457.36H918.969C927.359 457.36 935.129 455.26 942.259 451.07C949.389 446.87 955.059 441.21 959.259 434.07C963.459 426.94 965.559 419.17 965.559 410.78C965.559 402.39 963.459 394.59 959.259 387.38C955.079 380.17 949.409 374.46 942.279 370.27Z" fill="black"/>
<path d="M754.569 403.51C758.229 404.99 762.049 405.9 765.949 406.5C771.299 407.32 776.679 407.52 782.069 407.26C788.759 406.94 795.449 406.54 802.139 406.13C807.949 405.77 813.759 405.29 819.579 404.95C832.229 404.22 844.879 403.54 857.529 402.86C863.689 402.53 863.069 402.45 861.859 397.02C859.509 386.5 853.379 378.98 843.379 374.77C842.039 374.21 840.669 373.7 839.289 373.26C834.689 371.79 829.929 371.05 825.129 370.76C818.729 370.37 812.309 370.64 805.919 370.96C797.489 371.39 789.059 371.97 780.629 372.49C780.629 372.47 780.629 372.45 780.629 372.43C779.029 372.52 777.429 372.6 775.829 372.69C766.959 373.2 758.089 373.71 749.229 374.24C744.429 374.53 739.639 374.84 734.839 375.16C734.009 375.21 733.469 375.83 733.619 376.62C733.999 378.62 734.249 380.67 734.899 382.58C738.269 392.51 744.799 399.56 754.569 403.51Z" fill="black"/>
<path d="M716.101 541.95C717.071 541.84 718.061 540.76 718.191 539.84C718.261 539.32 718.341 538.8 718.341 538.28C718.351 532.51 718.341 526.74 718.341 520.97C718.341 520.8 718.321 520.62 718.311 520.45C718.191 518.62 717.161 517.43 715.431 517.3C713.861 517.18 712.291 517.17 710.721 517.17C709.141 517.17 707.571 517.17 705.991 517.17C685.701 517.17 665.411 517.17 645.121 517.17V548.26C645.171 549.71 645.201 551.16 645.201 552.61C645.211 586.71 645.201 620.8 645.211 654.9C645.211 656.65 645.191 658.4 645.271 660.14C645.371 662.26 646.501 663.39 648.511 663.51C649.031 663.54 649.561 663.55 650.081 663.55C656.901 663.55 663.711 663.55 670.531 663.55C671.051 663.55 671.581 663.55 672.101 663.53C674.521 663.41 675.441 662.47 675.531 659.87C675.591 658.3 675.571 656.72 675.571 655.15C675.571 638.19 675.571 621.23 675.571 604.27C675.571 586.78 675.571 569.3 675.571 551.81C675.571 550.24 675.541 548.66 675.681 547.09C675.931 544.41 677.741 542.62 680.461 542.38C682.021 542.24 683.601 542.26 685.171 542.26C692.111 542.25 699.041 542.26 705.981 542.25C707.961 542.25 709.941 542.25 711.911 542.24C713.331 542.24 714.721 542.11 716.101 541.95Z" fill="black"/>
<path d="M962.732 356.8C962.212 356.82 961.702 356.95 961.182 357.05C960.362 357.21 959.602 357.98 959.482 358.83C959.362 359.69 959.252 360.56 959.242 361.43C959.222 366.5 959.222 371.57 959.242 376.64C959.242 377.51 959.312 378.39 959.422 379.25C959.572 380.5 960.592 381.57 961.812 381.67C963.382 381.79 964.952 381.84 966.522 381.84C969.952 381.85 973.392 381.85 976.822 381.85V356.76C973.352 356.76 969.872 356.76 966.402 356.76C965.182 356.76 963.952 356.75 962.732 356.8Z" fill="black"/>
<path d="M840.48 214.04C837.15 210.06 833.18 206.83 828.78 204.12C828.57 203.99 828.33 203.83 828.1 203.81C827.88 203.79 827.56 203.86 827.42 204.02C827.14 204.32 826.91 204.69 826.71 205.05C825.6 207.13 824.51 209.22 823.4 211.3C813.85 229.29 804.51 247.39 794.84 265.32C790.24 273.84 785.81 282.44 781.3 291.01C779.18 295.04 777.26 299.15 775.61 303.39C773.24 309.45 771.44 315.65 770.62 322.13C769.67 329.62 770.38 336.91 773.04 343.99C773.36 344.86 773.72 345.71 774.14 346.54C776.38 351.02 779.28 355.03 782.76 358.62C785.24 361.18 788.16 363.16 791.22 364.97C791.47 364.8 791.74 364.71 791.86 364.53C792.18 364.04 792.44 363.51 792.72 362.99C806.84 336.18 820.96 309.37 835.08 282.56C835.43 281.89 835.75 281.2 836.08 280.52C836.59 279.46 837.05 278.37 837.59 277.33C839.9 272.93 842.04 268.45 843.83 263.81C846.21 257.67 848.05 251.38 848.81 244.81C849.29 240.61 849.32 236.42 848.68 232.22C847.63 225.4 844.91 219.34 840.48 214.04Z" fill="#1D1D1B"/>
<path d="M772.261 273.07C773.331 274.3 775.431 274.3 776.511 273.05C776.891 272.61 777.201 272.1 777.481 271.58C780.151 266.71 782.811 261.84 785.451 256.96C785.851 256.22 786.191 255.45 786.471 254.66C787.121 252.87 787.141 251.05 786.581 249.21C786.211 248 785.701 246.85 785.101 245.74C782.531 240.92 779.961 236.09 777.401 231.26C775.191 227.1 773.011 222.93 770.801 218.77C770.411 218.03 769.981 217.3 769.521 216.6C768.931 215.72 768.111 215.15 767.041 215.03C766.121 214.92 765.201 214.83 764.281 214.83C761.251 214.8 758.231 214.82 755.201 214.82C752.261 214.82 749.311 214.82 746.371 214.82C745.781 214.82 745.191 214.79 744.611 214.86C744.121 214.92 743.621 215.04 743.161 215.23C742.491 215.51 742.121 216.06 742.011 216.77C741.911 217.45 741.981 218.12 742.291 218.74C742.631 219.41 742.991 220.08 743.361 220.74C752.301 237.03 761.251 253.32 770.191 269.61C770.591 270.35 770.981 271.1 771.411 271.82C771.661 272.27 771.931 272.69 772.261 273.07Z" fill="#1D1D1B"/>
<path d="M936.261 279.76C929.781 276.69 921.381 273.38 911.081 269.84C908.261 268.71 905.151 267.37 901.721 265.79C895.951 263.15 892.081 261.2 890.141 259.95C885.271 256.89 882.841 253.27 882.841 249.1C882.841 246.46 883.921 243.85 886.071 241.27C888.231 238.7 891.181 236.51 894.941 234.7C899.951 232.75 905.301 231.78 911.011 231.78C915.881 231.78 920.751 232.48 925.621 233.87C929.791 234.98 934.731 237.14 940.441 240.34C941.131 240.76 941.831 240.97 942.531 240.97C943.361 240.97 943.991 240.76 944.411 240.34L944.621 240.13C944.581 240.13 944.571 240.15 944.541 240.16L946.921 236.79C950.951 231.09 953.321 227.47 954.021 225.94C954.161 225.66 954.021 225.18 953.601 224.48C953.181 223.79 952.621 223.16 951.931 222.6C948.171 219.4 944.141 216.69 939.831 214.46C935.221 212.29 929.821 210.66 923.631 209.54C916.611 207.97 910.051 207.69 904.121 208.18C903.921 208.19 903.721 208.19 903.521 208.2C902.991 208.26 902.471 208.33 901.951 208.4C901.521 208.45 901.101 208.5 900.681 208.56C900.611 208.57 900.551 208.58 900.481 208.59C890.351 210 882.361 213.53 877.511 216.18C876.471 216.74 875.471 217.33 874.511 217.94C873.061 218.85 872.291 219.45 872.291 219.45C868.781 222 865.841 224.96 863.451 228.32C860.651 232.27 858.781 236.62 857.821 241.36C856.981 244.35 856.551 247.42 856.551 250.56C856.551 257.1 858.501 263.43 862.391 269.55C865.591 274.14 870.491 278 877.101 281.13C883.581 284.2 891.981 287.51 902.291 291.05C905.111 292.18 908.221 293.52 911.651 295.09C917.421 297.73 921.291 299.68 923.231 300.93C928.101 303.99 930.531 307.61 930.531 311.78C930.531 314.42 929.451 317.03 927.301 319.61C925.141 322.18 922.191 324.37 918.431 326.18C913.421 328.13 908.071 329.1 902.361 329.1C897.491 329.1 892.621 328.4 887.751 327.01C883.581 325.9 878.641 323.74 872.931 320.54C872.241 320.12 871.541 319.91 870.841 319.91C870.011 319.91 869.381 320.12 868.961 320.54L868.751 320.75C868.791 320.75 868.801 320.73 868.831 320.72L866.451 324.09C862.421 329.79 860.051 333.41 859.351 334.94C859.211 335.22 859.351 335.7 859.771 336.4C860.191 337.09 860.751 337.72 861.441 338.28C865.201 341.48 869.231 344.19 873.541 346.42C878.271 348.64 883.841 350.31 890.241 351.43C896.641 352.54 903.181 352.96 909.861 352.68C919.041 351.7 927.181 349.16 934.281 345.06C941.381 340.95 946.911 335.84 950.871 329.72C954.841 323.6 956.821 317.13 956.821 310.31C956.821 303.77 954.871 297.44 950.981 291.32C947.781 286.76 942.871 282.89 936.261 279.76Z" fill="#1D1D1B"/>
<path d="M718.49 279.72C712.01 276.65 703.609 273.34 693.299 269.8C690.479 268.67 687.37 267.33 683.94 265.76C678.17 263.12 674.299 261.17 672.359 259.92C667.489 256.86 665.06 253.24 665.06 249.07C665.06 246.43 666.139 243.82 668.289 241.24C670.449 238.67 673.399 236.48 677.159 234.67C682.169 232.72 687.519 231.75 693.229 231.75C698.099 231.75 702.97 232.45 707.84 233.84C712.01 234.95 716.949 237.11 722.659 240.31C723.349 240.73 724.05 240.94 724.75 240.94C725.58 240.94 726.21 240.73 726.63 240.31L726.84 240.1C726.8 240.1 726.79 240.12 726.76 240.13L729.14 236.76C733.17 231.06 735.54 227.44 736.24 225.91C736.38 225.63 736.24 225.15 735.82 224.45C735.4 223.76 734.84 223.13 734.15 222.57C730.39 219.37 726.359 216.66 722.049 214.43C717.319 212.21 711.749 210.54 705.349 209.42C698.949 208.31 692.409 207.89 685.729 208.17C676.549 209.15 668.41 211.69 661.31 215.79C654.21 219.9 648.679 225.01 644.719 231.13C640.749 237.25 638.77 243.72 638.77 250.54C638.77 257.08 640.719 263.41 644.609 269.53C647.809 274.12 652.71 277.98 659.32 281.11C665.8 284.18 674.2 287.49 684.5 291.03C687.32 292.16 690.429 293.5 693.859 295.08C699.639 297.72 703.5 299.67 705.44 300.92C710.31 303.98 712.74 307.6 712.74 311.77C712.74 314.41 711.66 317.02 709.51 319.6C707.35 322.17 704.4 324.36 700.64 326.17C695.63 328.12 690.28 329.09 684.57 329.09C679.7 329.09 674.83 328.39 669.96 327C665.79 325.89 660.85 323.73 655.14 320.53C654.45 320.11 653.749 319.9 653.049 319.9C652.219 319.9 651.589 320.11 651.169 320.53L650.96 320.74C651 320.74 651.009 320.72 651.039 320.71L648.659 324.08C644.629 329.78 642.26 333.4 641.56 334.93C641.42 335.21 641.559 335.69 641.979 336.39C642.399 337.08 642.96 337.71 643.65 338.27C647.41 341.47 651.44 344.18 655.75 346.41C660.36 348.58 665.76 350.21 671.95 351.33C678.97 352.9 685.53 353.18 691.46 352.69C691.66 352.68 691.86 352.68 692.06 352.67C692.59 352.61 693.11 352.54 693.63 352.47C694.06 352.42 694.48 352.37 694.9 352.31C694.97 352.3 695.029 352.29 695.099 352.28C705.229 350.87 713.22 347.34 718.07 344.69C719.11 344.13 720.11 343.54 721.07 342.93C722.52 342.02 723.289 341.42 723.289 341.42C726.799 338.87 729.74 335.91 732.13 332.55C734.93 328.6 736.8 324.25 737.76 319.51C738.6 316.52 739.03 313.45 739.03 310.31C739.03 303.77 737.08 297.44 733.19 291.32C730 286.72 725.1 282.85 718.49 279.72Z" fill="#1D1D1B"/>
</svg>
