<svg width="686" height="888" viewBox="0 0 686 888" fill="none" xmlns="http://www.w3.org/2000/svg">
<path d="M313.738 109.78C314.348 108.03 315.818 107.37 317.228 107.24C322.378 106.74 327.498 107.32 331.888 110.17C337.228 113.63 342.598 116.93 348.538 119.28C350.568 120.09 352.398 121.45 354.238 122.68C354.548 122.89 354.658 124.07 354.408 124.27C353.748 124.83 352.458 125.68 352.098 125.43C348.198 122.68 344.148 120.24 339.928 117.99C332.548 114.07 324.848 111.3 316.528 110.35C315.618 110.26 314.698 109.98 313.738 109.78Z" fill="white"/>
<path d="M270.747 753.379C270.524 753.022 270.3 752.659 270.076 752.302C268.035 752.603 266.33 753.7 264.568 754.651C261.821 756.14 259.053 757.587 256.291 759.055C251.168 761.774 245.946 764.298 241.115 767.576C237.033 770.351 232.475 772.239 227.82 773.868C225.52 774.671 223.479 774.203 221.522 772.756C218.404 770.442 217.097 767.185 216.67 763.543C216.132 759.006 217.097 754.665 219.061 750.555C221.584 745.263 225.059 740.636 229.078 736.392C230.763 734.61 232.364 732.75 233.985 730.905C234.111 730.765 234.083 730.493 234.139 730.206C233.838 728.521 232.063 728.095 231.126 726.92C230.155 725.704 229.183 724.488 228.176 723.23C227.303 723.23 226.415 723.132 225.548 723.244C221.074 723.838 216.621 723.628 212.168 723.111C204.339 722.195 196.559 722.461 188.863 724.285C186.039 724.956 183.18 725.494 180.39 726.27C178.468 726.809 176.511 727.438 174.77 728.395C169.884 731.087 164.886 733.645 160.817 737.588C160.335 738.056 159.804 738.468 159.273 738.874C156.826 740.768 154.275 740.468 152.191 738.035C148.647 733.904 147.48 729.004 147.627 723.705C147.669 722.146 147.983 720.601 148.06 719.042C148.074 718.749 147.55 718.197 147.228 718.162C145.208 717.966 143.237 718.238 141.265 718.777C134.96 720.496 129.109 723.202 123.601 726.683C121.902 727.759 120.281 728.962 118.575 730.017C117.631 730.597 116.597 731.059 115.562 731.457C113.409 732.282 110.256 730.849 109.397 728.682C109.152 728.067 108.991 727.41 108.844 726.76C107.467 720.72 107.691 714.855 110.138 709.018C111.941 704.705 112.983 700.099 115.338 695.981C116.338 694.234 117.303 692.493 118.554 690.906C122.294 686.153 126.313 681.728 130.976 677.799C135.079 674.339 139.119 670.816 143.53 667.754C145.907 666.105 148.403 664.609 150.912 663.162C153.037 661.938 155.253 660.869 157.434 659.743C158.427 659.233 159.384 658.604 160.433 658.247C166.983 656.011 173.33 653.207 179.999 651.306C184.745 649.95 189.611 649.223 194.525 648.922C196.839 648.783 198.81 648.09 200.606 646.581C207.066 641.156 214.769 639.241 222.982 638.884C226.569 638.73 230.113 638.954 233.65 639.709C240.151 641.1 245.072 644.581 248.364 650.355C248.686 650.922 248.987 651.509 249.301 652.103C250 652.187 250.664 652.369 251.321 652.334C255.858 652.11 260.227 652.697 264.421 654.557C266.064 655.284 267.832 655.57 269.664 655.353C270.545 655.249 271.453 655.304 272.348 655.332C276.535 655.444 280.233 656.675 283.162 659.848C284.197 660.974 285.05 662.379 286.811 662.847C295.423 659.59 302.63 654.032 309.481 647.916C310.648 646.874 311.781 645.791 312.878 644.679C316.352 641.177 319.61 637.535 321.546 632.866C322.399 630.81 323.699 628.951 324.706 626.959C325.202 625.98 325.503 624.897 325.95 623.708C325.307 623.324 324.832 622.925 324.286 622.723C322.818 622.184 321.169 621.989 319.862 621.206C313.738 617.578 307.006 614.865 301.903 609.637C300.498 608.197 298.995 606.855 297.576 605.421C293.753 601.577 290.866 597.124 288.629 592.161C285.504 585.198 282.918 578.096 281.582 570.561C281.429 569.68 281.149 568.813 281.086 567.932C280.429 558.558 280.094 549.177 281.065 539.796C281.156 538.908 281.31 538.021 281.555 537.168C282.519 533.806 282.295 530.59 280.695 527.43C280.101 526.256 279.737 524.928 279.45 523.628C278.346 518.609 277.248 513.582 276.284 508.535C275.529 504.593 274.942 500.608 274.334 496.638C274.201 495.764 274.061 494.792 274.299 493.975C275.109 491.088 274.515 488.208 274.473 485.328C274.424 481.972 274.487 478.631 275.2 475.317C275.62 473.374 276.158 471.396 275.494 469.124C274.033 468.97 272.516 468.774 270.985 468.656C267.853 468.404 264.897 467.747 261.933 466.51C252.663 462.644 243.261 459.086 233.901 455.451C227.449 452.948 220.99 450.474 214.51 448.048C208.401 445.755 202.137 444.182 195.531 444.7C193.658 444.847 192.127 444.385 190.498 443.414C186.367 440.939 183.005 437.807 180.747 433.522C180.439 432.935 179.971 432.432 179.426 431.677C177.364 430.824 175.043 430.013 172.855 428.936C170.632 427.839 168.479 426.707 165.885 427.133C160.447 426.259 155.638 424.078 151.695 420.185C150.919 419.416 150.395 418.381 149.794 417.444C144.027 408.546 141.755 398.612 141.231 388.19C141.007 383.723 141.056 379.249 140.993 374.775C140.916 369.365 141.874 364.073 143.09 358.851C143.901 355.377 145.068 351.98 147.06 348.939C147.41 348.401 147.599 347.758 147.836 347.206C146.103 344.752 144.369 342.424 142.761 340.012C140.636 336.818 139.105 333.365 138.574 329.513C138.42 328.409 138.106 327.332 137.903 326.235C137.008 321.397 136.232 316.567 136.904 311.59C137.197 309.402 137.092 307.109 136.806 304.914C136.309 301.062 137.001 297.302 137.582 293.583C137.952 291.213 139.05 288.871 140.231 286.746C141.713 284.076 144.292 282.65 147.291 282.133C148.382 281.944 149.521 282.014 150.633 281.972C152.89 281.888 155.043 281.412 157.029 280.42C157.217 278.637 156.071 277.428 155.449 276.044C151.8 267.928 150.367 259.435 150.73 250.571C150.877 246.95 151.639 243.469 152.702 240.065C153.31 238.1 153.638 236.178 153.548 234.144C153.275 228.062 154.414 222.162 155.631 216.235C156.798 210.517 158.525 205.015 160.517 199.542C162.677 193.607 165.62 188.092 169.038 182.87C176.105 172.077 185.13 163.171 195.93 156.062C199.9 153.447 204.172 151.574 208.771 150.477C212.679 149.547 216.642 148.813 220.592 148.044C222.78 147.618 224.989 147.24 227.198 146.96C229.19 146.709 231.196 146.534 233.202 146.471C242.59 146.164 251.985 146.15 261.352 146.932C263.981 147.149 265.386 146.205 266.784 144.08C269.349 140.159 272.285 136.482 275.088 132.714C276.123 131.33 276.249 129.834 275.641 128.282C275.158 127.038 274.571 125.829 274.026 124.605C273.383 123.179 272.6 121.802 272.111 120.327C270.789 116.322 270.859 112.414 273.313 108.779C274.683 106.738 275.927 104.599 277.43 102.663C282.722 95.8471 289.845 92.7574 298.366 92.5616C305.014 92.4079 311.187 94.2184 317.086 97.0564C321.714 99.2794 326.425 101.348 330.711 104.236C331.689 104.893 332.829 105.004 333.891 104.417C339.749 101.174 345.88 98.4475 351.563 94.8824C352.129 94.5259 352.723 94.1974 353.247 93.778C359.231 88.9896 366.089 85.7181 372.89 82.3418C374.288 81.6497 375.686 80.9507 377.063 80.2097C380.44 78.3852 384.124 77.4555 387.801 76.5118C391.142 75.652 394.476 75.9946 397.776 76.6656C399.048 76.9243 400.383 77.4835 401.404 78.2804C403.697 80.0559 406.031 81.8594 407.947 84.0055C415.412 92.3799 423.703 99.8246 432.504 106.752C437.593 110.764 442.458 115.064 447.505 119.132C450.287 121.376 453.16 123.522 456.11 125.528C463.52 130.561 470.531 136.111 477.403 141.83C482.24 145.856 486.008 150.903 489.678 155.971C491.027 157.83 491.432 160.06 491.209 162.367C490.859 165.925 490.719 169.532 490.076 173.041C487.979 184.478 485.428 195.802 481.247 206.7C479.087 212.334 476.857 217.919 473.313 222.239C472.908 223.819 473.698 224.441 474.18 225.14C478.465 231.418 482.841 237.625 487.063 243.937C490.188 248.621 492.439 253.696 493.439 259.302C493.76 261.085 493.928 262.818 493.69 264.622C493.404 266.824 493.229 269.04 493.005 271.263C491.076 273.709 489.3 276.303 487.175 278.567C483.372 282.636 478.668 284.125 473.181 282.699C472.747 282.587 472.356 282.328 471.922 282.244C470.224 281.902 468.546 280.063 466.917 281.182C465.435 282.202 465.953 284.453 465.547 286.138C464.499 290.479 463.779 294.897 462.702 299.231C460.479 308.164 456.809 316.56 452.853 324.829C451.979 326.661 451.35 328.485 451.028 330.513C450.28 335.196 448.358 339.53 445.89 343.515C443.528 347.324 441.423 351.239 439.494 355.272C438.914 356.482 438.341 357.705 437.579 358.802C433.762 364.311 429.854 369.756 426.038 375.272C423.367 379.13 420.697 382.989 418.216 386.974C416.803 389.238 415.769 391.734 413.889 393.719C412.623 395.054 412.162 396.858 411.659 398.557C411.141 400.325 410.372 401.835 409.037 403.121C408.031 404.086 407.548 405.505 407.821 406.805C408.24 408.811 408.625 410.727 407.828 412.719C407.772 412.859 408.422 413.53 408.744 413.53C410.079 413.53 411.463 413.565 412.735 413.229C417.53 411.978 422.508 412.153 427.352 411.314C430.274 410.811 433.175 411.552 435.936 412.418C440.389 413.816 445.003 414.851 449.043 417.661C450.071 416.962 451.063 416.445 451.853 415.711C457.76 410.244 463.387 404.498 468.958 398.689C469.266 398.368 469.629 398.081 469.888 397.725C474.865 390.846 480.877 384.751 485.239 377.404C493.809 362.983 501.911 348.338 507.147 332.288C508.251 328.891 509.46 325.521 510.761 322.201C514.514 312.589 516.968 302.614 519.023 292.548C521.749 279.183 523.777 265.705 524.699 252.074C524.93 248.712 524.895 245.384 524.643 242.029C524.315 237.569 524.07 233.102 523.951 228.635C523.721 219.681 522.924 210.782 521.693 201.918C520.68 194.614 519.526 187.323 518.632 180.004C518.191 176.432 517.401 172.978 516.29 169.574C515.388 166.813 514.521 164.038 513.669 161.263C512.529 157.544 514.724 152.091 520.03 151.19C522.637 150.742 525.056 151.336 526.782 153.273C531.69 158.774 536.436 164.422 541.238 170.008C544.251 175.733 548.606 180.668 550.948 186.805C551.654 188.651 552.814 190.363 553.961 191.999C555.911 194.774 557.547 197.682 558.246 201.017C558.987 204.54 560.322 207.853 561.615 211.174C565.041 219.933 567.487 228.992 569.78 238.072C572.08 247.167 573.918 256.359 575.218 265.677C577.05 278.784 577.84 291.926 577.56 305.138C577.434 310.947 576.924 316.742 576.568 322.544C576.47 324.102 576.197 325.661 576.183 327.22C576.078 336.664 574.275 345.898 572.716 355.147C571.339 363.297 569.773 371.42 567.997 379.487C566.991 384.052 565.544 388.539 564.027 392.971C560.769 402.471 557.785 412.069 553.486 421.191C550.144 428.279 546.153 435.004 542.098 441.687C535.255 452.962 527.957 463.944 519.883 474.395C518.925 475.632 518.08 476.953 517.171 478.225C514.71 481.686 512.222 485.125 509.782 488.599C507.335 492.073 505.133 495.743 502.442 499.008C500.093 501.86 498.667 504.9 497.919 508.5C496.885 513.52 495.585 518.504 494.117 523.411C491.495 532.184 488.93 540.985 485.847 549.597C483.435 556.328 480.968 563.032 478.843 569.855C476.193 578.376 476.242 576.544 479.717 583.779C483.317 591.273 488.21 597.935 493.383 604.408C497.703 609.818 501.722 615.432 505.161 621.492C507.154 625.008 507.811 628.629 507.286 632.446C506.441 638.64 505.497 644.84 504.26 650.963C502.239 661.03 500.002 671.061 497.759 681.085C496.591 686.307 495.158 691.473 493.949 696.694C492.893 701.266 491.579 705.761 490.209 710.242C488.322 716.435 486.637 722.691 484.771 728.885C483.1 734.442 481.506 740.034 479.507 745.466C477.256 751.568 473.852 757.105 469.902 762.271C469.098 763.319 468.022 764.2 466.938 764.969C458.648 770.855 449.546 774.042 439.249 773.043C435.244 772.658 431.225 772.316 427.268 771.617C422.13 770.708 417.055 770.701 411.952 771.729C410.205 772.078 408.429 772.316 406.681 772.672C399.146 774.189 392.33 777.572 385.627 781.124C380.083 784.052 374.561 786.932 368.388 788.351C366.662 788.75 365.026 789.547 363.341 790.134C359.944 791.315 356.477 791.854 352.835 791.889C346.725 791.945 340.819 791.106 334.912 788.974C333.94 789.372 332.94 789.819 331.906 790.197C328.229 791.532 324.496 791.77 320.714 790.644C319.428 790.26 318.163 789.827 316.87 789.47C310.816 787.799 304.937 788.282 299.233 790.945C297.618 791.7 295.955 792.371 294.298 793.035C291.593 794.126 289.132 795.558 286.79 797.355C282.191 800.892 277.374 804.15 272.628 807.498C268.706 810.259 264.442 811.972 259.535 812C256.438 812.014 253.817 810.944 251.58 808.987C248.973 806.708 247.414 803.877 247.26 800.249C247.036 795.013 247.882 790.043 249.888 785.206C254.467 774.154 260.919 764.305 268.762 755.322C269.349 754.651 269.909 753.959 270.461 753.267C270.929 753.015 271.097 752.638 270.873 752.17C270.831 752.086 270.461 752.044 270.37 752.128C269.797 752.722 270.041 753.12 270.747 753.379ZM232.734 757.196C233.419 757.063 234.006 756.783 234.314 756.105C235.936 755.434 237.592 754.847 239.165 754.078C244.708 751.366 250.196 748.556 255.746 745.857C261.304 743.159 266.973 740.761 272.991 739.237C274.264 738.916 275.48 738.35 276.724 737.895C277.165 737.923 277.633 738.063 278.038 737.958C285.162 736.148 292.397 735.365 299.743 735.63C299.967 735.637 300.191 735.609 300.407 735.623C302.267 735.742 303.938 735.169 305.357 734.037C309.53 730.716 314.108 728.025 318.666 725.292C319.03 725.075 319.274 724.67 319.82 724.082C320.351 720.923 321.637 717.553 320.756 713.939C322.022 710.179 321.274 706.411 320.603 702.699C320.232 700.665 318.911 699.099 316.989 698.134C313.382 696.324 309.76 696.303 305.993 697.722C296.136 701.434 286.79 706.117 278.248 712.318C271.936 716.903 265.721 721.629 259.388 726.193C251.175 732.107 244.177 739.272 237.816 747.081C235.845 749.499 234.041 752.058 233.091 755.092C232.552 755.77 232.189 756.476 232.818 757.286C232.238 757.084 232.042 757.161 232.231 757.517C232.391 757.412 232.566 757.307 232.734 757.196ZM473.062 535.84C473.817 535.525 474.026 534.952 473.859 534.197C475.355 530.226 476.913 526.284 477.626 522.062C477.85 520.748 478.2 519.433 478.668 518.175C480.541 513.128 481.653 507.878 482.722 502.629C483.303 499.791 483.61 496.897 483.96 494.017C484.176 492.248 484.225 490.458 484.365 488.676C484.861 482.336 483.995 476.163 481.737 470.249C479.814 465.23 477.473 460.4 473.278 456.751C472.104 455.73 471.049 454.542 470.084 453.319C466.735 449.055 462.499 445.755 458.326 442.393C454.845 439.583 451.119 437.122 447.1 435.102C444.716 433.9 442.472 432.411 440.13 431.117C438.97 430.474 437.768 429.887 436.523 429.426C431.798 427.664 426.884 427.559 421.969 428.091C418.195 428.503 414.434 429.111 410.715 429.887C408.108 430.432 405.5 431.173 403.242 432.725C402.809 433.026 402.76 434.095 403.221 434.417C404.13 435.053 405.109 435.605 405.948 436.318C406.668 436.926 406.926 437.849 406.661 438.758C405.703 442.036 404.179 445.014 401.369 447.097C399.02 448.845 396.378 450.082 393.526 450.781C391.261 451.341 389.066 451.117 387.178 449.586C385.962 448.6 384.76 447.608 383.606 446.552C381.726 444.833 380.58 442.638 380.153 440.17C379.377 435.71 379.496 431.25 380.901 426.909C383.334 419.402 386.948 412.509 391.61 406.141C393.854 403.079 396.014 399.955 398.202 396.844C399.873 394.467 401.488 392.049 403.2 389.7C406.486 385.177 409.925 380.766 413.099 376.173C418.306 368.638 423.731 361.235 428.065 353.126C429.33 350.764 430.728 348.471 432.014 346.115C436.307 338.272 440.382 330.331 443.01 321.733C443.863 318.958 444.863 316.231 445.82 313.484C448.169 306.731 450.259 299.895 451.573 292.856C452.601 287.368 453.398 281.839 454.467 276.358C455.027 273.471 455.187 270.598 455.138 267.683C454.985 257.624 454.677 247.565 453.887 237.534C453.643 234.416 453.202 231.313 452.825 228.209C452.692 227.077 452.244 226.07 451.483 225.196C445.604 218.458 439.83 211.628 433.839 204.994C427.841 198.36 421.62 191.936 415.517 185.4C414.28 184.079 413.036 182.842 411.155 182.471C409.988 182.241 409.296 181.311 408.562 180.465C406.668 178.263 404.773 176.061 402.837 173.901C402.41 173.426 401.809 173.09 401.257 172.734C401.11 172.636 400.796 172.615 400.677 172.713C400.53 172.839 400.404 173.132 400.439 173.314C400.656 174.39 400.956 175.446 401.173 176.523C401.348 177.389 401.572 178.277 401.53 179.151C401.488 180.025 401.152 180.892 400.222 181.311C399.328 181.716 397.58 181.57 397.042 180.989C393.057 176.683 389.716 171.993 388.346 166.149C387.891 164.192 387.451 162.227 387.032 160.263C386.102 155.894 385.193 151.518 384.263 147.142C383.187 142.06 380.419 138.146 375.994 135.447C369.891 131.721 363.768 128.052 357.225 125.102C351.143 122.361 344.852 121.474 338.274 121.865C333.108 122.18 328.732 124.263 325.16 127.856C319.002 134.049 313.388 140.732 308.705 148.121C305.937 152.483 302.63 156.404 299.359 160.368C298.66 161.214 297.8 162.046 296.842 162.528C294.067 163.933 291.215 165.205 288.356 166.435C287.783 166.68 287.028 166.526 286.357 166.561C286.301 166.345 286.252 166.128 286.182 165.918C286.105 165.708 286.028 165.499 285.909 165.31C285.036 163.989 285.315 162.759 286.259 161.64C287.692 159.948 289.852 158.963 290.908 156.908C290.998 156.726 291.047 156.355 290.95 156.265C290.656 156.006 290.25 155.649 289.929 155.691C289.055 155.803 288.188 156.048 287.349 156.32C282.862 157.781 278.29 158.536 273.544 158.362C269.307 158.208 265.064 158.278 260.828 158.222C259.493 158.208 258.123 158.278 256.823 158.019C249.972 156.649 243.052 157.082 236.145 157.124C234.139 157.138 232.112 157.159 230.134 157.439C218.635 159.082 208.408 163.863 198.88 170.301C197.782 171.042 196.818 172.007 195.86 172.937C194.42 174.335 193.015 175.768 191.645 177.236C190.268 178.711 188.933 180.151 186.884 180.78C186.095 181.024 185.333 181.716 184.801 182.394C182.753 185.03 180.544 187.595 178.887 190.468C176.217 195.103 173.917 199.947 171.506 204.722C170.905 205.91 170.317 207.14 169.947 208.419C168.647 212.914 167.444 217.437 166.193 221.946C165.529 224.343 165.417 226.79 165.627 229.244C165.683 229.866 165.871 230.53 166.682 230.768C167.962 231.145 168.807 230.844 169.374 229.614C169.555 229.216 169.485 228.677 169.723 228.335C170.212 227.622 170.758 227.943 171.24 228.433C171.065 231.564 171.128 231.795 173.561 232.166C177.58 232.781 181.334 234.221 184.969 235.884C190.645 238.485 196.272 241.204 201.816 244.084C206.779 246.657 211.959 248.712 217.083 250.914C224.786 254.22 232.965 255.541 241.143 256.254C249.567 256.988 258.095 256.862 266.49 255.164C269.769 254.5 273.089 254.052 276.368 253.402C284.679 251.746 293.005 250.138 301.274 248.285C305.825 247.265 310.404 246.202 314.535 243.805C315.863 243.029 317.394 242.462 318.904 242.155C323.741 241.169 328.243 239.163 332.919 237.702C337.869 236.157 342.308 233.599 346.746 231.04C347.299 230.726 347.669 230.103 348.13 229.628L348.005 229.712C348.543 229.23 349.088 228.747 349.626 228.272C350.892 228.118 351.682 227.405 352.073 226.217C356.253 222.91 360.573 219.779 364.39 216.025C366.131 214.319 367.997 212.698 369.996 211.306C373.806 208.643 377.672 206.036 382.607 205.882C383.683 205.847 384.746 205.337 385.815 205.036C387.954 204.435 390.072 203.778 392.225 203.24C393.966 202.806 395.763 202.68 397.51 203.121C398.335 203.33 399.272 203.722 399.796 204.337C400.306 204.938 400.355 205.938 400.607 206.756C398.23 207.895 396.147 209.72 393.344 209.852C385.92 212.593 380.202 217.192 377.259 224.763C376.861 225.783 376.49 226.839 376.315 227.915C376.134 229.048 375.784 230.048 375.036 230.921C371.772 234.738 370.101 239.268 369.087 244.105C367.766 250.41 366.082 256.604 363.768 262.643C362.398 266.229 360.86 269.571 358.134 272.339C357.211 273.276 356.61 274.52 355.855 275.611C353.331 279.266 350.78 282.908 348.284 286.585C347.669 287.494 347.201 288.501 346.662 289.465C346.18 290.101 345.705 290.745 345.222 291.381L345.306 291.234C344.391 292.192 343.363 293.072 342.573 294.128C340.05 297.532 337.631 301.013 335.135 304.439C331.067 310.024 326.992 315.609 322.881 321.167C321.155 323.494 319.309 325.738 317.583 328.059C313.724 333.246 309.977 338.524 306.035 343.647C301.274 349.848 296.15 355.755 290.167 360.816C288.035 362.619 286.497 364.688 285.77 367.359C285.357 368.855 285.029 370.371 284.665 371.881C284.379 372.434 283.882 372.979 283.847 373.545C283.784 374.552 284.609 375.202 285.448 375.377C288.447 376.006 291.327 377.306 294.487 377.061C299.366 378.124 304.259 377.816 309.145 377.194C310.683 376.998 312.228 376.614 313.675 376.055C321.267 373.112 328.026 368.834 333.612 362.892C334.849 361.571 336.128 360.417 337.575 359.376C338.47 358.733 339.239 357.915 340.064 357.174C343.23 354.685 345.733 351.553 348.431 348.597C353.247 343.319 358.008 337.971 363.88 333.784C368.794 330.289 373.771 326.906 379.056 323.956C387.64 319.167 395.979 313.98 403.732 307.885C411.673 301.643 417.195 293.681 420.76 284.3C422.424 279.91 423.486 275.338 424.633 270.794C425.458 267.523 425.898 264.23 425.954 260.861C426.108 252.144 426.212 243.427 425.786 234.717C425.723 233.389 425.465 232.068 425.304 230.74C425.157 226.252 424.248 221.883 423.109 217.57C422.249 214.312 420.816 211.278 418.915 208.482C416.964 205.602 414.392 203.596 410.96 202.757C409.45 202.387 407.933 201.974 406.5 201.38C406.017 201.177 405.668 200.395 405.479 199.814C405.248 199.087 406.045 197.794 406.668 197.64C408.184 197.263 409.687 196.822 411.232 196.592C413.595 196.235 415.545 197.004 417.223 198.815C420.746 202.624 423.423 206.986 425.884 211.516C427.051 213.669 428.191 215.843 429.344 218.01C429.652 219.08 429.945 220.156 430.267 221.226C430.98 223.574 432.147 225.881 432.329 228.265C432.7 233.165 433.601 237.996 433.755 242.924C434.188 256.59 433.133 270.151 431.008 283.628C429.596 292.604 426.038 300.762 420.452 307.976C417.419 311.897 413.903 315.295 409.506 317.699C406.178 319.524 402.879 321.411 399.565 323.257C392.163 327.388 384.473 331.016 377.588 336.042C376.127 337.104 374.547 337.873 372.729 338.181C370.835 338.503 369.444 339.747 368.591 341.334C366.033 346.094 362.132 349.862 359.147 354.315C357.169 357.265 354.827 360.04 352.325 362.563C349.591 365.317 347.55 368.442 345.977 371.923C343.307 377.844 339.938 383.387 336.645 388.952C334.485 392.594 331.976 396.033 329.599 399.542C325.712 405.281 321.26 410.587 316.989 416.039C316.178 417.074 315.164 418.011 315.122 419.521C316.905 420.345 318.946 420.681 320.484 422.051C321.518 424.225 320.931 426.392 320.596 428.608C320.099 431.907 320.197 431.9 317.261 432.222C315.045 432.467 312.815 432.704 310.62 433.089C305.783 433.942 300.953 434.836 296.143 435.808C293.913 436.262 291.788 436.29 289.53 435.794C286.713 435.172 283.77 434.543 280.932 434.718C273.725 435.165 266.686 433.62 259.549 433.438C253.453 431.893 247.134 432.082 240.962 431.041C235.46 430.111 229.896 429.573 224.667 427.455C223.535 426.993 222.444 426.937 221.64 427.951C219.858 430.202 217.712 430.628 215.104 429.58C213.657 428.999 212.106 428.671 210.693 428.042C210.218 427.825 209.75 427.028 209.729 426.476C209.68 425.378 209.743 424.197 210.12 423.183C210.896 421.086 211.735 419.101 211.12 416.752C210.924 416.018 211.379 414.991 211.798 414.243C213.587 411.02 214.084 407.504 214.321 403.911C214.44 402.129 214.58 400.346 214.671 398.557C214.797 396.054 215.531 393.719 216.691 391.524C217.628 389.749 218.711 388.05 219.662 386.281C220.179 385.31 220.55 384.261 220.976 383.234C223.374 382.367 223.702 380.144 224.332 378.117C224.506 377.558 224.045 376.474 223.73 376.607C223.346 376.768 222.864 376.956 222.675 377.278C221.717 378.942 220.788 380.626 220.529 382.577C218.739 383.513 216.845 384.38 214.839 383.849C212.294 383.171 209.743 382.36 207.38 381.213C204.822 379.969 203.354 377.795 203.801 374.733C204.458 372.853 205.122 370.98 205.751 369.092C205.8 368.938 205.619 368.554 205.486 368.519C205.136 368.435 204.577 368.33 204.416 368.512C202.941 370.225 201.851 372.14 201.76 374.482C200.984 376.796 199.998 379.067 199.495 381.437C198.803 384.688 198.37 388.001 198.013 391.308C197.65 394.67 198.439 397.934 199.222 401.185C199.425 402.024 199.439 402.925 199.369 403.785C199.341 404.114 198.894 404.547 198.544 404.68C198.188 404.82 197.615 404.792 197.321 404.582C196.804 404.212 196.286 403.708 196.007 403.149C192.847 396.774 191.959 390.091 193.155 383.073C193.987 378.194 195.755 373.678 197.936 369.288C200.425 367.303 201.844 364.5 203.549 361.92C203.752 361.613 203.668 361.074 203.633 360.648C203.619 360.459 203.417 360.235 203.242 360.124C203.067 360.019 202.718 359.928 202.613 360.019C200.145 362.221 197.95 364.667 196.063 367.387C193.33 368.841 190.932 368.463 188.828 366.149C188.08 365.324 187.255 364.576 186.437 363.829C185.801 363.241 184.668 363.57 184.228 364.395C182.746 367.212 182.005 370.253 181.837 373.384C181.6 377.844 181.551 382.311 182.816 386.68C183.872 390.322 184.661 394.048 185.857 397.634C187.493 402.541 188.555 407.511 188.793 412.684C188.933 415.802 189.212 418.926 189.632 422.016C190.107 425.511 191.938 428.265 194.923 430.167C196.049 430.887 197.265 431.46 198.467 432.04C201.732 433.599 205.199 434.368 208.785 434.683C209.89 434.78 211.113 434.78 211.903 435.654C213.021 436.885 214.475 437.304 215.943 437.856C222.409 440.282 228.84 442.812 235.285 445.308C242.982 448.293 250.671 451.292 258.375 454.256C259.409 454.654 260.528 455.241 261.555 455.143C265.288 454.801 268.58 456.052 271.852 457.52C274.347 458.631 276.948 459.023 279.674 458.974C284.358 458.897 289.034 458.862 293.711 458.303C298.8 457.695 303.924 457.548 308.992 456.597C313.368 455.772 317.848 455.521 322.259 454.843C325.146 454.402 327.949 453.927 330.864 454.808C331.829 455.101 333.017 454.654 334.101 454.549C335.464 459.442 335.017 460.526 330.843 462.455C330.641 462.546 330.438 462.651 330.235 462.728C322.497 465.664 314.668 468.208 306.328 468.725C304.105 468.865 301.854 468.886 299.764 469.844C297.541 469.704 295.311 469.844 293.117 469.25C292.061 468.963 290.908 468.991 289.803 468.921C289.006 468.872 287.923 469.718 287.825 470.389C287.797 470.613 287.727 470.83 287.713 471.053C287.196 480.658 287.217 490.263 287.804 499.86C287.86 500.748 287.979 501.643 288.174 502.51C289.866 509.913 291.816 517.245 294.64 524.313C298.548 534.071 303.308 543.438 308.23 552.707C311.054 558.027 314.157 563.221 317.443 568.268C322.462 575.978 328.718 582.668 335.24 589.127C341.755 595.579 349.577 599.654 358.266 602.255C358.469 602.318 358.714 602.234 358.931 602.262C359.476 602.346 360.147 601.584 360.077 600.92C359.986 600.039 359.951 599.137 359.741 598.277C358.294 592.433 356.638 586.645 355.596 580.697C354.401 573.881 352.744 567.135 354.408 560.159C354.61 559.306 354.415 558.37 354.513 557.489C354.708 555.72 354.967 553.952 355.233 552.19C355.428 550.869 355.806 549.562 355.862 548.241C356.044 543.914 357.393 539.915 359.175 536.035C361.23 531.569 363.139 527.06 364.467 522.306C364.886 520.81 365.62 519.405 366.228 517.965C369.472 510.304 373.862 503.335 379.014 496.834C381.244 496.778 383.474 496.715 385.704 496.666C386.27 496.652 386.85 497.393 386.731 498.064C386.612 498.721 386.389 499.357 386.214 499.993C387.304 501.07 388.786 500.455 390.01 500.909C390.709 501.168 391.338 502.412 391.065 503.111C390.904 503.523 390.82 503.978 390.597 504.355C386.242 511.653 382.768 519.405 378.832 526.927C374.337 535.525 371.625 544.738 369.717 554.154C367.843 563.382 367.536 572.791 368.221 582.193C368.99 592.762 372.792 602.136 379.552 610.308C380.545 611.51 381.628 612.656 382.53 613.922C385.116 617.536 386.948 619.444 389.94 621.415C394.071 624.135 398.482 626.309 403.235 627.616C410.107 629.51 416.929 631.572 424.045 632.551C427.359 633.005 430.616 633.753 433.993 633.6C435.817 633.516 437.523 634.012 439.187 634.718C441.465 635.683 443.821 636.214 446.303 636.466C449.469 636.794 452.203 638.213 454.754 640.198C457.613 642.428 459.682 645.357 462.206 647.874C464.589 650.25 465.652 653.033 465.17 656.381C464.729 656.444 464.282 656.486 463.841 656.57C462.394 656.828 461.227 656.395 460.297 655.256C459.612 654.41 459.186 653.277 458.039 652.928C457.739 652.837 457.012 653.103 456.977 653.298C456.439 656.36 456.012 659.436 455.495 662.498C454.558 668.027 452.992 673.277 449.651 677.967C447.197 681.42 444.716 684.839 442.15 688.208C436.314 695.869 428.848 701.315 420.061 705.006C415.762 706.809 411.519 708.85 406.772 709.333C406.395 709.368 406.059 709.815 405.703 710.074C405.06 709.892 404.417 709.703 403.774 709.522C402.019 709.011 400.614 708.095 399.46 706.586C397.979 704.649 396.231 702.909 394.553 701.126C390.555 696.869 385.452 694.828 379.797 694.129C375.568 693.605 371.394 694.325 367.179 694.884C362.852 695.457 359.028 696.911 355.344 699.099C351.122 701.615 347.152 704.468 343.356 707.585C341.979 708.718 340.623 709.871 339.267 711.031C338.365 711.8 337.267 711.954 336.163 712.087C335.247 711.024 334.576 709.941 335.639 708.564C337.813 705.74 340.092 702.951 342.986 700.902C348.948 696.68 354.925 692.409 361.964 690.025C362.384 689.886 362.789 689.711 363.195 689.543C363.95 689.229 364.131 687.893 363.481 687.313C361.664 685.698 359.811 684.126 357.456 683.308C354.771 681.232 351.682 679.945 348.431 679.232C338.141 676.989 328.145 678.268 318.429 682.119C315.716 683.196 313.34 684.825 311.438 687.062C311.221 687.32 311.312 687.844 311.263 688.271C313.402 688.83 315.562 689.312 317.674 689.963C321.7 691.207 324.629 693.8 326.453 697.582C327.125 698.973 327.586 700.469 328.145 701.923C328.117 704.544 327.97 707.166 328.103 709.78C328.236 712.367 327.474 714.988 328.271 717.616C330.599 717.931 332.591 716.854 334.702 716.477C337.323 716.044 339.959 715.666 342.566 715.156C346.138 714.457 349.661 714.967 353.129 715.617C355.75 716.106 358.252 717.204 360.189 719.147C361.105 720.07 362.041 721.181 362.426 722.384C363.887 726.934 363.796 731.534 362.132 736.05C360.902 739.377 359.539 742.642 357.805 745.766C356.078 748.863 354.597 752.1 353.01 755.273C352.304 755.658 351.926 756.245 351.926 757.063C351.584 757.594 351.248 758.118 350.906 758.65C349.605 758.985 349.263 759.922 349.361 761.131L349.375 761.11C348.836 761.481 348.13 761.732 347.795 762.236C344.978 766.535 341.895 770.617 338.351 774.35C338.204 774.511 338.099 774.713 337.967 774.888C337.463 775.559 338.008 776.79 338.861 776.971C344.614 778.216 350.402 777.943 356.092 776.817C361.545 775.734 366.927 774.245 372.303 772.798C374.442 772.225 376.56 771.435 378.566 770.484C388.255 765.92 398.335 762.313 408.289 758.405C412.931 756.58 417.817 756.182 422.717 756.657C430.092 757.37 437.39 757.552 444.611 755.504C449.994 753.98 455.229 752.121 460.06 749.248C463.583 747.151 466.351 744.291 468.238 740.636C468.868 739.412 469.112 738.112 468.567 736.77C468.763 736.085 468.958 735.393 469.154 734.708C470.189 733.897 470.447 732.813 470.245 731.576C470.454 731.317 470.545 731.017 470.503 730.688C471.139 730.178 471.286 729.542 470.979 728.787C471.461 726.844 472.027 724.914 472.412 722.943C473.901 715.303 475.257 707.634 476.592 699.966C477.892 692.486 479.898 685.195 481.716 677.862C484.449 666.853 487.476 655.913 489.915 644.833C490.971 640.038 491.586 635.186 491.418 630.244C491.265 625.868 490.314 621.87 487.049 618.696C486.252 617.92 485.56 617.046 484.812 616.222C484.715 615.432 484.267 614.991 483.477 614.914C482.534 614.048 481.59 613.188 480.653 612.321C480.381 611.734 480.241 611 479.807 610.587C476.92 607.833 473.963 605.149 471.028 602.437C467.602 599.27 464.156 596.138 460.78 592.916C459.5 591.692 458.34 590.329 457.229 588.945C456.39 587.904 455.775 586.687 455.684 585.317C455.327 579.942 455.579 574.678 458.27 569.799C459.445 567.66 460.507 565.458 461.535 563.242C462.471 561.215 463.506 559.299 465.058 557.636C465.939 556.685 466.638 555.476 467.127 554.266C468.546 550.771 469.853 547.234 471.118 543.676C471.405 542.872 471.461 541.921 471.377 541.061C471.321 540.425 470.825 539.866 470.056 539.824C469.622 539.803 469.182 539.866 468.749 539.887C459.591 539.754 450.441 539.614 441.284 539.482C436.369 539.412 431.455 539.405 426.541 539.279C421.613 539.16 416.748 538.545 412.057 536.937C408.611 535.756 405.591 533.903 403.186 531.149C400.628 528.22 398.894 524.914 398.657 520.936C398.587 519.748 399.377 518.588 400.439 518.532C401.551 518.476 402.669 518.427 403.788 518.455C418.076 518.783 432.364 519.119 446.652 519.461C447.547 519.482 448.442 519.524 449.33 519.601C453.139 519.93 456.837 520.789 460.339 522.299C465.037 524.32 468.637 527.5 470.433 532.442C470.818 533.491 471.216 534.532 471.608 535.581C471.601 536.014 471.496 536.476 471.622 536.867C471.713 537.14 472.097 537.343 472.391 537.51C472.447 537.545 472.768 537.28 472.824 537.105C472.95 536.699 472.985 536.266 473.062 535.847V535.84ZM276.927 689.977C277.78 689.271 278.409 688.46 278.199 687.257C279.751 687.502 280.786 686.621 281.52 685.482C281.988 684.755 282.065 683.79 282.4 682.965C283.169 681.071 284.714 680.351 286.657 680.337C288.272 680.323 289.705 680.798 291.026 681.77C292.264 682.679 293.138 684.133 294.85 684.363C296.388 683.713 297.038 682.203 298.045 681.036C298.912 680.029 299.729 678.925 300.771 678.121C309.236 671.627 318.764 667.391 329.124 664.972C330.417 664.672 331.773 664.49 333.101 664.483C339.12 664.441 345.167 664.028 351.094 665.608C351.954 665.839 352.87 665.678 353.548 664.93C354.002 664.434 354.478 663.966 354.925 663.469C359.741 658.122 365.278 653.641 371.192 649.565C374.135 647.538 376.938 645.315 379.853 643.239C381.551 642.03 382.67 640.373 383.62 638.605C384.529 636.906 384.62 634.25 382.649 632.481C380.328 630.398 378.077 628.21 375.959 625.924C374.554 624.407 372.995 624.079 371.115 624.512C370.898 624.561 370.674 624.589 370.458 624.652C365.62 626.057 360.769 625.819 355.869 624.924C352.129 624.246 348.396 623.61 344.873 622.121C344.097 621.793 343.09 622.261 342.65 623.114C341.203 625.882 339.686 628.629 338.379 631.467C334.807 639.234 330.046 646.238 324.867 652.991C319.917 659.443 313.794 664.658 307.139 669.194C300.799 673.514 293.725 676.255 286.133 677.59C284.386 677.897 282.442 677.827 280.953 678.624C279.178 679.575 280.149 681.917 279.513 683.552C279.031 684.79 278.695 686.076 278.29 687.348C277.032 687.837 277.102 688.984 276.955 690.025L276.71 690.172L276.927 689.977ZM266.183 342.354C267.071 342.305 267.825 341.949 268.294 341.208C268.49 340.9 268.573 340.383 268.448 340.054C268.336 339.761 267.881 339.425 267.567 339.418C267.224 339.411 266.637 339.684 266.56 339.957C266.33 340.732 266.302 341.564 266.197 342.375C265.575 342.536 265.456 342.725 265.861 342.844C265.917 342.858 266.078 342.522 266.183 342.354ZM221.899 338.349C221.822 338.167 221.78 337.957 221.661 337.818C221.598 337.741 221.277 337.755 221.27 337.776C221.172 338.202 221.403 338.384 221.934 338.314C221.675 339.81 222.577 340.698 223.675 341.397C223.94 341.564 224.541 341.494 224.793 341.292C225.024 341.096 225.198 340.432 225.052 340.236C224.255 339.223 223.297 338.391 221.899 338.349ZM264.757 291.919C264.295 291.87 263.967 292.052 263.764 292.471C262.674 292.185 261.59 291.898 260.5 291.618C258.06 289.976 255.208 289.465 252.426 288.913C250.965 288.627 249.392 288.899 247.875 288.955C247.693 288.962 247.358 289.221 247.372 289.298C247.456 289.703 247.547 290.171 247.812 290.458C248.085 290.752 248.539 291.003 248.938 291.045C252.908 291.423 256.648 292.737 260.43 293.883C261.975 294.75 263.533 295.603 265.071 296.477C266.337 297.204 267.644 297.162 268.881 296.533C271.251 295.323 273.586 294.051 275.906 292.751C276.2 292.59 276.34 292.143 276.626 291.709C273.872 290.08 270.866 289.388 267.791 288.997C266.588 288.843 265.693 289.549 265.197 290.668C265.022 291.073 264.904 291.507 264.757 291.919ZM268.504 377.474C268.965 375.516 269.629 373.587 269.86 371.609C270.58 365.387 271.999 359.292 273.047 353.133C273.152 352.497 273.166 351.805 273.012 351.19C272.935 350.882 272.418 350.519 272.062 350.463C270.88 350.288 269.783 351.043 269.657 352.183C269.377 354.615 269.182 357.062 269 359.502C268.839 361.724 269.084 364.038 268.546 366.163C267.588 369.938 267.707 373.678 268.014 377.467C267.616 380.745 267.623 380.745 268.615 382.877C268.734 381.696 268.909 380.85 268.888 380.018C268.853 379.172 268.636 378.326 268.504 377.474ZM317.205 595.992L317.408 596.299L317.149 596.047C316.359 594.719 315.66 593.321 314.766 592.063C311.138 586.988 307.552 581.92 304.937 576.188C303.28 572.553 301.051 569.177 299.051 565.702C298.842 565.339 298.478 565.052 298.143 564.78C297.982 564.654 297.688 564.57 297.513 564.64C297.367 564.696 297.234 564.996 297.241 565.185C297.269 566.059 297.178 566.989 297.437 567.8C298.946 572.469 300.827 576.992 303.197 581.298C306.14 586.638 310.096 591.133 314.787 594.978C315.437 595.516 316.394 595.663 317.205 595.992ZM289.041 316.944C288.622 317.448 288.16 317.979 287.426 317.678C285.238 316.77 283.596 317.413 282.323 319.321C280.73 321.698 278.975 323.984 278.108 326.975C278.954 328.429 279.821 329.946 280.709 331.449C280.974 331.897 282.086 331.96 282.463 331.575C282.925 331.107 283.421 330.659 283.819 330.149C284.497 329.282 285.071 328.332 285.784 327.493C285.965 327.283 286.65 327.199 286.832 327.36C287.098 327.591 287.147 328.101 287.217 328.499C287.252 328.702 287.14 328.926 287.091 329.142C286.692 329.667 286.168 330.142 285.923 330.729C284.295 334.616 282.701 338.51 281.156 342.431C280.925 343.025 280.981 343.738 280.953 344.402C280.946 344.598 281.114 344.969 281.205 344.969C281.541 344.962 282.072 344.948 282.177 344.752C284.428 340.425 286.636 336.07 288.824 331.708C289.118 331.121 289.237 330.443 289.433 329.814C291.963 325.941 294.515 322.082 297.003 318.189C297.458 317.483 297.744 316.63 297.926 315.805C297.996 315.497 297.639 314.938 297.325 314.749C297.017 314.568 296.416 314.554 296.108 314.735C295.563 315.064 295.081 315.546 294.675 316.05C293.298 317.769 291.998 319.545 290.6 321.243C290.376 321.523 289.838 321.551 289.279 321.754C289.055 320.293 288.824 318.867 288.636 317.434C288.615 317.259 288.838 317.056 288.943 316.86C291.11 315.413 291.117 315.413 291.201 313.379C291.222 312.939 291.012 312.429 291.18 312.065C291.537 311.275 291.97 310.478 292.536 309.835C293.48 308.773 293.767 308.402 293.746 307.389C293.725 306.515 293.725 305.641 293.585 304.781C293.34 303.257 293.291 301.601 292.627 300.265C291.907 298.818 291.579 297.385 291.397 295.841C291.355 295.512 290.908 295.086 290.565 294.974C290.216 294.862 289.6 294.946 289.377 295.197C288.629 296.008 287.972 296.917 287.329 297.819C286.629 298.804 286.602 299.79 287.112 300.943C287.65 302.146 288.377 303.544 288.195 304.732C287.839 307.06 288.391 309.052 289.125 311.177C289.621 312.603 289.551 314.232 289.621 315.784C289.663 316.161 289.258 316.56 289.041 316.944ZM477.466 247.691C479.94 253.06 483.428 257.925 485.365 263.559C485.428 263.748 485.63 263.944 485.812 264.028C486.19 264.209 486.609 264.321 487.007 264.461C487.126 264.049 487.441 263.58 487.336 263.238C485.533 257.114 483.338 251.172 479.038 246.272C477.724 244.217 476.557 242.036 475.061 240.121C469.867 233.452 464.429 226.986 458.55 220.904C454.845 217.066 451.154 213.208 447.449 209.37C445.904 207.769 444.345 206.197 442.794 204.61C434.23 194.935 424.724 186.225 415.224 177.501C415.063 177.354 414.888 177.194 414.692 177.103C414.147 176.844 413.658 176.306 412.959 176.788C412.553 177.068 412.637 178.06 413.176 178.508C418.16 182.639 422.501 187.434 427.009 192.055C431.665 196.822 436.369 201.548 441.053 206.294C444.129 209.783 447.176 213.313 450.301 216.759C453.433 220.212 456.572 223.651 459.836 226.972C465.897 233.137 472.006 239.261 476.69 246.608C476.941 246.971 477.207 247.328 477.466 247.691ZM406.451 160.55C410.309 164.268 414.035 168.141 418.055 171.671C424.772 177.571 430.707 184.296 437.586 190.007C437.754 190.147 437.907 190.314 438.054 190.482C443.08 196.214 449.225 200.765 454.635 206.099C456.208 207.651 458.151 208.832 459.92 210.181C460.018 210.712 460.367 210.873 460.703 210.454C461.262 209.748 461.213 209.713 460.158 208.72C458.543 206.868 456.998 204.959 455.306 203.184C449.616 197.193 443.835 191.272 438.159 185.267C432.161 178.927 425.807 172.992 418.922 167.624C417.16 166.254 415.524 164.723 413.784 163.325C411.868 161.787 409.904 160.319 407.961 158.823C405.57 156.516 402.725 154.846 399.936 153.105C399.754 152.993 399.516 152.965 399.328 152.86C398.838 152.602 398.398 152.644 398.202 153.112C398.055 153.461 397.93 154.049 398.111 154.258C400.397 157.006 403.193 159.089 406.451 160.55ZM282.526 782.864L282.512 782.899C284.868 782.892 286.671 781.424 288.664 780.501C292.32 778.81 296.073 777.656 300.072 776.957C304.483 776.188 308.887 775.916 313.34 775.853C317.107 775.797 320.889 776.07 324.468 775.545C326.796 773.819 328.69 771.973 330.522 770.002C334.625 765.577 337.987 760.614 341.392 755.672C345.195 750.163 347.921 744.04 351.199 738.238C351.863 737.063 352.332 735.819 352.346 734.449C354.834 731.527 355.463 728.109 355.107 724.397C354.827 721.454 354.457 720.063 350.619 719.818C349.298 719.734 347.914 719.79 346.628 720.084C337.645 722.125 328.935 725.082 321.015 729.773C314.486 733.638 308.146 737.923 302.211 742.642C293.459 749.604 285.616 757.601 278.29 766.08C274.774 770.156 272.02 774.783 268.811 779.068C265.686 783.242 263.694 787.96 261.338 792.511C260.954 793.252 260.996 794.244 260.975 795.125C260.94 797.082 262.478 798.117 264.044 797.166C265.756 796.125 267.469 795.055 269.035 793.811C273.054 790.616 276.997 787.31 280.967 784.053C281.75 784.004 282.316 783.661 282.526 782.864ZM239.158 659.1C238.913 655.843 237.005 654.158 233.943 653.571C233.748 653.536 233.517 653.627 233.307 653.662C232.077 652.047 230.106 652.194 228.456 651.816C223.36 650.663 218.25 650.614 213.364 652.872C212.812 653.131 212.413 653.732 211.833 654.277C213.434 655.304 215.007 656.157 216.391 657.241C219.348 659.562 220.228 662.665 219.208 666.23C218.844 667.489 218.033 668.607 217.439 669.802C217.153 670.383 216.817 670.963 216.698 671.578C216.642 671.865 217.02 672.494 217.271 672.529C218.131 672.668 219.019 672.669 219.893 672.62C227.61 672.172 234.999 673.591 242.129 676.52C245.736 678.002 248.623 680.386 251.028 683.434C254.013 687.222 254.83 691.445 253.705 696.072C252.635 700.483 250.748 704.509 247.651 707.886C245.834 709.857 243.926 711.744 242.101 713.716C241.661 714.191 241.283 714.785 241.073 715.393C240.969 715.687 241.206 716.379 241.465 716.484C244.198 717.658 246.966 717.875 249.951 717.246C252.223 716.77 254.124 715.995 255.879 714.478C260.437 710.528 265.099 706.697 269.734 702.839C270.608 702.112 271.356 701.322 271.754 700.231C272.369 698.554 273.033 696.89 273.62 695.205C273.76 694.814 273.879 694.143 273.676 693.94C271.335 691.633 271.244 691.605 272.733 689.026C274.306 686.293 275.473 683.406 276.347 680.386C277.116 677.716 276.158 675.521 274.334 673.689C273.76 673.116 272.796 672.794 271.957 672.648C270.013 672.305 268.818 673.479 269.293 675.318C269.86 677.513 270.314 679.652 269.671 681.917C269.307 683.203 269.112 684.538 268.811 685.845C268.622 686.67 267.7 687.537 266.959 687.53C266.029 687.523 265.169 687.229 264.694 686.377C264.379 685.817 263.981 685.132 264.058 684.559C264.26 683.021 264.799 681.525 265.022 679.994C265.435 677.191 264.855 674.661 262.681 672.648C261.695 671.739 260.779 670.753 259.808 669.83C258.479 668.565 256.893 667.733 255.11 667.384C251.147 666.615 247.218 666.098 243.282 667.782C241.241 668.656 239.025 669.103 237.131 670.362C236.586 670.718 235.922 671.054 235.299 671.082C234.705 671.103 233.887 670.872 233.552 670.446C233.223 670.033 233.153 669.124 233.391 668.635C233.769 667.859 234.412 667.16 235.09 666.601C236.46 665.461 237.956 664.476 239.34 663.35C240.081 662.749 240.333 661.875 239.997 660.939C239.752 660.303 239.438 659.708 239.158 659.1ZM316.646 389.504C315.339 389.777 314.032 390.077 312.717 390.315C305.818 391.566 298.967 391.433 292.152 389.637C288.706 388.728 285.217 387.98 281.736 387.19C280.988 387.022 279.863 387.903 279.863 388.658C279.856 393.565 279.863 398.48 279.877 403.387C279.884 405.617 280.073 407.868 279.877 410.077C279.185 417.913 272.153 422.226 264.218 419.66C263.212 419.339 262.247 418.549 261.541 417.738C259.919 415.872 258.745 413.705 258.165 411.272C257.857 409.972 257.669 408.644 257.382 407.336C257.165 406.344 256.494 405.673 255.585 405.694C253.104 405.743 250.72 405.456 248.413 404.4C247.442 403.96 246.232 403.799 245.163 403.876C241.29 404.163 237.627 403.757 234.16 401.8C232.727 400.989 231.07 401.353 229.672 402.177C227.771 403.303 226.226 405.03 223.898 405.456C223.549 405.519 223.15 405.994 223.01 406.372C221.976 409.182 221.619 412.027 223.045 414.809C223.311 415.333 223.919 415.907 224.464 416.025C226.198 416.41 227.995 416.543 229.749 416.864C235.013 417.843 240.249 418.954 245.526 419.856C255.662 421.583 265.938 421.932 276.165 422.687C281.268 423.065 286.42 422.855 291.551 422.841C292.851 422.834 294.228 422.96 295.759 422.002C296.451 421.023 297.451 419.821 298.233 418.486C301.61 412.691 305.496 407.252 309.46 401.856C311.969 398.438 314.465 395.012 316.961 391.594C317.268 391.335 317.639 391.126 317.855 390.811C318.065 390.497 318.331 389.958 318.205 389.728C317.848 389.092 317.24 389.036 316.646 389.504ZM539.442 198.752C539.77 202.534 540.169 206.315 540.414 210.104C540.938 218.122 541.392 226.154 541.854 234.179C541.889 234.843 541.749 235.514 541.728 236.185C541.42 246.685 540.742 257.163 539.477 267.586C538.589 274.898 537.771 282.237 536.45 289.472C535.164 296.491 533.556 303.481 531.578 310.339C527.74 323.627 524.14 337.014 518.506 349.708C517.961 350.931 517.513 352.197 517.038 353.448C513.137 363.745 507.818 373.265 501.491 382.255C498.024 387.183 494.606 392.16 491.216 397.144C486.812 403.611 482.282 409.979 477.032 415.795C474.04 419.108 471.028 422.401 468.043 425.728C467.476 426.357 466.77 426.951 466.805 428.091C467.134 428.517 467.441 429.167 467.945 429.545C474.642 434.473 480.213 440.561 485.777 446.664C485.924 446.825 486.141 446.916 486.329 447.041C486.546 447.426 486.679 447.901 486.993 448.174C489.915 450.739 491.873 453.969 493.432 457.471C494.795 460.533 496.13 463.602 497.479 466.663C497.926 467.677 498.388 468.684 498.891 469.795C499.639 469.606 500.394 469.62 500.834 469.25C501.68 468.544 502.365 467.635 503.085 466.782C509.013 459.736 513.298 451.599 518.093 443.812C521.491 438.304 524.357 432.474 527.593 426.86C532.522 418.325 536.765 409.482 540.162 400.234C540.931 398.137 541.819 396.089 542.504 393.964C545.454 384.827 547.264 375.363 550.431 366.289C554.233 350.666 557.715 334.986 558.896 318.888C558.959 318 559.05 317.098 559.274 316.238C559.959 313.617 560.001 310.933 560.098 308.255C560.609 293.729 560.399 279.204 559.98 264.678C559.945 263.559 559.924 262.434 559.784 261.329C558.672 252.92 557.393 244.532 555.261 236.318C553.122 228.111 550.843 219.94 548.466 211.796C546.334 204.491 543.252 197.549 539.743 190.797C539.666 190.65 539.337 190.573 539.134 190.573C539.002 190.573 538.771 190.79 538.771 190.916C538.694 193.551 538.317 196.214 539.442 198.752ZM470.965 201.485C473.565 194.418 475.208 187.246 476.851 180.074C477.591 176.816 478.116 173.503 478.549 170.189C478.752 168.644 478.689 167.142 479.87 165.869C480.227 165.485 480.199 164.597 480.108 163.975C479.381 158.949 477.382 154.608 473.39 151.266C471.342 149.554 469.497 147.59 467.518 145.786C466.036 144.437 464.575 143.032 462.947 141.871C456.774 137.461 450.874 132.672 444.443 128.625C442.94 127.674 441.577 126.5 440.165 125.402C434.699 121.166 429.218 116.937 423.78 112.666C418.516 108.535 413.224 104.424 408.883 99.2584C408.024 98.2378 406.905 97.4409 406.038 96.4273C403.235 93.1628 399.223 91.4642 396.084 88.6191C393.141 85.9558 389.681 85.6482 386.109 87.3399C383.292 88.675 380.44 89.9892 377.755 91.562C370.444 95.8471 363.209 100.258 355.953 104.634C355.191 105.095 354.478 105.627 353.744 106.144C353.191 106.528 353.261 107.479 353.856 107.752C354.659 108.115 355.463 108.514 356.295 108.8C365.39 111.939 374.079 115.937 382.292 120.956C388.276 124.619 393.554 128.995 396.741 135.447C396.937 135.839 397.266 136.16 397.363 136.286C407.961 143.011 418.216 149.743 427.639 157.656C430.204 159.809 432.665 162.081 435.209 164.248C445.792 173.244 455.201 183.345 463.723 194.299C465.498 196.585 467.26 198.892 469.133 201.094C469.441 201.471 470.308 201.366 470.965 201.485ZM408.422 694.835C409.184 694.45 410.205 694.031 411.134 693.458C414.923 691.109 418.705 688.746 422.438 686.314C423.927 685.342 425.388 684.286 426.688 683.084C433.126 677.114 438.243 670.117 442.36 662.393C442.87 661.435 443.255 660.324 443.36 659.254C443.576 657.038 443.632 654.801 443.618 652.571C443.611 651.725 443.234 650.873 443.024 650.027C436.796 648.454 430.595 647.811 424.402 647.28C420.152 646.916 416.007 646.14 411.924 644.98C408.925 644.127 405.954 643.176 402.991 642.219C402.117 641.939 401.285 641.757 400.132 642.421C398.083 648.412 393.435 652.459 387.961 655.759C383.376 658.52 378.853 661.372 374.197 664.014C370.479 666.126 367.207 668.747 363.908 671.641C365.11 674.095 367.578 674.989 369.171 676.744C370.961 678.715 372.681 680.749 374.477 682.811C377.755 683.035 381.097 683.238 384.431 683.503C390.317 683.979 395.805 685.587 400.6 689.208C403.081 691.081 405.64 692.843 408.422 694.835ZM226.002 711.619C226.002 711.57 226.009 711.528 226.009 711.479C227.351 711.479 228.687 711.5 230.029 711.472C231.406 711.444 232.657 710.941 233.797 710.221C236.474 708.529 238.823 706.446 240.437 703.72C242.367 700.455 243.884 696.995 245.107 693.367C246.414 689.508 245.505 686.418 242.877 683.531C240.99 681.462 238.704 680.197 235.985 679.722C234.894 679.533 233.769 679.505 232.657 679.435C222.64 678.799 213.154 681.141 203.948 684.755C193.469 688.872 184.214 695.066 175.434 702.042C171.555 705.125 168.325 708.788 165.221 712.583C164.403 713.59 163.942 714.89 163.355 716.071C163.292 716.204 163.383 716.484 163.488 716.617C163.621 716.785 163.893 717.015 164.026 716.973C166.55 716.127 169.01 715.009 171.583 714.401C179.621 712.499 187.723 711.031 196.049 711.178C198.041 711.213 200.033 710.829 202.032 710.71C208.03 710.353 214.028 709.717 220.019 711.052C221.955 711.5 224.003 711.444 226.002 711.619ZM161.551 704.628C161.929 704.146 162.432 703.398 163.033 702.741C167.724 697.645 172.715 692.899 178.244 688.683C186.136 682.665 194.644 677.946 204.206 675.206C205.052 674.961 205.891 674.703 206.597 674.486C208.051 672.004 209.205 669.558 210.784 667.433C213.168 664.231 212.231 663.413 208.659 663.106C207.114 662.973 205.598 662.525 204.046 662.358C202.725 662.218 201.361 662.092 200.061 662.288C194.79 663.106 189.478 663.7 184.347 665.371C182.243 666.056 180.062 666.51 178.028 667.447C176.616 668.097 175.12 668.565 173.666 669.138C161.985 673.724 151.052 679.638 141.154 687.411C136.184 691.312 132.059 695.995 128.55 701.175C126.691 703.915 125.481 707.096 124.076 710.123C123.713 710.906 123.741 711.835 124.936 712.416C125.817 711.996 126.802 711.5 127.816 711.038C133.338 708.536 139.161 706.956 145.124 706.082C150.185 705.341 155.323 705.16 161.551 704.628ZM154.953 375.978C154.911 379.78 154.792 383.339 155.805 386.841C156.169 388.099 156.036 389.497 156.155 390.832C156.274 392.16 156.288 393.516 156.574 394.817C157.287 398.081 158.098 401.325 158.909 404.568C159.622 407.406 160.852 410.028 162.6 412.383C164.173 414.501 166.612 415.34 169.108 414.662C169.325 414.606 169.548 414.578 169.758 414.501C173.281 413.124 176.811 411.761 180.314 410.328C180.621 410.202 180.971 409.58 180.915 409.245C180.593 407.273 180.383 405.246 179.726 403.38C177.573 397.249 176.217 390.937 175.357 384.527C174.33 376.9 174.686 369.393 178.307 362.347C178.601 361.773 178.797 361.116 178.908 360.473C179.097 359.348 177.301 356.908 175.798 356.475C175.427 356.37 174.539 356.985 174.344 357.46C172.505 362.025 170.967 366.667 170.891 371.672C170.849 374.796 170.953 377.956 170.527 381.032C169.877 385.715 169.758 390.329 170.562 395.005C170.814 396.48 170.401 398.088 170.205 399.619C170.122 400.29 168.863 401.213 168.199 401.087C167.577 400.968 166.759 400.807 166.445 400.367C165.683 399.297 164.914 398.13 164.578 396.879C161.852 386.799 161.405 376.656 164.103 366.485C164.557 364.765 165.061 363.053 165.508 361.326C165.739 360.431 165.235 359.229 164.48 359.131C162.202 358.837 160.321 357.663 158.357 356.642C158.126 356.524 157.532 356.831 157.273 357.097C156.98 357.397 156.735 357.859 156.693 358.271C156.099 364.241 154.603 370.134 154.953 375.978ZM256.732 336.475C252.615 334.141 248.49 331.932 244.499 329.499C239.347 326.36 234.3 323.054 229.225 319.782C226.387 317.951 223.465 316.378 220.368 316.071C217.677 316.756 215.272 317.273 212.93 317.979C210.372 318.748 207.827 319.608 205.346 320.593C204.339 320.992 203.424 321.74 202.634 322.502C202.27 322.851 202.319 323.627 202.158 324.298C204.234 324.99 206.122 325.689 208.044 326.242C214.79 328.171 220.878 331.386 226.569 335.441C231.308 338.81 236.082 342.131 240.235 346.241C241.731 347.723 243.576 348.436 245.575 348.841C246.533 349.037 247.421 348.75 247.903 347.926C249.846 344.605 252.489 341.886 255.152 339.174C255.914 338.391 256.774 337.608 256.732 336.475ZM276.347 314.959C276.605 314.33 276.857 313.932 276.927 313.512C277.598 309.255 279.066 305.347 281.701 301.887C282.645 300.65 283.393 299.266 284.204 297.931C284.546 297.364 284.798 296.742 285.106 296.148C285.504 295.372 284.854 294.177 284.029 294.177C283.365 294.177 282.666 294.058 282.03 294.205C276.969 295.337 272.229 297.19 268.154 300.51C266.595 301.782 265.057 303.069 263.464 304.285C262.583 304.956 261.667 305.627 260.667 306.088C256.823 307.857 252.992 309.695 249.042 311.219C244.848 312.834 240.976 315.001 237.145 317.287C236.586 317.622 236.061 318.084 235.677 318.601C235.502 318.839 235.572 319.573 235.782 319.713C238.718 321.719 241.605 323.83 244.701 325.556C246.596 326.619 248.211 328.36 250.308 328.534C255.627 326.109 260.695 323.795 265.763 321.481C269.636 319.713 273.39 317.79 276.347 314.959ZM248.246 363.968C246.596 365.01 244.967 366.191 243.206 367.114C241.584 367.967 239.801 368.177 238.061 367.296C237.914 367.219 237.809 366.974 237.774 366.785C237.739 366.597 237.739 366.268 237.851 366.191C239.494 365.066 241.213 364.038 242.814 362.85C244.072 361.913 245.366 361.109 246.868 360.613C247.449 360.424 247.463 359.313 246.945 358.963C243.094 356.349 241.011 355.797 235.516 356.027C235.048 358.117 234.328 360.256 234.139 362.437C233.922 364.968 232.398 367.016 231.972 369.498C232.147 370.099 232.224 370.791 232.545 371.35C234.44 374.692 234.363 378.201 233.447 381.745C232.951 383.681 232.287 385.575 231.623 387.47C231.035 389.141 230.35 390.769 229.616 392.664C231.105 392.824 232.378 392.852 233.594 393.125C235.111 393.468 236.558 394.076 238.068 394.432C238.92 394.635 239.878 394.747 240.71 394.558C243.443 393.943 246.058 394.32 248.581 395.327C250.937 396.271 253.376 396.25 255.823 396.292C256.592 396.306 257.578 395.453 257.731 394.691C258.081 392.915 258.298 391.168 257.179 389.539C255.509 387.113 254.663 384.345 253.852 381.549C252.419 376.621 250.965 371.707 250.07 366.646C249.867 365.506 249.434 364.514 248.246 363.968ZM146.935 306.599C146.984 306.836 147.256 308.367 147.648 309.87C148.284 312.296 149.535 314.386 151.255 316.21C152.08 317.077 152.352 318.126 152.108 319.293C151.66 321.39 152.45 322.844 154.505 323.368C156.365 323.844 157.672 324.92 158.741 326.416C159 326.773 159.301 327.143 159.664 327.36C160.021 327.577 160.58 327.828 160.894 327.695C163.369 326.675 165.809 325.584 168.248 324.48C169.003 324.137 169.506 322.914 169.164 322.222C167.962 319.803 166.962 317.371 167.025 314.568C167.046 313.75 166.529 312.869 166.095 312.107C163.732 307.927 162.733 303.397 162.607 298.644C162.558 296.854 162.607 295.065 162.565 293.282C162.516 291.157 161.866 290.486 159.874 290.185C157.148 289.773 154.666 289.948 152.233 291.653C149.899 293.296 148.375 295.142 147.885 298.015C147.501 300.433 146.718 302.782 146.935 306.599ZM300.463 141.459C305.461 134.895 310.446 128.352 315.423 121.795C315.514 121.676 315.437 121.432 315.437 121.411C315.059 120.991 314.829 120.53 314.458 120.348C311.263 118.782 308.09 117.161 304.818 115.763C301.533 114.364 298.101 113.288 294.508 113.148C287.531 112.869 287.384 113.966 284.19 118.657C284.064 118.838 283.903 119.048 283.903 119.251C283.882 120.125 283.798 121.019 283.959 121.858C284.078 122.48 284.518 123.06 284.875 123.62C288.922 130.079 293.948 135.72 299.38 141.026C299.639 141.291 300.128 141.333 300.463 141.459ZM234.041 315.204C238.55 312.883 242.52 310.849 246.484 308.801C246.68 308.703 246.827 308.521 247.008 308.402C247.449 308.123 247.47 307.074 247.064 306.613C244.953 304.264 242.374 302.495 239.668 300.943C237.564 299.734 235.327 298.742 233.125 297.707C230.609 296.526 227.883 296.84 225.226 296.616C223.919 296.505 222.619 296.078 221.347 295.673C219.222 295.002 217.118 294.261 215.021 293.492C213.357 292.877 211.63 292.408 210.351 290.996C209.946 290.549 209.205 290.339 208.575 290.185C207.492 289.92 206.373 289.822 205.283 289.591C202.256 288.955 199.495 289.214 197.349 291.772C197.209 291.94 197.013 292.066 196.832 292.192C195.091 293.443 193.218 293.904 191.156 293.086C189.918 292.597 188.688 292.066 187.444 291.59C187.276 291.528 187.024 291.66 186.822 291.73C186.402 291.877 186.388 292.213 186.689 292.737C188.422 295.75 190.981 297.183 194.469 296.742C195.336 296.63 196.189 296.358 197.027 296.113C198.09 295.806 199.124 295.183 200.187 295.169C203.088 295.121 205.996 295.337 208.764 296.33C209.386 296.554 210.036 296.833 210.526 297.26C215.908 301.95 221.48 306.354 227.645 310.003C229.162 310.898 230.392 312.268 231.769 313.414C232.454 313.973 233.146 314.498 234.041 315.204ZM218.942 309.283C218.662 308.745 218.523 307.948 218.068 307.682C216.146 306.571 214.147 305.599 212.154 304.627C211.567 304.341 210.917 304.068 210.274 304.019C207.625 303.803 204.968 303.649 202.312 303.53C201.662 303.502 200.963 303.614 200.355 303.837C195.965 305.452 191.302 305.984 186.835 307.333C184.221 308.123 181.83 309.073 179.859 310.996C179.23 311.611 178.412 312.023 177.713 312.575C176.266 313.722 175.609 315.63 176.168 317.315C176.658 318.79 177.287 320.216 177.867 321.698C178.545 321.859 179.181 322.117 179.817 322.131C182.704 322.194 185.598 322.166 188.485 322.222C190.338 322.257 191.987 321.803 193.413 320.565C197.719 316.819 203.025 315.092 208.303 313.323C209.561 312.904 210.903 312.729 212.175 312.338C214.51 311.632 216.908 311.045 218.942 309.283ZM201.494 252.899C196.377 250.319 191.442 247.817 186.493 245.335C185.654 244.916 184.717 245.517 184.613 246.496C184.018 252.263 184.193 258.044 184.396 263.818C184.473 266.083 185.088 268.229 186.095 270.214C187.409 272.786 188.933 275.247 190.911 277.393C191.33 277.847 192.225 277.875 192.644 277.407C193.092 276.911 193.602 276.463 193.959 275.911C197.712 270.046 200.208 263.664 201.543 256.848C201.788 255.597 201.522 254.241 201.494 252.899ZM180.237 244.329C180.719 242.141 180.181 241.554 178.209 240.931C176.734 240.47 175.19 240.218 173.673 239.89C172.855 239.715 171.946 240.211 171.506 241.085C170.003 244.077 168.772 247.153 168.122 250.466C167.388 254.206 167.374 257.981 167.172 261.763C166.906 266.74 167.983 271.479 169.318 276.198C169.437 276.617 169.597 277.106 169.905 277.372C170.143 277.575 170.842 277.659 170.995 277.491C173.736 274.527 175.966 271.193 177.322 267.39C178.363 264.468 179.118 261.49 179.195 258.295C179.307 253.633 179.866 248.984 180.237 244.329ZM467.518 268.299C470.049 270.864 472.67 271.486 475.229 272.213C477.256 272.786 479.318 271.367 479.521 269.193C479.71 267.208 479.751 265.202 479.71 263.21C479.689 262.35 479.43 261.434 479.066 260.651C476.403 254.982 473.111 249.725 468.616 245.3C468.525 245.21 468.224 245.279 468.043 245.342C467.854 245.405 467.539 245.545 467.539 245.65C467.518 253.193 467.518 260.749 467.518 268.299ZM215.831 379.969C216.293 379.606 217.188 379.214 217.586 378.536C220.864 372.937 222.878 366.876 223.905 360.48C223.94 360.27 223.828 360.047 223.828 359.83C223.828 359.152 222.752 358.159 222.039 358.138C219.725 358.068 217.642 358.816 215.859 360.194C211.295 363.717 208.827 368.617 207.163 373.985C206.814 375.125 207.583 376.775 208.75 377.369C210.519 378.264 212.343 379.046 214.161 379.822C214.545 379.983 215.034 379.906 215.831 379.969ZM243.289 264.482C243.22 265.279 242.954 265.978 243.157 266.488C244.051 268.746 245.051 270.969 246.065 273.171C248.162 277.729 251.643 281.105 255.564 284.076C256.061 284.453 256.788 284.53 257.417 284.719C258.291 284.978 259.346 284.23 259.234 283.419C258.41 277.281 257.578 271.151 256.718 264.838C254.397 264.713 252.216 264.545 250.028 264.489C247.833 264.44 245.631 264.482 243.289 264.482ZM174.588 335.63C174.141 335.434 173.498 334.882 173.044 335.007C169.786 335.937 166.99 337.685 164.732 340.222C162.649 342.564 161.132 345.234 160.44 348.338C159.748 351.456 162.453 354.049 165.599 353.224C166.228 353.063 166.892 352.812 167.388 352.413C169.499 350.722 171.107 348.646 171.911 346.024C172.82 343.067 173.708 340.11 174.567 337.139C174.686 336.741 174.588 336.28 174.588 335.63ZM351.108 241.253C351.563 241.589 352.059 242.015 352.618 242.351C355.205 243.895 356.931 246.181 358.315 248.789C358.728 249.572 359.154 250.361 359.699 251.053C359.93 251.347 360.468 251.403 361.084 251.662C361.664 249.739 362.419 247.873 362.768 245.93C363.6 241.288 365.082 236.877 366.997 232.585C367.27 231.977 367.494 231.341 367.682 230.705C367.731 230.544 367.599 230.187 367.466 230.138C367.116 229.999 366.585 229.789 366.354 229.943C361.559 233.2 356.784 236.5 352.038 239.827C351.696 240.051 351.549 240.547 351.108 241.253ZM214.762 271.577C215.363 270.962 216.041 270.389 216.572 269.704C218.516 267.194 219.431 264.237 220.102 261.189C220.312 260.232 219.921 259.526 219.054 259.085C215.671 257.387 211.938 256.709 208.408 255.436C207.604 255.15 206.772 256.149 207.017 257.086C207.904 260.532 209.205 263.825 210.987 266.894C211.966 268.592 212.84 270.417 214.762 271.577ZM159.203 257.128C159.398 259.12 159.405 261.155 159.825 263.105C160.531 266.383 161.747 269.522 163.32 272.493C163.523 272.877 163.879 273.192 164.208 273.485C164.341 273.604 164.62 273.618 164.816 273.59C164.956 273.569 165.186 273.367 165.172 273.276C164.32 267.285 164.215 261.259 164.229 255.22C164.236 251.627 164.355 248.069 165.452 244.601C165.641 244.014 165.487 243.308 165.445 242.658C165.431 242.483 165.263 242.204 165.131 242.176C164.718 242.092 164.166 241.931 163.879 242.113C163.341 242.462 162.782 242.959 162.53 243.525C160.615 247.859 159.175 252.305 159.203 257.128ZM193.476 363.668C193.952 363.451 194.7 363.318 195.105 362.878C196.447 361.41 197.817 359.928 198.908 358.271C200.613 355.671 202.109 352.938 203.654 350.232C203.85 349.883 203.836 349.4 203.864 348.974C203.892 348.597 202.864 348.436 202.039 348.666C197.468 349.925 193.371 352.106 189.75 355.147C187.248 357.251 187.276 359.641 189.82 361.899C190.477 362.479 191.26 362.941 192.029 363.367C192.393 363.563 192.882 363.549 193.476 363.668ZM243.611 286.446C243.087 286.096 242.737 285.823 242.353 285.614C240.892 284.838 239.431 284.439 238.082 285.837C236.746 287.214 235.104 287.627 233.23 287.641C228.309 287.669 223.521 288.864 218.662 289.486C218.313 289.528 218.026 290.011 217.712 290.29C217.949 290.556 218.152 291.003 218.432 291.066C222.13 291.884 225.849 292.604 229.539 293.457C231.14 293.827 232.636 293.722 234.097 293.058C235.516 292.408 237.019 291.856 238.263 290.954C240.137 289.598 241.814 287.983 243.611 286.446ZM236.208 263.419C235.327 263.028 234.558 262.525 233.727 262.35C231.567 261.895 229.393 261.539 227.31 260.735C226.093 260.267 225.345 261.155 225.639 262.532C226.687 267.404 228.833 271.682 232.426 275.191C232.895 275.645 233.776 275.548 234.055 274.995C235.887 271.367 236.732 267.572 236.208 263.419ZM174.225 304.474C179.475 301.167 179.475 301.167 185.563 299.182C185.773 299.112 186.053 299.014 186.122 298.853C186.283 298.497 186.549 297.952 186.402 297.721C185.214 295.855 183.941 294.037 182.683 292.22C181.998 291.227 179.992 290.989 179.104 291.835C178.468 292.443 177.909 293.142 177.371 293.841C176.504 294.967 175.371 295.54 173.98 295.743C173.351 295.834 172.75 296.106 172.17 296.281C172.317 301.447 172.317 301.447 174.225 304.474ZM317.604 295.309C316.751 300.475 316.716 305.096 317.548 309.122C317.632 309.542 317.932 309.912 318.107 310.318C318.338 310.849 319.393 311.135 319.75 310.737C322.707 307.431 325.209 303.782 327.865 300.307C326.992 298.084 324.923 297.546 323.287 296.533C321.574 295.477 319.666 294.932 317.604 295.309ZM306.734 311.89C307.223 311.82 307.733 311.904 307.957 311.695C311.942 307.864 311.606 302.097 309.691 298.839C308.055 296.05 305.811 294.002 302.414 293.681C302.099 293.653 301.449 294.1 301.456 294.331C301.47 297.001 301.847 299.643 303.301 301.936C305.245 304.984 306.293 308.311 306.734 311.89ZM292.417 104.305C293.089 104.452 293.732 104.641 294.382 104.718C300.198 105.382 305.58 107.318 310.739 110.058C313.689 111.624 316.52 113.337 319.246 115.259C319.491 115.434 320.4 114.847 320.861 114.448C321.029 114.302 320.952 113.477 320.742 113.337C319.463 112.47 318.184 111.519 316.758 110.96C312.606 109.317 308.852 107.011 305.119 104.592C302.05 102.6 298.471 102.194 294.871 102.544C293.871 102.628 292.844 103.089 292.417 104.305ZM330.906 286.131C331.151 288.312 331.424 290.738 331.717 293.156C331.738 293.338 331.962 293.639 332.095 293.639C332.458 293.632 332.989 293.625 333.157 293.401C335.366 290.36 337.526 287.277 339.686 284.202C340.078 283.649 339.924 282.664 339.414 282.461C337.98 281.895 336.568 281.224 335.08 280.867C334.29 280.679 333.311 280.93 332.521 281.245C331.983 281.454 331.368 282.056 331.228 282.587C330.955 283.642 331.004 284.775 330.906 286.131ZM194.022 341.536C191.896 342.005 189.904 343.011 187.891 343.955C184.298 345.64 181.788 348.38 180.034 351.889C179.335 353.294 180.048 354.951 181.774 355.58C182.124 355.706 182.76 355.636 182.991 355.398C183.599 354.776 184.207 354.07 184.536 353.287C185.731 350.463 187.737 348.506 190.47 347.192C191.47 346.709 192.428 346.115 193.323 345.451C193.847 345.066 194.287 344.5 194.602 343.934C195.077 343.081 194.965 342.242 194.022 341.536ZM268.336 389.756C268.539 391.944 268.741 394.125 268.944 396.313C269.293 400.094 269.496 403.806 266.469 406.833C265.638 407.665 266.19 410.643 267.567 411.621C268.762 412.474 271.069 411.817 271.426 410.391C271.586 409.755 271.768 409.105 271.782 408.455C271.929 402.052 271.37 395.746 268.336 389.756ZM297.639 283.216C298.359 281.86 298.415 280.944 297.877 280.308C293.69 275.366 287.923 273.835 281.89 272.891C281.694 272.863 281.415 272.94 281.268 273.073C280.8 273.499 280.149 273.912 279.989 274.457C279.744 275.268 279.779 276.191 279.877 277.044C279.905 277.295 280.576 277.659 280.939 277.652C283.204 277.596 285.364 277.924 287.475 278.805C288.482 279.225 289.628 279.371 290.726 279.497C292.348 279.679 293.711 280.357 294.913 281.412C295.731 282.133 296.444 283.034 297.639 283.216ZM310.068 314.323C307.6 314.106 306.566 315.071 306.79 316.588C307.202 319.419 307.698 322.236 308.181 325.053C308.202 325.172 308.488 325.34 308.621 325.319C309.041 325.249 309.607 325.235 309.823 324.962C311.452 322.886 313.004 320.747 314.584 318.636C316.415 316.189 316.157 315.504 313.06 314.84C311.774 314.575 310.467 314.393 310.068 314.323ZM297.506 340.201C297.667 340.187 297.891 340.229 297.989 340.145C300.631 337.811 302.686 334.986 304.672 332.106C304.993 331.645 304.693 330.68 304.161 330.471C303.148 330.072 302.134 329.66 301.099 329.303C299.841 328.877 298.856 329.275 298.415 330.352C297.919 331.568 297.534 332.833 296.947 334.001C295.85 336.217 296.262 338.23 297.506 340.201ZM288.678 145.849C288.706 145.485 288.79 145.241 288.727 145.052C287.916 142.64 286.091 141.165 283.966 139.977C281.701 140.278 281.016 142.375 279.709 143.752C279.108 144.381 278.605 145.115 278.08 145.814C277.822 146.164 277.549 146.527 277.402 146.925C277.262 147.317 277.241 147.764 277.255 148.184C277.269 148.659 278.171 149.134 278.814 148.995C282.219 148.24 285.658 147.583 288.678 145.849ZM145.872 317.287C145.844 317.937 145.704 318.608 145.795 319.251C146.599 324.802 148.584 329.974 150.856 335.056C150.947 335.252 151.108 335.413 151.234 335.595C151.527 336.014 151.954 336.175 152.387 335.867C152.716 335.637 152.946 335.252 153.156 334.903C153.254 334.735 153.296 334.427 153.212 334.259C151.877 331.687 151.304 328.814 150.143 326.214C149.046 323.76 147.913 321.432 147.725 318.692C147.676 317.958 147.026 317.147 145.872 317.287ZM279.52 262.273C281.841 264.615 283.847 265.733 289.726 267.977C289.915 267.586 290.243 267.194 290.264 266.796C290.383 264.482 289.237 262.539 288.335 260.525C286.315 259.47 284.428 260.665 282.498 260.924C281.422 261.071 280.289 261.343 279.52 262.273ZM271.894 266.761C271.838 266.02 271.768 265.146 271.691 264.272C271.642 263.748 270.831 263.035 270.293 263.105C268.119 263.398 265.945 263.685 263.785 264.069C263.554 264.111 263.394 264.748 263.282 265.139C263.233 265.314 263.359 265.586 263.478 265.754C264.932 267.732 266.707 269.361 268.776 270.682C270.23 271.612 271.453 271.144 271.621 269.543C271.719 268.662 271.796 267.788 271.894 266.761ZM285.944 313.239C285.644 311.779 285.322 310.723 285.238 309.646C285.141 308.353 285.266 307.039 285.259 305.739C285.259 305.557 285.029 305.215 284.931 305.222C284.532 305.25 283.98 305.257 283.77 305.508C281.575 308.144 280.562 311.198 280.275 315.98C282.058 315.113 283.749 314.295 285.944 313.239ZM278.975 288.032C279.45 288.564 279.737 288.906 280.045 289.228C281.946 291.213 284.316 291.458 286.839 290.989C287.776 290.814 288.377 290.143 288.797 289.319C289.027 288.864 288.622 287.704 288.202 287.557C286.294 286.893 284.351 286.397 282.323 286.501C281.198 286.557 280.142 286.9 278.975 288.032ZM278.591 338.216C278.325 337.699 278.234 337.153 277.927 336.972C276.787 336.294 275.606 335.664 274.382 335.161C273.509 334.798 272.642 335.14 271.866 335.637C271.083 336.14 270.817 337.321 271.293 337.957C272.537 339.621 274.285 340.558 276.123 341.369C276.619 341.585 277.591 341.194 277.801 340.628C278.108 339.796 278.353 338.95 278.591 338.216ZM257.745 342.892C257.354 342.955 256.781 342.872 256.592 343.095C254.816 345.283 253.104 347.52 251.384 349.757C251.265 349.918 251.265 350.162 251.195 350.365C251.028 350.875 251.202 351.211 251.671 351.456C252.971 352.134 253.873 352.043 254.474 350.994C255.662 348.925 256.802 346.821 257.906 344.703C258.088 344.353 258.067 343.871 258.06 343.445C258.06 343.263 257.857 343.081 257.745 342.892ZM210.316 334.462C213.056 334.805 214.37 335.014 215.699 335.098C215.95 335.112 216.272 334.665 216.481 334.371C216.551 334.273 216.412 333.882 216.272 333.805C215.496 333.4 214.706 333.022 213.895 332.694C212.252 332.023 210.603 331.372 208.939 330.757C208.03 330.422 207.45 331.009 207.366 332.281C207.268 333.868 207.639 334.364 209.079 334.455C209.96 334.511 210.854 334.462 210.316 334.462ZM247.505 293.541C247.141 293.541 246.645 293.408 246.274 293.562C244.443 294.345 242.618 295.176 240.843 296.078C240.619 296.19 240.626 296.861 240.633 297.274C240.633 297.392 240.976 297.609 241.171 297.623C243.674 297.77 245.995 297.05 248.253 296.071C248.819 295.827 249.49 294.876 249.203 294.624C248.735 294.205 248.134 293.925 247.505 293.541ZM282.33 694.982C284.742 693.402 287.454 691.969 289.733 689.872C289.887 689.732 289.936 689.48 290.062 689.305C290.327 688.942 289.852 687.733 289.391 687.656C288.971 687.593 288.475 687.446 288.118 687.593C285.176 688.795 282.953 690.878 281.247 693.514C281.1 693.744 281.352 694.276 281.506 694.639C281.561 694.772 281.862 694.8 282.33 694.982ZM261.87 350.617C261.324 350.764 260.779 350.743 260.604 350.98C259.85 352.057 259.13 353.168 258.521 354.336C257.669 355.978 257.906 356.684 259.626 358.313C259.78 358.46 260.08 358.684 260.178 358.628C260.535 358.432 261.031 358.187 261.122 357.859C261.807 355.51 261.849 353.091 261.87 350.617ZM325.279 254.01C325.258 252.668 324.44 252.018 323.538 252.291C321.665 252.864 319.792 253.444 317.953 254.108C317.743 254.185 317.674 254.772 317.646 255.136C317.632 255.297 317.834 255.534 317.995 255.639C319.708 256.716 321.595 257.1 323.566 256.709C324.105 256.604 324.671 256.017 324.964 255.499C325.258 254.968 325.237 254.255 325.279 254.01ZM343.538 277.973C344.447 276.456 345.334 275.002 346.194 273.527C346.446 273.094 345.726 272.234 345.062 272.29C344.223 272.36 343.377 272.493 342.58 272.758C342.273 272.863 341.874 273.402 341.902 273.709C342.021 275.191 342.231 276.673 343.538 277.973ZM299.527 260.805C299.925 263.182 301.393 264.349 303.371 264.978C303.651 265.069 304.294 264.748 304.434 264.454C305.133 262.993 305.021 261.469 304.343 260.036C304.21 259.756 303.581 259.463 303.28 259.547C302.022 259.882 300.799 260.365 299.527 260.805ZM295.13 343.71C294.857 343.403 294.626 343.053 294.312 342.788C293.906 342.445 293.508 342.557 293.158 342.955C292.124 344.13 291.579 345.5 291.53 347.059C291.523 347.247 291.642 347.492 291.781 347.611C291.907 347.716 292.264 347.786 292.327 347.709C293.298 346.597 294.249 345.465 295.172 344.312C295.263 344.2 295.144 343.913 295.13 343.71ZM255.991 329.387C256.781 331.463 257.508 331.771 258.654 330.659C259.262 330.065 259.738 329.331 260.241 328.639C260.297 328.562 260.178 328.29 260.066 328.185C259.926 328.052 259.661 327.891 259.528 327.94C258.34 328.395 257.165 328.898 255.991 329.387ZM166.291 240.582C166.067 240.715 165.795 240.869 165.529 241.029C165.669 241.169 165.844 241.456 165.941 241.435C166.235 241.365 166.501 241.169 166.773 241.029C166.626 240.883 166.48 240.75 166.291 240.582Z" fill="#070807"/>
<path d="M470.963 201.485C470.306 201.366 469.446 201.471 469.132 201.101C467.258 198.899 465.497 196.592 463.721 194.306C455.207 183.352 445.791 173.251 435.208 164.254C432.656 162.087 430.196 159.816 427.637 157.663C418.214 149.75 407.959 143.018 397.362 136.293C397.271 136.167 396.936 135.846 396.74 135.454C393.552 128.995 388.275 124.619 382.291 120.963C374.077 115.944 365.388 111.946 356.294 108.807C355.462 108.521 354.658 108.122 353.854 107.759C353.253 107.486 353.19 106.535 353.742 106.151C354.469 105.641 355.189 105.102 355.951 104.641C363.207 100.265 370.442 95.854 377.754 91.569C380.438 89.9961 383.291 88.6889 386.108 87.3468C389.68 85.6551 393.14 85.9627 396.083 88.626C399.221 91.4711 403.234 93.1698 406.037 96.4342C406.904 97.4478 408.029 98.2447 408.882 99.2653C413.223 104.431 418.515 108.542 423.779 112.673C429.217 116.944 434.697 121.173 440.164 125.409C441.576 126.507 442.939 127.681 444.442 128.632C450.873 132.679 456.773 137.468 462.945 141.878C464.574 143.039 466.028 144.444 467.517 145.793C469.495 147.597 471.341 149.561 473.389 151.273C477.38 154.615 479.38 158.956 480.107 163.982C480.198 164.604 480.225 165.492 479.869 165.876C478.688 167.148 478.744 168.651 478.548 170.196C478.114 173.51 477.597 176.823 476.849 180.081C475.206 187.246 473.564 194.425 470.963 201.485Z" fill="white"/>
<path d="M300.462 141.459C300.127 141.333 299.637 141.291 299.372 141.025C293.94 135.727 288.914 130.079 284.867 123.619C284.517 123.053 284.077 122.48 283.951 121.858C283.783 121.019 283.874 120.124 283.895 119.25C283.902 119.048 284.056 118.838 284.182 118.656C287.383 113.966 287.523 112.868 294.499 113.148C298.092 113.288 301.532 114.364 304.81 115.762C308.082 117.16 311.255 118.782 314.45 120.348C314.82 120.53 315.051 120.991 315.428 121.411C315.428 121.431 315.505 121.676 315.414 121.795C310.444 128.352 305.453 134.902 300.462 141.459Z" fill="white"/>
<path d="M201.496 252.899C201.524 254.234 201.79 255.597 201.545 256.849C200.21 263.664 197.714 270.047 193.96 275.911C193.604 276.464 193.094 276.918 192.646 277.407C192.227 277.876 191.332 277.848 190.913 277.393C188.941 275.247 187.411 272.787 186.096 270.214C185.083 268.229 184.475 266.083 184.398 263.818C184.195 258.037 184.02 252.263 184.614 246.496C184.712 245.517 185.649 244.916 186.495 245.336C191.444 247.824 196.379 250.32 201.496 252.899Z" fill="white"/>
<path d="M180.237 244.329C179.867 248.985 179.308 253.633 179.189 258.296C179.112 261.49 178.357 264.475 177.315 267.39C175.959 271.193 173.729 274.527 170.989 277.491C170.828 277.659 170.136 277.575 169.899 277.372C169.591 277.107 169.43 276.617 169.311 276.198C167.983 271.48 166.9 266.74 167.165 261.763C167.368 257.988 167.382 254.213 168.116 250.467C168.766 247.146 169.989 244.071 171.499 241.086C171.94 240.212 172.848 239.716 173.666 239.89C175.183 240.219 176.728 240.47 178.203 240.932C180.181 241.554 180.72 242.141 180.237 244.329Z" fill="white"/>
<path d="M407.956 158.837C409.899 160.333 411.871 161.808 413.779 163.339C415.52 164.737 417.162 166.261 418.917 167.638C425.802 173.006 432.164 178.941 438.154 185.281C443.83 191.286 449.611 197.2 455.302 203.198C456.986 204.973 458.538 206.881 460.146 208.727C459.629 208.72 459.517 209.461 459.915 210.195C458.14 208.846 456.203 207.664 454.63 206.113C449.22 200.779 443.082 196.228 438.049 190.496C437.903 190.328 437.749 190.161 437.581 190.021C430.696 184.31 424.761 177.585 418.05 171.685C414.031 168.148 410.305 164.282 406.453 160.571C406.963 159.99 407.46 159.41 407.956 158.837Z" fill="white"/>
<path d="M467.52 268.299C467.52 260.749 467.52 253.193 467.541 245.643C467.541 245.538 467.855 245.398 468.044 245.335C468.226 245.273 468.519 245.203 468.617 245.294C473.112 249.718 476.397 254.975 479.068 260.644C479.438 261.427 479.697 262.343 479.711 263.203C479.753 265.195 479.711 267.201 479.522 269.186C479.319 271.367 477.257 272.787 475.23 272.206C472.678 271.486 470.057 270.864 467.52 268.299Z" fill="white"/>
<path d="M243.29 264.482C245.624 264.482 247.826 264.433 250.028 264.496C252.216 264.552 254.397 264.72 256.718 264.845C257.571 271.158 258.41 277.288 259.234 283.426C259.346 284.237 258.291 284.985 257.417 284.726C256.788 284.537 256.061 284.46 255.565 284.083C251.643 281.112 248.162 277.736 246.065 273.178C245.051 270.969 244.051 268.753 243.157 266.495C242.961 265.978 243.227 265.286 243.29 264.482Z" fill="white"/>
<path d="M442.801 204.604C444.353 206.19 445.919 207.77 447.456 209.364C451.161 213.202 454.845 217.06 458.557 220.898C464.436 226.98 469.874 233.446 475.068 240.114C476.564 242.037 477.725 244.211 479.039 246.259C478.514 246.727 477.99 247.21 477.466 247.692C477.214 247.328 476.942 246.972 476.704 246.601C472.02 239.248 465.918 233.131 459.85 226.966C456.586 223.645 453.447 220.199 450.315 216.753C447.191 213.306 444.15 209.783 441.074 206.302C441.654 205.736 442.228 205.17 442.801 204.604Z" fill="white"/>
<path d="M214.761 271.577C212.839 270.417 211.958 268.585 210.986 266.901C209.211 263.825 207.911 260.532 207.016 257.093C206.771 256.157 207.61 255.15 208.407 255.443C211.937 256.716 215.67 257.394 219.053 259.092C219.92 259.526 220.311 260.239 220.102 261.197C219.431 264.244 218.515 267.201 216.572 269.711C216.04 270.389 215.369 270.962 214.761 271.577Z" fill="white"/>
<path d="M159.204 257.128C159.176 252.298 160.616 247.859 162.531 243.539C162.783 242.973 163.342 242.469 163.88 242.127C164.167 241.938 164.719 242.099 165.131 242.19C165.271 242.218 165.439 242.497 165.446 242.672C165.488 243.322 165.642 244.028 165.453 244.615C164.348 248.083 164.237 251.634 164.23 255.234C164.216 261.273 164.32 267.299 165.173 273.29C165.187 273.381 164.957 273.576 164.817 273.604C164.621 273.632 164.341 273.618 164.209 273.499C163.873 273.206 163.517 272.891 163.321 272.507C161.748 269.529 160.532 266.397 159.826 263.119C159.406 261.162 159.399 259.127 159.204 257.128Z" fill="white"/>
<path d="M236.209 263.42C236.74 267.572 235.887 271.368 234.063 274.996C233.783 275.541 232.902 275.646 232.434 275.192C228.841 271.682 226.695 267.404 225.646 262.532C225.353 261.155 226.094 260.267 227.317 260.736C229.4 261.539 231.567 261.896 233.734 262.35C234.559 262.518 235.321 263.021 236.209 263.42Z" fill="white"/>
<path d="M442.802 204.602C442.229 205.169 441.656 205.735 441.076 206.294C436.385 201.541 431.681 196.815 427.025 192.048C422.516 187.427 418.175 182.632 413.191 178.5C412.646 178.053 412.562 177.06 412.974 176.781C413.673 176.298 414.163 176.837 414.708 177.095C414.904 177.186 415.072 177.347 415.239 177.494C424.732 186.218 434.239 194.928 442.802 204.602Z" fill="white"/>
<path d="M317.602 295.309C319.664 294.924 321.572 295.477 323.285 296.532C324.92 297.546 326.997 298.084 327.863 300.307C325.207 303.781 322.705 307.43 319.748 310.737C319.391 311.135 318.336 310.848 318.105 310.317C317.93 309.912 317.637 309.541 317.546 309.122C316.714 305.095 316.749 300.482 317.602 295.309Z" fill="white"/>
<path d="M330.906 286.131C331.004 284.775 330.962 283.643 331.221 282.587C331.354 282.049 331.969 281.455 332.514 281.245C333.304 280.931 334.283 280.679 335.072 280.868C336.561 281.217 337.973 281.888 339.406 282.462C339.917 282.664 340.071 283.65 339.679 284.202C337.519 287.278 335.359 290.354 333.15 293.401C332.982 293.625 332.451 293.639 332.088 293.639C331.962 293.639 331.738 293.338 331.71 293.157C331.417 290.731 331.151 288.312 330.906 286.131Z" fill="white"/>
<path d="M310.068 314.323C310.46 314.393 311.774 314.574 313.06 314.847C316.157 315.511 316.416 316.189 314.584 318.643C313.004 320.754 311.452 322.893 309.824 324.969C309.614 325.242 309.041 325.256 308.621 325.325C308.489 325.346 308.202 325.179 308.181 325.06C307.699 322.243 307.202 319.426 306.79 316.595C306.573 315.071 307.601 314.113 310.068 314.323Z" fill="white"/>
<path d="M297.506 340.201C296.262 338.229 295.843 336.216 296.947 334.007C297.534 332.84 297.919 331.575 298.415 330.358C298.863 329.275 299.848 328.876 301.099 329.31C302.134 329.659 303.148 330.072 304.161 330.477C304.693 330.687 304.993 331.645 304.672 332.113C302.686 334.993 300.631 337.824 297.989 340.152C297.891 340.236 297.674 340.187 297.506 340.201Z" fill="white"/>
<path d="M279.52 262.274C280.288 261.337 281.421 261.071 282.497 260.925C284.427 260.666 286.314 259.464 288.334 260.526C289.236 262.539 290.376 264.483 290.264 266.796C290.243 267.195 289.914 267.586 289.725 267.978C283.847 265.741 281.84 264.615 279.52 262.274Z" fill="white"/>
<path d="M271.893 266.76C271.795 267.788 271.711 268.662 271.62 269.543C271.452 271.143 270.236 271.612 268.775 270.682C266.706 269.361 264.931 267.732 263.477 265.754C263.351 265.586 263.232 265.313 263.281 265.139C263.386 264.754 263.553 264.111 263.784 264.069C265.944 263.685 268.118 263.391 270.292 263.104C270.837 263.035 271.648 263.741 271.69 264.272C271.767 265.146 271.837 266.026 271.893 266.76Z" fill="white"/>
<path d="M477.465 247.692C477.989 247.209 478.506 246.734 479.038 246.259C483.351 251.173 485.539 257.115 487.342 263.238C487.447 263.581 487.132 264.049 487.014 264.462C486.615 264.322 486.203 264.21 485.818 264.028C485.63 263.937 485.434 263.749 485.371 263.56C483.428 257.926 479.939 253.06 477.465 247.692Z" fill="white"/>
<path d="M407.954 158.837C407.458 159.41 406.962 159.99 406.458 160.556C403.194 159.088 400.398 157.005 398.098 154.279C397.916 154.062 398.042 153.475 398.189 153.132C398.385 152.657 398.832 152.615 399.314 152.881C399.503 152.986 399.741 153.007 399.922 153.126C402.726 154.859 405.571 156.53 407.954 158.837Z" fill="white"/>
<path d="M325.282 254.01C325.24 254.255 325.261 254.968 324.96 255.499C324.674 256.017 324.1 256.604 323.562 256.709C321.598 257.1 319.71 256.716 317.991 255.639C317.823 255.534 317.627 255.297 317.641 255.136C317.676 254.772 317.746 254.185 317.949 254.108C319.794 253.451 321.661 252.864 323.534 252.291C324.443 252.018 325.268 252.668 325.282 254.01Z" fill="white"/>
<path d="M343.539 277.974C342.232 276.667 342.023 275.192 341.904 273.71C341.876 273.402 342.274 272.857 342.582 272.759C343.372 272.493 344.225 272.361 345.063 272.291C345.727 272.235 346.454 273.095 346.196 273.528C345.336 275.003 344.448 276.457 343.539 277.974Z" fill="white"/>
<path d="M299.527 260.805C300.8 260.365 302.023 259.882 303.281 259.54C303.582 259.456 304.211 259.75 304.344 260.029C305.029 261.469 305.134 262.986 304.435 264.447C304.295 264.741 303.659 265.062 303.372 264.971C301.401 264.356 299.933 263.182 299.527 260.805Z" fill="white"/>
<path d="M239.16 659.101C236.804 657.731 235.105 655.647 233.309 653.662C233.518 653.627 233.742 653.536 233.945 653.571C237.013 654.159 238.922 655.843 239.16 659.101Z" fill="#B5C20D"/>
<path d="M316.961 391.594C316.85 390.895 316.738 390.203 316.633 389.504C317.241 389.036 317.849 389.092 318.199 389.728C318.331 389.959 318.066 390.497 317.849 390.811C317.639 391.126 317.262 391.336 316.961 391.594Z" fill="#B5C20D"/>
<path d="M278.206 687.25C278.416 688.452 277.786 689.263 276.934 689.969L276.983 690.018C277.129 688.977 277.052 687.83 278.318 687.341C278.311 687.341 278.206 687.25 278.206 687.25Z" fill="#7B8B27"/>
<path d="M471.613 535.623C472.095 535.707 472.585 535.791 473.067 535.882C472.997 536.301 472.955 536.735 472.83 537.14C472.774 537.315 472.452 537.58 472.396 537.545C472.102 537.385 471.718 537.182 471.627 536.902C471.494 536.518 471.606 536.049 471.613 535.623Z" fill="#7B8B27"/>
<path d="M469.177 734.728C468.736 733.4 468.89 732.289 470.267 731.597C470.47 732.834 470.211 733.917 469.177 734.728Z" fill="#7B8B27"/>
<path d="M459.92 210.195C459.521 209.468 459.633 208.72 460.15 208.727C461.213 209.726 461.262 209.768 460.703 210.467C460.367 210.887 460.018 210.719 459.92 210.195Z" fill="#B5C20D"/>
<path d="M350.92 758.67C350.962 759.837 350.619 760.774 349.375 761.151C349.277 759.935 349.62 759.005 350.92 758.67Z" fill="#7B8B27"/>
<path d="M473.062 535.84C472.901 535.085 473.208 534.561 473.858 534.197C474.026 534.952 473.817 535.525 473.062 535.84Z" fill="#7B8B27"/>
<path d="M317.148 596.047L317.407 596.299L317.204 595.991L317.148 596.047Z" fill="#7B8B27"/>
<path d="M484.835 616.243C484.115 616.089 483.654 615.67 483.5 614.936C484.29 615.012 484.737 615.453 484.835 616.243Z" fill="#7B8B27"/>
<path d="M266.182 342.354C266.077 342.529 265.916 342.858 265.867 342.844C265.462 342.725 265.588 342.536 266.203 342.375L266.182 342.354Z" fill="#7B8B27"/>
<path d="M221.936 338.315C221.405 338.384 221.174 338.203 221.272 337.776C221.279 337.755 221.594 337.741 221.663 337.818C221.782 337.958 221.824 338.168 221.901 338.349L221.936 338.315Z" fill="#7B8B27"/>
<path d="M276.927 689.977L276.738 690.165L276.976 690.019L276.927 689.977Z" fill="#7B8B27"/>
<path d="M264.757 291.919C264.583 292.415 264.247 292.597 263.758 292.471C263.968 292.052 264.303 291.87 264.757 291.919Z" fill="#7B8B27"/>
<path d="M346.69 289.472C346.41 290.262 346.054 290.989 345.25 291.387C345.732 290.744 346.208 290.108 346.69 289.472Z" fill="#B5C20D"/>
<path d="M166.289 240.582C166.478 240.75 166.625 240.89 166.772 241.022C166.499 241.169 166.233 241.358 165.94 241.428C165.842 241.449 165.667 241.169 165.527 241.022C165.8 240.869 166.066 240.715 166.289 240.582Z" fill="#B5C20D"/>
<path d="M348.02 229.711C348.558 229.229 349.096 228.747 349.641 228.271C349.103 228.747 348.565 229.229 348.02 229.711Z" fill="#B5C20D"/>
<path d="M470.525 730.702C470.204 729.947 470.378 729.318 471 728.801C471.308 729.549 471.168 730.185 470.525 730.702Z" fill="#7B8B27"/>
<path d="M270.748 753.379C270.042 753.113 269.797 752.715 270.419 752.128C270.503 752.044 270.88 752.093 270.922 752.17C271.146 752.638 270.978 753.016 270.51 753.267C270.531 753.281 270.748 753.379 270.748 753.379Z" fill="white"/>
<path d="M232.818 757.301C232.182 756.476 232.546 755.777 233.077 755.092C233.482 755.427 233.902 755.763 234.314 756.098C234.007 756.783 233.419 757.056 232.734 757.189L232.818 757.301Z" fill="#B5C20D"/>
<path d="M353.025 755.294C353.186 756.203 352.836 756.811 351.941 757.083C351.941 756.266 352.312 755.678 353.025 755.294Z" fill="#7B8B27"/>
<path d="M232.736 757.196C232.568 757.308 232.394 757.42 232.226 757.531C232.037 757.175 232.233 757.098 232.813 757.301C232.82 757.301 232.736 757.196 232.736 757.196Z" fill="#B5C20D"/>
<path d="M280.969 784.045C281.171 783.234 281.668 782.801 282.528 782.863C282.318 783.66 281.752 784.003 280.969 784.045Z" fill="#7B8B27"/>
<path d="M318.17 161.724C317.771 150.469 326.125 138.174 338.931 134.287C345.963 132.155 352.611 132.91 358.924 136.503C366.99 141.088 371.436 150.581 370.22 159.781C368.584 172.133 358.658 183.31 344.398 184.89C334.828 185.952 322.874 181.304 319.002 167.666C318.464 165.757 318.436 163.709 318.17 161.724ZM329.655 152.154C331.046 152.224 332.311 151.854 333.423 151.029C334.318 150.365 335.177 149.638 336.058 148.953C337.526 147.806 339.26 147.247 341.063 147.331C342.825 147.415 344.649 147.631 346.32 148.177C353.429 150.511 356.176 159.459 353.157 164.639C351.912 166.771 351.004 169.015 350.395 171.434C349.843 173.628 348.557 175.488 346.816 176.998C346.019 177.69 345.006 178.235 344.859 179.675C346.439 179.472 347.963 179.137 349.501 179.102C351.863 179.053 353.87 178.088 355.722 176.837C361.335 173.041 364.921 167.666 366.529 161.193C368.011 155.244 365.669 148.526 359.881 144.905C354.422 141.494 348.662 140.62 342.538 142.375C337.498 143.815 333.115 146.429 329.62 150.4C329.347 150.714 329.264 151.196 329.089 151.595C328.572 151.77 327.893 152.049 328.404 152.637C328.844 153.168 329.354 152.657 329.655 152.154ZM344.747 164.247C344.971 164.226 345.195 164.206 345.418 164.192C347.334 164.101 348.85 163.031 349.48 161.242C350.053 159.599 349.459 158.215 348.431 156.922C346.04 153.888 342.958 152.427 339.092 152.706C336.757 152.874 335.66 153.678 335.974 156.069C336.792 162.465 340.56 164.275 344.747 164.247Z" fill="#070807"/>
<path d="M419.802 460.148C426.94 460.267 434.084 460.421 441.221 460.498C444.597 460.533 447.883 461.113 451.147 461.854C452.014 462.05 452.867 462.329 453.706 462.609C461.115 465.083 465.722 470.026 467.134 477.813C467.484 479.756 466.729 480.791 464.75 480.847C463.632 480.875 462.52 480.854 461.402 480.84C448.903 480.714 436.405 480.546 423.913 480.469C419.879 480.448 415.874 480.155 411.952 479.246C409.583 478.701 407.22 477.925 405.004 476.918C398.608 474.003 395.12 468.823 393.938 461.994C393.743 460.854 394.595 459.666 395.707 459.666C399.496 459.673 403.291 459.687 407.08 459.778C411.316 459.883 415.552 460.085 419.788 460.239C419.795 460.211 419.795 460.176 419.802 460.148Z" fill="#070807"/>
<path d="M442.994 514.233C436.304 514.233 429.622 514.219 422.932 514.24C419.122 514.247 415.375 513.792 411.691 512.786C408.434 511.898 405.351 510.633 402.723 508.466C398.578 505.055 396.117 500.714 395.739 495.289C395.705 494.8 396.432 493.94 396.956 493.905C398.067 493.842 399.179 493.751 400.29 493.758C412.775 493.891 425.26 494.045 437.744 494.192C441.988 494.241 446.224 494.443 450.376 495.331C452.76 495.841 455.164 496.442 457.415 497.358C463.399 499.791 467.216 504.209 468.579 510.577C469.411 514.471 468.586 515.093 465.056 515.016C457.702 514.855 450.348 514.61 442.994 514.408C442.994 514.352 442.994 514.296 442.994 514.233Z" fill="#070807"/>
<path d="M204.38 215.242C203.31 214.935 202.185 214.753 201.192 214.285C198.068 212.81 196.362 210.147 196.474 206.819C196.705 199.997 198.459 193.572 203.206 188.386C208.078 183.059 213.768 179.005 220.807 176.754C227.085 174.747 233.04 174.887 239.017 177.502C239.409 178.299 239.884 179.067 240.184 179.899C241.75 184.303 240.786 187.868 237.207 190.588C236.347 191.238 235.277 191.706 234.229 192.007C232.306 192.559 230.335 192.95 228.371 193.363C225.708 193.922 223.317 195.089 221.094 196.606C218.626 198.291 216.676 200.36 216.368 203.541C216.326 203.981 216.145 204.4 216.068 204.841C215.39 208.916 212.985 211.58 209.392 213.46C207.77 214.313 206.086 214.76 204.38 215.242Z" fill="#070807"/>
<path d="M329.654 152.155C329.354 152.658 328.843 153.168 328.389 152.644C327.886 152.057 328.557 151.77 329.074 151.603C329.27 151.777 329.458 151.966 329.654 152.155Z" fill="#B5C20D"/>
</svg>
