<?xml version="1.0" encoding="utf-8"?>
<!-- Generator: Adobe Illustrator 27.9.0, SVG Export Plug-In . SVG Version: 6.00 Build 0)  -->
<svg version="1.1" id="Ebene_1" xmlns="http://www.w3.org/2000/svg" xmlns:xlink="http://www.w3.org/1999/xlink" x="0px" y="0px"
	 viewBox="0 0 1190.55 841.89" style="enable-background:new 0 0 1190.55 841.89;" xml:space="preserve">
<style type="text/css">
	.st0{fill:#080808;}
	.st1{fill:#7B8B27;}
	.st2{fill:#FFFFFF;}
	.st3{fill:#B5C30D;}
	.st4{fill:#EC6608;}
</style>
<g>
	<path class="st0" d="M498.87,402.39c0.98-0.1,1.44-0.8,1.86-1.5c3.21-5.33,6.82-10.38,10.69-15.25c2.8-3.52,5.72-6.95,8.52-10.47
		c1.74-2.17,3.46-4.37,5.03-6.67c6.66-9.72,12.93-19.68,18.42-30.12c2.95-5.61,4.14-11.66,4.87-17.86c0.05-0.42,0.06-0.86,0-1.28
		c-0.35-2.54-1.05-5.08-1-7.61c0.05-2.56,0.37-5.14,0-7.69c-0.45-3.17-1.11-6.31-1.7-9.58c-2.58-2.05-5.35-3.5-8.59-4.11
		c-3.35-0.64-6.65-1.62-10.03-2.03c-5.1-0.62-10.24-0.97-15.37-1.26c-7.08-0.41-14.12,0.1-21.11,1.39
		c-6.31,1.16-12.63,2.3-18.96,3.41c-1.05,0.19-2.13,0.24-3.2,0.3c-3.21,0.16-6.42,0.29-9.63,0.42c-5.19,0.21-10.29-0.41-15.17-2.2
		c-10.52-3.85-19.44-9.87-25.7-19.39c-1.18-1.79-2.3-3.61-3.52-5.38c-0.96-1.41-1.9-2.86-3.46-3.68c-1.74-0.15-2.38,1.56-3.71,2.12
		c-1.45,0.6-2.86,0.96-4.33,0.27c-1.55-0.72-3.11-1.44-4.58-2.3c-1.65-0.97-3.2-2.11-4.89-3.24c-0.52,0.35-1.15,0.58-1.5,1.04
		c-0.78,1.01-1.56,2.07-2.1,3.22c-1.03,2.23-3.05,3.56-4.58,5.32c-0.58,0.66-1.53,0.71-2.4,0.59c-3.73-0.53-6.94-2.12-9.56-4.85
		c-7.6-7.92-12.61-17.18-14.69-28.03c-0.91-4.74-0.58-9.41,0.33-14.05c1.16-5.89,2.6-11.71,5.72-16.98
		c-0.43-9.13,1.44-17.96,3.9-26.61c3.11-10.98,7.91-21.21,14.85-30.4c6.92-9.17,15.15-16.86,24.76-23.13
		c3.27-2.13,6.78-3.75,10.49-4.75c4.75-1.27,9.53-2.5,14.47-2.93c0.21-0.02,0.43-0.01,0.64-0.06c8.19-2.17,16.62-1.22,24.93-1.88
		c7.47,0.52,15.03,0.38,22.31,2.4c2.81,0.78,5.48,0.78,8.21,0.1c2.68-0.66,5.34-1.43,7.91-2.13c0.13-0.62,0.36-1.07,0.26-1.42
		c-0.17-0.6-0.47-1.21-0.86-1.68c-3.15-3.83-5.39-8.19-7.57-12.6c-0.47-0.96-0.96-1.91-1.43-2.88c-3.07-6.29-2-10.51,1.18-16.43
		c1.41-2.62,3.19-5.11,5.13-7.37c5.19-6.03,11.98-8.76,19.84-8.94c6.1-0.14,11.92,1.18,17.41,3.8c4.24,2.03,8.55,3.97,12.6,6.33
		c2.9,1.69,5.63,1.86,8.52,0.52c3.3-1.53,6.65-3,9.73-4.9c3.27-2.02,6.69-3.79,9.73-6.22c2.16-1.72,4.62-3.12,7.06-4.43
		c5.28-2.82,10.55-5.71,16-8.17c5.27-2.38,10.76-4.2,16.76-3.55c3.09,0.34,5.82,1.26,8.17,3.33c2.25,1.98,4.52,3.91,6.51,6.19
		c4.94,5.66,10.41,10.78,16.17,15.59c7.57,6.31,15.2,12.55,22.85,18.77c2.32,1.89,4.71,3.73,7.2,5.39
		c7.85,5.24,15.19,11.16,22.51,17.1c1.16,0.94,2.32,1.93,3.28,3.06c2.79,3.25,5.47,6.59,8.2,9.89c1.87,2.26,2.69,4.84,2.41,7.76
		c-0.47,4.9-0.79,9.81-1.75,14.67c-1.75,8.83-3.84,17.56-6.69,26.1c-1.63,4.88-3.48,9.68-5.92,14.21c-1.21,2.24-2.69,4.34-4.09,6.56
		c0.89,1.3,1.74,2.53,2.58,3.77c3.98,5.84,7.99,11.65,11.92,17.52c3.25,4.86,5.53,10.16,6.39,15.98c0.68,4.57,0.01,9-2.38,13
		c-1.31,2.2-2.86,4.28-4.48,6.26c-0.78,0.95-1.92,1.72-3.05,2.26c-1.53,0.74-3.18,1.23-4.8,1.74c-1.68,0.53-3.37,0.46-5.06-0.09
		c-5.29-1.71-10.65-3.27-15.15-6.77c-0.71-0.56-1.55-0.64-2.24-0.2c-0.95,3.39-1.88,6.68-2.81,9.97c-0.17,0.62-0.39,1.23-0.52,1.86
		c-2.55,12.05-7.65,23.14-13.1,34.06c-3.63,7.28-7.49,14.45-11.53,21.5c-3.61,6.31-7.61,12.41-11.45,18.59
		c-1.24,2-2.64,3.91-3.76,5.98c-2.34,4.34-4.86,8.56-7.73,12.58c-0.87,1.22-1.55,2.57-2.31,3.85c-1.09,1.84-2.09,3.74-3.29,5.5
		c-1.32,1.96-2.61,3.91-3.59,6.07c-0.71,1.55-1.52,3.1-2.53,4.47c-3.32,4.51-5.72,9.55-8.4,14.42c-2.06,3.76-3.64,7.73-4.44,12
		c-0.53,2.85,0.06,5.63,1.1,8.12c1.29,3.11,3.98,4.98,7.42,5.49c2.57,0.37,5.15,0.21,7.69-0.22c3.17-0.54,6.34-1.1,9.45-1.85
		c6.87-1.66,13.87-2.71,20.82-3.88c5.04-0.85,10.26-0.67,15.36,0.21c4.01,0.69,8,1.51,11.64,3.47c1.31,0.7,2.51,0.17,3.59-0.59
		c2.8-1.98,5.51-4.08,8.35-5.99c5.33-3.59,10.76-6.98,16.54-9.84c9.4-4.66,18.83-9.23,28.66-12.93c10.85-4.09,21.95-7.41,33.43-8.98
		c12.3-1.68,24.68-2.67,37.17-2.22c10.94,0.4,21.79,1.51,32.6,3.12c10.83,1.61,21.32,4.54,31.59,8.36
		c7.43,2.76,14.78,5.67,21.93,9.09c11.6,5.54,23.13,11.19,33.36,19.13c2.7,2.1,5.64,3.9,8.33,6.02c2.01,1.58,3.88,3.37,5.67,5.21
		c1.8,1.86,1.81,3.5,0.4,5.8c-0.58,0.94-1.27,1.71-2.59,1.93c-2.7-1.94-5.96-3.03-9.11-4.37c-11.87-5.05-24.09-8.9-36.89-10.67
		c-8.91-1.23-17.82-2.49-26.87-2.09c-11.42,0.5-22.53,2.29-33.25,6.44c-9.22,3.57-17.94,8.09-26.55,12.88
		c-2.24,1.25-4.33,2.77-6.45,4.22c-13.93,9.56-25.73,21.3-35.18,35.29c-5.03,7.45-9.25,15.41-13.08,23.55
		c-3.46,7.36-7.06,14.66-10.58,22c-2.32,4.83-4.7,9.64-7.68,14.09c-5.72,8.57-11.71,16.93-20.08,23.21
		c-2.22,1.67-4.44,3.36-6.78,4.85c-2.19,1.4-3.33,3.28-3.38,5.82c-0.04,2.13-0.01,4.26-0.01,6.34c0.77,1.52,2.32,1.88,3.56,2.65
		c1.81,1.13,3.69,2.15,5.47,3.33c3.49,2.32,5.9,5.54,7.52,9.39c0.91,2.17,1.86,4.32,2.91,6.43c0.79,1.58,1.22,3.19,1.06,4.95
		c-0.04,0.43-0.06,0.86-0.09,1.28c-0.54,6.71-0.62,5.74,4.01,11.5c1.46,1.81,2.95,3.67,5.12,4.68c1.26,0.17,2.06-0.69,2.92-1.23
		c8.4-5.26,17.4-9.11,26.84-12.1c6.55-2.08,13.2-3.73,19.92-4.92c7.8-1.37,15.69-2.31,23.66-1.13c1.48,0.22,2.98,0.35,4.48,0.39
		c6.29,0.19,12.25,1.86,18.15,3.86c3.04,1.03,6.01,2.26,9.04,3.32c4.09,1.44,7.81,3.53,11.08,6.36c3.26,2.81,6.73,5.3,10.36,7.58
		c2.74,1.72,5.2,3.78,7.42,6.12c2.51,2.64,5.18,5.15,7.5,7.94c2.45,2.96,4.71,6.11,6.81,9.32c3.4,5.19,6.86,10.36,9.58,15.96
		c2.52,5.19,5.1,10.36,7.23,15.75c1.27,3.22,2,6.51,2.37,9.95c0.97,8.96,1.23,17.95,1.53,26.94c0.08,2.54-0.15,5.17-0.7,7.65
		c-1.3,5.84-2.36,11.77-4.68,17.34c-0.33,0.79-0.6,1.61-0.8,2.44c-1.94,7.84-6.1,14.51-10.57,21.11
		c-6.94,10.24-15.53,18.87-25.37,26.19c-8.76,6.52-17.93,12.46-28.3,16.27c-8.3,3.05-16.82,4.82-25.62,5.62
		c-8.64,0.79-17.09-0.17-25.53-1.91c-4.62-0.95-9.17-2.12-13.63-3.66c-0.61-0.21-1.21-0.48-1.83-0.58
		c-6.44-0.98-12.27-3.74-18.09-6.43c-2.9-1.34-5.72-2.94-8.36-4.75c-7.43-5.09-14.49-10.65-20.59-17.34
		c-0.43-0.47-0.87-0.95-1.35-1.37c-5.54-4.86-9.86-10.7-13.56-17.02c-2.05-3.51-4.13-7.01-6.01-10.61
		c-1.59-3.03-2.85-6.21-3.84-9.51c-0.86-2.86-1.97-5.65-3.03-8.44c-0.1-0.27-0.7-0.53-1.03-0.49c-0.29,0.03-0.59,0.45-0.8,0.75
		c-0.1,0.14-0.02,0.42,0,0.63c0.02,0.21-0.01,0.45,0.09,0.63c1.66,2.95,0.92,5.78-0.41,8.59c-1.48,3.12-3.2,6.04-6.13,8.1
		c-1.39,0.98-2.64,2.19-3.84,3.41c-3.66,3.71-7.95,6.46-12.58,8.77c-2.29,1.15-4.51,2.45-6.74,3.73c-3.54,2.04-7.3,3.57-11.24,4.63
		c-2.06,0.56-4.15,1.03-6.24,1.46c-2.55,0.52-5.1,0.63-7.59-0.4c-1.38-0.57-2.83-0.99-4.2-1.59c-3.62-1.57-6.62-3.91-8.72-7.31
		c-1.69-2.73-3.43-5.43-5.14-8.15c-1.23-1.95-2.09-2.18-4.21-1c-1.12,0.63-2.21,1.31-3.3,1.99c-5.69,3.55-11.96,5.76-18.4,7.35
		c-3.29,0.81-6.79,1.06-10.19,1.08c-4.06,0.02-8.12-0.52-12.18-0.76c-4.55-0.27-8.89-1.25-12.91-3.5c-0.74-0.42-1.53-0.81-2.35-1.02
		c-0.8-0.21-1.66-0.18-2.5-0.22c-0.2-0.01-0.4,0.13-0.61,0.2c-5.8,2.06-11.75,2.08-17.77,1.35c-3.64-0.44-7.24-0.37-10.86,0.34
		c-4.49,0.89-8.62,2.54-12.34,5.16c-5.08,3.58-10.02,7.32-14.12,12.08c-1.8,2.1-3.87,4.01-6.01,5.77
		c-3.41,2.79-7.28,3.65-11.38,1.61c-1.71-0.85-3.36-1.92-4.78-3.19c-2.91-2.61-4.23-5.86-3.14-9.83c0.28-1.03,0.73-2.1,0.68-3.12
		c-0.19-3.75,0.72-7.2,2.3-10.54c0.36-0.76,0.61-1.61,0.73-2.45c0.6-4.42,3.01-7.96,5.55-11.42c2.16-2.93,4.44-5.77,6.24-8.95
		c1.6-2.82,3.88-5.14,6.2-7.35c2.5-2.38,4.37-5.25,6.57-7.86c0.19-0.22,0.1-0.88-0.1-1.15c-0.2-0.29-0.76-0.57-1.07-0.49
		c-1.86,0.46-3.74,0.92-5.54,1.58c-3.01,1.12-6,2.3-8.92,3.62c-8.78,3.97-17.27,8.53-25.86,12.88c-1.52,0.77-2.89,1.83-4.32,2.78
		c-0.89,0.59-1.73,1.27-2.63,1.84c-2.37,1.49-4.13,1.16-6.2-1.11c-0.43-0.48-0.94-0.92-1.23-1.48c-0.38-0.73-0.82-1.56-0.82-2.35
		c0.01-3.45,0.47-6.88,1.79-10.07c2.79-6.73,5.72-13.39,10.03-19.34c5.43-7.51,11.8-14.12,18.9-20.07
		c8.75-7.34,18.33-13.38,28.47-18.56c2.47-1.26,5.13-2.16,7.65-3.32c1.15-0.53,2.13-1.23,2.75-2.53c0.92-1.92,2.15-3.7,3.24-5.5
		c-0.24-0.43-0.41-0.81-0.66-1.14c-0.12-0.16-0.35-0.25-0.55-0.32c-11.73-4.13-22.73-9.95-34.15-14.82
		c-11.02-4.7-21.92-9.67-33.12-13.95c-11.99-4.58-23.87-9.46-35.78-14.24c-1.98-0.8-3.9-1.76-5.84-2.68
		c-2.33-1.1-4.74-1.86-7.42-2.18c-1.47,1.88-1.85,4.46-3.99,5.78c-0.17,0.11-0.15,0.93,0.06,1.17c0.7,0.8,1.5,1.52,2.31,2.22
		c18.61,16.28,29.92,36.71,34.29,60.95c1.87,10.38,1.98,20.84,0.72,31.38c-3.81,32.07-22.6,61.89-50.52,79.08
		c-12.39,7.63-25.76,12.64-40.15,14.63c-47.12,6.52-89.01-18.98-107.12-58.79c-6.95-15.28-10.16-31.36-9.42-48.11
		c2.03-46.13,31.82-84.15,72.73-98.17c12.49-4.28,25.38-6.16,38.58-5.43c6.63,0.37,13.21,1.32,19.66,3.01
		c1.85,0.48,3.67,1.16,5.61,1.05c0.22-0.38,0.56-0.71,0.61-1.08c0.44-3.64,1.53-7.11,2.67-10.57c0.47-1.42,0.97-2.84,1.32-4.3
		c1.34-5.64,3.28-11.06,5.27-16.5c1.62-4.41,3.14-8.88,3.99-13.54c0.66-3.61,1.81-7.05,4.25-9.71c-0.06-0.62,0.03-1.11-0.17-1.38
		c-2.19-3.02-2.28-6.37-1.6-9.84c0.49-2.49,1.75-4.34,4.33-5.05c0.61-0.17,1.21-0.36,1.88-0.56c0.24-0.59,0.61-1.15,0.7-1.75
		c1.15-7.66,3.44-15.04,5.94-22.32c4.65-13.56,9.56-27.04,14.48-40.51c2.73-7.47,6.34-14.51,11.55-20.62
		c0.57-0.67,0.95-1.54,0.68-2.38c-0.89-2.72-0.7-5.49-0.58-8.27c0.05-1.23-0.8-1.63-2.15-1.07c-1.38,0.57-2.77,1.12-4.17,1.64
		c-0.61,0.23-1.92-0.48-2.1-1.14c-1.33-5.17-2.89-10.29-2.83-15.72c0.05-5.26,1.4-10.15,3.88-14.76c1.63-3.02,3.23-6.03,5.73-8.49
		c1.71-1.68,3.53-3.1,5.81-3.89c0.61-0.21,1.17-0.56,1.79-0.69c5.92-1.23,11.35-3.72,16.76-6.34c6.41-3.11,13.27-4.79,20.35-5.55
		c1.28-0.14,2.56-0.27,3.83-0.44c8.58-1.16,17.11-0.5,25.62,0.73c4.77,0.69,9.03,2.68,12.99,5.29c3.42,2.25,5.41,5.45,5.41,9.67
		c0,3.19,0.5,6.43-1.14,9.45c-0.77,1.42-0.44,2.97,0.1,4.37C496.02,397.14,497.2,399.9,498.87,402.39z M634.5,154.69
		c0.19,0.7,0.64,1.14,1.34,1.32c0.16,0.7,0.6,1.12,1.29,1.29c0.12,0.7,0.54,1.11,1.22,1.26c0.17,0.71,0.59,1.18,1.3,1.38
		c0.05,0.56,0.28,0.93,0.91,0.89c0.44,0.35,0.9,0.69,1.32,1.06c0.42,0.37,0.58,0.22,0.87-0.24c0.27-0.43,0.37-0.65-0.08-0.96
		c-0.15-0.1-0.24-0.29-0.36-0.44c-0.65-1.1-0.7-1.15-1.83-1.47c-0.05-0.64-0.39-0.98-1.02-1.03c-0.19-0.84-0.74-1.3-1.55-1.47
		c-0.13-0.72-0.55-1.16-1.28-1.28c-0.07-0.68-0.46-1.03-1.12-1.1c-0.17-0.74-0.66-1.14-1.38-1.28c-0.79-1.5-1.96-2.6-3.54-3.19
		c-0.27-0.1-0.71,0.17-1.04,0.33c-0.06,0.03-0.04,0.37,0.03,0.53c0.73,1.57,2.13,2.38,3.57,3.15
		C633.33,154.13,633.78,154.55,634.5,154.69z M385.29,527.05c0.16,1.84-0.25,3.73,0.43,5.53c0.18,0.47,0.51,0.73,0.97,0.54
		c0.32-0.13,0.75-0.45,0.78-0.71c0.17-1.64,0.32-3.3,0.29-4.94c-0.01-0.56-0.6-1.07-1.32-0.98c-0.4,0.05-0.78,0.23-1.17,0.35
		c-0.72-0.44-1.42-0.9-2.16-1.3c-1.46-0.8-2.7-0.31-2.75,1.12c-0.05,1.46,0,2.93,0.06,4.4c0.02,0.53,0.38,0.82,0.83,0.66
		c0.35-0.12,0.8-0.35,0.92-0.65c0.31-0.78,0.43-1.62,0.67-2.43C383.19,527.41,384.22,527.19,385.29,527.05z M579.26,591.48
		c2.5,0.13,5,0.28,7.5,0.36c0.56,0.02,0.73-0.41,0.47-0.81c-0.1-0.17-0.21-0.42-0.35-0.46c-2.44-0.58-4.89-1.21-7.41-0.43
		c-1.14-0.69-2.43-0.76-3.7-0.77c-2.99-0.05-5.94-0.33-8.81-1.23c-0.38-0.12-0.84,0.01-1.26,0.03c-0.21-0.06-0.41-0.12-0.62-0.18
		c-5.83-1.62-11.39-3.75-15.88-8.04c-0.96-0.92-2.17-1.36-3.47-1.54c-1.27-0.18-2.55-0.47-3.82-0.48
		c-6.46-0.02-12.77-1.35-19.13-2.19c-6.37-0.83-12.76-1.49-19.15-2.19c-2.34-0.26-4.69-0.43-7.03-0.63
		c-10.46-0.89-20.92-1.78-31.38-2.66c-0.85-0.07-1.71-0.08-2.57-0.1c-9.21-0.21-18.43-0.04-27.6-1.15
		c-12.43-0.08-24.81-1.22-37.22-1.79c-1.93-0.09-3.87-0.03-5.78-0.25c-1.9-0.23-3.82-0.58-5.64-1.16c-1.24-0.39-2.14-1.43-2.3-2.85
		c-0.22-1.94-0.15-3.82,0.7-5.66c1.16-2.53,2.15-5.13,3.28-7.68c1.82-4.1,1.92-5.13-2.53-6.5c-2.41-0.74-4.57-2.31-6.85-3.49
		c-0.81-0.42-1.91-0.15-2.21,0.55c-2.5,5.92-4.95,11.87-6.55,18.11c-1.49,5.81-2.83,11.65-4.76,17.34
		c-0.96,2.84-1.77,5.73-2.64,8.59c-0.19,0.61-0.36,1.23-0.5,1.86c-0.49,2.12,0.24,3.88,2.13,4.86c2.47,1.28,4.96,2.53,7.5,3.67
		c1.36,0.61,2.82,1,4.25,1.41c0.93,0.27,1.62-0.26,2.19-0.94c0.14-0.16,0.28-0.33,0.4-0.5c0.89-1.34,0.81-2.37-0.29-3.4
		c-0.62-0.57-1.32-1.07-1.88-1.69c-0.58-0.64-0.33-2.28,0.37-2.95c0.64-0.61,1.41-1.07,2.3-0.93c1.04,0.16,2.1,0.4,3.09,0.78
		c9.8,3.75,19.84,6.82,29.58,10.73c1.19,0.48,2.46,0.72,3.67,1.14c6.47,2.26,12.99,4.38,19.38,6.85c5.99,2.31,11.83,5,17.75,7.49
		c1.97,0.83,3.99,1.55,5.99,2.33c1.39,0.55,2.81,1.06,4.17,1.68c3.7,1.68,7.39,3.41,11.08,5.12c5.24,2.43,10.48,4.88,15.73,7.29
		c3.11,1.43,6.24,2.84,9.38,4.19c3.34,1.44,6.7,2.87,10.09,4.17c2.19,0.84,4.46,1.48,6.73,2.11c0.58,0.16,1.39,0.2,1.87-0.09
		c2.36-1.43,5.05-2.26,7.26-3.95c0.16-0.12,0.21-0.37,0.35-0.62c-2.18-1.4-4.66-2.1-7.02-3.09c-2.76-1.16-5.67-2.03-8.32-3.41
		c-6.09-3.16-12.54-5.5-18.74-8.39c-6.01-2.8-12.08-5.49-18.27-7.91c-3.98-1.56-7.77-3.6-11.63-5.44
		c-5.61-2.66-11.09-5.65-16.85-7.93c-11.93-4.74-23.82-9.63-36.1-13.44c-4.28-1.33-8.4-3.2-12.56-4.91
		c-0.96-0.4-1.81-1.11-2.65-1.75c-0.74-0.56-0.79-2.11-0.17-2.93c0.67-0.89,1.53-1.59,2.66-1.59c3.21-0.03,6.44-0.15,9.63,0.12
		c8.32,0.71,16.63,1.6,24.94,2.43c4.9,0.49,9.81,0.97,14.71,1.48c6.18,0.64,12.35,1.36,18.53,1.97c6.18,0.61,12.38,1.11,18.56,1.7
		c5.12,0.49,10.23,1.04,15.34,1.57c6.18,0.64,12.35,1.31,18.53,1.92c6.18,0.61,12.38,1.11,18.56,1.72
		c10.44,1.03,20.88,2.1,31.33,3.15c3.51,0.49,7.02,1.01,10.55,1.44C577.16,591.67,578.22,591.51,579.26,591.48z M400.75,531.31
		c0.24,0.99,0.44,1.98,0.75,2.95c0.04,0.12,0.76,0.22,0.96,0.06c0.53-0.42,0.65-1.16,0.22-1.62c-0.54-0.56-1.32-0.9-1.99-1.33
		c-0.54-1.18-1.16-2.31-2.69-2.3c-1.29,0.01-2.39-0.26-3.57-0.91c-2.4-1.3-3.49-0.59-3.72,2.13c-0.1,1.24-0.41,2.53,0.25,3.71
		c0.18,0.33,0.59,0.67,0.94,0.71c0.32,0.05,0.85-0.2,1.02-0.48c0.43-0.72,0.71-1.52,1.05-2.29c0.25-0.57,0.43-1.21,0.8-1.69
		c0.18-0.24,0.79-0.38,1.09-0.27c0.32,0.12,0.72,0.6,0.71,0.91c-0.05,1.44-0.24,2.88-0.38,4.32c1.03-0.01,1.55-0.64,2.05-1.31
		C398.96,532.94,399.25,531.54,400.75,531.31z M287.15,666.31c0.73,0.31,1.11-0.04,1.02-0.72c-0.07-0.51-0.28-1.1-0.93-1.26
		c-3.15-4.58-6.31-9.15-9.45-13.73c-1.21-1.76-2.37-3.55-3.57-5.32c-0.52-0.76-1.67-0.85-2.18-0.16c-2.18,2.9-4.4,5.78-6.47,8.76
		c-0.96,1.39-1.64,2.98-2.39,4.52c-0.16,0.32-0.02,0.78-0.02,1.27c0.55,0.27,1.09,0.64,1.68,0.82c2.24,0.7,4.48,1.41,6.76,1.99
		C276.78,663.79,281.97,665.04,287.15,666.31z M645.72,163.74c-0.33-0.22-0.63-0.5-0.99-0.64c-0.44-0.18-0.79,0.06-0.9,0.58
		c-0.04,0.16,0.03,0.43,0.15,0.52c0.31,0.24,0.67,0.41,1.01,0.61c0.31,0.54,0.53,1.17,0.95,1.6c4.02,4.13,8.08,8.22,12.11,12.34
		c1.19,1.22,2.3,2.5,3.43,3.77c3.39,3.82,5.92,8.38,10.02,11.58c4.5,5.14,9.24,10.05,14.2,14.76c0.77,0.73,1.51,1.53,2.12,2.4
		c2.94,4.19,5.85,8.4,8.75,12.62c2.55,3.71,4.29,7.85,6.28,11.84c0.07,0.58,0.04,1.19,0.23,1.72c0.1,0.28,0.62,0.63,0.87,0.58
		c0.28-0.05,0.68-0.55,0.66-0.83c-0.06-0.77-0.32-1.52-0.5-2.27c-2.7-7.72-6.71-14.78-11.55-21.28
		c-5.61-7.53-11.72-14.69-18.43-21.29c-1.98-1.94-3.88-3.97-5.82-5.95c-7.01-7.18-14.02-14.36-21.04-21.53
		C646.82,164.42,646.24,164.12,645.72,163.74z M676.19,182.56c0.27,0.3,0.5,0.69,0.83,0.88c0.33,0.19,0.77,0.18,1.16,0.25
		c0.03-0.39,0.2-0.85,0.05-1.16c-0.35-0.73-0.66-1.56-1.62-1.75c-1.25-1.46-2.44-2.97-3.77-4.37c-6.78-7.13-13.58-14.23-20.38-21.33
		c-1.04-1.08-2.07-2.17-3.19-3.16c-4.95-4.4-9.67-9.07-15.04-12.99c-1.38-1.01-2.61-2.21-3.91-3.32c-4.57-3.9-9.59-7.13-14.72-10.22
		c-0.2-0.12-0.68,0.21-1.03,0.34c0.08,0.2,0.13,0.42,0.25,0.59c1.25,1.79,2.97,3.08,4.78,4.2c2.57,1.6,4.79,3.58,6.91,5.69
		c2.27,2.26,4.51,4.56,6.84,6.75c6.86,6.44,13.76,12.82,20.63,19.24c0.62,0.58,1.21,1.2,1.79,1.83c5.5,6.01,12.06,10.87,17.85,16.57
		C674.38,181.37,675.33,181.92,676.19,182.56z M678.75,213.96c-0.21,0.6-0.55,1.18-0.61,1.8c-0.68,6.36-1.33,12.72-1.96,19.08
		c-0.04,0.4,0.13,0.83,0.21,1.31c1.03,0.61,2.16,1.16,3.17,1.89c2.25,1.62,4.46,3.3,6.63,5.02c2.26,1.78,4.79,2.71,7.65,2.81
		c0.77,0.03,1.68-0.68,1.83-1.48c0.08-0.42,0.26-0.84,0.22-1.25c-0.2-2.56-0.56-5.1-1.83-7.38c-1.86-3.35-3.49-6.83-5.85-9.89
		c-2.98-3.89-5.88-7.84-8.82-11.76C679.33,213.36,679.08,213.47,678.75,213.96z M412.7,222.88c-4.2-2.08-8.4-4.17-12.61-6.24
		c-0.95-0.47-1.92-0.93-2.92-1.26c-0.3-0.1-0.75,0.25-1.23,0.42c-0.87,6.34-0.72,12.74-0.31,19.13c0.33,5.12,2.97,9.26,6.42,12.91
		c0.47,0.5,1.9,0.44,2.38,0.02c1.31-1.16,2.17-2.62,2.92-4.16c2.53-5.19,4.73-10.49,5.83-16.2c0.96-1.24,0.87-2.61,0.41-3.98
		C413.49,223.25,413.01,223.09,412.7,222.88z M539.96,666.29c0.03,3.4,0.04,6.8,0.12,10.2c0,0.14,0.79,0.47,1,0.35
		c1.71-0.99,2.99-2.35,3.42-4.37c0.46-2.16,1.77-3.85,3.16-5.48c1.63-1.92,12.24-10.03,14.66-11.23c1.52-0.76,3.08-1.46,4.61-2.21
		c0.95-0.47,1.89-0.97,2.83-1.48c0.7-0.38,0.79-1.68,0.16-2.18c-2.17-1.73-4.52-3.15-7.19-3.98c-1.18-0.49-2.31-1.18-3.54-1.45
		c-11.02-2.48-21.67-1.15-31.95,3.36c-0.95,0.42-1.73,1.2-2.58,1.84c-0.44,0.33-0.25,1.33,0.29,1.57c0.77,0.35,1.54,0.74,2.34,1.01
		C534.14,654.57,538.45,659.17,539.96,666.29z M614.28,657.34c-0.01,0.35-0.05,0.71,0,1.05c0.02,0.16,0.22,0.45,0.3,0.43
		c0.47-0.06,0.68-0.41,0.43-0.81c-0.17-0.27-0.56-0.39-0.85-0.58c0.01-0.63,0.19-1.33-0.01-1.88c-1.09-3.02-2.2-6.03-3.43-8.99
		c-2.62-6.32-5.26-12.64-8.01-18.91c-1.81-4.11-3.81-8.14-5.76-12.18c-0.76-1.58-1.98-2.78-3.42-3.76
		c-1.55-1.05-3.59-0.95-5.41,0.27c-2.02,1.36-2.61,2.74-2.16,4.88c0.58,2.75,1.72,5.28,2.98,7.77c3.27,6.5,6.63,12.97,8.54,20.04
		c0.61,2.28,2,3.7,4.06,4.62c3.76,1.67,7.01,4.09,10.02,6.87c0.47,0.43,0.97,0.87,1.53,1.16
		C613.4,657.49,613.88,657.35,614.28,657.34z M481.72,740.92c-1.25,0.45-1.7,1.49-1.96,2.67c-0.17,0.12-0.38,0.22-0.52,0.37
		c-3.72,4-5.52,9.09-7.73,13.92c-0.48,1.06-0.16,2.51-0.11,3.78c0.04,0.93,1.59,1.69,2.49,1.28c0.58-0.26,1.2-0.48,1.7-0.86
		c2.04-1.55,4.13-3.05,6.03-4.76c3.49-3.17,7.26-5.98,11.21-8.53c4.51-2.91,9.3-5.37,14.63-6.28c5.25-0.89,10.52-1.7,15.91-1.54
		c3.82,0.11,7.68,0.2,11.48-0.26c1.98-1.75,4.33-2.98,5.27-5.57c2.1-1.53,3.67-3.54,5.25-5.57c7.63-9.85,13.56-20.68,18.66-32.01
		c1.09-2.42,1.54-4.83,1.45-7.44c-0.14-4.03-0.83-4.78-4.82-5.3c-1.23-0.16-2.55,0.06-3.79,0.27c-6.57,1.13-12.67,3.72-18.8,6.2
		c-3.76,1.52-7.34,3.43-10.66,5.8c-2.26,1.61-4.55,3.18-6.9,4.65c-6.75,4.2-12.67,9.42-18.35,14.92c-2.3,2.23-4.49,4.57-6.79,6.79
		c-4.31,4.18-8.04,8.85-11.66,13.61c-0.89,1.16-1.43,2.59-2.13,3.89L481.72,740.92z M458.62,701.04c-0.58,0.46-1.16,0.92-1.74,1.39
		c-0.52,0.34-1.16,0.58-1.55,1.04c-2.89,3.4-5.84,6.76-8.55,10.3c-1.41,1.84-2.43,3.99-3.53,6.05c-0.27,0.5-0.11,1.23-0.14,1.85
		c-0.19,0.04-0.42,0.04-0.55,0.15c-0.09,0.08-0.13,0.43-0.07,0.46c0.36,0.21,0.61,0.02,0.71-0.52c1.01-0.3,2.08-0.47,3.01-0.94
		c3.05-1.55,6.01-3.28,9.07-4.8c3.83-1.9,7.76-3.59,11.59-5.48c6.75-3.34,13.85-5.7,21.12-7.46c4.97-1.2,10.01-2.3,15.21-1.98
		c0.64,0.04,1.28-0.04,1.92-0.04c1.8,0,3.32-0.72,4.71-1.78c0.51-0.39,1-0.81,1.47-1.25c4.27-3.98,9.31-6.91,14.4-9.55
		c7.73-4,5.73-2.43,6.25-10.7c0.03-0.41-0.17-0.83-0.27-1.25c0.81-3.06-0.25-5.92-0.89-8.83c-0.56-2.54-2.28-4.04-4.58-4.96
		c-3.32-1.33-6.65-1.35-9.99-0.04c-8.38,3.28-16.51,7.02-24.03,12.03c-9.44,6.28-18.38,13.24-27.37,20.13
		c-2.36,1.81-4.74,3.65-6.35,6.25L458.62,701.04z M434.13,412.95c0.82-0.14,1.74-0.1,2.45-0.46c5.17-2.57,10.29-5.22,15.41-7.84
		c0.4-0.56,0.88-1.03,1.14-1.6c1.54-3.47,4.65-4.85,7.91-6.04c2.72-0.99,5.42-1.08,8.1,0.17c1.19,0.56,2.45,0.82,3.74,0.53
		c2.71-0.6,5.43-1.17,8.09-1.95c0.7-0.2,1.5-1.03,1.71-1.73c0.72-2.45,1.23-4.97,1.76-7.47c0.17-0.83,0.16-1.7,0.21-2.55
		c0.15-2.37-0.81-4.11-2.92-5.25c-3.46-1.87-7.22-2.75-11.07-2.88c-8.75-0.31-17.49-0.59-26.2,1.01c-5.9,1.09-11.66,2.61-17.33,4.51
		c-0.55,0.18-0.96,0.79-1.42,1.18c1.11,2.17,2.17,4.25,3.24,6.33c0.51,1,1.54,1.33,2.71,0.79c1.56-0.71,3.07-1.5,4.63-2.21
		c5.3-2.41,10.85-4.02,16.67-4.23c4.69-0.17,9.4,0.07,14.1,0.17c0.63,0.01,1.26,0.2,1.89,0.33c0.91,0.19,1.84,1.23,2.03,2.25
		c0.17,0.95-0.58,2.1-1.68,2.39c-1.85,0.49-3.73,1.23-5.6,1.26c-3.26,0.04-6.35,0.89-9.49,1.48c-5.45,1.03-10.93,1.94-16.21,3.75
		c-3.65,1.25-7.16,2.79-10.3,5.06c-0.22,0.16-0.31,0.96-0.19,1.04c2.73,1.77,4.75,4.19,6.56,7.15c0.04,1.48,0.09,3.19,0.14,4.89
		c-0.5,0.27-0.57,0.44-0.22,0.42C434.03,413.43,434.08,413.12,434.13,412.95z M459.16,590.71c-0.98-0.2-1.96-0.45-2.95-0.56
		c-0.31-0.03-0.77,0.24-0.98,0.52c-0.32,0.42-0.11,0.81,0.41,0.95c1.17,0.32,2.09,1.32,3.41,1.22c2.37,0.99,4.79,1.87,7.09,3
		c8.44,4.18,17.13,7.8,25.78,11.53c16.31,7.03,32.7,13.87,48.72,21.55c2.02,0.97,3.95,1.3,6.17,1c9.18-1.24,17.88,0.22,26.05,4.79
		c1.91,1.07,3.61,2.26,5.01,3.92c1.52,1.8,3.01,3.63,4.53,5.42c0.41,0.48,0.87,0.96,1.4,1.29c0.3,0.19,0.89,0.24,1.17,0.06
		c0.28-0.17,0.57-0.79,0.46-1.06c-1.91-4.99-3.86-9.96-5.86-14.91c-0.48-1.19-1.28-1.58-2.58-1.29c-2.52,0.57-5.05,1.12-7.63,0.87
		c-3.98-0.38-7.51-1.63-9.57-5.48c-0.99-1.86-2.12-3.64-3.11-5.34c-2.39-0.03-4.53,0.11-6.63-0.1c-4.11-0.41-7.94-1.88-11.49-3.91
		c-4.14-2.37-7.68-5.44-9.54-10.06c-0.55-1.37-1.18-2.7-1.78-4.07c-0.69-0.2-1.29-0.46-1.91-0.52c-4.69-0.47-9.39-0.83-14.07-1.35
		c-7.45-0.82-14.95-1.22-22.34-2.54c-4.64-0.83-9.27-1.65-13.92-2.42C469.73,592.35,464.44,591.54,459.16,590.71z M474.25,403.73
		c-2.57,0.21-5.1,0.43-7.34-1.39c-1.05-0.85-2.43-0.75-3.69-0.27c-1.19,0.45-2.4,0.9-3.52,1.51c-1.2,0.66-1.73,1.88-1.94,3.17
		c-0.1,0.6,0.06,1.28,0.21,1.89c0.62,2.5-0.68,4.14-2.56,5.38c-1.24,0.82-2.7,1.28-4.02,1.98c-2.07,1.1-4.28,2.05-6.12,3.47
		c-2.22,1.71-4.58,3.12-6.97,4.52c-1.66,0.98-3.32,1.97-4.88,3.08c-2.1,1.5-4.33,2.73-6.56,4c-7.32,4.16-13.95,9.12-18.23,16.64
		c-0.32,0.56-0.7,1.08-1.1,1.58c-1.88,2.38-3.13,5.09-4.22,7.89c-0.54,1.4-1,2.83-1.63,4.18c-2.54,5.44-4.47,11.09-6.08,16.87
		c-1.32,4.73-2.65,9.48-4.29,14.11c-3,8.47-5.26,17.17-8.21,25.65c-0.28,0.79-0.43,1.65-0.48,2.49c-0.02,0.35,0.3,0.93,0.6,1.04
		c3.2,1.19,6.44,2.26,9.89,2.39c0.49,0.02,1.21-0.52,1.46-0.99c0.49-0.92,0.78-1.97,1.07-2.99c1.09-3.91,2.03-7.86,3.24-11.73
		c1.34-4.28,2.92-8.48,4.36-12.73c2.33-6.88,4.48-13.83,6.99-20.65c2.07-5.62,4.63-11.03,8.41-15.77c0.65-0.82,1.18-1.76,1.69-2.68
		c0.83-1.49,1.52-3.06,2.42-4.51c0.7-1.13,1.16-2.26,1.17-3.59c0.01-3.78,1.44-7.05,3.54-10.13c4.83-7.09,11.28-12.22,18.98-15.83
		c3.68-1.72,7.36-3.46,11.13-4.94c2.07-0.81,3.73-1.98,5.22-3.56c3.09-3.28,6.5-6.19,10.43-8.46c0.49-0.28,0.74-0.97,1.09-1.47
		c3.2,0.19,6.13-1.06,9.17-1.7c0.1-0.02,0.25-0.42,0.18-0.53c-0.17-0.29-0.51-0.77-0.68-0.73c-2.63,0.61-5.26,1.28-7.87,1.99
		C474.78,403.01,474.54,403.45,474.25,403.73z M257.87,733.25c0.01,0.21-0.08,0.49,0.03,0.61c2.72,3.17,5.45,6.34,8.23,9.46
		c0.39,0.43,1.03,0.64,1.55,0.96c4.76,4.98,10.65,8.6,15.86,13.04c0.8,0.68,1.86,1.05,2.81,1.54c2.87,1.5,6.05,2.1,9.1,3.03
		c17.5,5.35,34.7,4.38,51.51-2.74c33.77-14.3,50.43-49.56,45.05-81.39c-2.65-15.71-9.39-29.25-20.34-40.74
		c-0.57-0.59-1.3-1.06-2.03-1.45c-0.21-0.11-0.81,0.16-0.99,0.42c-0.65,0.96-0.79,2.08,0,2.97c2.12,2.41,4.18,4.87,6.77,6.82
		c0.95,0.72,0.94,2.01,0.05,2.78c-0.96,0.84-1.96,1.66-3.02,2.35c-4.49,2.92-8.98,5.83-13.54,8.64c-1.49,0.91-2.76,1.94-3.85,3.31
		c-2.66,3.35-5.43,6.63-8.17,9.92c-0.67,0.81-1.22,1.78-2.27,2.1c0.09,0.38,0.19,0.76,0.3,1.14c0,0.01,0.3-0.02,0.32-0.08
		c0.24-0.73-0.27-0.93-0.81-1.09c0.7,0.54,1.49,0.91,2.36,0.56c0.79-0.31,1.53-0.75,2.25-1.21c9.41-5.93,19.2-11.25,28.43-17.48
		c1.35-0.91,2.44-0.65,3.38,0.47c2.1,2.51,3.38,5.44,4.43,8.49c1.75,5.09,2.62,10.33,3.05,15.71c0.52,6.46,0.02,12.81-0.77,19.34
		c-0.74,0-1.38,0.12-1.96-0.02c-12.26-3-24.52-5.99-36.76-9.07c-4.34-1.09-8.77-1.9-12.89-3.76c-0.17-0.08-0.45-0.09-0.61-0.01
		c-0.34,0.18-0.91,0.41-0.93,0.67c-0.24,2.75-0.42,5.51-0.54,8.27c-0.03,0.71,0.59,1.14,1.21,1.28c1.25,0.29,2.55,0.38,3.79,0.68
		c14.96,3.65,29.92,7.31,44.88,10.98c1.44,0.35,1.97,1.52,1.26,2.97c-2.64,5.37-4.91,10.9-7.89,16.12
		c-3.91,6.84-9.3,12.25-15.22,17.23c-1.71,1.44-3.73,1.14-5.04-0.58c-0.39-0.51-0.72-1.06-1.1-1.58
		c-4.39-6.09-7.97-12.67-11.77-19.12c-3.7-6.27-7.43-12.51-11.18-18.75c-0.64-1.07-1.47-2.03-2.33-3.19
		c-2.13,1.39-4.1,2.64-6.03,3.96c-0.3,0.2-0.38,0.71-0.65,1.26c1.89,3.21,3.67,6.62,5.82,9.79c7.11,10.46,12.9,21.7,19.44,32.5
		c0.32,0.53,0.54,1.18,0.62,1.79c0.05,0.36-0.15,0.9-0.43,1.14c-0.64,0.54-1.36,1.03-2.12,1.4c-9.05,4.3-18.61,6.33-28.61,6.21
		c-4.06-0.05-8.12-0.4-12.18-0.67c-1.32-0.09-2.47-0.73-3.42-1.6c-0.43-0.4-0.8-1.04-0.85-1.61c-0.05-0.6,0.31-1.23,0.48-1.84
		c3.8-13.38,7.6-26.76,11.38-40.14c0.35-1.23,0.59-2.5,0.76-3.76c0.04-0.32-0.31-0.92-0.6-1.01c-1.63-0.51-3.29-0.92-4.95-1.32
		c-0.83-0.2-1.86,0.34-2.09,1.07c-4.35,13.65-8.7,27.3-13.05,40.95c-0.52,1.62-1.1,3.21-1.65,4.84c-0.83-0.05-1.47-0.01-2.07-0.14
		c-1.04-0.23-2.14-0.42-3.07-0.9c-3.42-1.76-7.01-3.2-10.09-5.57c-2.71-2.09-5.42-4.18-8.12-6.25c-0.76-1.84-2.36-2.97-3.76-4.2
		c-2.41-2.12-4.43-4.52-6.23-7.15c0.24-1.11,0.88-1.87,1.85-2.48c5.95-3.79,12.18-7.14,18.05-11.06c0.18-0.12,0.4-0.17,0.58-0.28
		c2.95-1.72,6.06-3.11,9.08-4.68c3.97-2.06,7.62-4.76,11.36-7.25c0.49-0.32,0.73-1.02,1.05-1.47c-1.22-2.1-2.38-4.12-3.66-6.33
		c-0.99,0.48-1.95,0.87-2.83,1.4c-8.43,5.08-16.85,10.2-25.28,15.29c-3.67,2.21-7.35,4.39-11.06,6.53
		c-0.72,0.42-1.57,0.66-2.39,0.85c-0.35,0.08-0.92-0.08-1.17-0.34c-1.9-2.06-3.55-4.4-4.13-7.13c-1.24-5.86-3.27-11.51-4.43-17.41
		c-1.4-7.13-0.74-14.04,0.56-21.02c0.15-0.82,1.1-1.34,1.98-1.16c0.21,0.04,0.43,0.04,0.64,0.09c12.38,3.44,24.82,6.59,37.54,8.53
		c3.38,0.52,6.73,1.23,10.1,1.86c0.84,0.16,1.79-0.24,2.16-0.95c0.29-0.57,0.55-1.16,0.87-1.72c0.53-0.93,1.1-1.84,1.63-2.76
		c0.26-0.45-0.17-1.4-0.71-1.54c-7.25-1.85-14.5-3.72-21.77-5.51c-9.14-2.26-18.3-4.45-27.44-6.67c-1.49-0.36-2.05-1.45-1.37-2.89
		c1.92-4.06,3.88-8.1,6.21-11.96c3.01-4.99,6.87-9.3,10.56-13.73c1.92-2.3,4.35-4.11,6.96-5.65c0.92-0.54,2.28-0.31,2.86,0.58
		c3.03,4.67,6.22,9.25,9.02,14.06c4.31,7.41,8.91,14.62,13.87,21.6c1.61,2.26,3.4,4.4,5.21,6.5c0.32,0.37,1.24,0.56,1.72,0.38
		c1.37-0.5,2.66-1.24,3.87-1.83c0.21-1.12-0.31-1.8-0.75-2.53c-4.53-7.52-9.06-15.03-13.55-22.57c-3.39-5.7-6.71-11.44-10.1-17.15
		c-0.67-1.13-1.19-2.27-1.22-3.6c-0.02-0.89,0.18-1.75,0.88-2.31c0.83-0.66,1.72-1.29,2.67-1.75c4.26-2.04,8.74-3.59,13.35-4.5
		c7.4-1.46,14.9-1.51,22.39-0.57c1.69,0.21,3.36,0.65,5.01,1.09c0.29,0.08,0.65,0.66,0.63,0.99c-0.04,0.84-0.22,1.69-0.44,2.51
		c-2.38,8.67-4.77,17.33-7.18,25.99c-1.14,4.12-2.35,8.23-3.45,12.36c-0.27,1-0.24,2.07-0.36,3.19c0.63-0.15,1.14-0.13,1.41-0.37
		c1.9-1.7,3.24-4.02,5.67-5.14c2.35-2.49,4.89-4.85,5.8-8.33c2.32-8.9,5.46-17.58,7.23-26.63c0.12-0.61,0.54-1.16,0.84-1.77
		c1.02-0.26,2.04-0.52,3.3-0.84c0.05-0.74,0.28-1.58,0.13-2.34c-0.18-0.94-1.13-1.2-1.94-1.46c-13.37-4.18-26.82-4.81-40.56-1.71
		c-22.35,5.04-47.48,22.61-56,54.63c-1.21,4.56-2.08,9.2-1.44,13.98c0.17,1.27,0.08,2.57,0.13,3.85c0.3,8.6,1.2,17.09,4.46,25.17
		c0.48,1.19,0.83,2.43,1.13,3.68c0.76,3.18,2.28,6,4.11,8.65C254.32,728.43,256.12,730.82,257.87,733.25z M705.74,535.44
		c0.82-0.66,1.73-1.25,2.46-2c3.31-3.4,5.88-7.35,8.1-11.5c3.73-6.97,7.3-14.03,10.91-21.07c3.12-6.09,5.98-12.32,9.32-18.28
		c5.44-9.7,11.35-19.11,17.96-28.07c2.04-2.76,4.17-5.41,6.56-7.88c5.21-5.39,10.83-10.34,16.62-15.07
		c4.97-4.05,10.17-7.82,15.8-10.94c13.16-7.3,26.94-12.94,41.82-15.67c2.32-0.42,4.6-0.89,6.96-1.01c1.7-0.08,3.39-0.4,5.08-0.6
		c1.69-0.19,3.39-0.49,5.09-0.53c5.56-0.11,11.12-0.14,16.68-0.14c2.78,0,5.56,0.06,8.25,0.96c0.8,0.27,1.68,0.32,2.53,0.39
		c0.63,0.05,1.27-0.03,1.9-0.09c0.19-0.02,0.53-0.17,0.53-0.24c-0.03-0.4-0.01-1-0.24-1.15c-3.96-2.55-8.23-4.52-12.55-6.32
		c-5.32-2.22-10.74-4.21-16.12-6.27c-0.38-0.14-0.84-0.06-1.26-0.08c-3.75-1.67-7.78-2.33-11.73-3.24
		c-8.35-1.92-16.74-3.53-25.37-3.43c-4.92,0.06-9.85-0.04-14.77,0.05c-3.2,0.06-6.41,0.31-9.6,0.56c-2.34,0.18-4.67,0.51-7.01,0.77
		c-2.12,0.24-4.27,0.35-6.37,0.74c-7.57,1.39-15.11,2.96-22.68,4.31c-6.98,1.24-13.77,3.16-20.31,5.82
		c-10.3,4.18-20.76,7.96-30.91,12.51c-5.3,2.38-10.26,5.28-15.04,8.55c-0.53,0.36-0.99,0.81-1.49,1.22
		c-0.97,0.81-1.09,1.93-0.3,2.74c2.4,2.44,4.78,4.9,7.2,7.31c3.83,3.82,6.71,8.37,9.18,13.07c2.26,4.32,3.65,9.1,5.36,13.7
		c0.89,2.4,1.64,4.86,2.46,7.29c0.84,3.06,1.89,6.09,2.47,9.2c1.43,7.57,1.39,15.2,0.54,22.85c-0.26,2.32-0.58,4.64-0.66,6.97
		c-0.17,4.9-1.15,9.67-2.06,14.47c-1,5.26-3.19,10.12-4.85,15.16c-0.46,1.41-1.12,2.76-1.09,4.3c-0.76,1.02-0.79,1.49-0.2,1.38
		C705.21,536.13,705.46,535.7,705.74,535.44z M590.11,428.35c-3.06,6.41-6.8,12.31-12.38,16.88c-0.65,0.53-1.2,1.22-1.74,1.88
		c-4.77,5.84-10.6,10.5-16.67,14.88c-5.22,3.77-11.01,6.56-16.84,9.19c-2.71,1.22-5.6,2.08-8.46,2.95
		c-2.69,0.82-5.48,0.79-8.26,0.59c-1.32-0.09-2.47-0.63-3.53-1.4c-2.06-1.51-4.11-3.03-6.08-4.48c-1.13,0.14-1.33,1.07-1.84,1.68
		c-0.84,1-1.41,2.11-1.69,3.4c-0.39,1.83-1.61,2.95-3.28,3.66c-0.79,0.33-1.56,0.73-2.38,0.94c-2.65,0.69-4.49,2.31-5.86,4.9
		c0.54,1.68,1.11,3.48,1.69,5.28c0.72,3.81,2.19,7.36,3.67,10.91c3.53,8.49,7.58,16.74,11.88,24.86c3.51,6.61,7.3,13.06,11.48,19.27
		c5.65,8.4,12.78,15.48,20.02,22.45c0.76,0.73,1.74,1.21,2.63,1.81c0.11,0.18,0.18,0.42,0.34,0.54c5.59,4.07,11.79,6.89,18.39,8.84
		c1.41,0.42,2.95,0.42,4.44,0.57c0.41,0.04,0.85-0.09,1.27-0.14c0.46-0.05,1.12-1.06,0.95-1.49c-1.5-3.77-3.15-7.49-4.49-11.31
		c-2.42-6.88-4.15-13.95-4.26-21.28c-0.09-5.78,0.11-11.56,0.22-17.34c0.02-1.28,0.08-2.58,0.29-3.84
		c1.71-10.17,4.55-20.06,8.76-29.45c4.19-9.35,8.84-18.52,14.02-27.38c2.55,0.17,5.1,0.33,7.65,0.53c0.71,0.06,1.44,1.38,1.15,2.02
		c-0.35,0.77-0.73,1.53-1.13,2.28c-2.51,4.73-5.42,9.29-7.47,14.21c-3.37,8.1-6.63,16.25-9.38,24.6
		c-3.05,9.27-4.17,18.78-4.29,28.46c-0.04,3.21,0.26,6.42,0.43,9.63c0.16,3.02,0.91,5.93,1.95,8.75c1.56,4.23,3.44,8.32,5.86,12.13
		c1.15,1.8,2.31,3.64,3.72,5.22c5.95,6.67,13.05,11.7,21.55,14.65c1.41,0.49,2.79,1.09,4.13,1.75c3.29,1.63,6.75,2.7,10.34,3.4
		c4.2,0.82,8.42,1.57,12.61,2.45c5.45,1.14,10.87,2.39,16.31,3.58c4.57,0.99,8.26,3.46,11.35,6.87c2.16,2.38,4.38,4.72,6.32,7.28
		c1.41,1.85,2.5,3.98,3.56,6.06c0.79,1.55-0.06,3.45-1.62,4.36c-1.68,0.98-3.21,1.01-4.65-0.44c-0.29-0.29-0.68-0.59-1.07-0.66
		c-0.35-0.06-1,0.09-1.09,0.32c-0.45,1.2-0.76,2.45-1.13,3.67c-2.05,6.83-4.93,13.25-9.34,18.91c-2.24,2.87-4.45,5.77-6.82,8.54
		c-5.21,6.07-11.14,11.3-18.53,14.6c-3.51,1.57-7.13,2.91-10.71,4.31c-2.23,0.87-4.59,1.05-6.95,1.15c-2.01,0.09-3.7-0.49-5.07-2.18
		c-1.89-2.32-4-4.47-6.06-6.64c-0.73-0.77-1.52-1.54-2.42-2.09c-5.83-3.61-12.15-5.23-19.01-4.39c-2.33,0.28-4.66,0.63-6.98,1.01
		c-1.05,0.17-2.1,0.41-3.11,0.76c-5.11,1.79-9.66,4.56-13.82,7.99c-0.23,0.19-0.17,0.75-0.25,1.14c2.28,0.54,4.63,0.89,6.83,1.67
		c6.77,2.39,11.24,6.94,12.41,14.22c0.77,4.8,0.06,9.46-2.46,13.64c-3.98,6.6-8.02,13.16-12.35,19.55
		c-3.85,5.67-7.72,11.29-11.98,16.65c-1.5,0.91-2.57,2.2-3.31,3.78c-0.41,0.87,0.28,2.46,1.22,2.58c2.96,0.38,5.94,1.01,8.9,0.97
		c2.96-0.04,5.92-0.75,8.87-1.21c1.26-0.2,2.52-0.48,3.76-0.79c6.22-1.56,12.55-2.86,18.42-5.46c8.22-3.63,16.59-6.87,24.93-10.19
		c9.65-3.84,9.98-3.94,21.22-3.53c1.7,0.06,3.39,0.38,5.09,0.56c1.48,0.16,2.97,0.34,4.46,0.41c4.33,0.2,8.48-0.9,12.62-1.93
		c2.27-0.57,4.52-1.33,6.64-2.31c1.74-0.81,3.43-1.68,5.25-2.32c1.79-0.63,3.56-1.5,4.57-3.31c2.29-1.72,3.33-4.34,4.72-6.69
		c0.19-0.32,0.08-0.83,0.11-1.25c0.42-0.97,1.01-1.91,1.22-2.92c0.71-3.33,1.65-6.6,2.16-9.98c0.95-6.32,2.09-12.62,3.31-18.9
		c0.98-5.02,2.26-9.98,2.88-15.07c0.08-0.62,0.4-1.21,0.57-1.83c2.06-7.4,4.23-14.77,6.13-22.2c2.06-8.06,4.17-16.1,5.92-24.24
		c1.1-5.08,1.17-10.15,1.15-15.28c-0.01-2.46-0.82-4.61-2.24-6.54c-1.79-2.43-3.9-4.52-6.47-6.14c-2.72-1.7-5.28-3.59-7.25-6.18
		c-0.51-0.68-1.17-0.61-2.25,0c-0.93,0.53-1.86,1.04-2.79,1.55c-1.17-1.06-2-2.25-1.4-3.93c0.79-2.21,1.55-4.43,2.42-6.61
		c0.79-1.98,1.86-3.86,2.57-5.88c3.82-10.9,7.62-21.8,11.31-32.74c2.26-6.7,3.59-13.64,4.81-20.59c2.09-11.91,2.31-23.82,0.06-35.74
		c-0.16-0.84-0.14-1.71-0.28-2.55c-1.11-7.02-2.98-13.75-6.61-19.98c-2.49-4.27-5.3-8.32-8.32-12.17
		c-3.87-4.94-8.81-8.71-14.87-10.78c-1.82-0.62-3.67-1.16-5.47-1.84c-5.88-2.22-11.96-3.18-18.23-2.98
		c-6.64,0.22-13.19,0.79-19.56,3.04c-5.43,1.92-11.12,3.01-16.65,4.66c-4.88,1.45-9.75,0.87-14.29-1.65
		c-1.5-0.83-2.98-1.67-4.48-2.5c-0.4-0.22-1.48,0.29-1.54,0.8C590.11,426.65,590.13,427.5,590.11,428.35z M607.73,172.4
		c1.75,0.02,3.5,0.04,5.26,0.05c0.23,0.18,0.49,0.27,0.79,0.28c0.26,1.02,0.98,2.06,0.47,3.1c-1.44,2.94-3.39,5.53-6.6,6.66
		c-2.26,0.8-4.34,1.84-6.21,3.29c-5.24,4.07-10.93,7.58-15.46,12.52c-0.29,0.31-0.64,0.58-0.97,0.84c-4.68,3.76-9.43,7.42-14,11.3
		c-2.82,2.4-5.93,4.27-9.32,5.59c-7.78,3.01-15.59,5.91-23.67,8.12c-7.22,1.98-14.29,4.46-21.62,6.06c-4.13,0.9-4.29,3.17-3.63,6.16
		c0.32,1.44,1.04,2.8,1.69,4.14c0.46,0.96,1.17,1.79,1.66,2.74c0.7,1.32-0.24,3.34-1.64,3.61c-0.84,0.16-1.69,0.33-2.53,0.36
		c-5.43,0.17-10.67-0.64-15.54-3.22c-0.73-0.39-1.61-0.66-2.42-0.64c-0.47,0.01-1.17,0.61-1.34,1.09c-0.19,0.53,0.14,1.23,0.2,1.86
		c0.16,1.7,0.42,3.4,0.41,5.09c-0.01,2.15-2.12,3.69-3.99,2.91c-3.76-1.55-7.68-2.71-11.24-4.75c-0.76-0.44-1.55-0.71-2.62-0.23
		c-0.06,1.37-0.18,2.85-0.19,4.33c-0.03,2.14,0.04,4.28,0.01,6.43c-0.02,1.53-1.11,2.22-2.65,1.6c-1.58-0.63-3.17-1.3-4.65-2.13
		c-2.99-1.67-5.92-3.46-8.86-5.22c-2.02-1.21-4.01-1.32-6.04-0.02c-1.62,1.04-3.3,1.99-4.93,3.02c-2.84,1.8-5.68,1.67-8.48-0.02
		c-1.28-0.77-2.45-1.72-3.7-2.54c-0.69-0.45-1.46-0.8-2.35-1.29c-1.15,1.14-2.28,2.11-3.24,3.23c-1.2,1.41-3.04,1.49-4.47,2.38
		c0.04,0.42-0.06,0.9,0.13,1.19c2.71,4.17,5.96,7.8,10.34,10.31c1.38,1.72,3.37,2.6,5.15,3.76c2.01,1.31,4.11,2.24,6.54,2.42
		c1.05,0.08,2.08,0.49,3.13,0.7c9.1,1.86,18.29,1.9,27.49,1.2c5.97-0.45,11.92-1.24,17.89-1.69c3.62-0.28,7.28-0.43,10.9-0.24
		c7.27,0.37,14.51,1.21,21.57,3.06c4.38,1.15,8.89,1.04,13.31,1.77c0.58,0.09,1.25-0.22,1.85-0.43c1.08-0.37,2.19-0.37,3.07,0.29
		c2.72,2.03,5.88,2.38,9.1,2.61c6.26,0.45,12.38-0.34,18.42-1.97c5.82-1.57,11.38-3.67,16.27-7.32c1.2-0.89,2.53-1.61,3.8-2.4
		c5.32-3.29,10.02-7.31,14.18-11.98c1.71-1.92,3.5-3.77,5.18-5.7c6.19-7.12,12.16-14.38,16.96-22.55c2.32-3.95,3.73-8.15,4.54-12.61
		c0.47-2.58,0.42-5.13-0.73-7.55c-0.82-1.73-1.7-3.44-2.58-5.14c-0.39-0.75-0.87-1.46-1.26-2.21c-0.44-0.83,0.43-2.34,1.44-2.45
		c0.62-0.07,1.34-0.15,1.87,0.09c1.75,0.79,3.43,1.72,5.14,2.6c0.26,0.58,0.43,1.23,0.81,1.73c2.6,3.44,3.62,7.21,2.58,11.46
		c-0.1,0.41-0.14,0.85-0.16,1.27c-0.15,5.05-1.96,9.59-4.26,13.97c-4.78,9.13-10.73,17.52-17.55,25.17
		c-7.81,8.76-16.06,17.13-25.24,24.54c-7.1,5.73-14.81,10.03-23.81,11.89c-2.3,0.48-4.56,1.06-6.93,1.14
		c-1.86,0.06-2.49,1.02-2.26,3.01c0.1,0.85,0.08,1.75,0.37,2.53c1.42,3.88,0.37,8.11,1.69,12.01c0.17,0.52-0.21,1.22-0.32,1.84
		c-0.14,0.84-0.41,1.68-0.38,2.52c0.16,4.56-1.11,8.86-2.3,13.19c-0.28,1.03-0.46,2.08-0.69,3.12c-0.58,0.89-1.35,1.71-1.72,2.69
		c-2.5,6.63-5.85,12.85-9.16,19.09c-0.7,1.32-1.4,2.65-2.17,3.93c-5.75,9.58-12.7,18.32-19.72,26.94
		c-6.25,7.67-11.76,15.77-16.89,24.19c-0.43,0.71-0.64,1.56-0.91,2.26c0.36,0.48,0.55,0.91,0.88,1.14
		c5.97,4.16,11.95,8.3,17.94,12.41c0.52,0.35,1.16,0.52,1.71,0.75c0.44-0.21,0.91-0.31,1.19-0.6c2.24-2.29,4.61-4.49,6.62-6.97
		c2.98-3.68,6.4-6.91,9.79-10.17c0.92-0.88,2.02-1.57,3.06-2.32c0.62-0.44,1.8-0.36,2.4,0.16c0.48,0.42,0.97,0.85,1.34,1.35
		c1.41,1.93,1.37,3.51-0.02,5.25c-1.47,1.84-2.93,3.68-4.39,5.53c-3.98,5.04-7.96,10.09-11.93,15.14c-1.35,1.71-2.98,3.02-5.01,3.9
		c-1.89,0.82-3.67,0.98-5.56,0.05c-3.85-1.9-7.58-3.99-11.06-6.5c-5.91-4.26-11.78-8.57-17.26-13.38c-3.4-2.99-7.18-5.37-11.53-6.82
		c-3.94-1.31-7.63-0.93-11.04,1.37c-2.12,1.43-4.15,3.03-6.08,4.73c-4.22,3.71-8.86,6.73-14.01,8.97c-1.57,0.68-3.14,1.39-4.64,2.2
		c-3.02,1.62-6.11,3.13-8.95,5.02c-4.67,3.09-8.8,6.81-11.73,11.7c-1.2,2-0.58,3.25,1.64,3.4c1.06,0.07,2.15,0.04,3.19,0.26
		c2.45,0.5,4.34,1.73,5.21,4.24c0.27,0.77,0.46,1.68,1.37,2.06c0.15-0.07,0.36-0.11,0.42-0.22c0.29-0.57,0.52-1.17,0.8-1.74
		c1.02-2.12,1.92-4.32,3.11-6.34c4.64-7.84,11.11-13.52,19.91-16.29c0.59-0.18,1.25-0.14,1.88-0.17c0.47-0.03,1.27,0.71,1.28,1.23
		c0.01,0.41-0.01,0.87-0.2,1.21c-0.19,0.35-0.55,0.68-0.92,0.84c-7.95,3.63-13.26,9.95-17.58,17.27c-0.32,0.53-0.4,1.21-0.58,1.82
		c-0.55,0.35-1,0.89-0.48,1.42c0.54,0.56,1.01-0.07,1.42-0.46c3.59-1.05,7.13-1.09,10.67,0.32c2.3,0.91,4.1,2.29,5.05,4.6
		c0.48,1.17,1.34,2.2,1.38,3.59c-0.61,1.76-1.27,3.56-1.84,5.38c-0.1,0.33,0.15,0.77,0.24,1.16c0.33-0.08,0.72-0.08,0.98-0.27
		c0.33-0.24,0.65-0.59,0.81-0.96c0.77-1.77,1.18-3.62,1.49-5.53c1.02-6.23,3.21-11.95,8-16.37c0.78-0.72,1.47-1.55,2.24-2.28
		c2.54-2.38,4.47-5.14,5.53-8.49c0.4-1.25,1.08-2.26,2.18-3.07c2.43-1.8,4.53-3.88,5.36-6.95c0.19-0.72,1.49-0.99,2.21-0.55
		c3.08,1.91,6.17,3.82,9.22,5.78c0.71,0.45,1.43,1,1.9,1.68c1.69,2.43,3.96,4.52,4.59,7.61c0.17,0.82,0.62,1.59,0.95,2.38
		c2.39,5.77,5.15,11.28,10.33,15.16c0.67,0.5,1.15,1.26,1.75,1.86c0.75,0.75,1.53,1.48,2.32,2.2c1.37,1.24,2.92,1.62,4.74,1.1
		c3.72-1.06,7.27-2.57,10.56-4.56c6.39-3.88,12.88-7.63,18.71-12.34c5.66-4.58,10.88-9.62,15.29-15.44
		c1.98-2.61,3.37-5.37,3.46-8.77c0.07-2.46,1.24-3.19,3.83-2.99c0.42,0.03,0.84,0.15,1.26,0.22c0.22,0.26,0.45,0.52,0.67,0.78
		c0.18-0.27,0.49-0.53,0.51-0.8c0.03-0.62-0.34-1.04-0.94-1.24c-0.38-1-0.79-1.98-1.12-2.99c-1.15-3.49-1.94-7.04-1.27-10.72
		c0.73-4,1.64-7.94,3.37-11.68c2.61-5.64,5.6-11.06,8.87-16.34c5.3-8.56,11.17-16.72,16.87-25c0.85-1.23,1.67-2.48,2.46-3.75
		c3.02-4.92,6.05-9.84,9.03-14.78c2.87-4.75,6.17-9.26,8.13-14.53c0.58-0.62,1.26-1.17,1.71-1.87c2.34-3.59,4.41-7.33,6.25-11.2
		c4.4-9.28,8.15-18.85,11.76-28.45c4.3-11.44,6.99-23.34,9.31-35.3c1.18-6.09,1.69-12.26,1.83-18.49
		c0.19-9.02-0.66-17.94-1.69-26.87c-0.09-0.79-0.53-1.66-1.06-2.28c-2.37-2.75-4.76-5.49-7.27-8.11
		c-9.92-10.36-20.16-20.4-30.48-30.35c-0.76-0.74-1.61-1.41-2.5-1.99c-0.72-0.47-1.58-0.64-2.4-0.12c-0.9,0.57-1.81,1.14-2.71,1.72
		c-1.25-0.47-2.29-1.19-2.77-2.48c-0.75-2.05-1.98-3.71-3.57-5.21c-2.37-2.23-4.05-4.96-4.99-8.1c-0.8-2.66-1.69-5.29-2.29-7.99
		c-1.08-4.79-1.97-9.62-2.93-14.43c-1.06-5.3-3.82-9.49-8.39-12.37c-6.33-3.98-12.73-7.83-19.62-10.82
		c-5.37-2.33-10.92-3.51-16.8-3.41c-6.34,0.11-11.63,2.46-16.01,6.93c-2.24,2.29-4.34,4.72-6.47,7.11c-0.85,0.96-1.76,1.9-2.4,3
		c-2.48,4.23-5.07,8.42-7.23,12.82c-1.62,3.29-3.61,6.3-5.8,9.19c-2.87,3.8-6.58,6.68-10.56,9.22c-1.81,1.16-3.61,0.43-4.56-1.76
		c-0.17-0.39-0.22-0.82-0.32-1.24c2.16-2.91,4.33-5.82,6.48-8.74c0.11-0.15,0.1-0.39,0.15-0.59c0.13-0.55-0.08-0.91-0.61-0.91
		c-0.84,0.01-1.7-0.02-2.51,0.17c-9.33,2.23-9.33,2.24-18.37,2.1c-3.21-0.05-6.42-0.08-9.63-0.13c-3.42-0.05-6.84,0.1-10.2-0.83
		c-1.01-0.28-2.12-0.25-3.19-0.25c-5.56-0.02-11.13-0.01-16.69,0c-2.15,0-4.23,0.42-6.35,0.77c-5.32,0.89-10.4,2.56-15.27,4.74
		c-7.65,3.42-14.86,7.59-20.59,13.92c-1.72,1.9-3.38,3.83-6.03,4.59c-0.71,0.21-1.27,1.09-1.81,1.74
		c-5.51,6.64-9.51,14.19-13.08,21.99c-2.78,6.06-4.15,12.58-6,18.94c-0.72,2.46-0.7,5.07-0.3,7.63c0.1,0.65,1.27,1.34,2.05,1.16
		c0.4-0.09,0.86-0.21,1.15-0.47c0.66-0.6,1.19-1.11,2.01-0.18c0.4,0.45,0.99,0.98,1.53,1.02c4.13,0.29,7.78,2.29,11.72,3.23
		c1.3,0.74,2.57,1.54,3.91,2.2c6.52,3.24,12.99,6.59,19.61,9.61c5.25,2.4,10.59,4.74,16.09,6.43c6.13,1.89,12.53,3.03,18.94,3.35
		c8.76,0.44,17.56,0.52,26.23-1.31c2.51-0.53,5.05-0.94,7.57-1.42c7.78-1.5,15.58-2.9,23.32-4.55c5.02-1.07,9.99-2.41,14.92-3.83
		c6.58-1.9,13.15-3.84,19.64-6.04c6.08-2.06,12.02-4.55,17.76-7.46c7.36-3.73,13.84-8.54,18.91-15.13c2.12-2.75,4.67-4.97,7.57-6.87
		c3.97-2.6,8.21-4.62,12.69-6.13C604.02,173.45,605.89,172.95,607.73,172.4z M371.54,628.08c0.23,0.53,0.27,0.78,0.41,0.92
		c1.38,1.35,2.79,2.66,4.16,4.02c9.25,9.26,16.24,19.87,19.59,32.67c2.62,10.04,3.58,20.19,2.81,30.56
		c-0.6,7.99-2.27,15.69-5.42,23.03c-1.68,3.93-3.52,7.82-5.57,11.58c-6.09,11.16-14.76,19.9-25.48,26.67
		c-5.27,3.33-10.86,6.05-16.55,8.54c-8.33,3.64-17.09,5.71-26.21,5.55c-5.13-0.09-10.27-0.63-15.35-1.36
		c-9.63-1.4-18.58-4.96-27.23-9.32c-1.53-0.77-3-1.67-4.4-2.65c-5.45-3.83-10.7-7.93-15.25-12.79c-9.99-10.7-17.12-22.94-19.9-37.53
		c-0.89-4.65-1.44-9.32-1.92-14c-0.5-4.89-0.72-9.82,0.66-14.69c0.7-2.46,1.02-5.03,1.54-7.55c1.76-8.48,5.39-16.22,9.48-23.78
		c9.44-14.25,21.57-25.47,37.21-32.61c15.91-7.27,32.49-8.98,49.59-5.5c2.51,0.51,4.91,1.5,7.38,2.21c1.02,0.29,2.08,0.51,3.14,0.62
		c0.35,0.04,0.9-0.24,1.09-0.54c1.56-2.58,2.71-5.33,3.22-8.33c0.12-0.71-0.23-1.31-0.8-1.6c-0.95-0.48-1.95-0.91-2.97-1.19
		c-5.59-1.51-11.26-2.5-17.02-3.23c-8.42-1.06-16.73-0.47-24.95,1.06c-22.56,4.2-41.11,15.36-55.85,32.95
		c-13.32,15.9-23.9,41.44-21.34,66.24c0.13,1.28,0.23,2.57,0.2,3.85c-0.09,3.24,0.47,6.39,1.13,9.55
		c4.76,22.98,16.23,41.85,35.03,55.92c20.97,15.69,44.65,21.39,70.43,16.88c23.54-4.12,42.8-15.91,57.6-34.68
		c13.75-17.44,20.44-37.46,20.65-59.62c0.08-9.05-1.44-17.92-3.9-26.63c-0.35-1.24-0.8-2.45-1.02-3.71
		c-0.1-0.56,0.08-1.35,0.44-1.78c0.77-0.94,0.9-1.86,0.48-2.95c-0.77-2-1.43-4.11-4.13-4.24c-0.51-0.67-1.15-1.27-1.52-2.01
		c-2.02-4.03-4.24-7.94-6.8-11.65c-4.77-6.92-10.33-13.13-16.85-18.46c-0.73-0.6-1.79-0.42-2.18,0.34
		C373.61,621.91,372.43,625.08,371.54,628.08z M703.53,706.98c-3.14-1.66-6.53-2.17-9.84-2.91c-0.74-0.17-1.68,0.75-1.63,1.56
		c0.33,5.78,1.08,11.51,2.55,17.12c6.08,23.18,19.13,41.41,39.04,54.69c15.96,10.64,33.69,15.63,52.78,15.87
		c6.21,0.08,12.39-0.68,18.5-1.92c23.43-4.77,42.7-16.4,57.07-35.5c16.65-22.12,22.25-47.09,16.52-74.14
		c-5.37-25.33-19.58-44.94-41.4-58.82c-15.36-9.77-32.26-14.55-50.54-14.63c-14.62-0.07-28.49,2.97-41.64,9.26
		c-3.46,1.66-6.73,3.73-10.07,5.64c-0.57,0.33-0.75,1.27-0.36,1.67c2.51,2.63,5,5.28,7.58,7.84c0.36,0.35,1.27,0.49,1.76,0.3
		c1.19-0.46,2.25-1.23,3.41-1.77c4.07-1.89,8.04-4.12,12.28-5.53c10.43-3.47,21.11-5.49,32.23-4.44c3.65,0.34,7.23,0.82,10.74,1.81
		c2.47,0.69,4.93,1.45,7.35,2.31c5.45,1.94,10.72,4.27,15.75,7.2c8.8,5.13,16.52,11.55,22.99,19.36
		c7.04,8.49,12.43,17.92,15.18,28.74c1.43,5.62,2.55,11.29,3.3,17.02c0.78,5.97,0.77,11.99,0.02,17.96
		c-0.8,6.43-2.87,12.51-6.12,18.16c-1.6,2.79-3.14,5.61-4.76,8.38c-3.38,5.76-7.4,11.03-12.14,15.73c-3.04,3.02-6.07,6.07-9.3,8.87
		c-6.54,5.67-13.94,9.94-22.12,12.78c-4.45,1.55-9.02,2.73-13.69,3.44c-12.67,1.93-25.17,1.52-37.45-2.63
		c-5.5-1.86-10.67-4.44-15.98-6.71c-4.39-1.88-8.24-4.53-11.85-7.6c-4.92-4.18-9.26-8.91-13.31-13.91
		c-4.62-5.71-8.25-11.98-10.69-18.93c-2.7-7.7-4.99-15.5-5.74-23.67C703.89,708.72,703.69,707.89,703.53,706.98z M688.19,174.66
		c0.33-0.93,0.62-1.72,0.88-2.52c2.65-7.93,4.41-16.08,6.26-24.23c0.74-3.29,0.11-6.89,2.2-9.89c0.31-0.44,0.21-1.28,0.09-1.89
		c-0.94-4.72-2.7-8.99-6.49-12.23c-2.28-1.95-4.36-4.12-6.58-6.13c-1.59-1.43-3.21-2.84-4.93-4.1c-6.21-4.57-12.33-9.26-18.8-13.47
		c-1.43-0.93-2.75-2.05-4.1-3.1c-5.58-4.33-11.18-8.65-16.74-13.03c-5.04-3.98-10.14-7.9-14.28-12.89
		c-0.82-0.98-1.85-1.79-2.72-2.73c-3.23-3.48-7.44-5.7-11.04-8.7c-2.71-2.26-5.94-2.35-9.08-0.91c-3.11,1.42-6.21,2.91-9.17,4.63
		c-6.84,3.99-13.59,8.13-20.37,12.23c-1.09,0.66-2.14,1.4-3.14,2.2c-0.18,0.15-0.12,1.04,0.05,1.12c3.86,1.82,7.68,3.77,11.67,5.3
		c6.65,2.55,12.67,6.24,18.72,9.86c2.56,1.53,4.98,3.32,7.09,5.49c2.43,2.49,4.2,5.39,5.62,8.49c0.58,0.39,1.09,0.78,1.63,1.11
		c10.48,6.3,20.51,13.24,29.9,21.08c2.14,1.78,4.1,3.78,6.28,5.51c5.22,4.14,9.95,8.8,14.53,13.62c1.33,1.4,2.54,2.91,3.93,4.24
		c4.18,4.03,7.69,8.63,11.27,13.17c1.86,2.35,3.64,4.77,5.54,7.08C686.73,174.39,687.51,174.42,688.19,174.66z M780.16,719.9
		c-9.93-1.13-7.09-2.25-12.35,6.08c-0.46,0.72-0.79,1.52-1.17,2.28c-5.53,11.14-12.38,21.52-18.56,32.29
		c-0.31,0.54-0.77,1.02-1.26,1.4c-0.28,0.22-0.8,0.33-1.13,0.23c-0.6-0.18-1.18-0.51-1.7-0.87c-12.4-8.64-20.56-20.4-25.41-34.59
		c-0.27-0.78-0.22-1.69-0.18-2.53c0.02-0.38,0.27-0.93,0.57-1.08c0.96-0.45,1.96-0.85,2.99-1.1c4.16-1.01,8.33-1.95,12.5-2.92
		c4.17-0.97,8.34-1.94,12.49-2.95c0.76-0.19,1.51-0.58,1.4-1.74c-5.15-1.3-10.29-2.77-15.67-3.19c-2.8-0.22-5.55-0.11-8.28,0.61
		c-2.27,0.61-4.56,1.15-6.85,1.7c-1.44,0.34-2.34-0.22-2.85-1.78c-0.26-0.81-0.28-1.73-0.69-2.45c-0.54-0.95-1.45-1.52-2.67-1.37
		c-0.5,0.06-0.8,0.23-0.94,0.73c-0.46,1.71-0.12,3.41,0.19,5.08c0.5,2.74,1.09,5.46,1.8,8.15c10.54,39.95,49.39,63.12,88.3,55.37
		c28.65-5.7,56.05-29.41,60.13-66.19c1.88-16.92-1.85-32.8-10.74-47.38c-14.49-23.75-40.18-36.25-64.35-36.06
		c-12.69,0.1-24.57,3.01-35.75,8.95c-0.55,0.29-1.02,0.73-1.52,1.1c-0.39,0.3-0.33,1.37,0.18,1.67c0.51,0.3,1.26,0.73,1.69,0.56
		c2.38-0.96,4.7-2.07,7.02-3.15c2.14-1,4.29-1.91,6.94-1.95c1.97,7.2,3.93,14.39,5.89,21.57c0.59,0.41,1.13,0.74,1.62,1.14
		c1.34,1.08,1.44,1.29,0.7,3.24c-0.42,1.11-0.52,2.07,0.31,2.94c3.4,3.57,6.8,7.12,10.25,10.64c0.35,0.36,0.99,0.43,1.57,0.67
		c-0.04-0.61,0.01-1.05-0.1-1.44c-3.37-12.39-6.65-24.81-10.19-37.15c-1.33-4.63-0.44-4.73,3.55-4.82c1.28-0.03,2.57-0.1,3.85-0.17
		c8.19-0.46,16.24,0.6,24.22,2.37c2.95,0.65,5.72,1.78,8.36,3.22c1.15,0.62,1.5,2.02,0.9,3.27c-0.18,0.39-0.36,0.78-0.55,1.16
		c-5.63,11.31-12.39,21.99-18.43,33.08c-0.51,0.94-1.21,1.77-1.78,2.67c-0.69,1.08-1.36,2.18-1.98,3.3
		c-1.26,2.26-1.2,2.82,0.47,4.51c1.05,1.07,2.1,2.14,3.21,3.14c0.27,0.24,0.79,0.2,1.33,0.31c0.63-1.06,1.29-2.16,1.93-3.27
		c3.93-6.87,7.82-13.77,11.77-20.63c3.31-5.75,6.67-11.47,10.06-17.17c0.54-0.9,1.25-1.72,1.98-2.49c0.85-0.89,2.51-1.14,3.57-0.62
		c0.76,0.38,1.56,0.73,2.24,1.23c5.37,3.97,10.26,8.44,14.01,14.02c2.87,4.27,5.32,8.79,7.49,13.45c0.98,2.11,1.85,4.32,1.84,6.96
		c-1.81,0.98-3.86,1.44-5.92,1.93c-14.78,3.49-29.56,7.02-44.33,10.56c-0.32,0.08-0.56,0.49-0.84,0.75c0,0.2-0.08,0.46,0.01,0.62
		c1.46,2.35,2.94,4.68,4.36,6.93c0.87,0,1.53,0.12,2.13-0.02c8.96-2.1,17.94-4.11,26.85-6.4c6.21-1.59,12.55-2.63,18.63-4.76
		c1.66-0.58,2.72-0.09,2.97,2.2c0.17,1.49,0.35,2.98,0.48,4.47c0.89,10.34,0.36,20.54-3.08,30.46c-0.63,1.81-0.96,3.72-1.43,5.59
		c-0.29,1.15-1.26,1.78-2.39,1.43c-1.01-0.31-2.04-0.63-2.97-1.12c-5.1-2.7-10.16-5.48-15.26-8.19c-4.16-2.21-8.34-4.4-12.22-7.06
		c-3.9-2.68-8.18-4.64-12.28-6.96c-0.51-0.29-1.45-0.09-1.72,0.36c-0.55,0.91-1.15,1.8-1.61,2.75c-0.43,0.87-1.5,1.49-1.17,2.77
		c2.4,1.36,4.83,2.7,7.22,4.12c10.5,6.21,21.04,12.33,31.82,18.04c0.94,0.5,1.89,1.03,2.71,1.69c0.46,0.37,0.66,1.05,1.09,1.79
		c-1.01,1.82-1.87,3.8-3.1,5.52c-2.25,3.13-4.87,6.01-7.84,8.46c-6.98,5.77-14.68,10.34-23.18,13.51c-0.35,0.13-0.8-0.02-1.47-0.05
		c-0.51-1.5-1.07-3.09-1.52-4.73c-2.03-7.43-4.25-14.81-6.13-22.28c-1.93-7.66-4.7-15.11-5.85-22.97c-0.04-0.27-0.68-0.69-1-0.65
		c-2.54,0.3-5.07,0.68-7.59,1.06c-0.79,0.12-1.39,1.18-1.16,1.95c0.86,2.87,1.78,5.72,2.58,8.6c3.44,12.37,6.86,24.75,10.22,37.14
		c0.44,1.62,1.98,3.28,1.04,4.87c-1.14,1.91-3.51,0.82-5.3,1.23c-5.28,1.22-10.65,0.88-16,0.88c-7.42,0-14.3-2.39-21.15-4.86
		c-1.93-0.7-2.69-2.77-1.92-4.82c0.52-1.4,1.19-2.75,1.86-4.08c1.15-2.3,2.38-4.55,3.53-6.85c5.18-10.35,10.86-20.4,17.36-29.98
		c0.6-0.88,1.15-1.8,1.59-2.76C780.52,720.78,780.25,720.3,780.16,719.9z M419.73,556.97c1.47-2.62,2.76-4.83,3.98-7.08
		c1.85-3.41,4.05-6.58,6.75-9.34c5.88-6.02,12.52-11.08,20.1-14.74c13.04-6.31,26.77-10.16,41.31-10.85
		c1.27-0.06,2.53-0.21,3.86-0.32c0-0.8,0.18-1.48-0.03-1.99c-2.77-6.71-6.14-13.18-7.87-20.31c-0.29-1.19-1.08-2.38-1.94-3.28
		c-2.1-2.2-3.52-4.82-5.04-7.4c-1.61-2.72-3.1-5.53-5.03-7.86c-1.5-0.01-2.05,1.08-2.92,1.64c-0.9,0.58-1.77,1.27-2.75,1.63
		c-2.73,1-4.71,2.9-6.49,5.07c-0.95,1.16-1.92,2.31-2.78,3.53c-2.18,3.09-5.16,5.08-8.59,6.49c-1.11,0.45-2.16,0.19-2.99-0.54
		c-0.95-0.84-1.94-1.74-2.57-2.81c-1.31-2.2-2.4-4.52-3.56-6.8c-0.39-0.76-0.68-1.58-1.13-2.3c-0.18-0.29-0.71-0.58-0.99-0.51
		c-0.27,0.07-0.58,0.58-0.61,0.93c-0.17,1.7-0.21,3.41-0.37,5.11c-0.26,2.88-2.99,4.81-5.99,4.22c-0.62-0.12-1.21-0.41-1.82-0.62
		c-2.95-4.46-5.89-8.91-8.84-13.35c-0.06-0.09-0.3-0.06-0.65-0.11c-0.48,0.86-1.12,1.74-1.49,2.71c-1.07,2.79-2.03,5.63-3.03,8.45
		c-3.77,10.69-7.38,21.43-10.57,32.31c-0.35,1.21-0.52,2.47-0.75,3.58c1.28,1.16,2.62,1.99,3.4,3.19c1.16,1.79,1.73,3.9,1.96,6.05
		c0.41,3.71-0.84,6.72-3.85,8.97c-0.69,0.51-1.36,1.04-2.09,1.5c-1.61,1.02-3.25,1.99-5.04,3.08c-0.67,3.26-1.35,6.6-2.02,9.89
		c0.32,0.38,0.55,0.89,0.88,0.97c1.24,0.3,2.5,0.58,3.77,0.65c3.85,0.21,7.7,0.34,11.55,0.44
		C416.77,557.18,418.05,557.05,419.73,556.97z M711.03,626.08c1.5,1.66,2.74,3.12,4.07,4.51c3.7,3.87,7.45,7.68,11.13,11.56
		c1.91,2.02,3.69,4.17,5.6,6.19c7.08,7.45,14.2,14.86,21.29,22.3c3.4,3.56,6.67,7.25,10.18,10.7c2.66,2.62,4.32,5.83,5.96,9.06
		c1.23,2.43-1.05,5.44-3.79,5.2c-0.21-0.02-0.43-0.01-0.64-0.04c-2.96-0.44-5.92-0.86-8.88-1.32c-6.98-1.07-13.93-2.31-20.68-4.47
		c-1.63-0.52-3.27-1.06-4.94-1.4c-10.27-2.09-20.61-3.82-31.02-5.09c-0.64-0.08-1.27-0.14-1.91-0.19c-0.89-0.06-1.8,0.48-2.01,1.23
		c-0.85,3.09-1.69,6.18-2.52,9.28c-0.13,0.49,0.41,1.38,0.93,1.49c1.24,0.28,2.49,0.67,3.75,0.73c4.94,0.22,9.75,1.31,14.6,2.06
		c1.69,0.26,3.38,0.47,5.07,0.71c1.9,0.27,3.81,0.52,5.7,0.83c2.75,0.44,5.47,1.16,8.23,1.35c8.12,0.56,16.07,2.33,24.14,3.32
		c7.42,0.91,14.77,2.44,22.09,3.97c5.13,1.07,10.18,0.8,15.27,0.1c1.09-0.15,2.16-1.81,1.91-2.98c-0.18-0.82-0.37-1.69-0.78-2.41
		c-1.29-2.24-3.02-4.14-4.84-5.96c-5.15-5.14-10.27-10.31-15.4-15.47c-16.45-16.55-32.87-33.13-49.33-49.67
		c-3.02-3.03-6.03-6.08-9.06-9.11c-0.75-0.75-1.47-1.57-2.62-1.78C711.61,622.23,711.55,623.96,711.03,626.08z M622.38,606.59
		c-0.23,1.01-0.49,1.61-0.49,2.21c0.01,3.17-1.68,5.15-4.36,6.52c-1.51,0.77-3.03,1.56-4.43,2.51c-0.4,0.27-0.5,1.1-0.57,1.69
		c-0.04,0.39,0.2,0.82,0.36,1.22c4.6,11.25,9.21,22.5,13.82,33.75c0.24,0.59,0.49,1.2,0.88,1.69c0.21,0.27,0.75,0.45,1.09,0.39
		c0.61-0.11,1.23-0.36,1.77-0.68c7.58-4.62,13.77-10.68,18.98-17.87c4.01-5.52,6.12-11.68,7.09-18.29c0.5-3.41,0.32-6.78-1.93-9.86
		C644.07,608.24,633.49,607.1,622.38,606.59z M513.77,543.43c0-0.23,0.08-0.48-0.01-0.65c-1.96-3.82-4.26-7.42-7.23-10.54
		c-0.4-0.42-1.12-0.63-1.73-0.73c-0.84-0.14-1.71-0.09-2.56-0.11c-5.15-0.14-10.24,0.49-15.35,1.07
		c-8.12,0.91-16.05,2.56-23.73,5.29c-6.9,2.45-13.31,5.87-18.99,10.56c-2.16,1.78-4.04,3.8-5.36,6.3c-0.09,0.16-0.04,0.45,0.04,0.63
		c0.07,0.14,0.29,0.31,0.44,0.3c1.06-0.06,2.13-0.05,3.16-0.26c3.4-0.72,6.78-0.8,10.18-0.02c1.24,0.28,2.54,0.45,3.82,0.45
		c3.27,0,6.35,0.84,9.41,1.83c1.42,0.46,2.9,0.8,4.28,1.35c1.75,0.7,3.21,0.6,4.75-0.66c2.66-2.18,5.68-3.82,8.75-5.36
		c5.2-2.61,10.75-4.23,16.31-5.78c3.69-1.03,7.42-2.06,11.33-2.05c0.6,0,1.25-0.32,1.79-0.63
		C513.4,544.22,513.55,543.76,513.77,543.43z M369.27,603.57c-0.31-0.58-0.42-1.06-0.72-1.27c-0.7-0.47-1.46-0.95-2.27-1.18
		c-6.16-1.8-5.85-2.89-8.39,3.56c-0.78,1.98-1.51,4-2.07,6.06c-1.79,6.61-3.94,13.09-6.36,19.5c-2.04,5.4-4.08,10.79-6.03,16.22
		c-1.67,4.65-3.6,9.15-6.67,13.08c-0.79,1.01-1.43,2.13-2.09,3.23c-3.88,6.48-8.86,12.04-14.34,17.19
		c-1.13,1.06-2.35,1.91-3.94,1.89c-1.93-0.01-3.22,1.03-4.29,2.43c-0.78,1.01-1.51,2.08-2.11,3.21c-1.41,2.66-1.04,5.01,1.15,6.95
		c1.11,0.98,2.35,1.85,3.65,2.56c3.14,1.71,6.22,0.96,8.49-1.95c1.38-1.77,1.87-3.81,1.8-6.02c-0.06-1.9-1.05-3.93-0.04-5.67
		c0.94-1.63,2.44-2.94,3.71-4.38c0.85-0.96,1.6-2.05,2.59-2.84c4.04-3.24,7.09-7.41,10.61-11.14c5.35-5.67,9.31-12.22,12.09-19.5
		c3.2-8.38,5.55-17.06,9.32-25.23c1.69-3.68,2.99-7.55,4.37-11.36C368.38,607.13,368.79,605.25,369.27,603.57z M530.46,93.01
		c-4.03-2.75-8.49-4.81-13.14-6.4c-2.61-0.89-5.32-1.57-8.17-1.56c-5.51,0.02-6.4,0.43-9.41,5.12c-0.23,0.36-0.43,0.75-0.59,1.14
		c-0.35,0.82-0.42,1.66,0.03,2.47c0.51,0.94,1.04,1.86,1.58,2.79c1.08,1.86,2.89,3.22,3.91,5.01c1.73,3.05,4.3,5.31,6.48,7.93
		c0.74,0.88,1.67,1.31,2.77,1.39c0.85,0.06,1.72,0.11,2.57,0.06c0.86-0.05,1.67-0.34,2.23-1.08c3.83-5.16,7.66-10.31,11.47-15.49
		C530.39,94.08,530.35,93.6,530.46,93.01z M336.59,747.21c-2.26-4.57-3.99-8.93-6.49-12.92c-2.26-3.62-4.39-7.32-6.59-10.98
		c-0.21-0.35-0.53-0.65-0.85-0.91c-0.12-0.09-0.4-0.03-0.59,0.03c-0.18,0.05-0.46,0.15-0.49,0.27c-1.47,7.11-3.86,13.97-5.88,20.93
		c-0.59,2.05-1.03,4.14-1.53,6.22c-0.05,0.21-0.14,0.41-0.18,0.61c-0.1,0.47,0.52,1.36,0.99,1.46c7,1.5,13.52-0.18,19.82-3.09
		C335.33,748.57,335.72,748,336.59,747.21z M260.05,708.29c1-0.44,2.17-0.92,3.32-1.46c8.14-3.81,15.55-8.86,23.16-13.57
		c0.13-0.08,0.17-0.4,0.17-0.6c0-0.13-0.15-0.34-0.27-0.37c-0.61-0.16-1.24-0.31-1.87-0.41c-6.73-1.14-13.46-2.25-20.18-3.41
		c-1.89-0.33-3.74-0.87-5.62-1.23c-1.04-0.2-2.11-0.24-3.16-0.33c-0.52-0.05-1.21,0.69-1.17,1.25c0.45,6.65,2.09,13.02,4.57,19.18
		C259.13,707.68,259.6,707.89,260.05,708.29z M826.65,655.87c-5.62,7.18-10.32,15.05-14.91,23c-0.29,0.5-0.17,0.84,0.73,1.1
		c1.43-0.38,3.31-0.67,5.17-1.13c3.11-0.77,6.24-1.45,9.36-2.18c3.12-0.73,6.21-1.58,9.35-2.19c5.13-1,4.09-2.01,2.28-5.44
		c-2.62-4.96-6.21-9.19-10.61-12.71C827.73,656.08,827.27,656.06,826.65,655.87z M721.5,651.44c-1.01-1.13-1.92-2.31-3-3.32
		c-1.24-1.17-2.58-2.24-3.93-3.27c-1.6-1.21-2.68-1.12-3.8,0.33c-3.56,4.56-6.78,9.32-8.93,14.73c-4.09,10.3-4.2,9.16,6.18,12.01
		c0.59,0.16,1.23,0.13,2.06,0.21c1.52-2.06,2.18-4.58,3.4-6.79c1.34-2.43,2.72-4.83,4.06-7.26
		C718.75,655.87,720.78,654.14,721.5,651.44z M845.24,720.23c0.35-1.17,0.85-2.36,1.05-3.6c0.63-3.79,1.16-7.59,1.68-11.39
		c0.12-0.84,0.03-1.7,0.04-2.56c0-0.21-0.03-0.43-0.04-0.64c-0.09-1.58-0.92-2.41-2.37-2.37c-1.93,0.05-3.8,0.26-5.65,0.93
		c-4.63,1.68-9.45,2.59-14.33,3.27c-1.67,0.23-3.28,0.88-4.92,1.3c-0.51,0.13-0.82,0.36-0.74,0.83c0.07,0.39,0.14,0.94,0.41,1.1
		c3.08,1.9,6.26,3.65,9.3,5.61c4.5,2.9,9.36,5.09,14.15,7.41C844.16,720.32,844.65,720.21,845.24,720.23z M782.29,736.67
		c-2.36,3.07-4.35,5.77-5.85,8.82c-0.94,1.9-1.84,3.83-2.82,5.71c-1.68,3.2-3.43,6.35-5.1,9.55c-0.27,0.52-0.3,1.16-0.45,1.78
		c0.66,0.3,1.22,0.71,1.82,0.79c4.61,0.67,9.2,1.62,13.9,1.37c1.27-0.07,2.53-0.29,3.79-0.47c0.92-0.13,1.47-0.95,1.23-1.82
		c-2.07-7.36-3.93-14.77-5.28-22.31C783.35,739.1,782.84,738.16,782.29,736.67z M731.57,729.79c0.16,1.09,0.1,1.58,0.3,1.9
		c2,3.27,4,6.54,6.11,9.74c0.69,1.05,1.6,2.03,2.59,2.8c1.09,0.84,1.6,2.4,3.37,2.72c1.13-2.1,2.18-4.18,3.36-6.19
		c1.29-2.21,2.66-4.37,4.06-6.51c1.28-1.97,2.78-3.8,3.92-5.84c1.22-2.19,3.58-3.63,4.3-6.41c-0.84,0-1.5-0.13-2.08,0.02
		c-2.47,0.67-4.97,1.26-7.35,2.17C744.19,726.49,738.26,728.87,731.57,729.79z M383.28,245.46c0.21-0.03,0.45-0.02,0.63-0.1
		c0.37-0.18,0.83-0.33,1.06-0.64c3.38-4.59,5.22-9.76,5.49-15.43c0.23-4.69,0.34-9.39,1.25-14.02c0.08-0.41,0.06-0.85,0.07-1.28
		c0.05-1.24-0.86-2.49-2.17-2.81c-1.65-0.41-3.32-0.82-5-1.02c-0.44-0.05-1.26,0.53-1.42,1c-0.57,1.6-0.97,3.27-1.36,4.93
		c-1.96,8.21-2.35,16.46-0.62,24.78C381.56,242.57,382.23,244.08,383.28,245.46z M297.67,632.35c0.11,0.56,0.12,1.22,0.37,1.77
		c0.99,2.12,1.97,4.25,3.13,6.28c2.64,4.61,5.38,9.16,8.12,13.72c0.18,0.3,0.67,0.43,1.06,0.66c0.27-0.58,0.65-1.13,0.79-1.73
		c1.21-5.39,2.86-10.67,4.31-16c0.67-2.45,1.02-4.99,1.49-7.49c0.09-0.5-0.54-1.41-0.98-1.45c-0.85-0.08-1.73-0.32-2.53-0.17
		c-3.75,0.72-7.61,0.81-11.26,2.07C300.58,630.56,298.81,630.75,297.67,632.35z M817.93,755.12c5.69-2.3,10.03-6.39,14.23-10.66
		c0.2-0.2,0.16-0.82,0.01-1.14c-0.17-0.35-0.55-0.65-0.9-0.86c-6.75-4.06-13.51-8.1-20.27-12.14c-0.18-0.11-0.38-0.29-0.57-0.28
		c-0.38,0.02-0.76,0.1-1.11,0.25c-0.14,0.06-0.29,0.38-0.25,0.53c2.29,7.99,5.14,15.79,7.84,23.64
		C817.01,754.77,817.58,754.91,817.93,755.12z M345.87,710.48c0.24,0.71,0.35,1.28,0.62,1.76c4.03,7.05,8.83,13.59,13.64,20.12
		c0.6,0.81,1.52,0.93,2.18,0.31c3.93-3.68,7.18-7.87,9.6-12.69c0.19-0.37,0.38-0.81,0.36-1.2c-0.02-0.35-0.24-0.82-0.53-1.01
		c-0.52-0.35-1.13-0.68-1.74-0.77c-5.51-0.84-10.7-2.83-15.98-4.46c-2.04-0.63-4.05-1.34-6.1-1.94
		C347.34,710.43,346.69,710.52,345.87,710.48z M367.36,231.39c-0.27,5.73,1.17,11.04,4.11,15.92c1.2,2,2.29,4.13,4.2,5.6
		c0.26,0.2,0.79,0.08,1.19,0.04c0.1-0.01,0.23-0.32,0.25-0.5c0.04-0.42,0.11-0.86,0.02-1.26c-0.38-1.67-0.64-3.39-1.28-4.96
		c-0.73-1.79,0.39-3.35,0.25-5.02c-0.04-0.43-0.05-0.86-0.13-1.28c-1.05-5.08-0.68-10.23-0.73-15.36
		c-0.03-3.67,0.52-7.24,1.75-10.71c0.21-0.6,0.45-1.21,0.53-1.83c0.04-0.35-0.15-0.78-0.36-1.11c-0.27-0.44-0.56-0.28-0.98,0.13
		c-0.58,0.58-1.2,1-2.2,0.77c-1.64-0.38-1.69-0.27-2.03,0.39c-0.29,0.57-0.62,1.12-0.87,1.71
		C368.69,219.5,367.72,225.38,367.36,231.39z M376.8,669.51c-0.69,0.18-1.33,0.25-1.88,0.52c-1.54,0.75-3.04,1.57-4.54,2.38
		c-5.08,2.72-10.16,5.45-15.24,8.18c-0.18,0.1-0.37,0.21-0.51,0.36c-0.14,0.15-0.35,0.42-0.3,0.54c0.15,0.36,0.38,0.92,0.65,0.96
		c5.49,0.86,10.93,1.92,16.33,3.22c1.45,0.35,2.91,0.71,4.37,1.04c0.63,0.14,1.26,0.23,1.9,0.33c1.15,0.19,2.19-0.67,2.03-1.79
		c-0.67-4.65-1.37-9.3-2.1-13.95C377.39,670.72,377.06,670.17,376.8,669.51z M750.35,681.63c-0.24-0.72-0.31-1.38-0.64-1.85
		c-1.39-1.95-3.25-3.38-5.43-4.36c-4.88-2.19-9.37-5.1-13.98-7.78c-0.92-0.53-1.79-1.14-2.67-1.75c-0.59-0.41-0.95-1.68-0.66-2.3
		c0.36-0.77,0.78-1.51,1.15-2.28c0.28-0.57,0.68-1.16,0.71-1.75c0.03-0.58-0.25-1.24-0.56-1.77c-0.28-0.49-1.8-0.15-2.21,0.45
		c-3.15,4.59-5.78,9.45-7.96,14.57c-0.23,0.54-0.17,0.85,0.41,0.99c0.18,0.04,0.45,0.14,0.53,0.07c1.65-1.61,3.36-1.48,5.22-0.35
		c1.27,0.78,2.74,1.27,3.92,2.16c2.46,1.84,5.3,2.68,8.2,3.4c1.45,0.36,2.89,0.84,4.36,1.04
		C743.9,680.53,746.93,681.77,750.35,681.63z M449.42,473.43c0,1.14-0.01,1.78,0,2.42c0.03,2.44,0.98,4.55,2.37,6.49
		c0.8,1.11,2.33,1.2,3.31,0.14c0.14-0.16,0.33-0.27,0.46-0.44c3.95-5.11,6.98-10.71,8.97-16.87c0.41-1.25-0.37-3.19-1.62-3.87
		c-1.11-0.61-2.29-1.12-3.47-1.61c-1.52-0.63-2.93-0.19-4.27,0.59c-1.33,0.77-2.3,1.91-3.01,3.24
		C450.45,466.79,449.26,470.18,449.42,473.43z M273.62,732.29c0,1.88,1.06,2.94,2.16,3.92c1.9,1.71,3.82,3.41,5.81,5
		c0.99,0.79,2.16,1.33,3.26,1.97c0.52,0.3,1.41,0.06,1.61-0.44c1.19-2.96,2.46-5.89,3.52-8.89c1.35-3.81,2.56-7.67,3.75-11.53
		c0.14-0.46-0.19-1.06-0.34-1.81c-3.5,2.09-6.77,4.06-10.05,6.01C280.06,728.46,276.52,729.96,273.62,732.29z M791.93,664.04
		c1.1,0.04,1.57-0.7,1.94-1.39c1.31-2.42,2.53-4.9,3.82-7.34c1.79-3.38,3.61-6.74,5.4-10.13c0.68-1.28-0.01-2.55-1.5-2.77
		c-3.36-0.5-6.77-0.64-10.07-1.57c-0.57-0.16-1.26,0.04-1.89,0.12c-1.55,0.18-2.29,1.09-2.06,2.54
		C788.7,650.43,790.25,657.26,791.93,664.04z M461.41,235.06c0-0.05,0-0.1,0-0.14c-1.9,0-3.8,0-5.71,0c-0.44,0-1.11,1-0.95,1.43
		c1.47,3.99,3.18,7.88,5.59,11.4c1.94,2.82,4.48,5.1,7.2,7.17c0.5,0.38,1.11,0.61,1.68,0.89c1.01,0.49,2.37-0.21,2.32-1.21
		c-0.3-6.17-1.38-12.23-2.47-18.29c-0.13-0.73-0.73-1.17-1.3-1.2C465.66,235,463.54,235.06,461.41,235.06z M634.61,738.95
		c-0.54-0.03-1.05-0.23-1.31-0.06c-3.55,2.33-7.03,4.77-9.81,8.02c-0.81,0.95-1.42,2.09-2.01,3.2c-0.42,0.8-0.24,1.67,0.29,2.39
		c0.91,1.23,2.1,2.13,3.58,2.5c5.31,1.34,10.48,1.07,15.39-1.41c-0.01-1.08-0.63-1.61-1.27-2.15c-3.09-2.62-4.68-5.94-4.67-10.02
		C634.8,740.6,634.68,739.76,634.61,738.95z M405.08,404.54c0.34-0.04,0.59,0,0.76-0.09c3.58-1.88,7.07-3.94,10.84-5.45
		c0.95-0.38,1.9-1.06,2.56-1.84c1.1-1.29,2.03-2.74,2.9-4.2c0.99-1.67,0.38-3.93-1.26-5.11c-0.91-0.66-1.92-0.88-3.02-0.75
		c-2.43,0.28-4.44,1.45-6.23,3.03c-3.83,3.4-5.85,7.8-6.93,12.69C404.59,403.34,404.95,403.97,405.08,404.54z M425.85,242.17
		c0.43-0.16,0.94-0.19,1.19-0.46c2.8-3.08,4.18-6.78,4.66-10.86c0.1-0.83-0.43-1.6-1.31-1.87c-3.23-0.99-6.46-1.99-9.7-2.95
		c-0.55-0.16-1.09-0.48-1.75-0.09c-0.48,0.28-0.74,1.16-0.33,2.33C420.32,233.26,422.07,238.26,425.85,242.17z M485.88,447.49
		c2.07,3.73,3.79,6.91,5.59,10.04c1.07,1.85,1.99,2.84,4.59,1.1c0.68-0.46,1.57-0.62,2.34-0.95c0.94-0.4,1.25-1.22,0.77-2.01
		c-2.31-3.81-4.69-7.59-6.93-11.45c-1.28-2.22-2.83-2.29-4.29-0.11C487.26,445.16,486.64,446.25,485.88,447.49z M445.34,246.72
		c0.46-0.54,1.05-0.95,1.25-1.51c0.85-2.39,1.66-4.8,1.83-7.38c0.22-3.43,0.94-4.75-4.03-5.24c-2.08-0.2-4.09-1.05-6.14-1.59
		c-0.6-0.16-1.24,0.51-1.13,1.13c0.95,5.13,3.17,9.63,6.66,13.49C444.19,246.08,444.79,246.35,445.34,246.72z M500.96,560.64
		c2.68,0.26,5.17,0.41,7.64,0.75c5.91,0.8,11.84,0.68,17.78,0.69c0.2,0,0.49-0.04,0.6-0.17c0.24-0.31,0.64-0.81,0.53-1.01
		c-0.46-0.94-1.02-1.84-1.63-2.69c-1.08-1.49-2.49-2.18-4.4-1.88c-2.09,0.33-4.2,0.52-6.31,0.75c-4.44,0.48-8.79,1.36-13.06,2.65
		C501.75,559.82,501.48,560.21,500.96,560.64z M428.97,462.04c-0.04,4.42,0.63,6.5,3.34,10.35c0.2,0.29,0.73,0.37,1.12,0.47
		c0.11,0.03,0.38-0.17,0.42-0.31c0.99-3.04,2.05-6.06,2.87-9.15c0.38-1.42,0.32-2.97,0.36-4.46c0.04-1.58-1.27-2.64-3.01-2.56
		c-0.43,0.02-0.86,0.04-1.28,0.12c-1.99,0.35-3.49,1.91-3.72,3.86C429.02,461,429,461.64,428.97,462.04z M658.81,734.88
		c-0.97,1.56,0.52,2.57,0.33,3.79c-0.19,1.24-0.46,2.48-0.65,3.72c-0.02,0.16,0.17,0.47,0.32,0.51c0.36,0.1,0.85,0.24,1.12,0.08
		c2.19-1.28,4.35-2.61,6.5-3.96c2.17-1.37,3.91-3.23,5.58-5.14c0.4-0.45,0.55-1.12,0.81-1.69c0.2-0.45-0.51-1.37-1.01-1.3
		c-0.61,0.09-1.3,0.06-1.82,0.33c-2.84,1.49-5.88,2.34-8.99,3.01C660.19,734.41,659.41,734.7,658.81,734.88z M511.96,74.23
		c-0.93,0.17-2.18,0.39-3.42,0.65c-0.18,0.04-0.47,0.31-0.45,0.4c0.08,0.32,0.23,0.81,0.45,0.87c1.44,0.38,2.89,0.77,4.36,0.95
		c2.78,0.34,5.39,1.21,7.94,2.29c4.11,1.75,8.11,3.71,11.81,6.26c0.7,0.48,1.43,0.92,2.2,1.27c0.15,0.07,0.77-0.41,0.76-0.63
		c-0.01-0.59-0.07-1.33-0.43-1.71c-0.56-0.6-1.33-1.09-2.1-1.4c-4.57-1.81-8.81-4.2-12.8-7.07c-1.05-0.75-2.22-1.23-3.54-1.34
		C515.26,74.63,513.78,74.43,511.96,74.23z M641.55,740.72c-0.41,1.64,0.11,3.04,0.74,4.42c0.49,1.09,1.39,1.62,2.52,1.69
		c3.73,0.22,6.14-2.65,6.46-5.79c0.14-1.37-0.48-2.54-1.52-3.36c-1.1-0.87-2.42-0.68-3.68-0.31c-0.4,0.11-0.76,0.38-1.1,0.64
		C643.8,738.91,642.65,739.84,641.55,740.72z M506.79,469.18c-0.04-0.2-0.05-0.41-0.13-0.59c-0.63-1.59-1.58-2.97-2.9-4.06
		c-1.19-0.98-2.57-1.47-4.1-1.28c-2.1,0.27-3.12,1.75-2.04,3.45c1.02,1.59,1.94,3.25,2.96,4.83c0.33,0.52,0.8,0.98,1.3,1.34
		c0.3,0.21,0.83,0.35,1.16,0.23c1.65-0.59,2.83-1.75,3.62-3.31C506.76,469.62,506.75,469.39,506.79,469.18z M426.31,407.37
		c-0.18-0.37-0.28-0.82-0.57-1.07c-0.28-0.24-0.79-0.43-1.12-0.35c-0.59,0.16-1.18,0.47-1.67,0.85c-4.82,3.69-7.02,8.81-7.94,14.62
		c-0.03,0.19,0.05,0.42,0.12,0.61c0.06,0.16,0.17,0.39,0.31,0.43c0.18,0.06,0.5,0.04,0.61-0.08c3.83-4.49,6.82-9.58,10.19-14.4
		C426.33,407.83,426.28,407.57,426.31,407.37z M503.49,237.79c-0.56-2.11-0.84-4.43-2.03-6.44c-0.25-0.42-1.08-0.74-1.63-0.71
		c-2.54,0.14-4.9,1.06-7.24,1.97c-0.16,0.06-0.27,0.93-0.12,1.05c2.89,2.14,6.07,3.76,9.44,5c0.19,0.07,0.48,0.14,0.62,0.05
		C502.83,238.51,503.07,238.2,503.49,237.79z M576.1,611.34c-2.36,0.8-4.77,1.58-7.14,2.45c-0.79,0.29-1.45,0.9-1.63,1.81
		c-0.25,1.31,1.12,3.3,2.3,3.26c2.11-0.06,4.21-0.19,6.32-0.32c0.83-0.05,1.43-0.85,1.36-1.8c-0.11-1.47-0.22-2.95-0.43-4.41
		C576.83,612.01,576.4,611.72,576.1,611.34z M483.54,233.53c-2.27,0.24-4.59,0.48-6.9,0.76c-0.37,0.05-0.99,0.31-1.01,0.53
		c-0.06,0.58-0.07,1.37,0.26,1.77c1.75,2.12,3.57,4.21,6.25,5.25c0.78,0.3,1.87-0.18,2.02-0.91c0.43-2.1,0.53-4.2,0.12-6.31
		C484.2,234.26,483.82,233.95,483.54,233.53z M604.62,606.41c0.9,1.02,1.7,1.99,2.59,2.87c0.25,0.25,0.8,0.39,1.17,0.32
		c1.26-0.24,2.39-0.78,3.1-1.92c0.64-1.03-0.06-2.97-1.18-3.1c-2.08-0.25-4.17-0.41-6.26-0.58c-0.12-0.01-0.32,0.18-0.37,0.32
		c-0.07,0.19-0.13,0.46-0.04,0.61C603.95,605.47,604.33,605.97,604.62,606.41z M377.43,528.16c-0.19-0.54-0.42-1.33-0.75-2.07
		c-0.27-0.62-1.23-0.96-1.56-0.59c-0.27,0.3-0.61,0.63-0.67,0.98c-0.23,1.51,0.06,2.92,1.09,4.11c0.12,0.14,0.39,0.32,0.52,0.28
		c0.35-0.13,0.83-0.3,0.95-0.58C377.24,529.72,377.27,529.07,377.43,528.16z M503.51,446.29c0.06-1.92-0.26-3.72-1.81-5.06
		c-0.3-0.26-0.7-0.53-1.07-0.54c-0.29-0.01-0.86,0.35-0.86,0.56c-0.04,2.2,1.16,3.91,2.43,5.55c0.11,0.14,0.44,0.27,0.55,0.2
		C503.03,446.82,503.25,446.54,503.51,446.29z M884.9,404.37l-0.22,0.27l0.39,0.04L884.9,404.37z"/>
	<path class="st1" d="M587.57,876.09c-0.22-0.96-0.47-1.74-0.51-2.53c-0.01-0.12,1.13-0.57,1.39-0.38c0.37,0.27,0.65,1.04,0.54,1.49
		C588.87,875.12,588.24,875.45,587.57,876.09z"/>
	<path class="st2" d="M688.19,174.66c-0.68-0.24-1.46-0.27-1.78-0.67c-1.9-2.31-3.68-4.73-5.54-7.08
		c-3.58-4.54-7.09-9.14-11.27-13.17c-1.39-1.34-2.6-2.85-3.93-4.24c-4.58-4.82-9.3-9.48-14.53-13.62c-2.18-1.73-4.14-3.73-6.28-5.51
		c-9.39-7.84-19.43-14.78-29.9-21.08c-0.55-0.33-1.06-0.72-1.63-1.11c-1.43-3.1-3.2-6-5.62-8.49c-2.12-2.17-4.54-3.96-7.09-5.49
		c-6.05-3.63-12.08-7.31-18.72-9.86c-3.98-1.53-7.8-3.48-11.67-5.3c-0.17-0.08-0.23-0.97-0.05-1.12c0.99-0.8,2.04-1.54,3.14-2.2
		c6.77-4.1,13.53-8.24,20.37-12.23c2.95-1.72,6.05-3.21,9.17-4.63c3.15-1.44,6.37-1.35,9.08,0.91c3.61,3,7.82,5.22,11.04,8.7
		c0.87,0.94,1.91,1.74,2.72,2.73c4.14,4.99,9.23,8.91,14.28,12.89c5.55,4.38,11.15,8.69,16.74,13.03c1.35,1.05,2.67,2.17,4.1,3.1
		c6.47,4.21,12.59,8.91,18.8,13.47c1.72,1.26,3.34,2.67,4.93,4.1c2.23,2.01,4.31,4.18,6.58,6.13c3.79,3.24,5.55,7.52,6.49,12.23
		c0.12,0.61,0.22,1.44-0.09,1.89c-2.09,3.01-1.45,6.61-2.2,9.89c-1.84,8.14-3.61,16.3-6.26,24.23
		C688.8,172.94,688.51,173.73,688.19,174.66z"/>
	<path class="st2" d="M530.46,93.01c-0.12,0.59-0.07,1.07-0.29,1.37c-3.8,5.18-7.64,10.33-11.47,15.49
		c-0.55,0.74-1.36,1.02-2.23,1.08c-0.85,0.05-1.71,0-2.57-0.06c-1.11-0.08-2.04-0.5-2.77-1.39c-2.18-2.62-4.75-4.88-6.48-7.93
		c-1.02-1.8-2.83-3.16-3.91-5.01c-0.54-0.92-1.07-1.85-1.58-2.79c-0.44-0.81-0.37-1.65-0.03-2.47c0.17-0.39,0.36-0.78,0.59-1.14
		c3.01-4.69,3.91-5.1,9.41-5.12c2.85-0.01,5.55,0.67,8.17,1.56C521.97,88.19,526.44,90.25,530.46,93.01z"/>
	<path class="st2" d="M413.18,227.51c-1.1,5.7-3.3,11.01-5.83,16.2c-0.75,1.54-1.61,3-2.92,4.16c-0.48,0.42-1.91,0.48-2.38-0.02
		c-3.44-3.65-6.08-7.79-6.42-12.91c-0.41-6.39-0.56-12.79,0.31-19.13c0.48-0.18,0.93-0.52,1.23-0.42c1,0.33,1.97,0.79,2.92,1.26
		c4.21,2.07,8.41,4.16,12.61,6.24C413.05,224.4,412.45,226.02,413.18,227.51z"/>
	<path class="st2" d="M679.4,214.09c2.94,3.92,5.83,7.88,8.82,11.76c2.35,3.07,3.98,6.55,5.85,9.89c1.27,2.28,1.63,4.82,1.83,7.38
		c0.03,0.41-0.15,0.83-0.22,1.25c-0.15,0.8-1.06,1.5-1.83,1.48c-2.86-0.1-5.4-1.03-7.65-2.81c-2.17-1.72-4.38-3.39-6.63-5.02
		c-1.01-0.73-2.14-1.28-3.17-1.89c-0.08-0.48-0.25-0.91-0.21-1.31c0.63-6.36,1.27-12.72,1.96-19.08c0.07-0.61,0.4-1.2,0.61-1.79
		c0,0,0.27,0.32,0.27,0.32L679.4,214.09z"/>
	<path class="st2" d="M676.19,182.56c-0.86-0.64-1.8-1.19-2.56-1.93c-5.79-5.7-12.35-10.57-17.85-16.57
		c-0.58-0.63-1.17-1.25-1.79-1.83c-6.88-6.41-13.77-12.8-20.63-19.24c-2.34-2.19-4.57-4.49-6.84-6.75
		c-2.12-2.12-4.35-4.09-6.91-5.69c-1.81-1.13-3.53-2.42-4.78-4.2c-0.12-0.17-0.17-0.39-0.25-0.59c0.35-0.12,0.83-0.46,1.03-0.34
		c5.12,3.09,10.15,6.32,14.72,10.22c1.3,1.11,2.54,2.31,3.91,3.32c5.37,3.92,10.09,8.59,15.04,12.99c1.12,0.99,2.15,2.08,3.19,3.16
		c6.8,7.1,13.61,14.2,20.38,21.33c1.32,1.39,2.51,2.91,3.76,4.36C676.45,181.36,676.32,181.96,676.19,182.56z"/>
	<path class="st2" d="M383.28,245.46c-1.05-1.37-1.72-2.89-2.07-4.61c-1.73-8.32-1.33-16.57,0.62-24.78
		c0.39-1.66,0.79-3.33,1.36-4.93c0.16-0.46,0.98-1.05,1.42-1c1.68,0.21,3.35,0.61,5,1.02c1.31,0.32,2.22,1.57,2.17,2.81
		c-0.02,0.43,0.01,0.86-0.07,1.28c-0.91,4.63-1.02,9.33-1.25,14.02c-0.28,5.67-2.12,10.84-5.49,15.43
		c-0.23,0.31-0.68,0.46-1.06,0.64C383.72,245.44,383.49,245.43,383.28,245.46z"/>
	<path class="st2" d="M367.36,231.39c0.36-6,1.33-11.89,3.72-17.46c0.25-0.59,0.57-1.14,0.87-1.71c0.34-0.66,0.39-0.77,2.03-0.39
		c1.01,0.23,1.63-0.19,2.2-0.77c0.41-0.42,0.7-0.58,0.98-0.13c0.2,0.33,0.4,0.75,0.36,1.11c-0.08,0.62-0.32,1.23-0.53,1.83
		c-1.23,3.47-1.78,7.03-1.75,10.71c0.04,5.13-0.32,10.28,0.73,15.36c0.09,0.42,0.1,0.85,0.13,1.28c0.15,1.68-0.98,3.23-0.25,5.02
		c0.64,1.57,0.9,3.29,1.28,4.96c0.09,0.4,0.02,0.84-0.02,1.26c-0.02,0.18-0.14,0.48-0.25,0.5c-0.4,0.05-0.93,0.16-1.19-0.04
		c-1.91-1.47-2.99-3.6-4.2-5.6C368.53,242.43,367.09,237.12,367.36,231.39z"/>
	<path class="st2" d="M702.84,235.73c-2-4-3.74-8.15-6.29-11.86c-2.9-4.22-5.8-8.44-8.75-12.62c-0.61-0.87-1.34-1.67-2.12-2.4
		c-4.96-4.7-9.7-9.62-14.2-14.76c-4.1-3.2-6.63-7.76-10.02-11.58c-1.13-1.27-2.24-2.56-3.43-3.77c-4.03-4.12-8.09-8.21-12.11-12.34
		c-0.42-0.43-0.64-1.06-0.95-1.6c0.24-0.36,0.49-0.71,0.73-1.07c0.52,0.37,1.1,0.68,1.54,1.12c7.02,7.17,14.03,14.35,21.04,21.53
		c1.94,1.99,3.84,4.01,5.82,5.95c6.72,6.6,12.83,13.76,18.43,21.29c4.84,6.5,8.85,13.57,11.55,21.28
		C703.44,234.81,703.03,235.1,702.84,235.73z"/>
	<path class="st2" d="M461.41,235.06c2.12,0,4.25-0.06,6.37,0.04c0.57,0.03,1.17,0.47,1.3,1.2c1.09,6.06,2.17,12.13,2.47,18.29
		c0.05,1-1.31,1.7-2.32,1.21c-0.57-0.28-1.19-0.51-1.68-0.89c-2.72-2.07-5.26-4.34-7.2-7.17c-2.41-3.52-4.12-7.41-5.59-11.4
		c-0.16-0.43,0.51-1.43,0.95-1.43c1.9,0,3.8,0,5.71,0C461.41,234.97,461.41,235.01,461.41,235.06z"/>
	<path class="st2" d="M425.85,242.17c-3.78-3.92-5.53-8.91-7.24-13.91c-0.4-1.17-0.14-2.05,0.33-2.33c0.66-0.39,1.19-0.08,1.75,0.09
		c3.24,0.96,6.47,1.96,9.7,2.95c0.88,0.27,1.41,1.04,1.31,1.87c-0.48,4.08-1.86,7.79-4.66,10.86
		C426.79,241.98,426.27,242.01,425.85,242.17z"/>
	<path class="st2" d="M445.34,246.72c-0.55-0.38-1.15-0.65-1.56-1.1c-3.5-3.86-5.71-8.36-6.66-13.49c-0.12-0.62,0.53-1.29,1.13-1.13
		c2.05,0.54,4.06,1.39,6.14,1.59c4.97,0.49,4.25,1.8,4.03,5.24c-0.17,2.58-0.97,4.99-1.83,7.38
		C446.39,245.77,445.8,246.19,445.34,246.72z"/>
	<path class="st2" d="M511.96,74.23c1.83,0.2,3.3,0.4,4.79,0.53c1.32,0.11,2.49,0.59,3.54,1.34c3.98,2.87,8.22,5.26,12.8,7.07
		c0.77,0.31,1.54,0.8,2.1,1.4c0.36,0.38,0.42,1.13,0.43,1.71c0,0.22-0.62,0.69-0.76,0.63c-0.77-0.35-1.5-0.79-2.2-1.27
		c-3.69-2.54-7.7-4.51-11.81-6.26c-2.55-1.08-5.16-1.95-7.94-2.29c-1.47-0.18-2.92-0.57-4.36-0.95c-0.22-0.06-0.37-0.55-0.45-0.87
		c-0.02-0.09,0.27-0.36,0.45-0.4C509.78,74.62,511.03,74.4,511.96,74.23z"/>
	<path class="st2" d="M503.49,237.79c-0.42,0.41-0.66,0.71-0.96,0.91c-0.14,0.09-0.42,0.02-0.62-0.05c-3.37-1.24-6.55-2.86-9.44-5
		c-0.15-0.11-0.05-0.98,0.12-1.05c2.34-0.91,4.7-1.83,7.24-1.97c0.54-0.03,1.38,0.29,1.63,0.71
		C502.66,233.37,502.93,235.68,503.49,237.79z"/>
	<path class="st2" d="M483.54,233.53c0.29,0.42,0.66,0.73,0.74,1.1c0.41,2.1,0.32,4.21-0.12,6.31c-0.15,0.73-1.25,1.21-2.02,0.91
		c-2.68-1.04-4.49-3.13-6.25-5.25c-0.33-0.4-0.32-1.19-0.26-1.77c0.02-0.22,0.64-0.48,1.01-0.53
		C478.95,234.01,481.27,233.78,483.54,233.53z"/>
	<path class="st3" d="M676.19,182.56c0.13-0.6,0.27-1.19,0.41-1.78c0.97,0.19,1.28,1.03,1.63,1.75c0.15,0.31-0.02,0.77-0.05,1.16
		c-0.39-0.08-0.83-0.07-1.16-0.25C676.68,183.24,676.46,182.86,676.19,182.56z"/>
	<path class="st1" d="M413.18,227.51c-0.72-1.49-0.12-3.11-0.48-4.63c0.31,0.22,0.79,0.37,0.89,0.66
		C414.04,224.9,414.14,226.27,413.18,227.51z"/>
	<path class="st3" d="M704.11,234.92c0.18,0.76,0.44,1.51,0.5,2.27c0.02,0.27-0.39,0.77-0.66,0.83c-0.26,0.05-0.77-0.3-0.87-0.58
		c-0.19-0.53-0.17-1.14-0.23-1.71C703.03,235.1,703.44,234.81,704.11,234.92z"/>
	<path class="st4" d="M614.16,657.44c0.29,0.19,0.68,0.32,0.85,0.58c0.25,0.4,0.03,0.75-0.43,0.81c-0.09,0.01-0.28-0.27-0.3-0.43
		c-0.04-0.35,0-0.7,0-1.05C614.28,657.34,614.16,657.44,614.16,657.44z"/>
	<path class="st1" d="M585.96,419.25c0.08-0.42,0.16-0.84,0.24-1.26c0.6,0.2,0.97,0.63,0.94,1.24c-0.01,0.28-0.33,0.54-0.51,0.8
		C586.41,419.77,586.19,419.51,585.96,419.25z"/>
	<path class="st3" d="M458.62,701.04c-0.58,0.46-1.16,0.92-1.74,1.39C457.46,701.96,458.04,701.5,458.62,701.04z"/>
	<path class="st1" d="M705.74,535.44c-0.28,0.26-0.52,0.68-0.84,0.74c-0.6,0.11-0.56-0.36,0.2-1.38
		C705.31,535.01,705.52,535.22,705.74,535.44z"/>
	<path class="st1" d="M443.19,721.76c-0.1,0.54-0.35,0.73-0.71,0.52c-0.05-0.03-0.02-0.38,0.07-0.46c0.13-0.11,0.36-0.1,0.55-0.15
		C443.11,721.67,443.19,721.76,443.19,721.76z"/>
	<path class="st1" d="M434.13,412.95c-0.05,0.17-0.09,0.48-0.15,0.48c-0.35,0.02-0.28-0.15,0.22-0.42
		C434.2,413.01,434.13,412.95,434.13,412.95z"/>
	<polygon class="st1" points="884.9,404.37 885.06,404.68 884.68,404.64 	"/>
	<path class="st1" d="M679.4,214.09l-0.38,0.2c0,0-0.28-0.32-0.27-0.32C679.08,213.47,679.33,213.36,679.4,214.09z"/>
	<path class="st2" d="M644.99,164.81c-0.34-0.2-0.7-0.37-1.01-0.61c-0.12-0.09-0.19-0.36-0.15-0.52c0.11-0.51,0.46-0.75,0.9-0.58
		c0.36,0.14,0.66,0.42,0.99,0.64C645.48,164.1,645.23,164.45,644.99,164.81z"/>
	<path class="st0" d="M555.21,154.35c-10.12,0.02-19.56-6.15-22.66-16.66c-2.23-7.56-1.05-14.88,3.12-21.58
		c4.66-7.48,11.41-12.12,20.04-13.78c11.77-2.27,24.86,4.74,27.86,17.91c1.24,5.46,0.59,10.6-1.38,15.71
		C578.08,146.59,566.77,154.63,555.21,154.35z M544.77,145.43c-0.09-0.6-0.2-1.15-0.93-0.47c0.31,0.16,0.61,0.32,0.92,0.49
		c0.06,0.83,0.52,1.19,1.32,1.16c2.96,2.54,6.58,2.95,10.24,2.94c2.55,0,5.13-0.25,7.65-0.66c2.74-0.44,5.55-1.04,7.72-2.88
		c3.1-2.64,5.94-5.58,7.18-9.63c0.68-2.24,1.43-4.5,1.8-6.8c1.03-6.48-1.51-12.78-7.67-16.3c-3.02-1.72-6.12-3.06-9.7-2.79
		c-0.64,0.05-1.28,0.03-1.92,0c-3.76-0.21-7.17,0.9-10.36,2.78c-0.26,0.15-0.51,0.68-0.44,0.93c0.1,0.36,0.47,0.8,0.81,0.9
		c4.08,1.19,7.71,3.58,11.98,4.35c2.65,0.48,4.48,2.38,5.7,4.78c0.39,0.76,0.8,1.53,1.04,2.34c1.94,6.78-0.31,11.71-6.09,15.3
		c-3.41,1.18-7.08,1.52-10.32,3.3c-0.71,0.39-1.66,0.38-2.51,0.45c-0.85,0.07-1.71,0.01-2.56,0c-0.85-0.01-1.71-0.04-2.56-0.05
		C545.63,145.51,545.2,145.47,544.77,145.43z M565.18,132.36c0.17-2.97-0.45-4.99-1.71-6.75c-0.59-0.83-1.5-1.45-2.35-2.05
		c-0.82-0.58-2.2-0.41-2.98,0.22c-4.73,3.82-4.43,10.11,0.7,13.3c2.01,1.25,4.84,1.1,5.63-1.78
		C564.8,134.08,565.07,132.85,565.18,132.36z"/>
	<path class="st0" d="M448.42,145.32c1.28,0.86,2.56,1.72,3.85,2.59c0.25,1.25,0.56,2.49,0.73,3.74c0.48,3.5-0.83,6.32-3.63,8.35
		c-1.18,0.85-2.63,1.39-4.03,1.87c-0.99,0.34-2.12,0.27-3.15,0.51c-3.77,0.88-7.3,2.2-10.42,4.66c-1.97,1.55-3.19,3.4-3.78,5.73
		c-0.31,1.24-0.37,2.54-0.72,3.77c-0.6,2.11-1.69,3.91-3.65,5.07c-0.92,0.54-1.75,1.25-2.7,1.72c-2.33,1.15-4.7,2.01-7.36,0.99
		c-0.77-0.3-1.68-0.24-2.52-0.34c-0.76-1.28-1.62-2.52-2.26-3.86c-0.74-1.56-1.06-3.24-0.76-4.99c0.32-1.89,0.51-3.81,0.95-5.67
		c1.6-6.69,5.25-12.08,10.74-16.19c2.05-1.53,4.16-3,6.36-4.29c1.64-0.96,3.42-1.74,5.23-2.32c3.04-0.96,6.16-1.7,9.25-2.53
		C443.14,144.74,445.66,145.79,448.42,145.32z"/>
	<path class="st0" d="M637.28,444.05c5.77,0,11.54-0.01,17.31,0c4.5,0.01,8.96,0.42,13.41,1.04c3.42,0.47,6.67,1.48,9.75,3.03
		c5.28,2.65,8.64,6.86,9.92,12.66c0.27,1.23,0.37,2.51,0.42,3.78c0.01,0.3-0.41,0.81-0.72,0.89c-0.8,0.23-1.66,0.38-2.49,0.37
		c-14.75-0.16-29.49-0.29-44.24-0.58c-4.69-0.09-9.41-0.5-13.89-2.08c-2.2-0.77-4.41-1.69-6.38-2.93
		c-4.75-2.98-7.63-7.36-8.79-12.86c-0.13-0.62-0.11-1.28-0.15-1.92c-0.04-0.7,0.82-1.76,1.49-1.78c1.28-0.05,2.56-0.1,3.84-0.08
		c6.84,0.08,13.68,0.17,20.52,0.26C637.28,443.92,637.28,443.99,637.28,444.05z"/>
	<path class="st0" d="M664.69,501.3c-9.94-0.25-16.79-0.44-23.64-0.58c-3.87-0.08-7.71-0.38-11.43-1.53
		c-1.63-0.5-3.28-1.02-4.82-1.76c-6.42-3.08-10.29-8.19-11.71-15.16c-0.08-0.41-0.04-0.85-0.07-1.28c-0.04-0.81,0.71-1.82,1.43-1.85
		c1.28-0.06,2.57-0.12,3.85-0.1c14.35,0.3,28.7,0.65,43.05,0.9c3.67,0.07,7.26,0.55,10.83,1.27c2.53,0.51,4.96,1.35,7.25,2.55
		c6.16,3.21,9.64,8.3,10.5,15.18c0.05,0.41-0.07,0.84-0.09,1.27c-0.02,0.47-0.78,1.26-1.26,1.28c-1.5,0.05-3,0.13-4.49,0.11
		C676.6,501.5,669.1,501.37,664.69,501.3z"/>
	<path class="st0" d="M692.69,527.13c-1.02,0.2-1.84,0.49-2.66,0.5c-2.56,0.04-5.13-0.02-7.7-0.05
		c-11.54-0.13-23.09-0.31-34.63-0.36c-4.08-0.02-8.12-0.45-12.12-1.12c-5.6-0.94-10.66-3.08-14.57-7.42
		c-2.96-3.29-4.63-7.14-5.14-11.51c-0.06-0.51,0.53-1.41,0.99-1.47c0.84-0.11,1.68-0.28,2.52-0.28c13.68,0.15,27.37,0.26,41.05,0.53
		c4.05,0.08,8.11,0.52,12.14,0.99c3.63,0.42,7.08,1.58,10.32,3.31c5.01,2.68,8.14,6.84,9.5,12.3
		C692.74,523.97,692.6,525.5,692.69,527.13z"/>
	<path class="st2" d="M565.18,132.36c-0.12,0.49-0.38,1.72-0.71,2.94c-0.79,2.88-3.62,3.02-5.63,1.78c-5.13-3.19-5.43-9.48-0.7-13.3
		c0.78-0.63,2.16-0.8,2.98-0.22c0.85,0.6,1.76,1.23,2.35,2.05C564.73,127.37,565.35,129.39,565.18,132.36z"/>
</g>
</svg>
