<svg width="1191" height="842" viewBox="0 0 1191 842" fill="none" xmlns="http://www.w3.org/2000/svg">
<mask id="mask0_387_3059" style="mask-type:luminance" maskUnits="userSpaceOnUse" x="86" y="339" width="1018" height="165">
<path d="M1103.01 339H86V503.11H1103.01V339Z" fill="white"/>
</mask>
<g mask="url(#mask0_387_3059)">
<path d="M979.362 370.92C973.302 363.2 965.912 356.87 957.352 352.03C946.752 346.04 935.332 342.97 923.142 342.77C917.832 342.68 912.562 343.1 907.342 343.97C900.922 345.05 894.692 346.82 888.942 349.97C879.102 355.38 870.512 362.4 863.582 371.18C850.732 387.46 846.582 406.19 848.942 426.57C852.272 446.68 861.912 463.03 878.202 475.34C884.932 480.43 892.362 484.17 900.522 486.43C910.682 489.26 920.952 490.01 931.432 488.59C945.522 486.69 958.122 481.35 968.762 471.99C985.682 457.11 994.362 438.26 994.602 417.19C994.482 410.68 994.172 405.75 993.132 400.88C990.782 389.86 986.332 379.77 979.372 370.91L979.362 370.92ZM921.612 462.86C901.012 463.61 874.762 447.01 874.632 416.18C874.522 389.73 895.772 368.82 921.212 369.14C947.762 369.09 968.002 389.73 968.242 415.75C968.472 441.62 946.502 463.58 921.612 462.85V462.86Z" fill="black"/>
<path d="M1102.99 487.24C1102.91 486.55 1102.86 485.83 1102.61 485.19C1101.97 483.56 1101.23 481.98 1100.52 480.38C1093.6 464.9 1086.67 449.42 1079.74 433.94C1079.24 432.82 1078.73 431.71 1078.27 430.58C1077.6 428.96 1077.83 427.49 1079.12 426.26C1080 425.41 1080.94 424.63 1081.85 423.8C1085.48 420.47 1088.61 416.71 1091.16 412.5C1097.87 401.43 1099.47 389.59 1096 377.17C1092.19 363.58 1083.61 353.88 1071 347.72C1064.28 344.44 1057.13 343.08 1049.67 343.1C1036.03 343.14 1022.39 343.1 1008.75 343.11C1007.7 343.11 1006.65 343.13 1005.61 343.23C1003.74 343.41 1002.32 344.8 1002.2 346.62C1002.1 348.19 1002.1 349.77 1002.1 351.34C1002.1 373.03 1002.1 394.72 1002.1 416.42C1002.1 438.12 1002.1 459.8 1002.1 481.5C1002.1 483.07 1002.1 484.65 1002.19 486.22C1002.3 488.06 1003.66 489.45 1005.52 489.72C1006.04 489.8 1006.56 489.87 1007.08 489.87C1011.98 489.88 1016.87 489.89 1021.77 489.87C1022.46 489.87 1023.16 489.73 1023.84 489.58C1025.15 489.3 1026.36 487.97 1026.48 486.64C1026.6 485.25 1026.64 483.85 1026.65 482.45C1026.67 475.1 1026.65 467.76 1026.65 460.41C1026.65 454.11 1026.67 447.81 1026.65 441.52C1026.65 437.55 1027.78 436.2 1031.9 436.01C1032.25 435.99 1032.6 435.99 1032.95 435.99C1037.85 435.99 1042.74 435.99 1047.64 435.99C1048.51 435.99 1049.39 436.07 1050.26 436.14C1052.74 436.36 1054.53 437.47 1055.33 439.96C1055.59 440.79 1056.03 441.56 1056.39 442.36C1062.47 455.92 1068.55 469.48 1074.63 483.04C1075.2 484.32 1075.81 485.58 1076.36 486.86C1077.13 488.65 1078.49 489.58 1080.39 489.75C1081.09 489.81 1081.78 489.89 1082.48 489.89C1088.08 489.89 1093.67 489.9 1099.27 489.88C1099.96 489.88 1100.66 489.74 1101.34 489.62C1102.31 489.45 1103.11 488.31 1102.99 487.25V487.24ZM1068.94 395.17C1066.45 402.72 1061.07 407.35 1053.11 408.7C1051.74 408.93 1050.33 409.01 1048.94 409.01C1043.36 409.04 1037.77 409.03 1032.19 409.01C1031.32 409.01 1030.45 408.95 1029.58 408.86C1028.19 408.71 1026.97 407.53 1026.81 406.13C1026.69 405.09 1026.65 404.04 1026.65 403C1026.63 398.46 1026.65 393.92 1026.65 389.38C1026.65 384.84 1026.63 380.3 1026.67 375.76C1026.67 374.73 1026.8 373.67 1027.05 372.66C1027.36 371.38 1028.25 370.52 1029.57 370.29C1030.59 370.11 1031.65 370.03 1032.69 370.03C1038.1 370.01 1043.51 370 1048.92 370.03C1050.31 370.04 1051.71 370.17 1053.09 370.36C1059.19 371.2 1063.79 374.44 1067.06 379.53C1070.17 384.39 1070.72 389.81 1068.96 395.15L1068.94 395.17Z" fill="black"/>
<path d="M519.16 483.75C516.17 477.05 513.16 470.35 510.16 463.65C505.66 453.6 501.17 443.55 496.69 433.49C496.12 432.22 495.57 430.92 495.19 429.59C494.9 428.55 495.11 427.47 495.95 426.68C497.1 425.61 498.32 424.62 499.49 423.56C511.97 412.28 518.61 394.25 512.61 375.72C507.38 359.57 496.09 349.31 479.88 344.49C475.15 343.08 470.25 342.81 465.34 342.81C453.45 342.81 441.56 342.81 429.68 342.81C428.11 342.81 426.53 342.8 424.96 342.84C424.27 342.86 423.56 342.96 422.89 343.12C421.39 343.49 420.43 344.49 420.15 345.98C419.93 347.17 419.9 348.41 419.89 349.63C419.87 359.07 419.88 368.52 419.89 377.96C419.89 378.83 419.9 379.71 419.97 380.58C420.22 383.59 422.37 385.59 425.03 385.62C429.75 385.67 434.47 385.68 439.19 385.62C441.49 385.59 443.57 384.25 444.08 381.03C444.24 380 444.19 378.94 444.23 377.89C444.27 376.84 444.25 375.79 444.36 374.75C444.59 372.62 446.2 370.82 448.29 370.34C448.97 370.18 449.67 370.06 450.36 370.06C456.13 370.04 461.9 369.98 467.67 370.09C470.47 370.14 473.23 370.66 475.81 371.89C489.23 378.27 490.66 395.55 480.26 404.16C477.07 406.8 473.47 408.44 469.3 408.65C467.56 408.74 465.81 408.75 464.06 408.75C452.17 408.75 440.28 408.75 428.4 408.75C427 408.75 425.6 408.73 424.21 408.82C421.78 408.98 420.22 410.41 420.03 412.71C419.9 414.28 419.91 415.85 419.91 417.43C419.91 428.1 419.91 438.77 419.91 449.43C419.91 459.92 419.91 470.42 419.91 480.91C419.91 482.31 419.89 483.71 419.96 485.11C419.99 485.8 420.13 486.5 420.33 487.16C420.66 488.22 421.43 488.93 422.48 489.27C422.97 489.43 423.5 489.55 424.02 489.55C429.44 489.57 434.86 489.55 440.28 489.55C440.45 489.55 440.63 489.5 440.8 489.48C442.62 489.26 443.98 487.91 444.14 486C444.27 484.43 444.26 482.86 444.26 481.28C444.26 468.86 444.26 456.45 444.27 444.03C444.27 442.46 444.3 440.88 444.41 439.32C444.52 437.78 445.43 436.71 446.98 436.42C448.34 436.17 449.75 436.02 451.13 436C456.2 435.95 461.27 435.98 466.34 435.98C467.04 435.98 467.74 436 468.44 436.01C470.94 436.05 472.75 437.02 473.76 439.48C475.15 442.88 476.71 446.2 478.2 449.56C483.38 461.22 488.59 472.87 493.74 484.54C495.87 489.38 496.35 489.58 501.64 489.6C506.19 489.62 510.73 489.61 515.28 489.6C516.15 489.6 517.03 489.57 517.9 489.5C519.67 489.35 520.7 487.87 520.19 486.18C519.94 485.35 519.57 484.55 519.22 483.76L519.16 483.75Z" fill="black"/>
<path d="M853.732 367.34C854.702 367.23 855.692 366.15 855.822 365.23C855.892 364.71 855.972 364.19 855.972 363.67C855.972 357.9 855.972 352.13 855.972 346.36C855.972 346.19 855.952 346.01 855.942 345.84C855.822 344.01 854.792 342.82 853.062 342.69C851.492 342.57 849.922 342.56 848.352 342.56C814.622 342.56 780.882 342.56 747.152 342.56C745.932 342.56 744.702 342.56 743.482 342.61C742.962 342.63 742.452 342.76 741.932 342.86C741.112 343.02 740.352 343.79 740.232 344.64C740.112 345.5 740.002 346.37 739.992 347.24C739.972 352.31 739.972 357.38 739.992 362.45C739.992 363.32 740.062 364.2 740.172 365.06C740.322 366.31 741.342 367.38 742.562 367.48C744.132 367.6 745.702 367.65 747.272 367.65C756.182 367.67 765.102 367.65 774.012 367.67C775.582 367.67 777.162 367.7 778.712 367.94C780.812 368.26 782.602 370.23 782.702 372.24C782.802 374.16 782.842 376.08 782.842 378C782.842 412.1 782.842 446.19 782.842 480.29C782.842 482.04 782.822 483.79 782.902 485.53C783.002 487.65 784.132 488.78 786.142 488.9C786.662 488.93 787.192 488.94 787.712 488.94C794.532 488.94 801.342 488.94 808.162 488.94C808.682 488.94 809.212 488.94 809.732 488.92C812.152 488.8 813.072 487.86 813.162 485.26C813.222 483.69 813.202 482.11 813.202 480.54C813.202 463.58 813.202 446.62 813.202 429.66C813.202 412.17 813.202 394.69 813.202 377.2C813.202 375.63 813.172 374.05 813.312 372.48C813.562 369.8 815.372 368.01 818.092 367.77C819.652 367.63 821.232 367.65 822.802 367.65C831.712 367.64 840.632 367.65 849.542 367.63C850.932 367.63 852.332 367.5 853.712 367.34H853.732Z" fill="black"/>
<path d="M731.389 366.7C727.189 359.5 721.519 353.8 714.389 349.6C707.259 345.41 699.489 343.31 691.099 343.31H644.729C643.749 343.31 642.869 343.69 642.099 344.46C641.329 345.23 640.949 346.18 640.949 347.29V366.6C640.949 367.72 641.329 368.66 642.099 369.43C642.869 370.2 643.749 370.58 644.729 370.58H691.099C696.409 370.58 700.989 372.47 704.839 376.25C708.689 380.03 710.609 384.64 710.609 390.1C710.609 395.56 708.689 399.96 704.839 403.74C700.989 407.51 696.409 409.4 691.099 409.4H644.729C643.749 409.4 642.869 409.79 642.099 410.56C641.329 411.33 640.949 412.27 640.949 413.39V486.62C640.949 487.6 641.329 488.47 642.099 489.24C642.869 490.01 643.749 490.39 644.729 490.39H660.879C661.999 490.39 662.949 490.05 663.719 489.35C664.479 488.65 664.869 487.74 664.869 486.62V439.83C664.869 438.57 665.149 437.73 665.709 437.31C666.269 436.89 667.319 436.68 668.859 436.68H691.099C699.489 436.68 707.259 434.58 714.389 430.38C721.519 426.19 727.189 420.52 731.389 413.39C735.579 406.25 737.679 398.49 737.679 390.1C737.679 381.71 735.579 373.91 731.389 366.7Z" fill="black"/>
<path d="M528.459 381.76C531.999 383.19 535.699 384.08 539.479 384.66C544.659 385.46 549.869 385.64 555.089 385.4C561.569 385.1 568.039 384.7 574.519 384.3C580.149 383.95 585.769 383.49 591.399 383.16C603.649 382.45 615.899 381.79 628.149 381.13C634.109 380.81 633.519 380.73 632.339 375.48C630.059 365.3 624.129 358.02 614.439 353.93C613.139 353.39 611.819 352.9 610.479 352.47C606.019 351.04 601.419 350.33 596.769 350.05C590.569 349.68 584.359 349.93 578.169 350.25C569.999 350.67 561.839 351.23 553.679 351.73C553.679 351.71 553.679 351.69 553.679 351.67C552.129 351.75 550.579 351.83 549.029 351.92C540.439 352.42 531.859 352.91 523.269 353.42C518.629 353.7 513.979 354 509.339 354.31C508.529 354.36 508.009 354.96 508.159 355.72C508.529 357.65 508.769 359.64 509.399 361.49C512.679 371.11 518.999 377.94 528.459 381.76Z" fill="#AABB11"/>
<path d="M631.297 452.51C628.007 450.86 624.527 449.72 620.927 448.99C614.397 447.68 607.807 447.26 601.167 447.62C600.047 447.68 598.917 447.78 597.797 447.84C588.087 448.32 578.377 448.79 568.677 449.27C568.677 449.29 568.677 449.32 568.677 449.34C561.507 449.77 554.337 450.21 547.157 450.62C540.267 451.01 533.367 451.36 526.477 451.75C525.637 451.8 524.807 451.95 523.977 452.08C523.487 452.16 523.007 452.81 523.087 453.34C523.287 454.73 523.367 456.16 523.757 457.5C526.507 467.1 532.257 474.22 541.317 478.55C544.897 480.26 548.697 481.31 552.587 482.04C557.877 483.03 563.237 483.23 568.587 483.01C576.887 482.67 585.197 482.2 593.487 481.72C600.237 481.33 606.977 480.81 613.727 480.41C620.757 479.99 627.797 479.64 634.827 479.25C638.207 479.06 641.577 478.84 644.947 478.62C645.507 478.58 646.067 478.53 646.627 478.46C647.317 478.38 647.817 477.71 647.787 476.96C647.697 474.39 646.967 471.97 646.157 469.56C643.577 461.81 638.577 456.16 631.307 452.51" fill="#AABB11"/>
<path d="M535.869 438.31C540.099 439.96 544.489 440.93 548.999 441.39C554.339 441.94 559.679 442.11 565.039 441.62C566.719 441.47 568.419 441.46 570.109 441.37C575.879 441.05 581.649 440.73 587.419 440.38C595.299 439.9 603.169 439.37 611.049 438.89C619.909 438.35 628.769 437.81 637.639 437.31C640.149 437.17 640.249 436.61 639.939 434.44C639.759 433.19 639.459 431.95 639.139 430.72C636.659 421.44 631.149 414.69 622.349 410.73C621.069 410.15 619.749 409.63 618.419 409.19C614.119 407.75 609.699 406.92 605.179 406.63C596.579 406.08 587.989 406.6 579.409 407.03C576.729 407.16 574.069 407.36 571.389 407.52C568.579 407.68 565.759 407.82 562.949 407.98C562.949 407.99 562.949 408.01 562.949 408.03C556.199 408.42 549.439 408.82 542.689 409.2C535.939 409.58 529.179 409.93 522.419 410.31C520.589 410.41 518.769 410.59 516.939 410.77C516.529 410.81 516.099 410.9 515.729 411.08C515.519 411.18 515.289 411.5 515.289 411.72C515.299 414.14 515.839 416.48 516.689 418.73C520.219 428.07 526.529 434.71 535.889 438.35" fill="#AABB11"/>
<path d="M291.41 349.42C288.02 345.37 283.98 342.08 279.5 339.32C279.28 339.19 279.04 339.03 278.8 339.01C278.57 338.99 278.26 339.07 278.11 339.22C277.82 339.52 277.59 339.9 277.39 340.27C276.26 342.39 275.15 344.51 274.02 346.63C264.3 364.95 254.78 383.38 244.94 401.64C240.26 410.31 235.74 419.08 231.15 427.8C228.99 431.9 227.04 436.09 225.35 440.41C222.94 446.58 221.1 452.9 220.27 459.49C219.3 467.12 220.02 474.54 222.73 481.75C223.06 482.63 223.42 483.51 223.85 484.35C226.13 488.91 229.08 492.99 232.63 496.65C235.16 499.26 238.12 501.27 241.24 503.12C241.5 502.95 241.77 502.86 241.89 502.67C242.22 502.17 242.48 501.63 242.76 501.1C257.14 473.8 271.52 446.5 285.9 419.2C286.26 418.52 286.59 417.82 286.92 417.12C287.44 416.04 287.91 414.93 288.46 413.87C290.81 409.39 292.99 404.83 294.82 400.1C297.24 393.84 299.12 387.44 299.89 380.75C300.38 376.47 300.41 372.2 299.76 367.93C298.7 360.98 295.93 354.8 291.42 349.41L291.41 349.42Z" fill="black"/>
<path d="M221.94 409.52C223.03 410.78 225.17 410.77 226.27 409.5C226.66 409.05 226.97 408.53 227.26 408.01C229.97 403.05 232.68 398.09 235.37 393.12C235.78 392.37 236.12 391.58 236.41 390.78C237.08 388.95 237.09 387.1 236.52 385.23C236.14 383.99 235.62 382.83 235.01 381.69C232.39 376.78 229.78 371.87 227.17 366.95C224.92 362.71 222.7 358.47 220.45 354.23C220.05 353.48 219.62 352.73 219.14 352.02C218.54 351.12 217.7 350.55 216.62 350.42C215.69 350.31 214.75 350.22 213.81 350.21C210.73 350.18 207.64 350.21 204.56 350.21C201.56 350.21 198.57 350.21 195.57 350.21C194.97 350.21 194.37 350.18 193.77 350.25C193.27 350.31 192.76 350.44 192.29 350.63C191.61 350.91 191.23 351.47 191.12 352.2C191.02 352.89 191.09 353.57 191.41 354.2C191.76 354.89 192.13 355.56 192.5 356.24C201.61 372.83 210.71 389.41 219.82 406C220.23 406.75 220.62 407.51 221.06 408.25C221.32 408.69 221.6 409.13 221.93 409.51L221.94 409.52Z" fill="black"/>
<path d="M388.938 416.34C382.338 413.21 373.788 409.84 363.288 406.24C360.418 405.09 357.248 403.72 353.758 402.12C347.878 399.43 343.948 397.45 341.968 396.17C337.008 393.06 334.528 389.37 334.528 385.12C334.528 382.43 335.628 379.77 337.818 377.15C340.018 374.53 343.028 372.3 346.848 370.46C351.948 368.48 357.398 367.49 363.208 367.49C368.168 367.49 373.128 368.2 378.088 369.62C382.338 370.75 387.368 372.95 393.178 376.21C393.888 376.64 394.588 376.85 395.308 376.85C396.158 376.85 396.798 376.64 397.218 376.21L397.428 376C397.428 376 397.368 376.02 397.348 376.03L399.768 372.6C403.878 366.79 406.278 363.11 406.998 361.55C407.138 361.27 406.998 360.77 406.568 360.06C406.148 359.35 405.578 358.72 404.868 358.15C401.038 354.89 396.928 352.13 392.538 349.86C387.848 347.65 382.338 345.99 376.038 344.85C368.888 343.25 362.208 342.96 356.168 343.46C355.968 343.46 355.758 343.46 355.558 343.48C355.018 343.54 354.488 343.61 353.958 343.68C353.528 343.73 353.098 343.79 352.668 343.84C352.598 343.84 352.538 343.86 352.468 343.87C342.148 345.31 334.018 348.9 329.078 351.6C328.018 352.17 326.998 352.77 326.018 353.4C324.548 354.33 323.758 354.94 323.758 354.94C320.188 357.54 317.188 360.55 314.758 363.97C311.908 367.99 309.998 372.42 309.028 377.25C308.168 380.3 307.738 383.42 307.738 386.62C307.738 393.28 309.718 399.73 313.688 405.96C316.948 410.63 321.938 414.57 328.668 417.75C335.268 420.88 343.818 424.25 354.318 427.85C357.188 429 360.358 430.37 363.848 431.97C369.728 434.66 373.658 436.64 375.638 437.92C380.598 441.03 383.078 444.72 383.078 448.97C383.078 451.66 381.978 454.32 379.788 456.94C377.588 459.56 374.578 461.79 370.758 463.63C365.658 465.61 360.208 466.6 354.398 466.6C349.438 466.6 344.478 465.89 339.518 464.47C335.268 463.34 330.238 461.14 324.428 457.88C323.718 457.45 323.018 457.24 322.298 457.24C321.448 457.24 320.808 457.45 320.388 457.88L320.178 458.09C320.178 458.09 320.238 458.07 320.258 458.06L317.838 461.49C313.728 467.3 311.328 470.98 310.608 472.54C310.468 472.82 310.608 473.32 311.038 474.03C311.458 474.74 312.028 475.37 312.738 475.94C316.568 479.2 320.678 481.96 325.068 484.23C329.888 486.49 335.558 488.19 342.068 489.33C348.588 490.46 355.248 490.89 362.048 490.61C371.398 489.62 379.688 487.03 386.908 482.85C394.138 478.67 399.768 473.46 403.798 467.23C407.838 460.99 409.858 454.41 409.858 447.47C409.858 440.53 407.878 434.36 403.908 428.13C400.648 423.46 395.658 419.52 388.928 416.34H388.938Z" fill="black"/>
<path d="M167.19 416.3C160.59 413.17 152.04 409.8 141.54 406.2C138.67 405.05 135.5 403.68 132.01 402.08C126.13 399.39 122.2 397.41 120.22 396.13C115.26 393.02 112.78 389.33 112.78 385.08C112.78 382.39 113.88 379.73 116.07 377.11C118.27 374.49 121.28 372.26 125.1 370.42C130.2 368.44 135.65 367.45 141.46 367.45C146.42 367.45 151.38 368.16 156.34 369.58C160.59 370.71 165.62 372.91 171.43 376.17C172.14 376.6 172.84 376.81 173.56 376.81C174.41 376.81 175.05 376.6 175.47 376.17L175.68 375.96C175.68 375.96 175.62 375.98 175.6 375.99L178.02 372.56C182.13 366.75 184.53 363.07 185.25 361.51C185.39 361.23 185.25 360.73 184.82 360.02C184.4 359.31 183.83 358.68 183.12 358.11C179.29 354.85 175.18 352.09 170.79 349.82C165.97 347.56 160.3 345.86 153.79 344.72C147.27 343.59 140.61 343.16 133.81 343.44C124.46 344.43 116.17 347.02 108.95 351.2C101.72 355.38 96.09 360.59 92.06 366.82C88.02 373.04 86 379.62 86 386.56C86 393.5 87.98 399.67 91.95 405.9C95.21 410.57 100.2 414.51 106.93 417.69C113.53 420.82 122.08 424.19 132.58 427.79C135.45 428.94 138.62 430.31 142.11 431.91C147.99 434.6 151.92 436.58 153.9 437.86C158.86 440.97 161.34 444.66 161.34 448.91C161.34 451.6 160.24 454.26 158.05 456.88C155.85 459.5 152.84 461.73 149.02 463.57C143.92 465.55 138.47 466.54 132.66 466.54C127.7 466.54 122.74 465.83 117.78 464.41C113.53 463.28 108.5 461.08 102.69 457.82C101.98 457.39 101.28 457.18 100.56 457.18C99.71 457.18 99.07 457.39 98.65 457.82L98.44 458.03C98.44 458.03 98.5 458.01 98.52 458L96.1 461.43C91.99 467.24 89.59 470.92 88.87 472.48C88.73 472.76 88.87 473.26 89.3 473.97C89.72 474.68 90.29 475.31 91 475.88C94.83 479.14 98.94 481.9 103.33 484.17C108.02 486.38 113.53 488.04 119.83 489.18C126.98 490.78 133.66 491.07 139.7 490.57C139.9 490.57 140.11 490.57 140.31 490.55C140.85 490.49 141.38 490.42 141.91 490.35C142.34 490.3 142.77 490.24 143.2 490.19C143.27 490.19 143.33 490.17 143.4 490.16C153.72 488.72 161.85 485.13 166.79 482.43C167.85 481.86 168.87 481.26 169.85 480.63C171.32 479.7 172.11 479.09 172.11 479.09C175.68 476.49 178.68 473.48 181.11 470.06C183.96 466.04 185.87 461.61 186.84 456.78C187.7 453.73 188.13 450.61 188.13 447.41C188.13 440.75 186.15 434.3 182.18 428.07C178.92 423.4 173.93 419.46 167.2 416.28L167.19 416.3Z" fill="black"/>
</g>
</svg>
